<svg width="14" height="10" viewBox="0 0 14 10" fill="none" xmlns="http://www.w3.org/2000/svg">
<path d="M6.46997 8.90723L0.407471 2.84473C0.261637 2.69889 0.188721 2.52181 0.188721 2.31348C0.188721 2.10514 0.261637 1.92806 0.407471 1.78223L1.09497 1.09473C1.2408 0.948893 1.41789 0.875977 1.62622 0.875977C1.83455 0.855143 2.01164 0.917643 2.15747 1.06348L7.00122 5.90723L11.845 1.06348C11.9908 0.917643 12.1679 0.855143 12.3762 0.875977C12.5846 0.875977 12.7616 0.948893 12.9075 1.09473L13.595 1.78223C13.7408 1.92806 13.8137 2.10514 13.8137 2.31348C13.8137 2.52181 13.7408 2.69889 13.595 2.84473L7.53247 8.90723C7.38664 9.07389 7.20955 9.15723 7.00122 9.15723C6.79289 9.15723 6.6158 9.07389 6.46997 8.90723Z" fill="black"/>
</svg>
