<svg width="63" height="59" viewBox="0 0 63 59" fill="none" xmlns="http://www.w3.org/2000/svg">
<circle cx="29.0002" cy="29.001" r="29" fill="#2E3357"/>
<circle cx="51.6267" cy="47.1662" r="10.3352" fill="#189825" stroke="white"/>
<path d="M47.4837 46.5289L50.6705 49.7158L56.4068 43.9795" stroke="white" stroke-width="1.91209" stroke-linecap="round"/>
<path d="M30.2029 21.7159C29.7134 21.7431 29.3531 21.7975 29.1219 21.879C28.9044 21.9606 28.7548 22.117 28.6732 22.3481C28.5916 22.5793 28.5508 22.9532 28.5508 23.4699V33.8309C28.5508 34.266 28.5848 34.5855 28.6528 34.7895C28.7208 34.9798 28.8364 35.109 28.9996 35.177C29.1763 35.245 29.4551 35.2789 29.8358 35.2789H30.8352C31.7598 35.2789 32.5552 34.8642 33.2214 34.0348C33.9013 33.2054 34.3432 32.104 34.5472 30.7307H35.0163C34.9755 31.193 34.9551 31.7913 34.9551 32.5255C34.9551 33.8309 35.0027 34.905 35.0978 35.748C34.1732 35.7073 32.6164 35.6869 30.4272 35.6869C27.4631 35.6869 25.2468 35.7073 23.7783 35.748V35.3401C24.227 35.3129 24.5533 35.2586 24.7573 35.177C24.9748 35.0954 25.1176 34.939 25.1856 34.7079C25.2672 34.4767 25.3079 34.1028 25.3079 33.5861V23.4699C25.3079 22.9532 25.2672 22.5793 25.1856 22.3481C25.1176 22.117 24.9748 21.9606 24.7573 21.879C24.5533 21.7975 24.227 21.7431 23.7783 21.7159V21.308C24.4717 21.3487 25.5459 21.3691 27.0008 21.3691C28.3877 21.3691 29.4551 21.3487 30.2029 21.308V21.7159Z" fill="white"/>
</svg>
