<svg width="29" height="27" viewBox="0 0 29 27" fill="none" xmlns="http://www.w3.org/2000/svg">
<path d="M12.2424 21.3306C10.8089 21.3306 9.64234 22.4971 9.64234 23.9306C9.64234 25.3641 10.8089 26.5306 12.2424 26.5306C13.6759 26.5306 14.8424 25.3641 14.8424 23.9306C14.8424 22.4971 13.6759 21.3306 12.2424 21.3306ZM12.2424 24.7973C11.764 24.7973 11.3757 24.409 11.3757 23.9306C11.3757 23.4522 11.764 23.0639 12.2424 23.0639C12.7208 23.0639 13.1091 23.4522 13.1091 23.9306C13.1091 24.409 12.7208 24.7973 12.2424 24.7973Z" fill="white"/>
<path d="M22.6426 21.3306C21.2091 21.3306 20.0426 22.4971 20.0426 23.9306C20.0426 25.3641 21.2091 26.5306 22.6426 26.5306C24.0761 26.5306 25.2426 25.3641 25.2426 23.9306C25.2426 22.4971 24.0761 21.3306 22.6426 21.3306ZM22.6426 24.7973C22.1642 24.7973 21.7759 24.409 21.7759 23.9306C21.7759 23.4522 22.1642 23.0639 22.6426 23.0639C23.121 23.0639 23.5093 23.4522 23.5093 23.9306C23.5093 24.409 23.121 24.7973 22.6426 24.7973Z" fill="white"/>
<path d="M28.5067 4.30899C28.3438 4.11138 28.0994 3.99698 27.8428 3.99698H7.47244L6.71843 1.17335C6.6179 0.793743 6.27469 0.530273 5.88122 0.530273H1.84251C1.3641 0.530273 0.97583 0.918545 0.97583 1.39695C0.97583 1.87536 1.3641 2.26363 1.84251 2.26363H5.21561L9.67207 18.9541C9.7726 19.3337 10.1158 19.5972 10.5093 19.5972H24.3761C24.8545 19.5972 25.2428 19.2089 25.2428 18.7305C25.2428 18.2521 24.8545 17.8638 24.3761 17.8638H11.1749L10.667 15.9606L26.1476 15.2638C26.5515 15.2447 26.8895 14.95 26.9605 14.5531L28.6939 5.01966C28.7407 4.76659 28.6714 4.50659 28.5067 4.30899ZM25.3815 13.5634L10.2077 14.2463L7.93525 5.73034H26.8045L25.3815 13.5634Z" fill="white"/>
<path d="M22.6427 7.46289C22.1643 7.46289 21.776 7.85116 21.776 8.32957V11.7963C21.776 12.2747 22.1643 12.663 22.6427 12.663C23.1211 12.663 23.5094 12.2747 23.5094 11.7963V8.32957C23.5094 7.85116 23.1211 7.46289 22.6427 7.46289Z" fill="white"/>
<path d="M17.4426 7.46289C16.9642 7.46289 16.5759 7.85116 16.5759 8.32957V11.7963C16.5759 12.2747 16.9642 12.663 17.4426 12.663C17.921 12.663 18.3093 12.2747 18.3093 11.7963V8.32957C18.3093 7.85116 17.921 7.46289 17.4426 7.46289Z" fill="white"/>
<path d="M12.2427 7.46289C11.7643 7.46289 11.3761 7.85116 11.3761 8.32957V11.7963C11.3761 12.2747 11.7643 12.663 12.2427 12.663C12.7211 12.663 13.1094 12.2747 13.1094 11.7963V8.32957C13.1094 7.85116 12.7211 7.46289 12.2427 7.46289Z" fill="white"/>
</svg>
