<svg width="23" height="16" viewBox="0 0 23 16" fill="none" xmlns="http://www.w3.org/2000/svg">
<path d="M22.3828 6.94775C22.4609 7.13005 22.5 7.32536 22.5 7.53369C22.5 7.74202 22.4609 7.93734 22.3828 8.11963C21.2891 10.203 19.7526 11.8826 17.7734 13.1587C15.7943 14.4087 13.6198 15.0337 11.25 15.0337C9.6875 15.0337 8.17708 14.7472 6.71875 14.1743C5.28646 13.5754 4.01042 12.7681 2.89062 11.7524C1.77083 10.7108 0.846354 9.49984 0.117188 8.11963C0.0390625 7.93734 0 7.74202 0 7.53369C0 7.32536 0.0390625 7.13005 0.117188 6.94775C1.21094 4.86442 2.7474 3.19775 4.72656 1.94775C6.70573 0.671712 8.88021 0.0336914 11.25 0.0336914C13.6198 0.0336914 15.7943 0.671712 17.7734 1.94775C19.7526 3.19775 21.2891 4.86442 22.3828 6.94775ZM11.25 13.1587C12.8125 13.1587 14.1406 12.6118 15.2344 11.5181C16.3281 10.4243 16.875 9.09619 16.875 7.53369C16.875 5.97119 16.3281 4.64307 15.2344 3.54932C14.1406 2.45557 12.8125 1.90869 11.25 1.90869C9.6875 1.90869 8.35938 2.45557 7.26562 3.54932C6.17188 4.64307 5.625 5.97119 5.625 7.53369C5.625 9.09619 6.17188 10.4243 7.26562 11.5181C8.35938 12.6118 9.6875 13.1587 11.25 13.1587ZM11.25 3.78369C12.2917 3.78369 13.1771 4.14827 13.9062 4.87744C14.6354 5.60661 15 6.49202 15 7.53369C15 8.54932 14.6354 9.43473 13.9062 10.1899C13.1771 10.9191 12.2917 11.2837 11.25 11.2837C10.2344 11.2837 9.34896 10.9191 8.59375 10.1899C7.86458 9.43473 7.5 8.54932 7.5 7.53369C7.5 7.19515 7.55208 6.86963 7.65625 6.55713C7.96875 6.7915 8.33333 6.90869 8.75 6.90869C9.27083 6.90869 9.71354 6.7264 10.0781 6.36182C10.4427 5.99723 10.625 5.55452 10.625 5.03369C10.625 4.61702 10.5078 4.25244 10.2734 3.93994C10.5859 3.83577 10.9115 3.78369 11.25 3.78369Z" fill="#734FDF"/>
</svg>
