<svg width="23" height="19" viewBox="0 0 23 19" fill="none" xmlns="http://www.w3.org/2000/svg">
<path d="M21.9375 12.6587C22.1016 12.6587 22.2305 12.7173 22.3242 12.8345C22.4414 12.9282 22.5 13.0571 22.5 13.2212V14.3462C22.5 14.5103 22.4414 14.6509 22.3242 14.7681C22.2305 14.8618 22.1016 14.9087 21.9375 14.9087H20.25C20.25 15.8462 19.9219 16.6431 19.2656 17.2993C18.6094 17.9556 17.8125 18.2837 16.875 18.2837C15.9375 18.2837 15.1406 17.9556 14.4844 17.2993C13.8281 16.6431 13.5 15.8462 13.5 14.9087H9C9 15.8462 8.67188 16.6431 8.01562 17.2993C7.35938 17.9556 6.5625 18.2837 5.625 18.2837C4.6875 18.2837 3.89062 17.9556 3.23438 17.2993C2.57812 16.6431 2.25 15.8462 2.25 14.9087H1.6875C1.21875 14.9087 0.820312 14.7446 0.492188 14.4165C0.164063 14.0884 0 13.6899 0 13.2212V1.97119C0 1.50244 0.164063 1.104 0.492188 0.775879C0.820312 0.447754 1.21875 0.283691 1.6875 0.283691H12.9375C13.4062 0.283691 13.8047 0.447754 14.1328 0.775879C14.4609 1.104 14.625 1.50244 14.625 1.97119V3.65869H16.1719C16.6406 3.65869 17.0391 3.82275 17.3672 4.15088L20.8828 7.6665C21.2109 7.99463 21.375 8.39307 21.375 8.86182V12.6587H21.9375ZM4.42969 16.104C4.75781 16.4321 5.15625 16.5962 5.625 16.5962C6.09375 16.5962 6.49219 16.4321 6.82031 16.104C7.14844 15.7759 7.3125 15.3774 7.3125 14.9087C7.3125 14.4399 7.14844 14.0415 6.82031 13.7134C6.49219 13.3853 6.09375 13.2212 5.625 13.2212C5.15625 13.2212 4.75781 13.3853 4.42969 13.7134C4.10156 14.0415 3.9375 14.4399 3.9375 14.9087C3.9375 15.3774 4.10156 15.7759 4.42969 16.104ZM15.6797 16.104C16.0078 16.4321 16.4062 16.5962 16.875 16.5962C17.3438 16.5962 17.7422 16.4321 18.0703 16.104C18.3984 15.7759 18.5625 15.3774 18.5625 14.9087C18.5625 14.4399 18.3984 14.0415 18.0703 13.7134C17.7422 13.3853 17.3438 13.2212 16.875 13.2212C16.4062 13.2212 16.0078 13.3853 15.6797 13.7134C15.3516 14.0415 15.1875 14.4399 15.1875 14.9087C15.1875 15.3774 15.3516 15.7759 15.6797 16.104ZM19.6875 9.28369V8.86182L16.1719 5.34619H14.625V9.28369H19.6875Z" fill="#734FDF"/>
</svg>
