<svg width="20" height="21" viewBox="0 0 20 21" fill="none" xmlns="http://www.w3.org/2000/svg">
<path d="M3.125 3.69824C5.02604 1.7972 7.31771 0.84668 10 0.84668C12.6823 0.84668 14.9609 1.7972 16.8359 3.69824C18.737 5.57324 19.6875 7.85189 19.6875 10.5342C19.6875 13.2165 18.737 15.5081 16.8359 17.4092C14.9609 19.2842 12.6823 20.2217 10 20.2217C7.31771 20.2217 5.02604 19.2842 3.125 17.4092C1.25 15.5081 0.3125 13.2165 0.3125 10.5342C0.3125 7.85189 1.25 5.57324 3.125 3.69824ZM13.5938 13.0732C13.6979 12.9691 13.75 12.8389 13.75 12.6826C13.75 12.4743 13.6719 12.305 13.5156 12.1748L11.25 10.5342V4.90918C11.25 4.72689 11.1849 4.58366 11.0547 4.47949C10.9505 4.34928 10.8073 4.28418 10.625 4.28418H9.375C9.19271 4.28418 9.03646 4.34928 8.90625 4.47949C8.80208 4.58366 8.75 4.72689 8.75 4.90918V11.0029C8.75 11.4977 8.94531 11.9014 9.33594 12.2139L11.9531 14.1279C12.0573 14.2321 12.1875 14.2842 12.3438 14.2842C12.5521 14.2842 12.7083 14.2061 12.8125 14.0498L13.5938 13.0732Z" fill="#734FDF"/>
</svg>
