<svg width="17" height="17" viewBox="0 0 17 17" fill="none" xmlns="http://www.w3.org/2000/svg">
<path d="M16.0012 5.37598C16.4179 5.41764 16.6887 5.63639 16.8137 6.03223C16.9387 6.42806 16.8554 6.77181 16.5637 7.06348L13.2512 10.2822L14.0325 14.8447C14.095 15.2406 13.9596 15.5531 13.6262 15.7822C13.2929 16.0322 12.9491 16.0635 12.595 15.876L8.50122 13.751L4.40747 15.876C4.0533 16.0843 3.70955 16.0635 3.37622 15.8135C3.04289 15.5635 2.90747 15.2406 2.96997 14.8447L3.75122 10.2822L0.438721 7.06348C0.147054 6.77181 0.0637207 6.42806 0.188721 6.03223C0.313721 5.63639 0.584554 5.41764 1.00122 5.37598L5.56372 4.68848L7.59497 0.563477C7.78247 0.188477 8.08455 0.000976562 8.50122 0.000976562C8.91789 0.000976562 9.21997 0.188477 9.40747 0.563477L11.4387 4.68848L16.0012 5.37598ZM11.6575 9.75098L14.7825 6.68848L10.4387 6.06348L8.50122 2.12598L6.56372 6.06348L2.21997 6.68848L5.34497 9.75098L4.62622 14.0947L8.50122 12.0322L12.3762 14.0947L11.6575 9.75098Z" fill="#F77952"/>
</svg>
