<svg width="24" height="24" viewBox="0 0 24 24" fill="none" xmlns="http://www.w3.org/2000/svg">
<path fill-rule="evenodd" clip-rule="evenodd" d="M11.0001 2C15.9707 2 20.0001 6.02944 20.0001 11C20.0001 13.1248 19.2638 15.0776 18.0324 16.6172L21.7072 20.2929C22.0978 20.6834 22.0978 21.3166 21.7072 21.7071C21.3467 22.0676 20.7795 22.0953 20.3872 21.7903L20.293 21.7071L16.6173 18.0323C15.0777 19.2637 13.1249 20 11.0001 20C6.02956 20 2.00012 15.9706 2.00012 11C2.00012 6.02944 6.02956 2 11.0001 2ZM11.0001 4C7.13413 4 4.00012 7.13401 4.00012 11C4.00012 14.866 7.13413 18 11.0001 18C14.8661 18 18.0001 14.866 18.0001 11C18.0001 7.13401 14.8661 4 11.0001 4Z" fill="#2E3357"/>
</svg>
