<svg width="24" height="24" viewBox="0 0 24 24" fill="none" xmlns="http://www.w3.org/2000/svg">
<path fill-rule="evenodd" clip-rule="evenodd" d="M7.00012 16H17.0001C19.7615 16 22.0001 18.2386 22.0001 21C22.0001 21.5523 21.5524 22 21.0001 22C20.4873 22 20.0646 21.614 20.0068 21.1166L19.995 20.8237C19.9072 19.3072 18.6929 18.093 17.1764 18.0051L17.0001 18H7.00012C5.34327 18 4.00012 19.3431 4.00012 21C4.00012 21.5523 3.55241 22 3.00012 22C2.44784 22 2.00012 21.5523 2.00012 21C2.00012 18.3112 4.12243 16.1182 6.78323 16.0046L7.00012 16H17.0001H7.00012ZM12.0001 2C15.3138 2 18.0001 4.68629 18.0001 8C18.0001 11.3137 15.3138 14 12.0001 14C8.68641 14 6.00012 11.3137 6.00012 8C6.00012 4.68629 8.68641 2 12.0001 2ZM12.0001 4C9.79098 4 8.00012 5.79086 8.00012 8C8.00012 10.2091 9.79098 12 12.0001 12C14.2093 12 16.0001 10.2091 16.0001 8C16.0001 5.79086 14.2093 4 12.0001 4Z" fill="#2E3357"/>
</svg>
