<svg width="24" height="24" viewBox="0 0 24 24" fill="none" xmlns="http://www.w3.org/2000/svg">
<path fill-rule="evenodd" clip-rule="evenodd" d="M8.50012 19C9.32855 19 10.0001 19.6716 10.0001 20.5C10.0001 21.3284 9.32855 22 8.50012 22C7.67169 22 7.00012 21.3284 7.00012 20.5C7.00012 19.6716 7.67169 19 8.50012 19ZM17.5001 19C18.3285 19 19.0001 19.6716 19.0001 20.5C19.0001 21.3284 18.3285 22 17.5001 22C16.6717 22 16.0001 21.3284 16.0001 20.5C16.0001 19.6716 16.6717 19 17.5001 19ZM3.00012 2H5.00012C5.45573 2 5.84843 2.30684 5.96518 2.73774L5.98849 2.84794L6.47343 6H21.0001C21.5999 6 22.055 6.52068 21.9952 7.10035L21.9763 7.21693L20.3243 14.6508C20.0326 15.9637 18.906 16.9143 17.5781 16.9945L17.3958 17H8.71596C7.29447 17 6.07709 16.0044 5.78277 14.6299L5.75084 14.4562L4.1422 4H3.00012C2.44784 4 2.00012 3.55228 2.00012 3C2.00012 2.48716 2.38616 2.06449 2.8835 2.00673L3.00012 2H5.00012H3.00012ZM19.7535 8H6.78112L7.72759 14.1521C7.79687 14.6024 8.15985 14.9438 8.60349 14.9937L8.71596 15H17.3958C17.8254 15 18.2022 14.7265 18.3404 14.3285L18.372 14.2169L19.7535 8Z" fill="#2E3357"/>
</svg>
