<svg width="21" height="21" viewBox="0 0 21 21" fill="none" xmlns="http://www.w3.org/2000/svg">
<path d="M20.5 5.5C20.5 5.83854 20.3698 6.13802 20.1094 6.39844C19.875 6.63281 19.5885 6.75 19.25 6.75V14.25C19.5885 14.25 19.875 14.3802 20.1094 14.6406C20.3698 14.875 20.5 15.1615 20.5 15.5V19.25C20.5 19.5885 20.3698 19.875 20.1094 20.1094C19.875 20.3698 19.5885 20.5 19.25 20.5H15.5C15.1615 20.5 14.862 20.3698 14.6016 20.1094C14.3672 19.875 14.25 19.5885 14.25 19.25H6.75C6.75 19.5885 6.61979 19.875 6.35938 20.1094C6.125 20.3698 5.83854 20.5 5.5 20.5H1.75C1.41146 20.5 1.11198 20.3698 0.851562 20.1094C0.617188 19.875 0.5 19.5885 0.5 19.25V15.5C0.5 15.1615 0.617188 14.875 0.851562 14.6406C1.11198 14.3802 1.41146 14.25 1.75 14.25V6.75C1.41146 6.75 1.11198 6.63281 0.851562 6.39844C0.617188 6.13802 0.5 5.83854 0.5 5.5V1.75C0.5 1.41146 0.617188 1.125 0.851562 0.890625C1.11198 0.630208 1.41146 0.5 1.75 0.5H5.5C5.83854 0.5 6.125 0.630208 6.35938 0.890625C6.61979 1.125 6.75 1.41146 6.75 1.75H14.25C14.25 1.41146 14.3672 1.125 14.6016 0.890625C14.862 0.630208 15.1615 0.5 15.5 0.5H19.25C19.5885 0.5 19.875 0.630208 20.1094 0.890625C20.3698 1.125 20.5 1.41146 20.5 1.75V5.5ZM16.75 3V4.25H18V3H16.75ZM3 3V4.25H4.25V3H3ZM4.25 18V16.75H3V18H4.25ZM18 18V16.75H16.75V18H18ZM16.75 14.25V6.75H15.5C15.1615 6.75 14.862 6.63281 14.6016 6.39844C14.3672 6.13802 14.25 5.83854 14.25 5.5V4.25H6.75V5.5C6.75 5.83854 6.61979 6.13802 6.35938 6.39844C6.125 6.63281 5.83854 6.75 5.5 6.75H4.25V14.25H5.5C5.83854 14.25 6.125 14.3802 6.35938 14.6406C6.61979 14.875 6.75 15.1615 6.75 15.5V16.75H14.25V15.5C14.25 15.1615 14.3672 14.875 14.6016 14.6406C14.862 14.3802 15.1615 14.25 15.5 14.25H16.75Z" fill="#2E3357"/>
</svg>
