<svg width="25" height="21" viewBox="0 0 25 21" fill="none" xmlns="http://www.w3.org/2000/svg">
<path d="M24.375 14.25C24.5573 14.25 24.7005 14.3151 24.8047 14.4453C24.9349 14.5495 25 14.6927 25 14.875V16.125C25 16.3073 24.9349 16.4635 24.8047 16.5938C24.7005 16.6979 24.5573 16.75 24.375 16.75H22.5C22.5 17.7917 22.1354 18.6771 21.4062 19.4062C20.6771 20.1354 19.7917 20.5 18.75 20.5C17.7083 20.5 16.8229 20.1354 16.0938 19.4062C15.3646 18.6771 15 17.7917 15 16.75H10C10 17.7917 9.63542 18.6771 8.90625 19.4062C8.17708 20.1354 7.29167 20.5 6.25 20.5C5.20833 20.5 4.32292 20.1354 3.59375 19.4062C2.86458 18.6771 2.5 17.7917 2.5 16.75H1.875C1.35417 16.75 0.911458 16.5677 0.546875 16.2031C0.182292 15.8385 0 15.3958 0 14.875V2.375C0 1.85417 0.182292 1.41146 0.546875 1.04688C0.911458 0.682292 1.35417 0.5 1.875 0.5H14.375C14.8958 0.5 15.3385 0.682292 15.7031 1.04688C16.0677 1.41146 16.25 1.85417 16.25 2.375V4.25H17.9688C18.4896 4.25 18.9323 4.43229 19.2969 4.79688L23.2031 8.70312C23.5677 9.06771 23.75 9.51042 23.75 10.0312V14.25H24.375ZM4.92188 18.0781C5.28646 18.4427 5.72917 18.625 6.25 18.625C6.77083 18.625 7.21354 18.4427 7.57812 18.0781C7.94271 17.7135 8.125 17.2708 8.125 16.75C8.125 16.2292 7.94271 15.7865 7.57812 15.4219C7.21354 15.0573 6.77083 14.875 6.25 14.875C5.72917 14.875 5.28646 15.0573 4.92188 15.4219C4.55729 15.7865 4.375 16.2292 4.375 16.75C4.375 17.2708 4.55729 17.7135 4.92188 18.0781ZM17.4219 18.0781C17.7865 18.4427 18.2292 18.625 18.75 18.625C19.2708 18.625 19.7135 18.4427 20.0781 18.0781C20.4427 17.7135 20.625 17.2708 20.625 16.75C20.625 16.2292 20.4427 15.7865 20.0781 15.4219C19.7135 15.0573 19.2708 14.875 18.75 14.875C18.2292 14.875 17.7865 15.0573 17.4219 15.4219C17.0573 15.7865 16.875 16.2292 16.875 16.75C16.875 17.2708 17.0573 17.7135 17.4219 18.0781ZM21.875 10.5V10.0312L17.9688 6.125H16.25V10.5H21.875Z" fill="#2E3357"/>
</svg>
