<svg width="21" height="21" viewBox="0 0 21 21" fill="none" xmlns="http://www.w3.org/2000/svg">
<path d="M9.36719 1.20312C9.60156 0.734375 9.97917 0.5 10.5 0.5C11.0208 0.5 11.3984 0.734375 11.6328 1.20312L14.1719 6.35938L19.875 7.21875C20.3958 7.27083 20.7344 7.54427 20.8906 8.03906C21.0469 8.53385 20.9427 8.96354 20.5781 9.32812L16.4375 13.3516L17.4141 19.0547C17.4922 19.5495 17.3229 19.9401 16.9062 20.2266C16.4896 20.5391 16.0599 20.5781 15.6172 20.3438L10.5 17.6875L5.38281 20.3438C4.9401 20.6042 4.51042 20.5781 4.09375 20.2656C3.67708 19.9531 3.50781 19.5495 3.58594 19.0547L4.5625 13.3516L0.421875 9.32812C0.0572917 8.96354 -0.046875 8.53385 0.109375 8.03906C0.265625 7.54427 0.604167 7.27083 1.125 7.21875L6.82812 6.35938L9.36719 1.20312Z" fill="#2E3357"/>
</svg>
