<svg width="26" height="21" viewBox="0 0 26 21" fill="none" xmlns="http://www.w3.org/2000/svg">
<path d="M12.2656 9.05469C11.3021 10.0182 10.1302 10.5 8.75 10.5C7.36979 10.5 6.1849 10.0182 5.19531 9.05469C4.23177 8.0651 3.75 6.88021 3.75 5.5C3.75 4.11979 4.23177 2.94792 5.19531 1.98438C6.1849 0.994792 7.36979 0.5 8.75 0.5C10.1302 0.5 11.3021 0.994792 12.2656 1.98438C13.2552 2.94792 13.75 4.11979 13.75 5.5C13.75 6.88021 13.2552 8.0651 12.2656 9.05469ZM12.2656 11.75C13.6979 11.75 14.9219 12.2708 15.9375 13.3125C16.9792 14.3281 17.5 15.5521 17.5 16.9844V18.625C17.5 19.1458 17.3177 19.5885 16.9531 19.9531C16.5885 20.3177 16.1458 20.5 15.625 20.5H1.875C1.35417 20.5 0.911458 20.3177 0.546875 19.9531C0.182292 19.5885 0 19.1458 0 18.625V16.9844C0 15.5521 0.507812 14.3281 1.52344 13.3125C2.5651 12.2708 3.80208 11.75 5.23438 11.75H5.89844C6.8099 12.1667 7.76042 12.375 8.75 12.375C9.73958 12.375 10.6901 12.1667 11.6016 11.75H12.2656ZM24.8828 6.75C25.0911 6.95833 25.0781 7.16667 24.8438 7.375L19.3359 12.8828C19.1276 13.0911 18.9062 13.0781 18.6719 12.8438L15.5078 9.64062C15.2734 9.43229 15.2734 9.21094 15.5078 8.97656L16.6016 7.92188C16.8099 7.6875 17.0312 7.6875 17.2656 7.92188L19.0234 9.67969L23.125 5.61719C23.3594 5.40885 23.5807 5.42188 23.7891 5.65625L24.8828 6.75Z" fill="#2E3357"/>
</svg>
