<svg width="17" height="16" viewBox="0 0 17 16" fill="none" xmlns="http://www.w3.org/2000/svg">
<path d="M3 2.53125C4.52083 1.01042 6.35417 0.25 8.5 0.25C10.6458 0.25 12.4688 1.01042 13.9688 2.53125C15.4896 4.03125 16.25 5.85417 16.25 8C16.25 10.1458 15.4896 11.9792 13.9688 13.5C12.4688 15 10.6458 15.75 8.5 15.75C6.35417 15.75 4.52083 15 3 13.5C1.5 11.9792 0.75 10.1458 0.75 8C0.75 5.85417 1.5 4.03125 3 2.53125ZM9.40625 4.09375C9.15625 3.82292 8.85417 3.6875 8.5 3.6875C8.14583 3.6875 7.83333 3.82292 7.5625 4.09375C7.3125 4.34375 7.1875 4.64583 7.1875 5C7.1875 5.35417 7.3125 5.66667 7.5625 5.9375C7.83333 6.1875 8.14583 6.3125 8.5 6.3125C8.85417 6.3125 9.15625 6.1875 9.40625 5.9375C9.67708 5.66667 9.8125 5.35417 9.8125 5C9.8125 4.64583 9.67708 4.34375 9.40625 4.09375ZM10.25 11.625V10.875C10.25 10.625 10.125 10.5 9.875 10.5H9.5V7.375C9.5 7.125 9.375 7 9.125 7H7.125C6.875 7 6.75 7.125 6.75 7.375V8.125C6.75 8.375 6.875 8.5 7.125 8.5H7.5V10.5H7.125C6.875 10.5 6.75 10.625 6.75 10.875V11.625C6.75 11.875 6.875 12 7.125 12H9.875C10.125 12 10.25 11.875 10.25 11.625Z" fill="#2E3357"/>
</svg>
