<svg width="401" height="135" viewBox="0 0 401 135" fill="none" xmlns="http://www.w3.org/2000/svg">
<g opacity="0.6">
<path d="M5.96382 119.087C20.9282 121.898 76.7532 116.933 85.0126 117.386C85.7718 117.02 98.7337 115.833 96.1729 115.812C91.9294 116.207 84.002 115.361 82.9107 117.014C80.8743 117.162 83.8437 115.202 81.2513 116.772C81.6355 116.929 79.8305 118.05 80.125 116.655C77.4243 116.534 78.4735 115.486 80.9747 115.473C119.985 114.755 159.021 108.783 185.755 109.128C190.856 108.167 201.803 109.014 199.939 105.144C200.91 101.729 201.003 102.982 198.958 100.819C200.463 99.1433 197.118 101.068 198.791 99.6567C198.429 98.761 194.632 100.455 195.878 96.8939C189.726 96.0898 188.935 97.1615 183.322 96.1389C175.663 96.387 168.724 98.4533 172.818 95.3428C167.231 96.3885 161.092 96.8446 154.91 97.3699C136.691 99.3936 147.029 97.72 154.544 96.0462C157.034 95.2191 164.71 94.4873 166.747 93.5203C155.985 95.1282 166.473 91.9438 168.94 91.6032C183.665 90.0688 204.735 84.2791 223.548 85.0711C224.102 84.4861 221.966 84.8527 220.221 84.6171C221.583 84.4285 221.861 83.8514 218.414 83.7444C215.188 83.0534 220.722 83.6728 220.894 83.4679C219.806 81.3289 225.311 79.8467 225.622 78.6122C224.021 79.0793 221.541 76.3525 218.133 76.8236C218.738 76.1548 219.685 76.1724 221.159 75.9103C220.69 75.4349 219.923 75.0201 222.271 75.2646C211.575 73.1688 220.182 74.6254 223.053 71.6439C222.385 70.5431 234.097 70.6038 229.35 69.8041C229.582 68.0068 225.45 68.2529 229.907 67.3034C231.423 67.0141 226.649 66.9987 229.331 66.7452C231.935 66.7936 229.625 66.0819 231.741 66.262C228.097 64.5207 231.992 65.7282 229.879 64.2921C231.013 63.9823 232.482 63.7982 228.956 64.0231C227.994 63.167 226.568 62.8932 222.628 63.222C222.843 62.9688 223.438 62.8565 226.076 62.3349C228.151 61.6356 224.842 62.3818 225.717 61.2496C223.703 62.1249 218.223 60.988 218.303 60.5658C221.18 60.5096 220.995 57.9755 218.729 59.7188C216.636 59.2119 215.036 58.9291 212.554 60.0399C211.669 59.2163 211.57 58.9383 209.195 59.3275C208.528 60.3204 215.348 60.6105 208.951 60.5637C207.631 58.4447 201.536 59.6569 196.937 60.5303C194.35 62.194 196.529 58.9325 192.571 61.3173C190.433 60.4007 191.993 61.5905 189.762 61.5378C187.752 61.1331 183.573 61.3368 179.1 62.9268C178.709 61.5621 172.832 63.4582 168.643 63.7124C168.197 61.9312 165.865 63.0826 160.463 63.8278C156.281 63.2601 152.639 64.7362 147.197 65.9033C144.501 67.0867 138.934 64.2689 136.338 67.1973C133.79 65.8544 123.097 68.425 110.339 69.599C113.743 69.7482 90.1943 69.5338 97.2981 70.9432C99.5289 70.4355 103.576 71.4818 101.639 71.5008C96.6413 71.2982 99.9602 71.7818 94.5971 72.2075C94.0606 71.9684 93.3596 71.5792 95.5131 71.8584C95.9557 71.0939 95.612 71.4104 92.2841 71.381C90.8019 71.025 90.6787 69.3868 87.0555 70.5207C91.6087 70.6232 89.4203 71.0073 85.6595 71.1165C87.5216 71.4477 79.3002 73.1267 84.0127 71.6678C82.1876 72.267 81.9331 70.3244 77.486 72.9193C71.8109 72.9618 67.1048 72.9481 60.1162 74.2669C53.7065 75.0536 64.4133 74.3998 65.0778 74.6659C66.2856 74.6655 52.4201 76.3469 60.3088 75.4762C60.8998 75.7432 64.3476 74.6965 64.4172 75.8882C65.5842 75.7433 67.4292 75.9137 64.6784 76.1895C57.5207 75.3939 51.4374 77.9806 49.0685 76.4966C46.7424 77.808 48.1343 78.0011 42.9125 77.4485C45.7157 78.4506 37.4282 77.2633 37.5359 77.4997C33.5014 77.1621 31.7802 76.7533 24.3603 76.6445C19.862 77.0519 14.9327 78.4626 9.76021 78.7448C8.29101 79.5826 8.35287 81.1292 4.14704 81.7135C15.8887 80.8696 0.234254 82.8725 7.58707 83.784C11.8736 83.4192 7.72014 84.6307 12.5343 86.0135C18.4082 87.009 19.8585 85.7934 13.8547 88.0482C12.2144 90.1302 21.8159 88.0019 12.7221 90.8644C12.1976 91.4274 13.2563 91.4618 13.9178 92.5018C13.6084 92.3237 11.0251 92.1382 12.48 92.7242C13.9454 93.4857 7.0627 92.387 10.8234 93.4164C12.3489 94.2062 15.442 92.7403 16.6023 93.586C10.7493 94.4837 17.4576 94.9227 20.2294 95.4014C24.2806 96.3938 20.5481 96.0953 25.4053 97.7522C27.8003 98.3735 30.1989 98.2931 25.9031 97.5729C24.763 96.5177 27.7512 98.2676 30.0514 97.816C30.5957 97.0495 37.6776 96.4993 42.0233 97.1507C41.1803 97.7488 36.9612 97.6303 36.659 97.5943C38.9656 98.1883 39.3715 98.1954 42.7942 98.4845C39.7086 98.5412 44.616 97.6893 44.5446 97.9855C43.1634 98.8565 45.9976 99.7373 48.5945 98.7519C51.8083 99.5295 46.7898 98.8133 47.5497 99.4927C48.3506 100.557 48.2731 98.7477 50.8234 100.302C45.8603 101.957 52.7295 100.244 52.2421 101.491C52.2469 101.422 46.7029 101.283 48.9594 101.705C50.2912 103.25 45.1783 100.238 46.724 102.116C43.9656 103.964 49.315 102.272 45.1386 104.871C44.3473 105.942 46.5397 106.393 44.38 108.153C59.2307 108.862 10.3668 114.935 5.96382 119.087ZM87.8518 116.246C87.9676 116.203 87.8518 116.246 88.5921 116.313C88.8187 116.464 88.5091 116.614 87.8518 116.246ZM199.593 104.267C199.926 104.185 199.768 104.114 199.593 104.267C199.444 104.392 198.504 103.776 199.593 104.267ZM196.57 99.5235C196.24 99.8168 196.377 99.7029 196.57 99.5235C197.908 99.2821 199.275 100.001 196.57 99.5235ZM193.66 99.6587C193.737 99.7725 194.071 99.7595 193.66 99.6587C193.471 99.5311 195.693 99.4746 193.66 99.6587ZM191.077 98.4159C191.042 98.2628 191.077 98.4159 191.289 98.2107C191.385 98.127 191.482 98.7633 191.077 98.4159ZM190.086 97.4885C189.648 97.5364 189.651 97.5757 190.086 97.4885C190.535 97.4444 190.72 97.9512 190.086 97.4885ZM189.985 97.9605C189.387 97.8797 189.404 98.0466 189.985 97.9605C190.581 98.0832 190.137 98.6157 189.985 97.9605ZM178.325 96.8249C178.467 96.9674 178.965 96.9448 178.325 96.8249C177.726 96.7562 181.314 96.4542 178.325 96.8249ZM169.197 96.1908C168.603 96.3754 168.828 96.3067 169.197 96.1908C170.094 96.1959 168.923 97.0543 169.197 96.1908ZM216.098 59.6445C217.535 59.434 216.73 60.8602 216.058 59.8977C216.106 59.9372 215.088 59.3242 216.098 59.6445ZM214.925 60.2046C215.191 60.5153 215.103 60.4007 214.925 60.2046C215.346 59.7429 216.739 60.897 214.925 60.2046ZM220.038 71.7476C219.767 71.6656 221.81 72.1509 220.619 72.0772C220.283 72.0298 219.898 71.9759 220.038 71.7476ZM212.678 61.5155C212.243 61.5967 212.254 61.6788 212.678 61.5155C213.113 61.4192 213.382 62.0253 212.678 61.5155ZM208.925 61.1824C209.232 61.2279 209.584 61.2794 209.417 61.4997C209.142 61.547 206.94 61.2373 208.925 61.1824ZM214.398 74.8501C214.111 75.0922 214.23 74.9981 214.398 74.8501C214.794 74.6818 215.733 75.1326 214.398 74.8501ZM206.353 60.0277C205.915 60.0726 205.918 60.109 206.353 60.0277C206.807 59.987 206.983 60.4661 206.353 60.0277ZM216.087 84.7455C216.418 84.6932 216.669 84.6534 216.276 84.8701C215.81 85.16 214.599 85.1181 216.087 84.7455ZM203.49 61.9917C203.45 61.8383 203.49 61.9917 203.701 61.7955C203.786 61.711 203.895 62.3391 203.49 61.9917ZM198.829 61.6617C198.709 61.7559 198.723 61.8803 198.829 61.6617C199.035 61.4472 199.332 62.2902 198.829 61.6617ZM192.912 62.5008C192.486 62.6218 192.494 62.7489 192.912 62.5008C193.289 62.3523 193.72 63.054 192.912 62.5008ZM190.519 62.9912C189.764 63.2098 190.035 63.1323 190.519 62.9912C193.628 62.3487 188.701 63.7264 190.519 62.9912ZM186.723 62.4714C186.941 62.4986 187.547 62.4654 186.746 62.7019C186.581 62.7266 185.891 62.6546 186.723 62.4714ZM172.008 91.0813C171.941 91.2333 172.19 91.2205 172.008 91.0813C171.853 90.9531 173.955 90.834 172.008 91.0813ZM157.79 63.9524C158.057 63.3654 160.975 64.5774 158.278 64.408C157.865 64.3372 157.542 64.2726 157.79 63.9524ZM166.088 91.6369C165.653 91.7182 165.659 91.7999 166.088 91.6369C166.524 91.5407 166.786 92.1464 166.088 91.6369ZM150.149 65.6536C150.795 65.6985 151.915 65.7342 153.682 65.6551C153.082 66.246 146.916 65.7212 150.149 65.6536ZM140.82 67.5177C140.86 67.4271 144.923 66.4533 143.083 67.437C142.431 67.8073 138.238 68.1155 140.82 67.5177ZM134.488 68.2285C134.307 68.1527 139.376 67.3391 137.605 67.8034C137.326 68.0009 130.81 69.3405 134.488 68.2285ZM131.761 67.6052C131.813 67.7504 132.192 67.7346 131.761 67.6052C131.551 67.4491 133.971 67.3883 131.761 67.6052ZM127.177 68.1031C126.742 68.1843 126.754 68.2664 127.177 68.1031C127.613 68.0068 127.881 68.6129 127.177 68.1031ZM124.237 68.5766C124.368 68.6519 124.832 68.627 124.237 68.5766C123.826 68.5751 125.725 68.448 124.237 68.5766ZM112.493 70.5229C112.471 70.431 114.318 70.002 115.779 70.2572C115.764 70.3857 112.536 70.8723 112.493 70.5229ZM112.117 71.3824C112.096 71.1882 112.117 71.3824 112.311 71.194C112.379 71.0964 112.447 71.9084 112.117 71.3824ZM110.872 70.6964C110.803 70.8724 111.06 70.9113 110.872 70.6964C110.79 70.4979 112.77 70.759 110.872 70.6964ZM106.678 71.1069C107.7 70.5423 113.181 71.0075 109.121 71.364C109.022 71.4053 105.314 71.4098 106.678 71.1069ZM102.59 70.8138C102.557 70.8868 103.145 70.8614 102.59 70.8138C102.092 70.8244 104.524 70.6741 102.59 70.8138ZM99.9009 74.0972C99.463 74.1451 99.4659 74.1845 99.9009 74.0972C100.344 74.0527 100.535 74.56 99.9009 74.0972ZM68.411 75.512C68.3428 74.8686 72.5768 75.7472 68.6596 75.9148C68.3394 75.8926 68.0925 75.8724 68.411 75.512ZM78.6211 76.6461C78.1295 76.6542 70.8593 78.0468 69.8837 77.5482C72.0947 77.1626 76.8837 75.4952 78.6211 76.6461ZM93.2076 73.1984C92.5793 73.224 93.2076 73.1984 92.6355 73.1466C92.1044 73.1548 94.6043 72.9972 93.2076 73.1984ZM78.4096 73.354C78.5885 73.3785 79.7294 73.6114 78.4319 73.6026C78.2527 73.5811 77.1119 73.3482 78.4096 73.354ZM78.7994 73.9173C81.1044 73.8847 79.4564 73.234 88.467 72.381C85.7065 71.415 96.6609 71.0977 90.8118 72.2637C91.4648 72.288 93.9042 72.1081 93.1956 72.3962C85.9427 73.4587 85.9177 73.6558 79.4799 74.3592C79.1542 75.1469 71.4603 73.2959 74.3052 75.4847C69.4575 73.9339 75.299 74.2585 78.7994 73.9173ZM67.5107 74.4162C67.5861 74.063 77.552 73.0263 76.229 73.6273C72.7515 73.72 67.4786 75.7725 67.5107 74.4162ZM71.8371 113.443C71.7867 113.925 67.7811 113.333 72.9651 112.642C72.8736 112.823 72.1492 112.525 71.8371 113.443ZM75.486 117.625C76.0541 117.571 75.8386 117.586 75.486 117.625C74.5253 117.724 74.059 117.044 75.486 117.625ZM62.8146 76.3703C63.0476 76.4286 64.0196 76.5745 62.9099 76.7052C62.243 76.7191 61.0206 76.5227 62.8146 76.3703ZM62.593 77.123C61.2029 77.8789 66.4743 77.474 66.3723 77.8856C59.6339 78.1223 54.8047 77.6061 62.593 77.123ZM57.5223 76.6713C57.7611 76.6457 57.4751 76.7011 59.7064 76.8351C59.3519 76.9008 58.8953 77.1372 57.5223 76.6713ZM54.0489 77.5174C54.2238 77.7615 54.4019 77.7166 54.0489 77.5174C53.8172 77.2784 55.262 77.0354 54.0489 77.5174ZM54.6114 78.3578C54.1619 77.7602 60.304 77.4941 57.8506 78.4443C56.3261 78.6155 53.9479 78.8087 54.6114 78.3578ZM68.9877 115.706C68.7884 115.569 68.5337 115.579 68.9877 115.706C69.2822 115.853 67.3513 115.945 68.9877 115.706ZM66.5238 112.583C66.5246 112.571 67.5286 112.011 67.1356 112.632C66.9488 112.64 66.0434 113.243 66.5238 112.583ZM54.415 99.2979C54.7004 99.3328 55.3197 99.5174 54.219 99.4379C53.8402 99.3664 53.5681 99.3023 54.415 99.2979ZM54.2903 100.443C54.5431 100.379 54.2903 100.443 54.4725 100.582C54.5563 100.757 53.3273 100.819 54.2903 100.443ZM9.27204 82.5215C9.70663 82.4402 9.70102 82.3585 9.27204 82.5215C8.83642 82.6177 8.57372 82.0121 9.27204 82.5215ZM18.5916 87.5369C18.1604 87.6515 18.1741 87.779 18.5916 87.5369C18.9861 87.3836 19.3494 88.3276 18.5916 87.5369ZM15.8661 88.5043C16.8882 88.4156 16.8805 88.3639 15.8661 88.5043C13.8364 88.556 15.0306 87.0455 15.8661 88.5043ZM16.3566 89.4872C16.6004 89.5524 18.459 88.9585 18.5592 89.5469C18.3059 89.5383 17.2249 89.5807 16.3566 89.4872ZM20.8754 94.877C20.6732 94.7816 20.1669 94.7585 20.8754 94.877C20.7497 94.9797 17.8417 94.7566 20.8754 94.877ZM20.1737 90.0296C19.3101 90.7618 18.3458 89.5321 19.8954 89.5674C20.2668 89.6655 20.5544 89.7488 20.1737 90.0296ZM45.9232 98.5332C45.6815 98.5194 44.6053 98.4115 45.8926 98.2419C46.1344 98.2557 47.2161 98.3639 45.9232 98.5332ZM49.4701 101.096C49.3437 101.048 48.5779 100.941 49.4466 100.866C49.5546 100.855 50.3572 101.082 49.4701 101.096ZM51.1079 99.7007C50.9814 99.6528 50.215 99.5543 51.089 99.4855C51.1971 99.472 51.9887 99.6956 51.1079 99.7007ZM52.3349 98.6925C51.9268 98.7997 51.9349 98.9268 52.3349 98.6925C52.9884 98.5481 53.1246 99.2685 52.3349 98.6925ZM50.8552 101.469C50.4314 101.639 50.4372 101.718 50.8552 101.469C51.2396 101.297 51.6278 102.047 50.8552 101.469ZM47.6953 104.708C48.3785 104.623 49.0533 104.577 48.8033 104.927C48.6946 105.19 45.1554 105.36 47.6953 104.708ZM47.1335 105.889C47.9476 105.626 48.0911 106.242 47.7702 107.286C47.241 106.942 45.9968 106.654 47.1335 105.889ZM46.5871 107.661C46.6886 107.419 46.6482 107.512 46.5871 107.661C46.3189 107.866 45.6691 107.065 46.5871 107.661Z" fill="#2E3357"/>
<path d="M3.59238 81.0053C3.10495 80.9534 3.30695 80.9704 3.59238 81.0053C4.43556 80.9736 4.63215 80.5812 3.59238 81.0053Z" fill="#2E3357"/>
<path d="M4.61652 79.8257C5.0958 79.7507 5.45714 79.505 4.04364 79.7859C3.84623 79.8655 3.84393 79.8984 4.61652 79.8257Z" fill="#2E3357"/>
<path d="M7.00944 79.5148C7.33179 80.6427 9.00951 78.6717 7.61527 78.9996C8.20461 79.0465 5.53974 79.3042 7.00944 79.5148Z" fill="#2E3357"/>
<path d="M10.3845 89.5098C10.1894 89.6377 9.95495 89.6003 10.3845 89.5098C10.6683 89.4062 8.70197 89.2756 10.3845 89.5098Z" fill="#2E3357"/>
<path d="M11.7101 89.26C9.82975 89.355 12.9155 89.9454 15.0359 89.7257C13.3756 89.6585 13.5377 89.4381 11.7101 89.26Z" fill="#2E3357"/>
<path d="M11.8866 91.1155C11.2831 90.8657 14.703 89.9767 12.2607 90.3613C11.8558 90.5018 10.7844 90.813 11.8866 91.1155Z" fill="#2E3357"/>
<path d="M11.5001 78.3223C11.0705 78.2504 11.0622 78.1264 11.5001 78.3223C12.2286 78.397 12.0531 77.6748 11.5001 78.3223Z" fill="#2E3357"/>
<path d="M11.5027 73.3221C11.9623 73.2066 12.6392 74.0238 15.6692 73.3047C15.3286 72.8448 8.47504 73.2772 11.5027 73.3221Z" fill="#2E3357"/>
<path d="M13.1643 74.1903C12.9981 74.5518 13.0584 74.4146 13.1643 74.1903C13.3486 73.8932 11.2998 75.1949 13.1643 74.1903Z" fill="#2E3357"/>
<path d="M14.7938 86.9644C14.8458 87.1094 14.5968 87.1192 14.7938 86.9644C14.8162 86.8035 13.3436 86.8787 14.7938 86.9644Z" fill="#2E3357"/>
<path d="M13.7657 75.4325C12.9883 75.4116 12.9815 75.3479 13.7657 75.4325C15.6906 75.3466 15.2745 74.9176 13.7657 75.4325Z" fill="#2E3357"/>
<path d="M15.3262 75.887C17.129 75.9341 13.9074 76.8113 17.5477 76.4054C19.5902 76.2525 17.3746 75.8097 15.3262 75.887Z" fill="#2E3357"/>
<path d="M16.9399 75.1615C16.4887 75.076 16.4804 74.9521 16.9399 75.1615C17.4061 75.2752 17.4976 74.5264 16.9399 75.1615Z" fill="#2E3357"/>
<path d="M19.7478 74.1536C19.3015 74.3212 19.0469 74.3306 19.7478 74.1536C20.1842 74.0455 18.7281 73.8812 19.7478 74.1536Z" fill="#2E3357"/>
<path d="M19.9386 75.7044C19.7451 75.8895 19.5995 76.0359 20.3621 75.9444C20.907 75.9823 21.1793 75.231 19.9386 75.7044Z" fill="#2E3357"/>
<path d="M20.5838 76.0916C20.7698 76.0143 21.0188 76.0045 20.5838 76.0916C20.345 76.1984 22.2616 76.3135 20.5838 76.0916Z" fill="#2E3357"/>
<path d="M21.6234 75.0937C21.2228 75.1742 21.3663 75.139 21.6234 75.0937C22.6538 74.8043 21.4052 74.3355 21.6234 75.0937Z" fill="#2E3357"/>
<path d="M28.6854 75.8916C29.1629 75.5998 23.6987 74.9614 27.1404 75.7902C27.6128 75.8953 28.0875 76.0486 28.6854 75.8916Z" fill="#2E3357"/>
<path d="M29.5574 98.3457C29.1227 98.5111 28.8793 98.5212 29.5574 98.3457C30.118 98.2373 27.7668 98.125 29.5574 98.3457Z" fill="#2E3357"/>
<path d="M30.1101 74.0606C30.3799 74.0763 31.8418 73.9131 30.0901 73.8606C29.828 73.8966 28.3568 73.9508 30.1101 74.0606Z" fill="#2E3357"/>
<path d="M34.8332 98.1148C34.7879 98.2801 34.4619 98.3417 34.8332 98.1148C34.9564 97.8857 33.4198 98.3144 34.8332 98.1148Z" fill="#2E3357"/>
<path d="M31.9569 75.1057C31.5117 75.0958 31.5084 75.0625 31.9569 75.1057C32.4599 75.0955 32.3848 74.633 31.9569 75.1057Z" fill="#2E3357"/>
<path d="M32.103 74.221C32.3032 74.1837 33.428 74.1596 32.0827 74.027C31.8811 74.004 30.765 74.146 32.103 74.221Z" fill="#2E3357"/>
<path d="M35.6789 75.3074C35.6727 75.4785 35.0819 75.4525 35.6789 75.3074C35.8583 75.1635 33.2131 75.2986 35.6789 75.3074Z" fill="#2E3357"/>
<path d="M36.4202 76.0026C35.942 75.9002 36.3813 75.8315 36.4202 76.0026C36.7406 76.1031 38.2332 75.8218 36.4202 76.0026Z" fill="#2E3357"/>
<path d="M37.1532 73.7584C37.3714 73.7043 38.8969 73.5185 37.1332 73.5584C36.896 73.56 35.3968 73.8559 37.1532 73.7584Z" fill="#2E3357"/>
<path d="M37.2949 76.9967C37.599 76.7622 37.6897 76.7564 37.2949 76.9967C37.0047 77.1932 38.2008 77.3605 37.2949 76.9967Z" fill="#2E3357"/>
<path d="M39.101 75.6744C38.7613 75.69 40.604 74.9184 38.0471 75.4899C37.7975 75.5899 38.3371 76.1087 39.101 75.6744Z" fill="#2E3357"/>
<path d="M38.3524 77.1126C38.5351 77.002 38.782 76.9409 38.3524 77.1126C38.1615 77.2618 39.9923 76.9859 38.3524 77.1126Z" fill="#2E3357"/>
<path d="M39.541 73.8979C41.3134 73.8134 43.0762 73.0544 39.7753 73.6945C39.1836 73.6805 37.2875 73.8406 39.541 73.8979Z" fill="#2E3357"/>
<path d="M42.6377 105.698C43.0837 105.534 43.3329 105.521 42.6377 105.698C42.1957 105.806 43.6516 105.97 42.6377 105.698Z" fill="#2E3357"/>
<path d="M41.0022 74.6471C42.0053 74.3437 40.3926 74.4032 39.7253 74.9104C39.9071 74.8929 40.1008 74.8672 41.0022 74.6471Z" fill="#2E3357"/>
<path d="M43.1976 108.924C42.8762 108.919 44.3619 109.793 44.4501 109.417C43.9696 109.104 43.2627 108.393 43.1976 108.924Z" fill="#2E3357"/>
<path d="M42.2128 76.9542C42.544 76.7365 41.4823 76.747 39.8915 76.8982C40.7363 76.9238 40.3897 77.0381 42.2128 76.9542Z" fill="#2E3357"/>
<path d="M42.6062 75.6811C44.6957 75.6638 42.2128 75.1694 41.1768 74.971C40.3397 75.4845 40.5072 75.9173 42.6062 75.6811Z" fill="#2E3357"/>
<path d="M44.2561 106.363C43.8128 106.326 43.8011 106.25 44.2561 106.363C44.7152 106.416 44.7539 105.615 44.2561 106.363Z" fill="#2E3357"/>
<path d="M45.4277 109.395C44.9881 109.386 44.985 109.349 45.4277 109.395C45.9365 109.382 45.8612 108.923 45.4277 109.395Z" fill="#2E3357"/>
<path d="M42.9486 74.808C43.031 75.2475 46.6178 73.8249 45.7014 73.936C44.8545 74.1844 40.2085 74.3616 42.9486 74.808Z" fill="#2E3357"/>
<path d="M43.999 76.2782C44.1408 76.1858 44.3649 76.1292 43.999 76.2782C43.8473 76.4301 45.416 76.3526 43.999 76.2782Z" fill="#2E3357"/>
<path d="M45.5012 76.5077C44.6025 76.9326 47.8127 77.1947 47.0723 76.3972C46.7259 76.3461 46.4944 76.348 45.5012 76.5077Z" fill="#2E3357"/>
<path d="M48.082 75.4337C48.2436 75.463 48.3181 75.2034 47.2401 75.2037C47.2748 75.3535 47.1693 75.4094 48.082 75.4337Z" fill="#2E3357"/>
<path d="M49.0017 74.2772C49.2257 74.2206 46.4139 74.4013 48.4648 74.3693C48.7537 74.3533 49.2004 74.3422 49.0017 74.2772Z" fill="#2E3357"/>
<path d="M51.8055 70.8093C51.6293 70.7459 49.7156 71.0763 48.616 71.3068C49.1637 71.2215 52.0527 71.0702 51.8055 70.8093Z" fill="#2E3357"/>
<path d="M50.9062 74.5867C52.5016 74.8572 52.3133 74.6423 51.2352 75.3747C54.956 76.0851 56.4472 74.3633 50.9062 74.5867Z" fill="#2E3357"/>
<path d="M51.4865 75.8053C51.6209 75.577 51.8192 75.5667 51.4865 75.8053C51.3068 76.0365 52.829 76.061 51.4865 75.8053Z" fill="#2E3357"/>
<path d="M52.8516 74.0426C52.3942 74.047 52.1539 73.931 52.8516 74.0426C53.2361 74.0333 51.2104 73.375 52.8516 74.0426Z" fill="#2E3357"/>
<path d="M56.0334 75.4265C56.4139 75.6364 56.2614 75.5566 56.0334 75.4265C55.5158 75.2401 54.9527 75.6282 56.0334 75.4265Z" fill="#2E3357"/>
<path d="M57.203 75.3347C56.7376 75.2903 56.7263 75.2083 57.203 75.3347C57.5928 75.4099 57.2061 74.8024 57.203 75.3347Z" fill="#2E3357"/>
<path d="M56.8595 73.6949C57.003 73.7409 60.7929 73.6192 59.8674 73.3743C58.4551 73.3935 56.4026 73.5277 56.8595 73.6949Z" fill="#2E3357"/>
<path d="M58.7814 69.1894C58.7491 69.1661 59.7092 68.9951 58.7624 68.9745C58.7712 68.93 57.8413 69.2354 58.7814 69.1894Z" fill="#2E3357"/>
<path d="M59.9666 72.1243C60.7717 72.072 62.1374 71.9111 62.3702 71.7287C62.3789 71.6842 60.1711 71.8618 59.9666 72.1243Z" fill="#2E3357"/>
<path d="M61.2882 73.1667C60.997 73.2157 61.2882 73.1667 61.838 73.214C62.3483 73.1802 62.7871 73.0392 61.2882 73.1667Z" fill="#2E3357"/>
<path d="M63.7744 71.8937C63.3854 71.8065 63.5352 71.844 63.7744 71.8937C66.075 72.2491 65.9433 71.545 63.7744 71.8937Z" fill="#2E3357"/>
<path d="M67.0214 71.9497C67.109 71.8264 69.7566 71.7366 68.7894 71.522C67.431 71.4968 65.5298 71.81 67.0214 71.9497Z" fill="#2E3357"/>
<path d="M72.6376 71.711C76.1717 71.6162 78.1615 71.652 81.8474 70.9141C76.1521 71.2473 77.5112 70.8568 71.0041 71.7451C70.7747 71.7985 71.0341 71.8015 72.6376 71.711Z" fill="#2E3357"/>
<path d="M74.5954 72.441C71.3671 72.1144 71.8801 73.2602 76.6089 72.3793C77.9484 72.2708 76.1248 72.0358 74.5954 72.441Z" fill="#2E3357"/>
<path d="M82.7891 70.5159C85.503 70.2832 83.9151 70.1488 81.6135 70.5395C81.5833 70.5675 81.6726 70.5827 82.7891 70.5159Z" fill="#2E3357"/>
<path d="M82.862 71.3206C83.0482 71.159 83.2916 71.1488 82.862 71.3206C82.6028 71.477 84.4999 71.2238 82.862 71.3206Z" fill="#2E3357"/>
<path d="M85.4341 70.4513C86.2814 70.6847 88.1156 69.711 84.8437 70.4193C84.723 70.4501 84.9627 70.8187 85.4341 70.4513Z" fill="#2E3357"/>
<path d="M85.674 68.1519C86.1533 68.0769 86.5146 67.8312 85.101 68.1121C84.909 68.195 84.907 68.2249 85.674 68.1519Z" fill="#2E3357"/>
<path d="M91.6511 116.641C92.0601 116.684 92.0655 116.769 91.6511 116.641C91.1129 116.588 90.6505 117.233 91.6511 116.641Z" fill="#2E3357"/>
<path d="M94.0731 116.633C94.5671 116.752 94.3612 116.711 94.0731 116.633C93.2312 116.566 92.9293 117.011 94.0731 116.633Z" fill="#2E3357"/>
<path d="M96.0323 116.452C95.4712 116.485 95.0343 116.518 95.8028 116.668C95.6755 116.713 97.6897 116.561 96.0323 116.452Z" fill="#2E3357"/>
<path d="M92.5009 70.8605C92.8131 70.7528 92.7747 70.8193 92.1695 70.0252C92.1196 69.6877 90.4123 70.6221 92.5009 70.8605Z" fill="#2E3357"/>
<path d="M97.6509 115.751C98.0289 115.753 98.038 115.865 97.6509 115.751C97.2298 115.719 97.193 116.249 97.6509 115.751Z" fill="#2E3357"/>
<path d="M98.4293 116.232C98.8933 116.213 99.1923 116.297 98.4293 116.232C97.9516 116.202 99.2226 116.753 98.4293 116.232Z" fill="#2E3357"/>
<path d="M111.853 115.553C91.1678 116.77 115.459 114.831 124.572 114.362C130.79 113.661 101.616 115.448 99.0945 115.758C102.481 116.571 119.6 115.498 124.033 114.972C122.93 114.853 116.157 115.172 111.853 115.553Z" fill="#2E3357"/>
<path d="M95.1515 70.6421C94.703 70.5989 94.6974 70.5172 95.1515 70.6421C95.5584 70.7155 95.7947 70.076 95.1515 70.6421Z" fill="#2E3357"/>
<path d="M101.086 116.097C101.807 116.036 101.534 116.062 101.086 116.097C97.9949 116.315 103.259 116.666 101.086 116.097Z" fill="#2E3357"/>
<path d="M97.4734 69.6454C98.8647 69.2788 95.868 69.4376 96.0446 69.9011C96.2872 69.9029 96.5246 69.8984 97.4734 69.6454Z" fill="#2E3357"/>
<path d="M99.245 69.4902C99.3896 69.4401 100.536 69.27 99.2247 69.2962C99.0613 69.2909 97.9519 69.5809 99.245 69.4902Z" fill="#2E3357"/>
<path d="M101.029 68.9853C100.881 69.0923 103.478 68.7463 101.468 68.7571C100.687 68.793 99.9827 68.8584 101.029 68.9853Z" fill="#2E3357"/>
<path d="M102.992 69.5079C102.953 69.4872 103.92 69.3106 102.968 69.2776C102.999 69.2316 102.047 69.5415 102.992 69.5079Z" fill="#2E3357"/>
<path d="M104.408 68.9359C106.106 67.7165 107.063 70.2771 108.743 69.0022C117.908 67.3164 100.583 68.7515 104.408 68.9359Z" fill="#2E3357"/>
<path d="M110.2 69.1628C109.808 69.28 109.625 69.2371 111.245 69.3136C111.805 69.2894 111.699 69.1195 110.2 69.1628Z" fill="#2E3357"/>
<path d="M112.626 68.6182C113.279 68.1491 115.883 68.6098 113.599 68.0149C113.355 67.8716 111.004 68.6469 112.626 68.6182Z" fill="#2E3357"/>
<path d="M117.437 68.0853C117.379 68.0212 115.859 67.8914 114.941 67.942C115.212 68.2647 116.436 68.2805 117.437 68.0853Z" fill="#2E3357"/>
<path d="M115.289 68.5325C115.257 68.9966 118.673 68.3314 116.481 68.4408C116.135 68.4649 115.772 68.4908 115.289 68.5325Z" fill="#2E3357"/>
<path d="M118.789 68.6002C120.169 68.4068 120.388 67.0304 118.625 68.0345C120.557 67.6868 117.793 68.4858 118.789 68.6002Z" fill="#2E3357"/>
<path d="M124.925 114.976C125.21 115.008 126.582 114.926 127.813 114.747C129.862 114.507 124.053 114.684 124.925 114.976Z" fill="#2E3357"/>
<path d="M121.66 67.8123C120.933 67.7197 120.93 67.6774 121.66 67.8123C123.122 67.7364 124.033 67.3695 121.66 67.8123Z" fill="#2E3357"/>
<path d="M121.757 66.6604C121.388 66.5235 121.537 66.5759 121.757 66.6604C122.314 66.7743 122.813 66.4841 121.757 66.6604Z" fill="#2E3357"/>
<path d="M127.373 113.944C127.197 113.962 126.098 114.171 127.403 114.235C127.574 114.217 128.678 114.008 127.373 113.944Z" fill="#2E3357"/>
<path d="M128.98 114.457C129.422 114.5 129.433 114.585 128.98 114.457C128.573 114.384 128.331 115.023 128.98 114.457Z" fill="#2E3357"/>
<path d="M128.913 114.022C128.605 114.157 132.119 114.103 131.168 113.82C130.193 113.801 129.492 113.818 128.913 114.022Z" fill="#2E3357"/>
<path d="M134.335 113.488C132.753 113.76 140.672 113.432 138.44 113.307C137.377 113.257 135.51 113.32 134.335 113.488Z" fill="#2E3357"/>
<path d="M133.17 66.0867C132.731 66.0772 132.728 66.0409 133.17 66.0867C133.679 66.0739 133.598 65.614 133.17 66.0867Z" fill="#2E3357"/>
<path d="M136.271 65.952C135.544 66.0278 135.127 66.0981 136.271 65.952C137.979 65.505 133.511 66.046 136.271 65.952Z" fill="#2E3357"/>
<path d="M140.313 113.135C139.964 113.204 144.037 113.075 142.725 112.86C142.051 112.817 140.881 112.85 140.313 113.135Z" fill="#2E3357"/>
<path d="M141.706 113.586C141.487 113.64 139.962 113.82 141.721 113.774C141.958 113.772 143.457 113.485 141.706 113.586Z" fill="#2E3357"/>
<path d="M144.839 112.67C144.694 112.727 144.839 112.67 145.412 112.722C145.803 112.692 145.876 112.532 144.839 112.67Z" fill="#2E3357"/>
<path d="M142.387 65.4276C142.1 65.4889 141.749 65.3502 142.387 65.4276C144.408 65.2521 142.017 64.5023 142.387 65.4276Z" fill="#2E3357"/>
<path d="M147.332 112.361C147.781 112.405 147.786 112.489 147.332 112.361C146.925 112.288 146.683 112.927 147.332 112.361Z" fill="#2E3357"/>
<path d="M144.09 65.6206C143.826 65.3492 147.956 65.2957 147.539 64.7065C147.03 65.132 143.72 64.2845 144.09 65.6206Z" fill="#2E3357"/>
<path d="M149.872 112.301C149.58 112.356 149.872 112.301 150.421 112.354C150.931 112.32 151.376 112.171 149.872 112.301Z" fill="#2E3357"/>
<path d="M151.52 112.614C151.833 112.663 151.997 112.74 151.52 112.614C151.081 112.592 151.726 113.146 151.52 112.614Z" fill="#2E3357"/>
<path d="M152.37 111.992C152.17 112.03 151.05 112.06 152.389 112.201C152.591 112.221 153.702 112.073 152.37 111.992Z" fill="#2E3357"/>
<path d="M153.689 111.943C154.135 111.779 154.389 111.769 153.689 111.943C153.247 112.051 154.703 112.218 153.689 111.943Z" fill="#2E3357"/>
<path d="M155.873 111.703C155.708 111.721 154.548 111.93 155.903 111.994C156.068 111.975 157.229 111.767 155.873 111.703Z" fill="#2E3357"/>
<path d="M151.157 64.9484C151.297 64.9731 152.017 64.8396 151.138 64.7334C150.983 64.7708 150.277 64.7789 151.157 64.9484Z" fill="#2E3357"/>
<path d="M157.848 111.466C158.293 111.475 158.296 111.515 157.848 111.466C157.351 111.47 157.418 111.962 157.848 111.466Z" fill="#2E3357"/>
<path d="M159.726 111.301C159.582 111.354 159.726 111.301 160.298 111.353C160.695 111.326 160.762 111.174 159.726 111.301Z" fill="#2E3357"/>
<path d="M164.519 110.801C164.38 110.851 164.519 110.801 165.114 110.851C165.516 110.825 165.549 110.674 164.519 110.801Z" fill="#2E3357"/>
<path d="M168.92 93.348C169.103 93.2403 169.35 93.1762 168.92 93.348C168.729 93.4972 170.56 93.2242 168.92 93.348Z" fill="#2E3357"/>
<path d="M169.948 62.8059C174.448 62.2962 170.739 61.9873 177.088 61.2656C175.457 61.1764 163.523 62.5131 169.948 62.8059Z" fill="#2E3357"/>
<path d="M172.856 96.1715C170.571 97.305 178.297 95.938 177.153 95.9007C176.397 95.9054 175.326 95.9605 172.856 96.1715Z" fill="#2E3357"/>
<path d="M173.249 92.7922C172.823 92.7476 172.812 92.6656 173.249 92.7922C173.798 92.8454 174.306 92.2008 173.249 92.7922Z" fill="#2E3357"/>
<path d="M178.593 94.5798C179.968 94.5337 170.979 94.9152 175.567 95.2551C176.909 95.3424 176.066 95.3018 178.593 94.5798Z" fill="#2E3357"/>
<path d="M176.308 92.2225C176.134 92.3758 175.879 92.3882 176.308 92.2225C176.54 92.0551 174.645 92.116 176.308 92.2225Z" fill="#2E3357"/>
<path d="M177.646 109.509C177.507 109.563 177.646 109.509 178.241 109.56C178.644 109.531 178.678 109.367 177.646 109.509Z" fill="#2E3357"/>
<path d="M179.463 110.016C179.324 110.069 179.463 110.016 180.058 110.066C180.461 110.037 180.494 109.877 179.463 110.016Z" fill="#2E3357"/>
<path d="M178.784 95.2551C178.857 95.3444 181.417 95.0469 180.11 94.8448C180.177 95.1052 177.969 95.036 178.784 95.2551Z" fill="#2E3357"/>
<path d="M182.631 60.3527C182.869 60.4234 182.365 60.4545 182.631 60.3527C182.77 60.3082 180.882 60.4268 182.631 60.3527Z" fill="#2E3357"/>
<path d="M186.474 96.2597C186.238 96.4087 188.708 96.0418 187.611 95.9896C187.09 95.9294 186.461 95.8044 186.474 96.2597Z" fill="#2E3357"/>
<path d="M188.671 95.6858C188.122 95.5424 188.374 96.9528 189.057 96.2241C188.825 96.1418 189.562 95.9343 188.671 95.6858Z" fill="#2E3357"/>
<path d="M189.914 95.9042C189.869 96.0636 192.837 96.1525 191.819 95.8591C191.348 95.8203 190.355 95.7333 189.914 95.9042Z" fill="#2E3357"/>
<path d="M190.126 61.0894C190.088 61.0657 191.054 60.8922 190.102 60.8591C190.134 60.8162 189.181 61.123 190.126 61.0894Z" fill="#2E3357"/>
<path d="M196.804 98.4424C196.984 98.3647 197.239 98.3523 196.804 98.4424C196.565 98.5462 198.482 98.6613 196.804 98.4424Z" fill="#2E3357"/>
<path d="M219.374 73.8266C219.686 73.8754 219.85 73.953 219.374 73.8266C218.93 73.8018 219.574 74.355 219.374 73.8266Z" fill="#2E3357"/>
<path d="M221.638 85.589C222.083 85.6019 222.086 85.6412 221.638 85.589C221.141 85.5966 221.208 86.0887 221.638 85.589Z" fill="#2E3357"/>
<path d="M222.056 83.1398C222.11 83.0984 220.673 83.8019 222.09 83.4731C222.03 83.5141 223.474 82.8081 222.056 83.1398Z" fill="#2E3357"/>
<path d="M221.236 76.8319C221.413 76.6456 221.654 76.5841 221.236 76.8319C221.057 77.0631 222.874 76.8163 221.236 76.8319Z" fill="#2E3357"/>
<path d="M223.845 85.5859C224.036 85.3495 224.286 85.3368 223.845 85.5859C222.309 85.756 223.687 86.4775 223.845 85.5859Z" fill="#2E3357"/>
<path d="M224.717 84.5779C223.913 84.537 223.569 84.45 224.717 84.5779C225.466 84.6751 222.697 83.9231 224.717 84.5779Z" fill="#2E3357"/>
<path d="M223.623 81.0658C223.389 81.0195 222.334 81.3403 223.645 81.3141C223.803 81.2408 224.981 81.1752 223.623 81.0658Z" fill="#2E3357"/>
<path d="M221.459 61.2075C221.465 61.6833 224.858 61.2602 224.578 60.9037C223.125 61.4256 221.776 59.8907 221.459 61.2075Z" fill="#2E3357"/>
<path d="M224.629 84.944C224.345 84.8099 224.466 84.8574 224.629 84.944C225.199 85.0317 225.616 84.5522 224.629 84.944Z" fill="#2E3357"/>
<path d="M223.88 72.0907C224.312 72.0425 224.323 72.1275 223.88 72.0907C223.369 72.1394 223.495 72.7499 223.88 72.0907Z" fill="#2E3357"/>
<path d="M227.271 60.5593C227.018 60.8757 226.722 60.7438 227.271 60.5593C227.621 60.3129 225.726 59.9736 227.271 60.5593Z" fill="#2E3357"/>
<path d="M227.087 61.4401C226.874 61.657 227.087 61.4401 227.347 61.5123C227.538 61.4504 227.875 60.9774 227.087 61.4401Z" fill="#2E3357"/>
<path d="M232.324 68.835C232.181 69.1019 232.222 69.0025 232.324 68.835C232.232 68.5248 230.494 69.2525 232.324 68.835Z" fill="#2E3357"/>
<path d="M232.107 70.4064C232.499 70.4487 233.67 70.2472 233.569 69.8431C233.341 69.8724 232.631 70.0998 232.107 70.4064Z" fill="#2E3357"/>
</g>
<g opacity="0.85">
<path opacity="0.85" d="M85.5445 17.6949C86.1446 17.2401 86.8774 16.9949 87.6304 16.9969C87.6643 16.8357 87.7302 16.715 87.7702 16.5888C88.2734 15.0397 89.0835 13.6078 90.1521 12.3786C91.0329 11.4027 92.1494 10.6691 93.3948 10.2482C94.061 10.001 94.7777 9.92112 95.482 10.0156C96.1863 10.11 96.8566 10.3759 97.4341 10.79C97.7048 10.9749 97.9192 11.2355 98.1793 11.4384C98.3537 11.5931 98.5584 11.7096 98.7804 11.7805C99.2047 11.8234 99.6139 11.9617 99.9771 12.1852C100.34 12.4087 100.648 12.7115 100.878 13.0709L101.217 12.7721C102.109 11.8882 103.132 11.1479 104.251 10.5775C105.447 9.97494 106.758 9.63606 108.096 9.5838C109.467 9.51562 110.841 9.64425 112.175 9.96576C113.221 10.2085 114.205 10.668 115.062 11.3146C116.218 12.2114 117.043 13.4677 117.406 14.8851C117.687 15.9138 117.552 15.7238 118.449 16.3235C119.201 16.8118 119.944 17.3117 120.658 17.8527C120.988 18.1107 121.292 18.4002 121.566 18.7173C121.641 18.8067 121.735 18.8793 121.84 18.9305C121.945 18.9817 122.06 19.0102 122.177 19.0143C123.256 19.0802 124.32 19.3045 125.335 19.68C126.473 20.1707 127.468 20.9409 128.229 21.919C129.354 23.2534 129.953 24.9523 129.914 26.6971C129.903 26.8074 129.92 26.9187 129.963 27.0207C130.006 27.1228 130.075 27.2123 130.162 27.281C130.906 27.946 131.407 28.8405 131.585 29.8227C131.813 30.9655 131.818 32.1414 131.602 33.2864C131.237 35.193 130.638 37.0474 129.819 38.8076C128.91 40.8753 127.806 42.8516 126.522 44.7097C125.93 45.5679 125.304 46.3986 124.695 47.2462C124.682 47.3042 124.631 47.3541 124.558 47.4799C124.727 47.4416 124.832 47.4233 124.94 47.3921C126.259 46.9795 127.665 46.9228 129.013 47.2276C130.554 47.5947 131.927 48.4671 132.914 49.7057C133.148 49.9925 133.366 50.2923 133.566 50.6039C133.787 50.8999 134.081 51.1335 134.419 51.2819C134.894 51.5232 135.371 51.7516 135.81 52.0326C136.44 52.4276 136.959 52.9773 137.317 53.6295C137.371 53.7214 137.418 53.8169 137.459 53.9152C137.649 54.2807 137.728 54.6939 137.686 55.1038C137.644 55.5137 137.483 55.9022 137.222 56.2214C136.971 56.5568 136.632 56.8166 136.243 56.9721C135.854 57.1276 135.43 57.1728 135.017 57.1029C134.58 57.0221 134.157 56.8807 133.759 56.6829C133.103 56.3764 132.474 56.0082 131.832 55.6708C129.544 54.5033 127.034 53.8366 124.469 53.7149C122.767 53.6295 121.061 53.7398 119.384 54.0435C117.75 54.2701 116.146 54.6746 114.6 55.2497C114.24 55.3813 113.873 55.4905 113.501 55.5768C111.348 56.1426 109.065 55.9446 107.042 55.0165L107.003 55.0083C106.149 54.5154 105.152 54.3313 104.178 54.4869C103.736 54.5082 103.283 54.4867 102.831 54.4923C102.378 54.498 101.749 54.5135 101.213 54.535C100.635 54.5632 100.073 54.7268 99.5704 55.0127C99.0681 55.2986 98.6401 55.6987 98.3211 56.1807C97.7707 56.923 97.3654 57.7626 97.1264 58.6553C95.5039 64.6556 94.3517 70.7734 93.6803 76.9528C93.5283 78.4085 93.495 79.8758 93.4295 81.3362C93.3828 82.1005 93.3284 82.8699 93.2895 83.6292C93.1748 85.7433 92.6423 87.8138 91.7227 89.721C78.2024 118.148 79.7154 114.207 91.0707 89.6846C92.0008 87.7531 92.5409 85.6572 92.6602 83.5167C92.6913 82.7626 92.7675 82.018 92.7921 81.2624C92.935 77.8758 93.2866 74.5012 93.8448 71.1578C94.5685 66.6226 95.5422 62.1309 96.7616 57.7032C97.0462 56.7398 97.1378 55.7297 97.0313 54.7308C96.9913 54.2289 96.8487 53.7405 96.6124 53.2959C96.3761 52.8512 96.0512 52.4598 95.6576 52.1457C95.3498 51.899 95.0229 51.677 94.6801 51.4819C93.7923 50.9592 92.8502 50.5349 91.8704 50.2165C88.7866 49.3286 85.8246 48.0621 83.0522 46.446C81.1029 45.3346 79.3054 43.9759 77.7042 42.4039C76.1134 40.8667 74.8644 39.0116 74.0386 36.9594C73.6972 36.1 73.545 35.177 73.5925 34.2534C73.5807 33.8335 73.7031 33.4207 73.9418 33.075C74.1089 32.8424 74.3344 32.658 74.5956 32.5405C74.8568 32.4229 75.1444 32.3764 75.4293 32.4057C76.0102 32.4541 76.5808 32.588 77.1227 32.803C77.4765 32.9449 77.833 33.0739 78.1946 33.2107C78.333 33.2731 78.4869 33.2926 78.6365 33.2665C78.786 33.2404 78.9242 33.17 79.0333 33.0643C79.6075 32.5796 80.3032 32.2607 81.0453 32.1421C81.4316 32.0572 81.8313 32.0521 82.2197 32.1271C82.3229 32.1488 82.426 32.1706 82.5613 32.1991C82.5844 32.0895 82.6048 31.9928 82.5723 31.8917C82.2818 28.4153 81.9905 24.9431 81.6982 21.4752C81.557 20.1624 81.534 18.8395 81.6293 17.5226C81.6652 16.8508 81.872 16.1993 82.2302 15.6297C82.3176 15.477 82.438 15.3458 82.5827 15.2457C82.7274 15.1455 82.8927 15.0791 83.0664 15.0512C83.2401 15.0232 83.4179 15.0345 83.5867 15.0842C83.7555 15.1339 83.911 15.2208 84.0418 15.3384C84.703 15.8425 85.1955 16.5355 85.454 17.3257C85.4838 17.4397 85.5035 17.5381 85.5445 17.6949ZM99.67 52.049L99.763 51.9272C100.72 50.3514 101.506 48.6779 102.108 46.9351C103.288 43.6026 104.202 40.1937 105.158 36.8072C106.383 32.306 107.506 27.7766 108.558 23.2322C109.26 20.1894 110.078 17.1709 110.849 14.1494C110.868 14.0783 110.894 14.0093 110.926 13.9435C110.853 14.5725 110.744 15.1968 110.6 15.8134C110.106 17.8365 109.593 19.8556 109.105 21.8801C108.216 25.5567 107.365 29.2414 106.45 32.9126C105.41 37.0824 104.265 41.2033 102.947 45.3147C102.226 47.742 101.199 50.0681 99.8928 52.2373C99.7418 52.4748 99.5959 52.72 99.4329 52.9819C99.7014 53.1515 100.017 53.2321 100.334 53.2121C101.194 53.1697 102.027 52.8938 102.743 52.4141C103.958 51.6155 105.019 50.6057 105.876 49.4325C106.785 48.2386 107.603 46.9773 108.321 45.6596C109.855 42.8479 111.149 39.9118 112.19 36.8825C114.514 30.0704 116.085 23.0244 116.875 15.8705C116.901 15.7018 116.897 15.5297 116.861 15.3627C116.708 14.5549 116.388 13.7879 115.922 13.1103C115.457 12.4327 114.855 11.8594 114.156 11.4267C112.66 10.5985 110.969 10.1841 109.259 10.2263C109.259 10.2263 109.214 10.2168 109.158 10.2588C109.102 10.3009 109.114 10.4715 109.09 10.5811C108.851 11.7155 108.566 12.8468 108.282 13.9717C108.074 14.7964 107.833 15.6207 107.598 16.4464C107.555 16.5714 107.502 16.693 107.441 16.8103L107.396 16.8008L108.932 10.2784C108.878 10.2594 108.822 10.2476 108.765 10.2431C107.895 10.211 107.025 10.3162 106.188 10.5549C105.994 10.6334 105.825 10.7629 105.698 10.9297C105.393 11.3232 105.123 11.7441 104.836 12.1481C103.891 13.4809 103.035 14.8746 102.273 16.3202C99.8257 20.951 98.0369 25.9008 96.9587 31.0264C96.0729 34.9435 95.7038 38.9598 95.861 42.9728C95.9318 45.1381 96.3094 47.2825 96.9824 49.3418C97.3632 50.4618 97.9211 51.5135 98.6348 52.4568C98.7457 52.6014 98.8461 52.7639 99.0931 52.7419C99.1189 52.6195 99.1898 52.5065 99.2363 52.3817C99.4366 51.7507 99.6563 51.1238 99.8373 50.4888C101.073 46.0975 102.148 41.6658 103.089 37.1992C103.747 34.0796 104.303 30.9318 104.909 27.8014C104.931 27.6983 104.954 27.5887 104.977 27.4791L105.093 27.5036C104.338 31.626 103.722 35.764 102.768 39.8442C101.813 43.9245 100.878 48.0088 99.67 52.049ZM119.191 21.7442L119.249 21.7564C119.236 21.8208 119.274 21.8962 119.278 21.9711C119.28 22.3755 119.281 22.7864 119.269 23.1945C119.132 27.9775 118.198 32.704 116.503 37.179C115.153 40.8926 113.175 44.3466 110.655 47.3904C109.645 48.5815 108.514 49.6651 107.281 50.624C105.638 51.9404 103.748 52.9153 101.722 53.4913C101.624 53.5315 101.528 53.5788 101.436 53.633C101.542 53.6654 101.649 53.6881 101.759 53.7009C102.492 53.6401 103.231 53.6141 103.957 53.4911C107.296 52.8886 110.384 51.315 112.834 48.967C114.048 47.8714 115.145 46.6518 116.105 45.328C117.269 43.7016 118.277 41.9688 119.115 40.1528C121.34 35.1844 122.689 29.868 123.1 24.4394C123.12 24.2417 123.109 24.0421 123.07 23.8474C122.912 22.913 122.653 21.9985 122.298 21.12C121.755 19.7638 120.815 18.6035 119.6 17.7913C118.751 17.2219 117.891 16.6704 117.02 16.1097C117.005 16.1806 116.984 16.2773 116.964 16.374C116.618 19.6801 116.092 22.9648 115.388 26.2135C114.371 31.1345 112.905 35.9519 111.008 40.6051C109.733 43.9013 107.999 47.0009 105.857 49.8121C104.968 51.0007 103.864 52.0125 102.603 52.795C102.526 52.843 102.452 52.8948 102.381 52.9503C102.492 52.9574 102.603 52.9418 102.707 52.9046C104.799 52.1136 106.713 50.9153 108.338 49.3792C109.109 48.6842 109.831 47.9367 110.499 47.142C111.294 46.192 112.034 45.1972 112.716 44.1626C114.071 42.0878 115.212 39.8813 116.123 37.5769C118.062 32.6323 119.112 27.3839 119.223 22.0739C119.195 21.9806 119.221 21.8582 119.191 21.7442ZM85.2159 18.3594C85.1836 18.7363 85.1516 19.0796 85.1261 19.4243C84.7174 23.6806 84.6364 27.9621 84.8838 32.2309C85.0451 35.2163 85.5176 38.1766 86.2937 41.0639C86.8011 43.0879 87.653 45.0095 88.8122 46.7446C89.2939 47.4703 89.9436 48.0691 90.7062 48.4901L90.5749 48.3144C89.8876 47.5029 89.3096 46.6048 88.8559 45.643C87.8875 43.4717 87.2704 41.1602 87.0277 38.7952C86.7111 36.0275 86.6773 33.2347 86.9266 30.4601C87.1852 27.1314 87.7891 23.8385 88.7283 20.6346C88.7514 20.525 88.7759 20.409 88.8376 20.3076C88.498 21.9189 88.1583 23.5303 87.8577 25.1162C86.9674 29.6692 86.7815 34.332 87.3065 38.9415C87.537 41.0286 88.0576 43.0733 88.8534 45.0164C89.397 46.4367 90.2552 47.7154 91.3636 48.7566C91.8239 49.172 92.3583 49.497 92.9388 49.7147C93.0413 49.7746 93.1581 49.8056 93.2768 49.8046C93.3956 49.8035 93.5118 49.7704 93.6132 49.7087C93.5051 49.5513 93.4213 49.4057 93.3141 49.2754C92.8715 48.7244 92.4069 48.1822 91.9826 47.608C91.099 46.3759 90.3368 45.0609 89.7069 43.6817C88.755 41.7624 88.1639 39.6846 87.9629 37.5517C87.8301 35.5541 88.0122 33.548 88.5024 31.6068C89.0685 28.8614 90.2073 26.2662 91.8445 23.9908L92.3383 23.3409C92.1548 23.0936 91.9659 22.872 91.8147 22.6315C91.6634 22.3909 91.5332 22.1144 91.3609 21.7819C90.9726 22.9858 90.6106 24.1279 90.2423 25.2687L90.152 25.2497C90.1796 25.0716 90.2167 24.8952 90.2634 24.7212C90.5127 23.8582 90.7181 22.9793 91.0471 22.1533C91.1666 21.8644 91.2187 21.552 91.1993 21.24C91.1799 20.9279 91.0896 20.6244 90.9352 20.3525C90.5791 19.5107 90.0101 18.776 89.2842 18.2206C88.6989 17.7733 87.9652 17.5657 87.2323 17.64C86.6318 20.2109 86.1992 22.8181 85.9372 25.4451C86.0395 22.8325 86.3974 20.2361 87.0056 17.6932C86.3359 17.7405 85.8934 18.307 85.22 18.34L85.2159 18.3594ZM95.0156 50.1457L94.7925 49.7351C94.4218 49.0983 94.02 48.4818 93.687 47.8259C90.7944 41.8588 90.1413 35.0512 91.8468 28.643L91.9738 28.2322C91.9947 28.2542 92.0088 28.2818 92.0145 28.3116C92.0201 28.3415 92.017 28.3723 92.0056 28.4004C91.0297 32.1947 90.8515 36.1502 91.4824 40.0169C91.9975 43.7631 93.401 47.3319 95.576 50.4254C96.0601 51.0755 96.6973 51.596 97.431 51.9406C97.3936 51.8701 97.3459 51.8056 97.2895 51.7492C96.5767 50.9554 95.9732 50.0697 95.4952 49.1158C94.6376 47.3181 94.068 45.3966 93.8075 43.4218C93.4033 40.451 93.3728 37.4413 93.7167 34.4629C94.2384 29.5682 95.383 24.7602 97.1228 20.1555C97.1541 20.0073 97.2175 19.8658 97.2854 19.6715L95.0531 21.5436C93.7653 22.6209 92.6424 23.8811 91.72 25.284C90.4064 27.4121 89.4774 29.7547 88.9755 32.2047C88.0404 36.1878 88.5622 40.3741 90.4464 44.0059C91.3122 45.8021 92.4247 47.4685 93.7515 48.957C94.1259 49.3523 94.5499 49.7042 95.0156 50.1457ZM108.309 54.1459L108.293 54.2233C108.422 54.2505 108.562 54.2261 108.699 54.2146C109.884 54.1137 111.042 53.8065 112.121 53.3069C114.314 52.2713 116.297 50.8409 117.972 49.0874C118.941 48.087 119.84 47.0216 120.664 45.8984C121.61 44.6962 122.48 43.4362 123.27 42.1259C125.992 37.4862 128.002 32.4635 129.231 27.2262C129.31 26.8925 129.338 26.5484 129.311 26.2064C129.234 25.1285 128.905 24.0836 128.352 23.1555C127.798 22.2275 127.034 21.4421 126.122 20.8624C125.02 20.1725 123.759 19.7769 122.46 19.7135C122.428 19.7124 122.396 19.7146 122.364 19.7203C124.033 22.9195 124.226 26.3463 123.999 29.8527C124.255 29.1461 124.465 28.4365 124.669 27.7254C124.873 27.0144 125.087 26.2518 125.303 25.5164C125.519 24.781 125.674 24.1069 125.94 23.4224C125.937 23.6212 125.911 23.8191 125.862 24.012C125.325 26.3357 124.68 28.6299 123.977 30.9118C123.783 31.5442 123.598 32.2321 123.464 32.8973C122.871 35.9272 122.019 38.9006 120.918 41.7851C119.942 44.4377 118.525 46.9066 116.726 49.0874C114.707 51.5624 111.919 53.2918 108.804 54.0012L108.309 54.1459ZM97.7845 51.8602L97.8547 51.8145C97.8387 51.7702 97.8184 51.7275 97.794 51.6872C97.0794 50.424 96.5566 49.0614 96.2429 47.6444C95.6466 44.934 95.4306 42.1538 95.601 39.3838C95.8003 35.1783 96.5111 31.0127 97.7176 26.979C99.4257 21.2064 101.755 15.7128 105.498 10.9548C105.545 10.8663 105.581 10.772 105.604 10.6742L105.137 10.8451C104.11 11.2658 103.16 11.855 102.326 12.5885C100.325 14.3494 98.7679 16.5586 97.7829 19.0358C97.4262 19.93 97.1067 20.8388 96.8001 21.7503C95.2244 26.288 94.2297 31.0071 93.8398 35.7948C93.5916 38.7498 93.7411 41.7247 94.2845 44.6398C94.6343 46.6466 95.3732 48.5655 96.4597 50.2885C96.8375 50.8585 97.2775 51.3848 97.7716 51.8575L97.7845 51.8602ZM110.308 54.2441L110.294 54.3086C110.46 54.2896 110.629 54.2849 110.791 54.2517C111.498 54.0911 112.198 53.9627 112.916 53.7505C115.855 52.8047 118.527 51.1735 120.712 48.9917C121.615 48.1251 122.442 47.1686 123.253 46.2288C124.194 45.1332 125.043 43.961 125.789 42.7243C128.053 39.0556 129.817 35.101 131.034 30.9655C131.085 30.8036 131.102 30.6334 131.086 30.4647C131.012 29.7654 130.776 29.0931 130.396 28.5017C130.128 28.0997 129.785 27.7532 129.386 27.481C129.373 27.5141 129.366 27.5488 129.364 27.5841C129.345 27.6743 129.326 27.7646 129.307 27.8548C128.345 31.9749 126.882 35.962 124.953 39.7275C123.515 42.5871 121.748 45.2691 119.687 47.7189C118.331 49.3549 116.77 50.811 115.045 52.0517C113.683 53.039 112.16 53.7817 110.543 54.2466L110.308 54.2441ZM92.7757 22.7667C93.1148 20.2768 93.8059 17.8476 94.8282 15.552C94.4985 16.701 94.1315 17.8354 93.7954 18.983C93.4628 20.1296 93.2162 21.2995 93.0577 22.4828C93.1361 22.451 93.2076 22.4044 93.2684 22.3455C93.6885 21.9493 94.1072 21.5596 94.53 21.1506C94.6733 21.0006 94.7896 20.827 94.8738 20.6374C95.235 19.8182 95.5832 18.9963 95.9393 18.1693C95.9683 18.129 96.003 18.0932 96.0425 18.0631C95.8604 18.9268 95.3771 19.6866 95.1832 20.5747C95.3775 20.4514 95.5652 20.3179 95.7455 20.1749C96.4403 19.6678 96.9949 18.9925 97.3574 18.2124C97.7046 17.4912 98.1444 16.8098 98.5469 16.1137C98.57 16.0042 98.664 15.9095 98.7088 15.8247C98.6132 15.6142 98.4617 15.434 98.2709 15.3035C98.08 15.1731 97.857 15.0975 97.6261 15.0849C96.9475 14.9617 96.3037 14.6928 95.7391 14.2967C95.4531 14.0883 95.157 13.8644 94.901 13.6421C94.3628 13.1864 93.6963 12.9093 92.9937 12.8492C92.2911 12.7892 91.5873 12.9492 90.9797 13.307C90.299 13.7022 89.7078 14.2346 89.2435 14.8702C88.7793 15.5059 88.4521 16.231 88.2827 16.9997C88.2827 16.9997 88.2732 17.0449 88.3139 17.1073C89.1121 17.3307 89.8366 17.7622 90.4132 18.3576C90.5485 17.7627 90.758 17.1872 91.0369 16.6445C90.901 17.2891 90.7651 17.9336 90.5971 18.5714C90.848 18.9291 91.075 19.303 91.2766 19.6907C91.5757 20.3798 91.8384 21.0814 92.0791 21.7919C92.2238 22.1712 92.4637 22.5069 92.7757 22.7667ZM88.4709 46.7669C88.4265 46.6902 88.3913 46.602 88.3404 46.5239C87.5867 45.3563 86.9834 44.0982 86.5446 42.7795C85.6785 40.1796 85.1163 37.4882 84.8693 34.7589C84.3367 29.3953 84.3926 23.9894 85.0361 18.6379C85.0831 18.2863 85.0479 17.9286 84.9332 17.5929C84.7296 16.9331 84.3687 16.3326 83.8816 15.8432C83.3698 15.3651 82.9477 15.4511 82.6223 16.0692C82.536 16.2187 82.4705 16.3793 82.4274 16.5464C82.3366 16.9977 82.272 17.4538 82.2337 17.9125C82.1772 19.0863 82.2152 20.2626 82.3472 21.4302C82.5083 23.0933 82.6537 24.7665 82.8006 26.4333C83.0709 29.3984 83.3127 32.3709 83.6126 35.3557C83.8003 37.2883 84.1805 39.1973 84.7474 41.0544C85.1747 42.4995 85.8635 43.8539 86.7795 45.0505C87.2714 45.6873 87.8469 46.2547 88.4906 46.7374L88.4709 46.7669ZM103.558 53.8513L103.543 53.9222L103.807 53.9779C104.947 54.0071 106.088 53.9389 107.216 53.7742C110.846 53.3065 114.146 51.4257 116.398 48.5401C117.68 46.9608 118.741 45.2141 119.552 43.3483C121.408 39.0712 122.646 34.5519 123.229 29.9261C123.398 28.5637 123.419 27.187 123.294 25.8199C123.279 25.6957 123.256 25.5831 123.24 25.4654C123.17 25.5725 123.128 25.6956 123.118 25.8232C122.983 26.845 122.869 27.8644 122.709 28.8808C122.112 32.8653 120.958 36.7464 119.282 40.4104C118.137 42.8718 116.666 45.1679 114.909 47.2367C113.761 48.5809 112.451 49.7768 111.008 50.7969C108.935 52.2882 106.554 53.2933 104.04 53.7375L103.558 53.8513ZM125.876 50.1678C124.709 50.5949 123.539 50.9407 122.385 51.3706C120.617 52.0279 119.33 52.6722 119.081 52.99L119.485 52.8934C120.598 52.6298 121.711 52.3325 122.839 52.1194C124.719 51.731 126.662 51.7634 128.528 52.2144L128.953 52.3041L128.936 52.3879C127.129 51.9777 125.261 51.9176 123.433 52.2108C121.431 52.5092 118.49 53.303 118.088 53.6761L118.543 53.5968C119.455 53.4525 120.363 53.2668 121.283 53.1782C125.232 52.7114 129.228 53.4994 132.704 55.4305C133.185 55.7003 133.675 55.965 134.177 56.1989C134.487 56.3414 134.814 56.4442 135.15 56.5048C135.419 56.5323 135.692 56.5041 135.95 56.4218C136.208 56.3396 136.447 56.2052 136.651 56.0268C135.338 54.9903 133.883 54.1465 132.332 53.5211C133.937 54.0265 135.44 54.8128 136.77 55.8433C136.969 55.6258 137.083 55.3442 137.092 55.0496C137.129 54.8668 137.114 54.6775 137.05 54.5025C136.986 54.3275 136.875 54.1736 136.729 54.0575C135.757 53.3139 134.571 52.9034 133.347 52.887C132.99 52.8968 132.633 52.8867 132.277 52.8565C131.545 52.8276 130.843 52.5614 130.276 52.0981C129.757 51.6522 129.205 51.2396 128.704 50.7706C127.658 49.7787 126.27 49.2281 124.828 49.2332C124.321 49.1733 123.807 49.2354 123.329 49.4146C122.851 49.5937 122.422 49.8845 122.08 50.2628C121.993 50.3612 121.897 50.4514 121.794 50.5325L120.234 51.9607C122.043 51.149 123.935 50.5366 125.876 50.1342L125.876 50.1678ZM131.25 31.3139L131.096 31.2813L130.977 31.6534C130.214 34.2022 129.24 36.6833 128.067 39.0711C126.782 41.7122 125.203 44.1999 123.36 46.487C121.706 48.5409 119.753 50.335 117.566 51.8091C114.962 53.6137 111.881 54.6043 108.713 54.6553C108.647 54.6611 108.581 54.6743 108.517 54.6946C108.733 54.8345 108.969 54.9431 109.216 55.017C110.173 55.2871 111.177 55.3425 112.157 55.1792C113.464 55.0057 114.735 54.621 115.918 54.0399C118.624 52.6693 121.018 50.7565 122.953 48.4206C124.441 46.6376 125.805 44.7547 127.035 42.785C128.642 40.3203 129.873 37.6306 130.69 34.804C130.99 33.7924 131.158 32.7464 131.191 31.6918C131.202 31.5535 131.222 31.4161 131.251 31.2803L131.25 31.3139ZM75.0363 32.9287C77.4161 38.891 81.7415 43.8736 87.3103 47.0675C87.2813 46.9942 87.235 46.929 87.1753 46.8775C86.0949 45.8934 85.0906 44.8288 84.171 43.6929C83.4734 42.8188 82.768 41.9498 82.1328 41.0351C80.6979 38.9428 79.5566 36.6637 78.7406 34.2615C78.6904 34.1163 78.626 33.9748 78.5958 33.8944C77.9716 33.6618 77.4506 33.451 76.9034 33.2684C76.4682 33.1295 76.0184 33.028 75.5699 32.92C75.3921 32.9088 75.2136 32.9117 75.0363 32.9287ZM89.7467 48.9543L89.7562 48.9092C89.687 48.8542 89.6191 48.7928 89.5421 48.7429C88.3522 48.0007 87.1287 47.2581 85.9287 46.5003C84.4794 45.5857 83.1233 44.531 81.8801 43.3514C81.084 42.5829 80.3315 41.7703 79.6264 40.9174C79.0034 40.2004 78.4174 39.4037 77.8507 38.6111C76.6891 37.0015 75.7487 35.2434 75.0548 33.3836C75.0135 33.2605 74.9565 33.1475 74.8972 33.0138C74.8275 33.032 74.7594 33.056 74.6936 33.0853C74.5241 33.1901 74.3838 33.3361 74.286 33.5097C74.1882 33.6833 74.136 33.8789 74.1343 34.0782C74.0605 34.8289 74.1487 35.5867 74.3929 36.3003C74.9938 38.0052 75.9259 39.5743 77.1357 40.9175C78.2039 42.1398 79.4029 43.2413 80.7112 44.2023C80.9202 44.3608 81.1369 44.5142 81.355 44.6611L81.9466 45.0483C80.0535 43.3965 78.379 41.5098 76.9637 39.4339C76.9887 39.4383 77.0126 39.4477 77.034 39.4614C77.0554 39.4752 77.0738 39.4931 77.0882 39.514C78.1777 40.9854 79.4018 42.3522 80.7446 43.5968C81.2039 44.0369 81.6723 44.4655 82.1709 44.8466C82.8225 45.4008 83.508 45.914 84.2233 46.3832C85.9015 47.3804 87.6763 48.2056 89.5204 48.846C89.592 48.8896 89.6678 48.9259 89.7467 48.9543ZM83.7919 40.126C83.2446 37.6984 82.8639 35.2363 82.6525 32.7568C82.1465 32.5961 81.6096 32.5586 81.0862 32.6473C80.5628 32.736 80.0682 32.9485 79.6435 33.267C79.3548 33.4552 79.0891 33.6618 78.8041 33.8642C79.1189 35.2769 81.0114 39.0417 82.3821 41.0338C83.9326 43.2589 86.6954 46.3118 87.7449 47.0177L87.6235 46.8912C86.1275 45.4624 84.9904 43.7004 84.3048 41.7487C84.2028 41.4876 84.0779 41.2359 83.9315 40.9968C82.8094 38.9804 81.93 36.8381 81.3116 34.6149C81.2842 34.5216 81.271 34.4246 81.25 34.3327C81.958 36.3219 82.8075 38.258 83.7919 40.126ZM136.054 53.0467L136.103 53.0033C135.946 52.8475 135.775 52.7057 135.593 52.5795C135.147 52.3035 134.683 52.0442 134.215 51.8043C133.715 51.5675 133.288 51.2008 132.978 50.7425C132.322 49.711 131.401 48.8751 130.311 48.3223C129.46 47.9047 128.533 47.6658 127.586 47.6203C126.639 47.5747 125.693 47.7235 124.806 48.0574C124.423 48.2034 124.05 48.3743 123.689 48.569C123.603 48.6336 123.524 48.7073 123.454 48.7888C123.607 48.7671 123.674 48.7678 123.731 48.7529C125.202 48.4828 126.72 48.7718 127.989 49.5631C128.62 49.9975 129.221 50.4729 129.79 50.986C131.25 52.2361 131.347 52.2836 133.276 52.3333C133.909 52.3291 134.538 52.4343 135.135 52.6445C135.452 52.7718 135.751 52.9157 136.054 53.0467ZM90.6371 12.8241L91.0304 12.6512C92.4523 12.0691 93.8558 12.0216 95.1077 13.0125C95.2678 13.1472 95.4357 13.2768 95.6036 13.4065C96.1287 13.891 96.7655 14.238 97.4573 14.4165C98.0635 14.4908 98.625 14.7734 99.0459 15.2159C99.0459 15.2159 99.0459 15.2159 99.1103 15.2294C99.5427 14.6474 99.9879 14.0681 100.408 13.544C100.296 13.2488 100.103 12.9906 99.8525 12.7986C99.6016 12.6066 99.3022 12.4883 98.9878 12.4571C98.4419 12.3565 97.9408 12.0885 97.554 11.6904C97.1026 11.2206 96.5331 10.881 95.9053 10.7072C95.2774 10.5335 94.6144 10.5319 93.9857 10.7026C93.1228 10.9389 92.3149 11.3428 91.6079 11.8911C91.2342 12.1453 90.9059 12.4607 90.6371 12.8241Z" fill="white"/>
<path opacity="0.85" d="M123.141 34.9406C123.168 34.8117 123.124 34.6679 123.126 34.5335C123.166 32.5225 123.412 30.5549 123.654 28.5459C124.134 24.511 124.902 20.5155 125.952 16.59C126.468 14.6682 127.091 12.7769 127.819 10.925C127.844 10.8656 127.881 10.8116 127.927 10.7659C127.329 12.7402 126.681 14.6971 126.161 16.6813C125.642 18.6654 125.19 20.6838 124.813 22.6979C124.435 24.7119 124.159 26.7877 123.895 28.8391C123.631 30.8905 123.451 32.9259 123.236 34.9675L123.141 34.9406Z" fill="white"/>
</g>
<path d="M83.5481 100.74C82.624 100.248 82.0388 99.7394 81.7923 99.2157C81.5459 98.6921 81.4227 98.2454 81.4227 97.8758C81.4227 97.0441 81.7153 95.9352 82.3006 94.5491C82.9166 93.1322 83.7329 91.5151 84.7494 89.6977C85.7659 87.8804 86.921 85.986 88.2147 84.0146C87.2598 83.953 86.3511 83.9068 85.4887 83.876C84.6262 83.8452 83.5173 83.8298 82.162 83.8298H81.4227C81.854 82.7209 82.5316 81.9509 83.4557 81.5196C84.4106 81.0576 85.5195 80.8266 86.7824 80.8266C87.306 80.8266 87.8451 80.8574 88.3995 80.919C88.9848 80.9806 89.5854 81.0422 90.2015 81.1038C91.7416 78.886 93.2509 76.7914 94.7294 74.82C96.2388 72.8487 97.6557 71.0775 98.9802 69.5066C100.336 67.9049 101.537 66.5958 102.584 65.5793C104.063 64.1007 105.141 63.3615 105.818 63.3615C106.25 63.3615 106.727 63.5309 107.251 63.8697C107.805 64.2085 108.375 64.6398 108.96 65.1634C108.652 65.4099 108.252 66.0413 107.759 67.0578C107.297 68.0743 106.789 69.368 106.234 70.9389C105.711 72.4791 105.172 74.1732 104.617 76.0214C104.093 77.8695 103.616 79.7485 103.185 81.6582C102.754 83.568 102.399 85.4007 102.122 87.1565C101.876 88.8814 101.752 90.4062 101.752 91.7307C101.752 92.9628 101.876 93.8869 102.122 94.5029C102.368 95.0882 102.784 95.3808 103.37 95.3808C104.078 95.3808 104.956 94.8417 106.003 93.7637C107.05 92.6856 108.221 90.9298 109.515 88.4964L110.346 89.3743C109.391 91.9001 108.144 93.9793 106.604 95.6118C105.095 97.2443 103.477 98.0606 101.752 98.0606C100.274 98.0606 99.2266 97.4292 98.6106 96.1663C97.9945 94.8725 97.6865 93.1168 97.6865 90.899C97.6865 90.1906 97.7327 89.3897 97.8251 88.4964C97.9175 87.6031 98.0715 86.4942 98.2871 85.1697C96.9318 84.9541 95.7305 84.7847 94.6832 84.6615C93.6359 84.5383 92.6349 84.4151 91.68 84.2919C90.2015 86.9101 88.7691 89.6207 87.383 92.4237C85.9969 95.2268 84.7186 97.999 83.5481 100.74ZM98.7492 82.9057C99.1496 81.0884 99.6117 79.2556 100.135 77.4075C100.69 75.5285 101.26 73.742 101.845 72.0478C102.461 70.3229 103.062 68.7827 103.647 67.4274C102.723 68.1667 101.691 69.2294 100.551 70.6155C99.4114 72.0016 98.2101 73.6341 96.9472 75.5131C95.7151 77.3921 94.4522 79.4404 93.1585 81.6582C94.0826 81.843 95.0067 82.0433 95.9307 82.2589C96.8548 82.4745 97.7943 82.6901 98.7492 82.9057ZM116.772 97.922C115.633 97.922 114.709 97.614 114 96.9979C113.292 96.4127 112.937 95.6118 112.937 94.5953C112.937 93.7329 113.153 92.8088 113.584 91.8231C114.015 90.8374 114.447 89.8671 114.878 88.9122C115.34 87.9574 115.571 87.1103 115.571 86.371C115.571 85.6626 115.34 85.0773 114.878 84.6153C114.416 84.1224 113.877 83.722 113.261 83.414C112.583 85.1081 111.813 86.7561 110.951 88.3578C110.119 89.9287 109.441 91.1608 108.918 92.0541L108.225 90.7142C108.656 89.9133 109.226 88.7736 109.934 87.2951C110.643 85.8166 111.32 84.1686 111.967 82.3513C111.659 82.0433 111.505 81.6274 111.505 81.1038C111.505 80.3029 111.751 79.5482 112.244 78.8398C112.737 78.1313 113.215 77.7771 113.677 77.7771C114.046 77.7771 114.308 77.9927 114.462 78.424C114.647 78.8244 114.739 79.1016 114.739 79.2556C114.739 79.4096 114.662 79.6869 114.508 80.0873C114.385 80.4877 114.293 80.7804 114.231 80.9652C114.262 81.304 114.524 81.6428 115.017 81.9817C115.54 82.2897 116.125 82.6593 116.772 83.0905C117.419 83.5218 117.989 84.0608 118.482 84.7077C118.975 85.3545 119.221 86.1708 119.221 87.1565C119.221 88.0498 119.021 88.9584 118.62 89.8825C118.22 90.8066 117.82 91.6691 117.419 92.4699C117.019 93.2708 116.819 93.9639 116.819 94.5491C116.819 94.9804 116.926 95.273 117.142 95.427C117.388 95.5502 117.666 95.6118 117.974 95.6118C118.713 95.6118 119.483 95.3962 120.284 94.965C121.085 94.5029 121.87 93.9177 122.64 93.2092C123.41 92.5007 124.088 91.7615 124.673 90.9914C125.258 90.1906 125.705 89.4667 126.013 88.8198L127.122 89.6515C126.537 90.976 125.69 92.2851 124.581 93.5788C123.472 94.8417 122.24 95.889 120.884 96.7207C119.529 97.5216 118.158 97.922 116.772 97.922ZM129.214 98.8461C127.859 98.8461 126.765 98.4456 125.934 97.6448C125.102 96.8439 124.686 95.6272 124.686 93.9947C124.686 92.7318 124.917 91.1608 125.379 89.2819C125.872 87.4029 126.488 85.4623 127.227 83.4602C127.012 83.3986 126.75 83.3524 126.442 83.3216C126.165 83.26 125.887 83.1676 125.61 83.0443V81.612C126.103 81.6736 126.504 81.7198 126.812 81.7506C127.15 81.7814 127.489 81.8122 127.828 81.843C128.475 80.2105 129.168 78.6396 129.907 77.1302C130.677 75.5901 131.432 74.2194 132.171 73.0181C132.941 71.8168 133.665 70.8773 134.343 70.1997C135.02 69.4912 135.621 69.137 136.145 69.137C136.453 69.137 136.745 69.2602 137.023 69.5066C137.3 69.7222 137.438 70.0456 137.438 70.4769C137.438 71.0929 137.115 71.9708 136.468 73.1105C135.852 74.2502 135.082 75.5901 134.158 77.1302C133.234 78.6396 132.341 80.2567 131.478 81.9817C131.725 81.9817 131.971 81.9817 132.217 81.9817C132.464 81.9817 132.695 81.9817 132.91 81.9817C134.266 81.9817 135.482 81.9663 136.561 81.9355C137.669 81.8738 138.794 81.7814 139.933 81.6582V83.183C138.239 83.337 136.684 83.4602 135.267 83.5526C133.85 83.645 132.495 83.7066 131.201 83.7374C131.109 83.7374 131.016 83.7374 130.924 83.7374C130.831 83.7374 130.739 83.7374 130.646 83.7374C130 85.2467 129.43 86.8023 128.937 88.404C128.475 89.9749 128.244 91.5151 128.244 93.0244C128.244 94.2873 128.444 95.1806 128.845 95.7042C129.245 96.2279 129.876 96.4897 130.739 96.4897C132.279 96.4897 133.85 95.7966 135.452 94.4105C137.084 92.9936 138.501 91.0838 139.702 88.6812L140.349 89.1433C139.548 90.9606 138.547 92.6086 137.346 94.0871C136.176 95.5656 134.897 96.7207 133.511 97.5524C132.125 98.4148 130.693 98.8461 129.214 98.8461ZM143.357 91.4997C142.771 91.4997 142.248 91.3148 141.786 90.9452C141.354 90.5756 141.139 90.0673 141.139 89.4205C141.139 88.9584 141.277 88.4656 141.555 87.942C141.863 87.4183 142.248 86.9871 142.71 86.6483C143.203 86.2786 143.726 86.0938 144.281 86.0938C145.081 86.0938 145.728 86.3402 146.221 86.8331C146.714 87.2951 146.96 87.865 146.96 88.5426C146.96 88.943 146.776 89.3743 146.406 89.8363C146.036 90.2984 145.574 90.6988 145.02 91.0376C144.465 91.3456 143.911 91.4997 143.357 91.4997ZM150.863 109.658C150.524 109.658 150.124 109.55 149.662 109.334C149.169 109.119 148.753 108.688 148.414 108.041C148.044 107.425 147.86 106.485 147.86 105.222C147.86 103.898 148.091 102.157 148.553 100.001C148.984 97.8758 149.6 95.5194 150.401 92.932C151.171 90.3138 152.08 87.6339 153.127 84.8925C154.205 82.1511 155.345 79.5174 156.546 76.9916C157.778 74.435 159.041 72.1402 160.335 70.1072C161.659 68.0743 162.968 66.4571 164.262 65.2558C165.556 64.0545 166.803 63.4539 168.005 63.4539C168.805 63.4539 169.329 63.7003 169.575 64.1931C169.822 64.6552 169.945 65.1942 169.945 65.8103C169.945 67.1348 169.575 68.5825 168.836 70.1535C168.128 71.7244 167.173 73.3107 165.972 74.9125C164.77 76.4834 163.415 77.9773 161.906 79.3942C160.427 80.8112 158.902 82.0279 157.331 83.0443C157.208 83.3524 157.085 83.6604 156.962 83.9684C156.839 84.2764 156.715 84.5845 156.592 84.8925C156.931 85.0157 157.193 85.2313 157.378 85.5394C157.593 85.8474 157.716 86.1708 157.747 86.5096C157.994 87.8342 158.24 89.0201 158.487 90.0673C158.733 91.0838 159.103 91.8847 159.595 92.4699C160.119 93.0552 160.858 93.3478 161.813 93.3478C162.891 93.3478 163.846 92.9474 164.678 92.1465C165.51 91.3456 166.357 90.2214 167.219 88.7736L168.236 89.5129C167.25 91.4843 166.141 92.932 164.909 93.8561C163.677 94.7493 162.568 95.196 161.582 95.196C161.059 95.196 160.504 95.0882 159.919 94.8725C159.364 94.6569 158.825 94.3489 158.302 93.9485C158.271 95.8582 158.04 97.7372 157.609 99.5853C157.208 101.464 156.654 103.158 155.945 104.668C155.237 106.177 154.436 107.378 153.543 108.272C152.68 109.196 151.787 109.658 150.863 109.658ZM152.157 106.793C152.495 106.793 152.85 106.501 153.219 105.915C153.62 105.33 154.005 104.56 154.374 103.605C154.744 102.65 155.083 101.588 155.391 100.417C155.699 99.2773 155.945 98.1376 156.13 96.9979C156.315 95.889 156.407 94.8725 156.407 93.9485C156.407 93.0552 156.3 92.2697 156.084 91.5921C155.899 90.8836 155.56 90.0981 155.067 89.2357C154.359 91.361 153.728 93.4094 153.173 95.3808C152.619 97.3522 152.187 99.1387 151.879 100.74C151.571 102.373 151.417 103.728 151.417 104.806C151.417 106.131 151.664 106.793 152.157 106.793ZM158.671 79.8101C160.55 78.0543 162.152 76.3448 163.477 74.6814C164.801 73.0181 165.802 71.555 166.48 70.2921C167.188 68.9984 167.542 68.0897 167.542 67.566C167.542 67.3196 167.419 67.1964 167.173 67.1964C166.434 67.1964 165.587 67.7662 164.632 68.9059C163.677 70.0148 162.691 71.5242 161.675 73.4339C160.658 75.3437 159.657 77.4691 158.671 79.8101ZM174.708 97.922C173.568 97.922 172.644 97.614 171.935 96.9979C171.227 96.4127 170.873 95.6118 170.873 94.5953C170.873 93.7329 171.088 92.8088 171.52 91.8231C171.951 90.8374 172.382 89.8671 172.813 88.9122C173.275 87.9574 173.506 87.1103 173.506 86.371C173.506 85.6626 173.275 85.0773 172.813 84.6153C172.351 84.1224 171.812 83.722 171.196 83.414C170.519 85.1081 169.748 86.7561 168.886 88.3578C168.054 89.9287 167.377 91.1608 166.853 92.0541L166.16 90.7142C166.591 89.9133 167.161 88.7736 167.87 87.2951C168.578 85.8166 169.256 84.1686 169.902 82.3513C169.594 82.0433 169.44 81.6274 169.44 81.1038C169.44 80.3029 169.687 79.5482 170.18 78.8398C170.673 78.1313 171.15 77.7771 171.612 77.7771C171.982 77.7771 172.243 77.9927 172.397 78.424C172.582 78.8244 172.675 79.1016 172.675 79.2556C172.675 79.4096 172.598 79.6869 172.444 80.0873C172.32 80.4877 172.228 80.7804 172.166 80.9652C172.197 81.304 172.459 81.6428 172.952 81.9817C173.476 82.2897 174.061 82.6593 174.708 83.0905C175.355 83.5218 175.924 84.0608 176.417 84.7077C176.91 85.3545 177.156 86.1708 177.156 87.1565C177.156 88.0498 176.956 88.9584 176.556 89.8825C176.155 90.8066 175.755 91.6691 175.355 92.4699C174.954 93.2708 174.754 93.9639 174.754 94.5491C174.754 94.9804 174.862 95.273 175.077 95.427C175.324 95.5502 175.601 95.6118 175.909 95.6118C176.648 95.6118 177.418 95.3962 178.219 94.965C179.02 94.5029 179.806 93.9177 180.576 93.2092C181.346 92.5007 182.023 91.7615 182.609 90.9914C183.194 90.1906 183.64 89.4667 183.948 88.8198L185.057 89.6515C184.472 90.976 183.625 92.2851 182.516 93.5788C181.407 94.8417 180.175 95.889 178.82 96.7207C177.465 97.5216 176.094 97.922 174.708 97.922ZM185.994 98.1992C184.608 98.1992 183.653 97.7372 183.13 96.8131C182.637 95.9198 182.391 94.9342 182.391 93.8561C182.391 92.8704 182.545 91.8693 182.853 90.8528C183.161 89.8055 183.576 88.8352 184.1 87.942C184.655 87.0487 185.255 86.3402 185.902 85.8166C186.58 85.2621 187.257 84.9849 187.935 84.9849C188.151 84.9849 188.397 85.0311 188.674 85.1235C188.982 85.1851 189.198 85.2929 189.321 85.4469C188.951 85.909 188.566 86.4788 188.166 87.1565C187.796 87.8342 187.442 88.558 187.103 89.3281C186.795 90.0673 186.549 90.822 186.364 91.5921C186.179 92.3621 186.087 93.0706 186.087 93.7174C186.087 94.3335 186.195 94.8417 186.41 95.2422C186.657 95.6426 187.073 95.8428 187.658 95.8428C188.243 95.8428 188.936 95.5194 189.737 94.8725C190.569 94.1949 191.354 93.4248 192.093 92.5624C191.108 91.6691 190.399 90.6988 189.968 89.6515C189.537 88.5734 189.321 87.2797 189.321 85.7704C189.321 85.1235 189.475 84.3843 189.783 83.5526C190.122 82.7209 190.646 81.9971 191.354 81.381C192.093 80.765 193.079 80.4569 194.311 80.4569C195.636 80.4569 196.56 80.8266 197.083 81.5658C197.638 82.3051 197.915 83.183 197.915 84.1994C197.915 85.3391 197.607 86.6174 196.991 88.0344C196.406 89.4513 195.697 90.7912 194.866 92.0541C195.235 92.2389 195.666 92.3313 196.159 92.3313C196.621 92.3313 197.176 92.2235 197.823 92.0079C198.469 91.7923 199.101 91.4381 199.717 90.9452C200.333 90.4216 200.826 89.7285 201.196 88.866L202.027 89.4667C201.35 91.0376 200.441 92.1927 199.301 92.932C198.192 93.6404 197.099 93.9947 196.021 93.9947C195.62 93.9947 195.22 93.9639 194.819 93.9023C194.419 93.8099 194.049 93.702 193.71 93.5788C192.663 94.8109 191.462 95.889 190.107 96.8131C188.751 97.7372 187.381 98.1992 185.994 98.1992ZM193.295 91.0838C194.034 90.0057 194.665 88.8506 195.189 87.6185C195.713 86.3864 195.974 85.2467 195.974 84.1994C195.974 83.491 195.867 82.9827 195.651 82.6747C195.435 82.3359 195.112 82.1665 194.681 82.1665C194.096 82.1665 193.495 82.5823 192.879 83.414C192.263 84.2456 191.955 85.2929 191.955 86.5558C191.955 87.2027 192.063 87.9882 192.278 88.9122C192.525 89.8363 192.863 90.5602 193.295 91.0838ZM224.301 98.153C223.099 98.153 222.206 97.7988 221.621 97.0903C221.036 96.3819 220.743 95.5348 220.743 94.5491C220.743 93.8407 220.851 93.1322 221.066 92.4237C221.282 91.7153 221.498 91.0222 221.713 90.3446C221.929 89.6361 222.037 89.0046 222.037 88.4502C222.037 87.9266 221.929 87.5723 221.713 87.3875C221.528 87.1719 221.282 87.0641 220.974 87.0641C220.266 87.0641 219.434 87.6031 218.479 88.6812C217.555 89.7593 216.4 91.3302 215.014 93.394C214.521 94.1333 214.059 94.9188 213.628 95.7504C213.196 96.5513 212.811 97.2289 212.473 97.7834C212.195 97.7834 211.826 97.7372 211.364 97.6448C210.932 97.5524 210.547 97.4138 210.209 97.2289C209.87 97.0749 209.7 96.8593 209.7 96.5821C209.7 96.3049 209.854 95.7658 210.162 94.965C210.47 94.1641 210.825 93.24 211.225 92.1927C211.625 91.1146 211.98 90.0673 212.288 89.0509C212.596 88.0036 212.75 87.1257 212.75 86.4172C212.75 85.986 212.673 85.6472 212.519 85.4007C212.365 85.1543 212.118 85.0311 211.779 85.0311C211.133 85.0311 210.347 85.4161 209.423 86.1862C208.53 86.9563 207.575 87.9728 206.558 89.2357C205.573 90.4678 204.633 91.8539 203.74 93.394C202.878 94.9033 202.169 96.4281 201.615 97.9682C201.276 97.9682 200.86 97.8912 200.367 97.7372C199.874 97.614 199.443 97.4446 199.073 97.2289C198.704 97.0441 198.519 96.8747 198.519 96.7207C198.519 96.6899 198.627 96.2587 198.842 95.427C199.058 94.5645 199.32 93.5018 199.628 92.2389C199.936 90.976 200.259 89.6823 200.598 88.3578C200.937 87.0333 201.23 85.8782 201.476 84.8925C201.568 84.5537 201.907 84.261 202.492 84.0146C203.078 83.7374 203.586 83.5988 204.017 83.5988C204.448 83.5988 204.818 83.7374 205.126 84.0146C205.434 84.2919 205.588 84.6615 205.588 85.1235C205.588 85.4315 205.527 85.8782 205.403 86.4634C205.28 87.0487 205.126 87.7109 204.941 88.4502C205.588 87.5877 206.266 86.7407 206.974 85.909C207.714 85.0465 208.468 84.2764 209.238 83.5988C210.039 82.9211 210.825 82.3821 211.595 81.9817C212.396 81.5812 213.181 81.381 213.951 81.381C215.091 81.381 215.861 81.7968 216.261 82.6285C216.662 83.4294 216.862 84.3073 216.862 85.2621C216.862 85.6626 216.831 86.063 216.769 86.4634C216.708 86.8331 216.615 87.2181 216.492 87.6185C216.4 87.9882 216.261 88.4348 216.076 88.9584C216.662 88.096 217.293 87.3105 217.971 86.602C218.679 85.8628 219.434 85.2775 220.235 84.8463C221.036 84.4151 221.883 84.1994 222.776 84.1994C223.977 84.1994 224.809 84.5691 225.271 85.3083C225.733 86.0168 225.964 86.8023 225.964 87.6647C225.964 88.4656 225.825 89.3127 225.548 90.206C225.302 91.0684 225.04 91.9001 224.763 92.701C224.516 93.471 224.393 94.1333 224.393 94.6877C224.393 94.9958 224.47 95.2884 224.624 95.5656C224.778 95.812 225.086 95.9352 225.548 95.9352C226.38 95.9352 227.181 95.5502 227.951 94.7801C228.721 94.0101 229.429 93.0706 230.076 91.9617C230.754 90.822 231.324 89.7439 231.786 88.7274L232.571 89.6977C232.078 90.9606 231.432 92.2543 230.631 93.5788C229.861 94.8725 228.952 95.9506 227.905 96.8131C226.857 97.7064 225.656 98.153 224.301 98.153ZM233.965 100.74C234.149 99.6315 234.35 98.5073 234.565 97.3676C234.812 96.2279 235.104 94.965 235.443 93.5788C235.813 92.1927 236.259 90.6064 236.783 88.8198C237.337 87.0333 238 84.9541 238.77 82.5823C238.308 82.6131 237.799 82.6593 237.245 82.7209C236.721 82.7825 236.229 82.8287 235.767 82.8595C235.767 81.8738 236.136 81.1192 236.875 80.5955C237.615 80.0719 238.585 79.6869 239.786 79.4404C239.909 79.0092 240.017 78.6704 240.11 78.424C240.202 78.1775 240.31 77.8695 240.433 77.4999C240.556 77.1302 240.741 76.622 240.988 75.9751C241.234 75.2975 241.557 74.3426 241.958 73.1105C242.389 71.8784 242.944 70.2613 243.621 68.2591C243.683 68.1051 243.791 67.7971 243.945 67.335C244.099 66.873 244.176 66.4417 244.176 66.0413C244.176 65.7949 244.129 65.6255 244.037 65.5331C243.975 65.4407 243.821 65.3945 243.575 65.3945C242.959 65.3945 242.327 65.6717 241.681 66.2261C241.065 66.7806 240.495 67.489 239.971 68.3515C239.447 69.1832 239.032 70.061 238.724 70.9851C238.416 71.8784 238.262 72.6793 238.262 73.3877C238.262 73.6341 238.292 73.9114 238.354 74.2194C238.416 74.5274 238.539 74.9433 238.724 75.4669C237.43 75.4669 236.49 75.1897 235.905 74.6352C235.351 74.05 235.073 73.3107 235.073 72.4174C235.073 71.3702 235.381 70.3229 235.998 69.2756C236.644 68.2283 237.461 67.2734 238.446 66.4109C239.463 65.5177 240.526 64.8092 241.634 64.2856C242.774 63.7311 243.821 63.4539 244.776 63.4539C245.762 63.4539 246.44 63.7157 246.809 64.2394C247.179 64.763 247.364 65.3482 247.364 65.9951C247.364 66.3339 247.317 66.6728 247.225 67.0116C247.163 67.3504 247.086 67.6738 246.994 67.9819L243.621 79.0708C243.991 79.04 244.36 79.0246 244.73 79.0246C245.131 79.0246 245.531 79.0246 245.931 79.0246C247.441 79.0246 248.858 79.0554 250.182 79.117C251.507 79.1786 252.785 79.271 254.017 79.3942C254.787 76.8068 255.434 74.6814 255.958 73.0181C256.512 71.3548 256.99 69.984 257.39 68.9059C257.821 67.7971 258.206 66.8268 258.545 65.9951C258.668 65.7487 258.838 65.4253 259.053 65.0248C259.3 64.5936 259.639 64.224 260.07 63.9159C260.532 63.5771 261.132 63.4077 261.872 63.4077C261.471 64.4858 260.978 65.9181 260.393 67.7046C259.839 69.4604 259.269 71.3856 258.684 73.4801C258.098 75.5439 257.544 77.5923 257.02 79.6253C257.452 79.6253 258.052 79.6561 258.822 79.7177C259.623 79.7485 260.362 79.7639 261.04 79.7639C260.085 80.7187 259.238 81.3194 258.499 81.5658C257.76 81.7814 257.082 81.8892 256.466 81.8892C256.127 83.3062 255.819 84.6615 255.542 85.9552C255.265 87.2489 255.034 88.4502 254.849 89.5591C254.479 91.5305 254.202 93.2554 254.017 94.7339C253.863 96.1817 253.786 97.3676 253.786 98.2916C253.786 98.7845 253.801 99.2157 253.832 99.5853C253.894 99.9858 253.955 100.371 254.017 100.74C252.446 100.586 251.368 100.201 250.783 99.5853C250.228 99.0001 249.951 97.9528 249.951 96.4435C249.951 95.735 249.997 94.9496 250.09 94.0871C250.213 93.2246 250.413 92.2081 250.69 91.0376C250.937 89.8979 251.276 88.5888 251.707 87.1103C252.138 85.6318 252.662 83.9068 253.278 81.9355C251.399 81.9355 249.843 81.9509 248.611 81.9817C247.379 82.0125 246.301 82.0433 245.377 82.0741C244.453 82.1049 243.529 82.1665 242.605 82.2589C242.574 82.3821 242.497 82.6439 242.374 83.0443C242.25 83.4448 242.035 84.1532 241.727 85.1697C241.419 86.1862 240.957 87.6801 240.341 89.6515C239.725 91.6229 238.893 94.2719 237.846 97.5986C237.507 98.7383 236.922 99.5391 236.09 100.001C235.258 100.494 234.55 100.74 233.965 100.74ZM263.151 98.1992C261.765 98.1992 260.81 97.7372 260.287 96.8131C259.794 95.9198 259.547 94.9342 259.547 93.8561C259.547 92.8704 259.701 91.8693 260.009 90.8528C260.318 89.8055 260.733 88.8352 261.257 87.942C261.811 87.0487 262.412 86.3402 263.059 85.8166C263.737 85.2621 264.414 84.9849 265.092 84.9849C265.308 84.9849 265.554 85.0311 265.831 85.1235C266.139 85.1851 266.355 85.2929 266.478 85.4469C266.108 85.909 265.723 86.4788 265.323 87.1565C264.953 87.8342 264.599 88.558 264.26 89.3281C263.952 90.0673 263.706 90.822 263.521 91.5921C263.336 92.3621 263.244 93.0706 263.244 93.7174C263.244 94.3335 263.352 94.8417 263.567 95.2422C263.814 95.6426 264.229 95.8428 264.815 95.8428C265.4 95.8428 266.093 95.5194 266.894 94.8725C267.726 94.1949 268.511 93.4248 269.25 92.5624C268.265 91.6691 267.556 90.6988 267.125 89.6515C266.694 88.5734 266.478 87.2797 266.478 85.7704C266.478 85.1235 266.632 84.3843 266.94 83.5526C267.279 82.7209 267.803 81.9971 268.511 81.381C269.25 80.765 270.236 80.4569 271.468 80.4569C272.793 80.4569 273.717 80.8266 274.24 81.5658C274.795 82.3051 275.072 83.183 275.072 84.1994C275.072 85.3391 274.764 86.6174 274.148 88.0344C273.563 89.4513 272.854 90.7912 272.023 92.0541C272.392 92.2389 272.823 92.3313 273.316 92.3313C273.778 92.3313 274.333 92.2235 274.98 92.0079C275.626 91.7923 276.258 91.4381 276.874 90.9452C277.49 90.4216 277.983 89.7285 278.352 88.866L279.184 89.4667C278.506 91.0376 277.598 92.1927 276.458 92.932C275.349 93.6404 274.256 93.9947 273.178 93.9947C272.777 93.9947 272.377 93.9639 271.976 93.9023C271.576 93.8099 271.206 93.702 270.867 93.5788C269.82 94.8109 268.619 95.889 267.264 96.8131C265.908 97.7372 264.537 98.1992 263.151 98.1992ZM270.452 91.0838C271.191 90.0057 271.822 88.8506 272.346 87.6185C272.87 86.3864 273.131 85.2467 273.131 84.1994C273.131 83.491 273.024 82.9827 272.808 82.6747C272.592 82.3359 272.269 82.1665 271.838 82.1665C271.252 82.1665 270.652 82.5823 270.036 83.414C269.42 84.2456 269.112 85.2929 269.112 86.5558C269.112 87.2027 269.219 87.9882 269.435 88.9122C269.682 89.8363 270.02 90.5602 270.452 91.0838ZM301.458 98.153C300.256 98.153 299.363 97.7988 298.778 97.0903C298.193 96.3819 297.9 95.5348 297.9 94.5491C297.9 93.8407 298.008 93.1322 298.223 92.4237C298.439 91.7153 298.655 91.0222 298.87 90.3446C299.086 89.6361 299.194 89.0046 299.194 88.4502C299.194 87.9266 299.086 87.5723 298.87 87.3875C298.685 87.1719 298.439 87.0641 298.131 87.0641C297.423 87.0641 296.591 87.6031 295.636 88.6812C294.712 89.7593 293.557 91.3302 292.171 93.394C291.678 94.1333 291.216 94.9188 290.785 95.7504C290.353 96.5513 289.968 97.2289 289.629 97.7834C289.352 97.7834 288.983 97.7372 288.521 97.6448C288.089 97.5524 287.704 97.4138 287.365 97.2289C287.027 97.0749 286.857 96.8593 286.857 96.5821C286.857 96.3049 287.011 95.7658 287.319 94.965C287.627 94.1641 287.982 93.24 288.382 92.1927C288.782 91.1146 289.137 90.0673 289.445 89.0509C289.753 88.0036 289.907 87.1257 289.907 86.4172C289.907 85.986 289.83 85.6472 289.676 85.4007C289.522 85.1543 289.275 85.0311 288.936 85.0311C288.29 85.0311 287.504 85.4161 286.58 86.1862C285.687 86.9563 284.732 87.9728 283.715 89.2357C282.73 90.4678 281.79 91.8539 280.897 93.394C280.034 94.9033 279.326 96.4281 278.772 97.9682C278.433 97.9682 278.017 97.8912 277.524 97.7372C277.031 97.614 276.6 97.4446 276.23 97.2289C275.861 97.0441 275.676 96.8747 275.676 96.7207C275.676 96.6899 275.784 96.2587 275.999 95.427C276.215 94.5645 276.477 93.5018 276.785 92.2389C277.093 90.976 277.416 89.6823 277.755 88.3578C278.094 87.0333 278.386 85.8782 278.633 84.8925C278.725 84.5537 279.064 84.261 279.649 84.0146C280.235 83.7374 280.743 83.5988 281.174 83.5988C281.605 83.5988 281.975 83.7374 282.283 84.0146C282.591 84.2919 282.745 84.6615 282.745 85.1235C282.745 85.4315 282.683 85.8782 282.56 86.4634C282.437 87.0487 282.283 87.7109 282.098 88.4502C282.745 87.5877 283.423 86.7407 284.131 85.909C284.87 85.0465 285.625 84.2764 286.395 83.5988C287.196 82.9211 287.982 82.3821 288.752 81.9817C289.552 81.5812 290.338 81.381 291.108 81.381C292.248 81.381 293.018 81.7968 293.418 82.6285C293.819 83.4294 294.019 84.3073 294.019 85.2621C294.019 85.6626 293.988 86.063 293.926 86.4634C293.865 86.8331 293.772 87.2181 293.649 87.6185C293.557 87.9882 293.418 88.4348 293.233 88.9584C293.819 88.096 294.45 87.3105 295.128 86.602C295.836 85.8628 296.591 85.2775 297.392 84.8463C298.193 84.4151 299.04 84.1994 299.933 84.1994C301.134 84.1994 301.966 84.5691 302.428 85.3083C302.89 86.0168 303.121 86.8023 303.121 87.6647C303.121 88.4656 302.982 89.3127 302.705 90.206C302.459 91.0684 302.197 91.9001 301.92 92.701C301.673 93.471 301.55 94.1333 301.55 94.6877C301.55 94.9958 301.627 95.2884 301.781 95.5656C301.935 95.812 302.243 95.9352 302.705 95.9352C303.537 95.9352 304.338 95.5502 305.108 94.7801C305.878 94.0101 306.586 93.0706 307.233 91.9617C307.911 90.822 308.481 89.7439 308.943 88.7274L309.728 89.6977C309.235 90.9606 308.588 92.2543 307.788 93.5788C307.018 94.8725 306.109 95.9506 305.062 96.8131C304.014 97.7064 302.813 98.153 301.458 98.153ZM313.154 98.7537C311.183 98.7537 309.658 98.2146 308.58 97.1365C307.533 96.0892 307.009 94.7647 307.009 93.163C307.009 91.8077 307.348 90.3754 308.026 88.866C308.734 87.3259 309.674 85.8936 310.844 84.5691C312.015 83.2138 313.308 82.1203 314.725 81.2886C316.142 80.4569 317.559 80.0411 318.976 80.0411C319.777 80.0411 320.532 80.2567 321.24 80.6879C321.979 81.0884 322.349 81.9046 322.349 83.1368C322.349 84.3073 322.01 85.4007 321.333 86.4172C320.655 87.4337 319.746 88.3424 318.607 89.1433C317.467 89.9441 316.204 90.6064 314.818 91.13C313.462 91.6229 312.092 91.9463 310.706 92.1003C310.675 92.2235 310.644 92.3621 310.613 92.5161C310.613 92.6394 310.613 92.855 310.613 93.163C310.613 93.317 310.629 93.5942 310.659 93.9947C310.721 94.3643 310.86 94.7647 311.075 95.196C311.291 95.6272 311.645 95.9968 312.138 96.3049C312.631 96.6129 313.308 96.7669 314.171 96.7669C315.465 96.7669 316.758 96.4127 318.052 95.7042C319.377 94.965 320.609 93.9947 321.748 92.7934C322.919 91.5921 323.889 90.2522 324.659 88.7736L325.583 89.5129C324.752 91.361 323.674 92.9782 322.349 94.3643C321.055 95.7504 319.608 96.8285 318.006 97.5986C316.435 98.3686 314.818 98.7537 313.154 98.7537ZM311.214 90.3908C312.015 90.2984 312.908 90.0211 313.894 89.5591C314.879 89.0971 315.819 88.5118 316.712 87.8033C317.636 87.0949 318.391 86.3248 318.976 85.4932C319.561 84.6307 319.854 83.7682 319.854 82.9057C319.854 82.5669 319.792 82.3359 319.669 82.2127C319.546 82.0895 319.346 82.0279 319.069 82.0279C318.36 82.0279 317.621 82.2897 316.851 82.8133C316.081 83.3062 315.326 83.9684 314.587 84.8001C313.848 85.601 313.185 86.4942 312.6 87.4799C312.015 88.4656 311.553 89.4359 311.214 90.3908ZM326.869 97.1827C326.129 97.1827 325.606 96.9979 325.298 96.6283C324.99 96.2279 324.836 95.8274 324.836 95.427C324.836 95.0882 324.99 94.7339 325.298 94.3643C325.606 93.9639 325.991 93.6404 326.453 93.394C326.915 93.1168 327.346 92.9782 327.747 92.9782C328.085 92.9782 328.424 93.086 328.763 93.3016C329.102 93.4864 329.271 93.8561 329.271 94.4105C329.271 94.6569 329.179 95.0112 328.994 95.4732C328.809 95.9044 328.532 96.3049 328.162 96.6745C327.824 97.0133 327.392 97.1827 326.869 97.1827ZM338.428 98.1068C337.073 98.1068 336.057 97.7064 335.379 96.9055C334.701 96.1047 334.362 95.1344 334.362 93.9947C334.362 93.2862 334.486 92.3929 334.732 91.3148C334.978 90.2368 335.317 89.1125 335.749 87.942C336.211 86.7407 336.734 85.6164 337.319 84.5691C337.905 83.5218 338.536 82.6747 339.214 82.0279C339.891 81.3502 340.569 81.0114 341.247 81.0114C341.616 81.0114 341.94 81.1192 342.217 81.3348C342.494 81.5504 342.633 81.8892 342.633 82.3513C342.633 82.7517 342.386 83.3524 341.894 84.1532C341.432 84.9541 340.877 85.8782 340.23 86.9255C339.614 87.9728 339.06 89.0663 338.567 90.206C338.105 91.3148 337.874 92.3775 337.874 93.394C337.874 94.3797 338.043 95.042 338.382 95.3808C338.752 95.6888 339.275 95.8428 339.953 95.8428C341 95.8428 342.14 95.3192 343.372 94.2719C344.604 93.2246 345.883 91.3919 347.207 88.7736L347.9 89.5129C346.822 92.2235 345.451 94.3335 343.788 95.8428C342.125 97.3522 340.338 98.1068 338.428 98.1068ZM343.88 77.2689C343.295 77.2689 342.756 77.1302 342.263 76.853C341.801 76.545 341.57 76.083 341.57 75.4669C341.57 74.7276 341.971 74.0962 342.772 73.5725C343.572 73.0489 344.404 72.7871 345.267 72.7871C345.821 72.7871 346.283 72.9103 346.653 73.1567C347.053 73.4031 347.253 73.8498 347.253 74.4966C347.253 75.1435 346.899 75.7749 346.191 76.391C345.482 76.9762 344.712 77.2689 343.88 77.2689ZM349.062 98.1992C347.676 98.1992 346.721 97.7372 346.197 96.8131C345.704 95.9198 345.458 94.9342 345.458 93.8561C345.458 92.8704 345.612 91.8693 345.92 90.8528C346.228 89.8055 346.644 88.8352 347.167 87.942C347.722 87.0487 348.323 86.3402 348.969 85.8166C349.647 85.2621 350.325 84.9849 351.002 84.9849C351.218 84.9849 351.464 85.0311 351.742 85.1235C352.05 85.1851 352.265 85.2929 352.388 85.4469C352.019 85.909 351.634 86.4788 351.233 87.1565C350.864 87.8342 350.509 88.558 350.171 89.3281C349.863 90.0673 349.616 90.822 349.431 91.5921C349.247 92.3621 349.154 93.0706 349.154 93.7174C349.154 94.3335 349.262 94.8417 349.478 95.2422C349.724 95.6426 350.14 95.8428 350.725 95.8428C351.31 95.8428 352.003 95.5194 352.804 94.8725C353.636 94.1949 354.421 93.4248 355.161 92.5624C354.175 91.6691 353.467 90.6988 353.035 89.6515C352.604 88.5734 352.388 87.2797 352.388 85.7704C352.388 85.1235 352.542 84.3843 352.85 83.5526C353.189 82.7209 353.713 81.9971 354.421 81.381C355.161 80.765 356.146 80.4569 357.378 80.4569C358.703 80.4569 359.627 80.8266 360.151 81.5658C360.705 82.3051 360.982 83.183 360.982 84.1994C360.982 85.3391 360.674 86.6174 360.058 88.0344C359.473 89.4513 358.765 90.7912 357.933 92.0541C358.303 92.2389 358.734 92.3313 359.227 92.3313C359.689 92.3313 360.243 92.2235 360.89 92.0079C361.537 91.7923 362.168 91.4381 362.784 90.9452C363.4 90.4216 363.893 89.7285 364.263 88.866L365.095 89.4667C364.417 91.0376 363.508 92.1927 362.368 92.932C361.26 93.6404 360.166 93.9947 359.088 93.9947C358.688 93.9947 358.287 93.9639 357.887 93.9023C357.486 93.8099 357.117 93.702 356.778 93.5788C355.731 94.8109 354.529 95.889 353.174 96.8131C351.819 97.7372 350.448 98.1992 349.062 98.1992ZM356.362 91.0838C357.101 90.0057 357.733 88.8506 358.256 87.6185C358.78 86.3864 359.042 85.2467 359.042 84.1994C359.042 83.491 358.934 82.9827 358.718 82.6747C358.503 82.3359 358.179 82.1665 357.748 82.1665C357.163 82.1665 356.562 82.5823 355.946 83.414C355.33 84.2456 355.022 85.2929 355.022 86.5558C355.022 87.2027 355.13 87.9882 355.346 88.9122C355.592 89.8363 355.931 90.5602 356.362 91.0838Z" fill="white"/>
</svg>
