<svg width="16" height="16" viewBox="0 0 16 16" fill="none" xmlns="http://www.w3.org/2000/svg">
<path d="M2.50024 2.51367C4.02108 0.992839 5.85441 0.232422 8.00024 0.232422C10.1461 0.232422 11.969 0.992839 13.469 2.51367C14.9898 4.01367 15.7502 5.83659 15.7502 7.98242C15.7502 10.1283 14.9898 11.9616 13.469 13.4824C11.969 14.9824 10.1461 15.7324 8.00024 15.7324C5.85441 15.7324 4.02108 14.9824 2.50024 13.4824C1.00024 11.9616 0.250244 10.1283 0.250244 7.98242C0.250244 5.83659 1.00024 4.01367 2.50024 2.51367ZM3.87524 9.23242H12.1252C12.3752 9.23242 12.5002 9.10742 12.5002 8.85742V7.10742C12.5002 6.85742 12.3752 6.73242 12.1252 6.73242H3.87524C3.62524 6.73242 3.50024 6.85742 3.50024 7.10742V8.85742C3.50024 9.10742 3.62524 9.23242 3.87524 9.23242Z" fill="#2E3357"/>
</svg>
