<svg width="358" height="82" viewBox="0 0 358 82" fill="none" xmlns="http://www.w3.org/2000/svg">
<path fill-rule="evenodd" clip-rule="evenodd" d="M298.636 31.2446C300.84 31.2446 302.874 32.4405 302.596 35.4209C302.259 38.963 300.361 40.9229 297.367 40.9314H294.751C294.375 40.9314 294.193 41.2384 294.095 41.8675L293.589 45.084C293.513 45.5698 293.263 45.8093 292.896 45.8093H290.462C290.074 45.8093 289.939 45.5614 290.025 45.0065L292.034 32.115C292.133 31.4808 292.371 31.2446 292.805 31.2446H298.63H298.636ZM294.672 38.1466H296.654C297.893 38.0994 298.716 37.2409 298.799 35.6925C298.85 34.7361 298.204 34.0513 297.177 34.0564L295.311 34.0648L294.672 38.1466ZM309.213 44.8226C309.435 44.6202 309.662 44.5156 309.629 44.7653L309.55 45.3623C309.51 45.6744 309.633 45.8397 309.923 45.8397H312.085C312.45 45.8397 312.627 45.6929 312.716 45.1296L314.049 36.7669C314.116 36.3469 314.013 36.1411 313.694 36.1411H311.316C311.102 36.1411 310.997 36.2609 310.942 36.5881L310.854 37.1026C310.808 37.3707 310.685 37.418 310.571 37.1481C310.168 36.1934 309.139 35.765 307.703 35.7987C304.369 35.8679 302.12 38.3996 301.879 41.6449C301.694 44.1547 303.492 46.1264 305.863 46.1264C307.583 46.1264 308.353 45.6204 309.22 44.8277L309.213 44.8226ZM307.401 43.5356C305.966 43.5356 304.966 42.3904 305.173 40.987C305.381 39.5837 306.723 38.4384 308.159 38.4384C309.594 38.4384 310.594 39.5837 310.387 40.987C310.179 42.3904 308.838 43.5356 307.401 43.5356ZM318.281 36.1141H316.088C315.636 36.1141 315.452 36.4515 315.595 36.8664L318.318 44.8378L315.648 48.6312C315.423 48.9483 315.597 49.2367 315.912 49.2367H318.377C318.52 49.2533 318.666 49.2283 318.795 49.1646C318.925 49.1009 319.034 49.0012 319.109 48.8774L327.482 36.8681C327.74 36.4987 327.618 36.1108 327.195 36.1108H324.862C324.462 36.1108 324.302 36.2693 324.073 36.6016L320.581 41.6617L319.021 36.5898C318.93 36.2828 318.702 36.1141 318.282 36.1141H318.281Z" fill="#113984"/>
<path fill-rule="evenodd" clip-rule="evenodd" d="M336.192 31.2441C338.397 31.2441 340.431 32.44 340.153 35.4204C339.815 38.9625 337.918 40.9224 334.924 40.9308H332.309C331.933 40.9308 331.751 41.2378 331.653 41.867L331.147 45.0835C331.071 45.5693 330.822 45.8088 330.454 45.8088H328.02C327.632 45.8088 327.497 45.5609 327.583 45.0059L329.595 32.1111C329.695 31.4769 329.933 31.2407 330.366 31.2407H336.192V31.2441ZM332.228 38.1461H334.21C335.45 38.0989 336.273 37.2403 336.356 35.6919C336.406 34.7356 335.76 34.0508 334.733 34.0558L332.868 34.0643L332.228 38.1461ZM346.769 44.8221C346.992 44.6197 347.218 44.5151 347.186 44.7647L347.107 45.3618C347.066 45.6739 347.189 45.8392 347.48 45.8392H349.642C350.006 45.8392 350.183 45.6924 350.273 45.1291L351.605 36.7664C351.673 36.3464 351.57 36.1406 351.251 36.1406H348.876C348.662 36.1406 348.557 36.2604 348.502 36.5876L348.414 37.102C348.368 37.3702 348.245 37.4174 348.131 37.1476C347.728 36.1929 346.699 35.7645 345.263 35.7982C341.929 35.8674 339.68 38.3991 339.439 41.6443C339.254 44.1541 341.052 46.1259 343.423 46.1259C345.143 46.1259 345.913 45.6199 346.78 44.8271L346.769 44.8221ZM344.96 43.5351C343.524 43.5351 342.524 42.3898 342.732 40.9865C342.939 39.5832 344.282 38.4379 345.717 38.4379C347.152 38.4379 348.153 39.5832 347.945 40.9865C347.738 42.3898 346.395 43.5351 344.96 43.5351ZM354.933 45.8526H352.437C352.393 45.8546 352.35 45.8469 352.31 45.8302C352.27 45.8134 352.234 45.7881 352.205 45.7558C352.176 45.7236 352.154 45.6853 352.141 45.6438C352.129 45.6022 352.125 45.5583 352.132 45.5153L354.324 31.6236C354.345 31.5288 354.398 31.4439 354.473 31.3826C354.548 31.3214 354.642 31.2874 354.739 31.2863H357.235C357.279 31.2843 357.322 31.292 357.362 31.3087C357.402 31.3255 357.438 31.3509 357.468 31.3831C357.497 31.4153 357.518 31.4536 357.531 31.4952C357.544 31.5367 357.547 31.5806 357.541 31.6236L355.348 45.5153C355.328 45.6107 355.276 45.6964 355.2 45.7584C355.125 45.8203 355.031 45.8547 354.933 45.856V45.8526Z" fill="#009EE3"/>
<path fill-rule="evenodd" clip-rule="evenodd" d="M269.804 30.0615H278.266C282.809 30.0615 284.519 32.3615 284.255 35.7405C283.818 41.3189 280.446 44.4052 275.972 44.4052H273.714C273.1 44.4052 272.687 44.8115 272.521 45.9123L271.563 52.3121C271.499 52.7271 271.281 52.9673 270.953 53.0001H265.637C265.137 53.0001 264.96 52.6179 265.091 51.79L268.332 31.2738C268.459 30.4525 268.909 30.0615 269.804 30.0615Z" fill="#009EE3"/>
<path fill-rule="evenodd" clip-rule="evenodd" d="M264.513 23H272.983C275.368 23 278.199 23.0764 280.09 24.7474C281.355 25.8635 282.019 27.6393 281.866 29.5526C281.346 36.0201 277.478 39.6437 272.288 39.6437H268.112C267.4 39.6437 266.93 40.1155 266.73 41.391L265.563 48.8173C265.487 49.2979 265.279 49.5818 264.908 49.6168H259.681C259.102 49.6168 258.897 49.1799 259.048 48.2145L262.805 24.411C262.955 23.4543 263.482 23 264.513 23Z" fill="#113984"/>
<path fill-rule="evenodd" clip-rule="evenodd" d="M266.852 40.6382L268.331 31.2745C268.46 30.4532 268.909 30.0601 269.805 30.0601H278.267C279.667 30.0601 280.8 30.2785 281.687 30.6826C280.837 36.4401 277.113 39.6378 272.238 39.6378H268.069C267.509 39.64 267.099 39.9196 266.852 40.6382Z" fill="#172C70"/>
<path d="M167.635 25.052L168.427 24.2997L171.075 26.2219L169.38 23.4173L170.162 22.6974L173.698 26.3582L173.145 26.8711L170.735 24.3979L172.609 27.373L172.141 27.8112L169.282 25.7247L171.592 28.3198L171.034 28.8476L167.635 25.052Z" fill="#F77952"/>
<path d="M174.341 25.5233C173.931 25.3441 173.596 25.0282 173.393 24.6295L172.417 23.0028C172.165 22.6391 172.049 22.1985 172.088 21.7579C172.142 21.4011 172.401 21.0852 172.865 20.8052C173.329 20.5253 173.727 20.4524 174.069 20.5705C174.473 20.7447 174.804 21.0556 175.003 21.4488L175.983 23.0795C176.237 23.4423 176.357 23.8815 176.324 24.3228C176.269 24.6851 176.013 25.0042 175.553 25.2803C175.088 25.571 174.684 25.6473 174.341 25.5233ZM175.381 24.3194C175.356 24.1549 175.294 23.9979 175.201 23.8599L173.963 21.7969C173.885 21.6468 173.774 21.5167 173.637 21.4168C173.575 21.3841 173.505 21.3701 173.435 21.3764C173.365 21.3828 173.298 21.4091 173.243 21.4524C173.179 21.481 173.124 21.5278 173.086 21.5869C173.048 21.646 173.028 21.7149 173.029 21.7852C173.048 21.9519 173.107 22.1115 173.201 22.2506L174.443 24.3012C174.523 24.4519 174.636 24.5825 174.774 24.6829C174.836 24.7165 174.907 24.7311 174.978 24.7249C175.048 24.7188 175.115 24.692 175.171 24.6481C175.234 24.6197 175.287 24.5735 175.325 24.5151C175.362 24.4567 175.381 24.3887 175.381 24.3194Z" fill="#F77952"/>
<path d="M175.661 19.4012L176.338 19.1514L178.316 21.243L177.404 18.7483L178.21 18.4573L179.975 23.2353L179.32 23.4758L177.291 21.2273L178.264 23.868L177.434 24.1734L175.661 19.4012Z" fill="#F77952"/>
<path d="M179.774 18.06L181.95 17.6593L182.084 18.3654L180.913 18.5832L181.166 19.911L182.068 19.7391L182.203 20.4484L181.301 20.6178L181.61 22.1812L182.784 21.9559L182.913 22.6471L180.722 23.0595L179.774 18.06Z" fill="#F77952"/>
<path d="M184.06 20.5563L182.971 17.5175L183.944 17.4865L184.548 19.2605L184.991 17.4548L185.94 17.4241L185.06 20.5259L185.124 22.5416L184.124 22.572L184.06 20.5563Z" fill="#F77952"/>
<path d="M189.358 17.7695L190.616 18.0669C191.014 18.1366 191.381 18.3257 191.669 18.6092C191.892 18.8571 191.945 19.2235 191.83 19.7093C191.785 19.9575 191.663 20.185 191.481 20.3592C191.31 20.4999 191.09 20.5677 190.869 20.5479C190.995 20.5899 191.11 20.6579 191.207 20.7475C191.305 20.8372 191.382 20.9464 191.434 21.068C191.533 21.3553 191.54 21.6663 191.453 21.9575C191.224 22.9276 190.629 23.2984 189.668 23.0699L188.188 22.7235L189.358 17.7695ZM189.645 22.3171C189.739 22.3514 189.838 22.3639 189.937 22.3537C190.036 22.3434 190.131 22.3107 190.215 22.2581C190.37 22.1143 190.472 21.9218 190.503 21.7124C190.571 21.5049 190.569 21.2807 190.496 21.0746C190.443 20.9903 190.372 20.9187 190.288 20.8651C190.204 20.8114 190.109 20.7769 190.01 20.7641L189.754 20.7038L189.386 22.2693L189.645 22.3171ZM190.144 20.0668C190.232 20.0991 190.326 20.1115 190.42 20.1031C190.513 20.0946 190.604 20.0656 190.685 20.018C190.825 19.8882 190.916 19.715 190.945 19.5265C190.973 19.4415 190.983 19.3514 190.972 19.2625C190.962 19.1735 190.932 19.088 190.885 19.0118C190.754 18.8672 190.578 18.7717 190.386 18.7412L190.196 18.6968L189.888 20.0065L190.144 20.0668Z" fill="#F77952"/>
<path d="M194.406 19.2714L195.456 19.7383L194.291 24.7875L193.42 24.3999L193.699 23.3009L192.967 22.969L192.334 23.9184L191.442 23.5244L194.406 19.2714ZM193.862 22.6737L194.411 20.6764L193.299 22.4237L193.862 22.6737Z" fill="#F77952"/>
<path d="M195.093 24.8615C195.092 24.4126 195.242 23.9764 195.519 23.6227L196.538 22.1125C196.764 21.723 197.113 21.419 197.529 21.2479C197.875 21.1371 198.274 21.2334 198.727 21.5368C199.18 21.8402 199.413 22.1509 199.426 22.4689C199.442 22.8596 199.319 23.2434 199.078 23.5512L198.837 23.9058L198.019 23.3511L198.282 22.9623C198.351 22.8617 198.413 22.7567 198.469 22.648C198.509 22.5667 198.522 22.4744 198.506 22.385C198.479 22.2862 198.414 22.2021 198.326 22.1508C198.272 22.102 198.204 22.0709 198.132 22.0614C198.06 22.052 197.987 22.0647 197.922 22.0979C197.774 22.2041 197.649 22.339 197.555 22.4944L196.259 24.411C196.151 24.5527 196.077 24.7173 196.043 24.8921C196.039 24.9612 196.056 25.0298 196.09 25.0898C196.125 25.1497 196.176 25.1984 196.237 25.2297C196.288 25.276 196.352 25.3051 196.421 25.3127C196.489 25.3203 196.558 25.3061 196.617 25.2721C196.762 25.1648 196.885 25.0305 196.979 24.8764L197.257 24.4651L198.089 25.0271L197.853 25.3751C197.649 25.7222 197.332 25.9886 196.955 26.1293C196.631 26.2313 196.249 26.1334 195.818 25.8406C195.387 25.5477 195.117 25.2299 195.093 24.8615Z" fill="#F77952"/>
<path d="M201.066 23.3873L201.802 24.1111L200.309 25.6453L202.473 24.7617L203.19 25.4658L200.886 26.4196L199.655 29.1416L198.907 28.4055L199.941 26.2341L199.64 26.316L198.241 27.7399L197.504 27.0186L201.066 23.3873Z" fill="#F77952"/>
<path d="M171.899 53.2972L172.69 54.0609L170.915 56.8085L173.624 54.9582L174.388 55.6941L170.924 59.423L170.38 58.9068L172.72 56.357L169.863 58.3936L169.4 57.9503L171.326 54.9924L168.86 57.4408L168.314 56.913L171.899 53.2972Z" fill="#F77952"/>
<path d="M172.59 60.1853C172.563 59.7416 172.692 59.3025 172.953 58.9429L173.951 57.3377C174.155 56.9457 174.49 56.6376 174.897 56.467C175.237 56.3532 175.641 56.431 176.097 56.7236C176.553 57.0161 176.805 57.3283 176.858 57.6865C176.886 58.1266 176.76 58.5628 176.502 58.9204L175.502 60.5249C175.296 60.9163 174.961 61.2239 174.553 61.3948C174.207 61.5144 173.805 61.4292 173.35 61.1482C172.896 60.8672 172.636 60.5468 172.59 60.1853ZM174.122 60.5544C174.262 60.4587 174.377 60.3318 174.459 60.1838L175.736 58.1539C175.831 58.017 175.892 57.8593 175.914 57.6939C175.918 57.6229 175.9 57.5526 175.863 57.4917C175.826 57.4309 175.772 57.3824 175.708 57.3523C175.653 57.3084 175.587 57.2812 175.517 57.2738C175.447 57.2665 175.377 57.2794 175.314 57.3109C175.176 57.4052 175.062 57.5307 174.981 57.6772L173.718 59.7062C173.621 59.8461 173.557 60.0063 173.531 60.1745C173.537 60.2436 173.559 60.3103 173.595 60.3693C173.632 60.4284 173.681 60.478 173.74 60.5144C173.799 60.5508 173.866 60.5728 173.935 60.5787C174.004 60.5846 174.073 60.5742 174.138 60.5484L174.122 60.5544Z" fill="#F77952"/>
<path d="M177.758 57.753L178.434 58.0118L178.547 60.8853L179.491 58.4124L180.295 58.7204L178.489 63.4781L177.838 63.2273L177.779 60.1868L176.776 62.8168L175.947 62.5008L177.758 57.753Z" fill="#F77952"/>
<path d="M180.859 58.849L183.036 59.2742L182.898 59.9782L181.731 59.7486L181.47 61.0735L182.371 61.2504L182.231 61.9594L181.332 61.7833L181.022 63.3482L182.199 63.581L182.065 64.27L179.875 63.8407L180.859 58.849Z" fill="#F77952"/>
<path d="M183.967 62.4109L183.089 59.3053L184.06 59.3423L184.541 61.1482L185.111 59.3776L186.059 59.4073L184.967 62.441L184.894 64.4565L183.899 64.4115L183.967 62.4109Z" fill="#F77952"/>
<path d="M187.853 59.2357L189.115 58.9399C189.502 58.8238 189.915 58.829 190.299 58.9547C190.606 59.0782 190.815 59.3958 190.933 59.8684C191.003 60.1099 190.996 60.3675 190.911 60.6043C190.867 60.705 190.803 60.7959 190.724 60.872C190.645 60.948 190.551 61.0076 190.449 61.0474C190.58 61.0288 190.714 61.0381 190.841 61.0747C190.968 61.1114 191.086 61.1745 191.187 61.26C191.403 61.4729 191.548 61.7484 191.599 62.0476C191.838 63.0185 191.461 63.6157 190.5 63.8404L189.012 64.1874L187.853 59.2357ZM189.584 60.9397C189.677 60.929 189.766 60.8981 189.846 60.8492C189.926 60.8002 189.995 60.7345 190.046 60.6565C190.11 60.4799 190.113 60.2873 190.055 60.1088C190.043 60.0202 190.011 59.9354 189.962 59.8603C189.914 59.7852 189.849 59.7218 189.773 59.6744C189.592 59.6032 189.392 59.5971 189.207 59.6572L189.017 59.7006L189.324 61.0104L189.584 60.9397ZM190.143 63.1781C190.24 63.1655 190.333 63.1314 190.415 63.0782C190.497 63.025 190.566 62.9541 190.617 62.8707C190.691 62.6732 190.696 62.4564 190.63 62.2559C190.598 62.0347 190.492 61.8309 190.329 61.6775C190.244 61.6253 190.149 61.5926 190.05 61.5818C189.951 61.5709 189.851 61.5822 189.757 61.6147L189.486 61.6789L189.855 63.2449L190.143 63.1781Z" fill="#F77952"/>
<path d="M191.794 58.1037L192.845 57.6353L195.81 61.8912L194.938 62.2823L194.309 61.3371L193.58 61.6529L193.857 62.7518L192.963 63.144L191.794 58.1037ZM193.959 60.7841L192.841 59.0487L193.4 61.0418L193.959 60.7841Z" fill="#F77952"/>
<path d="M196.819 60.8487C196.404 60.6838 196.056 60.3859 195.829 60.0017L194.799 58.4982C194.524 58.1439 194.374 57.7086 194.371 57.2601C194.392 56.8978 194.629 56.5615 195.077 56.2544C195.526 55.9473 195.882 55.8582 196.203 55.9451C196.569 56.0711 196.879 56.3237 197.075 56.6575L197.316 57.0103L196.49 57.5699L196.224 57.1817C196.155 57.0809 196.081 56.9843 196 56.8925C195.939 56.825 195.856 56.78 195.766 56.7649C195.665 56.7539 195.563 56.7836 195.484 56.8474C195.418 56.8795 195.364 56.9311 195.329 56.995C195.293 57.0589 195.279 57.1322 195.286 57.2049C195.333 57.3802 195.412 57.5449 195.521 57.6903L196.832 59.601C196.925 59.7607 197.054 59.8964 197.209 59.9971C197.272 60.0265 197.342 60.0371 197.411 60.0276C197.48 60.018 197.545 59.9888 197.597 59.9433C197.659 59.9133 197.71 59.8644 197.743 59.8036C197.775 59.7428 197.787 59.6733 197.778 59.6051C197.728 59.4314 197.648 59.2682 197.539 59.1238L197.258 58.7142L198.085 58.1546L198.321 58.5058C198.569 58.8225 198.702 59.2146 198.696 59.6169C198.669 59.9569 198.44 60.2749 198.009 60.5711C197.568 60.864 197.171 60.9618 196.819 60.8487Z" fill="#F77952"/>
<path d="M196.586 55.2289L197.313 54.4997L198.832 56.0204L197.965 53.8482L198.679 53.1366L199.62 55.4288L202.329 56.6827L201.587 57.4237L199.424 56.3704L199.499 56.686L200.911 58.0977L200.183 58.8269L196.586 55.2289Z" fill="#F77952"/>
<path d="M172.118 37.5842L171.817 42.7543L172.671 42.7536L172.336 37.5827L172.118 37.5842ZM179.144 37.5324L179.014 37.5322L179.022 39.5435L179.617 39.5422C179.931 39.5414 180.09 39.21 180.087 38.5514C180.085 38.1132 180.023 37.8347 179.898 37.7117C179.677 37.5655 179.411 37.5025 179.149 37.5341L179.144 37.5324ZM186.385 37.5364L186.083 42.709L186.937 42.7083L186.6 37.5366L186.385 37.5364ZM219.626 32.34L213.879 32.3131C212.016 26.1244 208.203 20.7031 203.009 16.8563C197.816 13.0095 191.518 10.9429 185.055 10.9643C178.592 10.9856 172.308 13.0937 167.14 16.9747C161.972 20.8557 158.195 26.3021 156.372 32.503L150.626 32.476L146.446 36.6847L146.475 45.4061L150.683 49.5884L156.429 49.6153C158.293 55.804 162.106 61.2253 167.3 65.0721C172.493 68.9189 178.791 70.9855 185.254 70.9642C191.717 70.9428 198 68.8347 203.169 64.9537C208.337 61.0727 212.114 55.6263 213.937 49.4254L219.682 49.4549L223.863 45.2438L223.834 36.5223L219.626 32.34ZM185.059 11.8458C191.285 11.8325 197.353 13.8122 202.374 17.4954C207.395 21.1785 211.105 26.3718 212.962 32.3153L211.644 32.3234C209.819 26.7191 206.262 21.8383 201.487 18.3834C196.712 14.9284 190.963 13.0774 185.069 13.0967C179.175 13.116 173.439 15.0045 168.686 18.4905C163.933 21.9766 160.409 26.8805 158.62 32.4967L157.289 32.5008C159.107 26.5448 162.784 21.327 167.78 17.6105C172.777 13.894 178.831 11.8739 185.059 11.8458ZM209.158 39.6332L209.163 41.6628L206.917 41.6724L206.925 44.1295L209.425 44.1081L209.433 46.2131L204.513 46.2293L204.474 35.4518L209.24 35.4355L209.247 37.5264L206.905 37.5354L206.913 39.6403L209.158 39.6332ZM197.844 32.3671C196.435 30.2873 194.537 28.5856 192.316 27.4117C190.096 26.2378 187.62 25.6278 185.108 25.6352C182.596 25.6426 180.125 26.2673 177.911 27.4543C175.697 28.6413 173.809 30.3542 172.413 32.4423L159.545 32.4861C161.326 27.1188 164.747 22.4466 169.327 19.1295C173.907 15.8124 179.413 14.0181 185.068 14C190.723 13.9819 196.241 15.741 200.842 19.0287C205.443 22.3165 208.894 26.9667 210.709 32.3225L197.844 32.3671ZM197.984 37.5524L197.974 35.4715L203.185 35.4555L203.194 37.5414L201.781 37.5463L201.81 46.2512L199.427 46.2581L199.4 37.5483L197.984 37.5524ZM186.593 32.0475L185.247 31.3227L183.91 32.0568L184.181 30.5536L183.071 29.5057L184.585 29.2992L185.238 27.9188L185.896 29.2945L187.41 29.4898L186.306 30.5436L186.593 32.0475ZM183.964 49.4102L185.31 50.135L186.647 49.401L186.375 50.9041L187.486 51.952L185.973 52.156L185.319 53.5389L184.66 52.1632L183.146 51.9679L184.25 50.9141L183.964 49.4102ZM187.3 46.2924L187.126 44.668L185.933 44.6748L185.79 46.2992L183.475 46.3088L184.658 35.5225L188.388 35.5088L189.613 46.2879L187.3 46.2924ZM190.669 31.8314L189.714 31.3179L188.763 31.8374L188.957 30.7716L188.167 30.0277L189.243 29.8814L189.707 28.9022L190.177 29.879L191.252 30.0184L190.462 30.7632L190.669 31.8314ZM188.821 49.5968L189.776 50.1103L190.727 49.5907L190.533 50.6565L191.323 51.4004L190.249 51.5393L189.785 52.5209L189.315 51.5442L188.239 51.4047L189.03 50.6574L188.821 49.5968ZM190.887 46.2795L190.852 35.4977L193.291 35.4869L194.405 40.6388L194.392 35.4836L196.695 35.4759L196.73 46.2576L194.406 46.2722L193.207 40.8809L193.225 46.2747L190.887 46.2795ZM179.889 49.6214L180.844 50.1349L181.795 49.6154L181.601 50.6811L182.391 51.425L181.315 51.5689L180.851 52.5505L180.381 51.5738L179.306 51.4343L180.097 50.687L179.889 49.6214ZM182.336 39.5251C182.303 39.6978 182.243 39.8642 182.158 40.0183C182.065 40.1661 181.948 40.2968 181.811 40.4047C181.642 40.5373 181.451 40.6372 181.246 40.6989C181.444 40.7282 181.633 40.8049 181.796 40.9226C181.935 41.0275 182.043 41.1688 182.107 41.331C182.166 41.476 182.21 41.6265 182.238 41.7803C182.261 41.9334 182.273 42.0881 182.273 42.243C182.279 44.028 182.274 45.3823 182.26 46.3058L179.932 46.3138L179.909 42.1073C179.913 41.9725 179.896 41.838 179.859 41.7085C179.843 41.6619 179.818 41.6189 179.786 41.5823C179.753 41.5458 179.713 41.5163 179.668 41.4959C179.584 41.4536 179.494 41.4246 179.402 41.4101C179.316 41.4027 179.185 41.3991 179.009 41.3993L179.027 46.306L176.619 46.3297L176.584 35.548L180.24 35.5351C180.566 35.5258 180.891 35.5763 181.199 35.6841C181.438 35.7658 181.654 35.9023 181.831 36.0825C182 36.2745 182.123 36.5023 182.191 36.7489C182.278 37.0148 182.337 37.2891 182.366 37.5672C182.397 37.8966 182.412 38.2275 182.41 38.5584C182.411 38.7622 182.41 38.927 182.401 39.0564C182.391 39.2158 182.369 39.3742 182.334 39.5301L182.336 39.5251ZM181.736 31.861L180.781 31.3475L179.829 31.867L180.024 30.8012L179.234 30.0574L180.309 29.9052L180.773 28.9236L181.243 29.9003L182.319 30.0397L181.528 30.787L181.736 31.861ZM175.334 46.3317L173.034 46.3377L172.859 44.7158L171.649 44.7311L171.512 46.338L169.198 46.3475L170.38 35.5613L174.111 35.5476L175.334 46.3317ZM162.129 35.5928L164.442 35.5858L164.469 43.3488C164.47 43.4647 164.47 43.5583 164.473 43.6254C164.478 43.7211 164.489 43.8165 164.505 43.9109C164.519 44.0075 164.55 44.1011 164.595 44.1875C164.639 44.2598 164.698 44.3212 164.769 44.3671C164.853 44.4209 164.952 44.4479 165.052 44.4444C165.137 44.4452 165.221 44.4282 165.299 44.3946C165.368 44.3647 165.426 44.314 165.464 44.2495C165.503 44.189 165.535 44.1248 165.561 44.058C165.591 43.9802 165.608 43.8985 165.612 43.8155L165.629 43.5817L165.632 43.3514L165.605 35.5884L167.919 35.5814L167.946 43.5068C167.949 44.4821 167.718 45.2232 167.253 45.7301C166.787 46.2371 166.063 46.4905 165.082 46.4904C164.078 46.4976 163.34 46.2519 162.869 45.7457C162.399 45.2395 162.168 44.5047 162.163 43.5288L162.129 35.5928ZM172.464 49.5638C173.874 51.6425 175.772 53.3432 177.993 54.5163C180.213 55.6894 182.688 56.299 185.2 56.2915C187.711 56.2841 190.182 55.6599 192.396 54.4737C194.61 53.2874 196.498 51.5756 197.895 49.4886L210.76 49.4465C208.978 54.8122 205.555 59.4825 200.976 62.7981C196.396 66.1136 190.891 67.9068 185.237 67.9244C179.583 67.942 174.067 66.1832 169.467 62.8962C164.866 59.6093 161.415 54.9604 159.6 49.6059L172.464 49.5638ZM154.702 43.1875L154.692 38.5061C154.68 38.0533 154.747 37.6019 154.89 37.1719C154.992 36.8479 155.16 36.5488 155.384 36.2935C155.585 36.0826 155.827 35.9141 156.094 35.7981C156.34 35.6901 156.6 35.6144 156.865 35.5729C157.115 35.5368 157.368 35.5186 157.62 35.5186C157.924 35.5165 158.228 35.5396 158.528 35.5877C158.771 35.6274 159.006 35.7031 159.226 35.8123C159.412 35.9036 159.586 36.016 159.746 36.1473C159.899 36.2735 160.025 36.4291 160.116 36.6048C160.211 36.7785 160.29 36.9597 160.355 37.1466C160.423 37.3554 160.47 37.5706 160.495 37.7888C160.527 38.0387 160.551 38.272 160.562 38.4873C160.572 38.7026 160.58 38.961 160.59 39.2558L158.314 39.2641L158.314 38.4108C158.316 38.2671 158.297 38.1239 158.258 37.9855C158.232 37.8912 158.179 37.8067 158.104 37.7436C158.05 37.7038 157.989 37.6724 157.925 37.6502C157.866 37.6341 157.804 37.6264 157.743 37.6273C157.63 37.6234 157.518 37.6426 157.414 37.6838C157.339 37.714 157.272 37.7599 157.216 37.8184C157.161 37.9081 157.128 38.01 157.121 38.1152C157.101 38.2487 157.088 38.3833 157.082 38.5182C157.077 38.6458 157.076 38.8438 157.077 39.1139L157.09 43.2841C157.092 43.4415 157.098 43.5756 157.11 43.684C157.123 43.803 157.149 43.9202 157.187 44.0336C157.221 44.1492 157.292 44.2505 157.389 44.3215C157.494 44.3906 157.618 44.4247 157.743 44.4188C157.843 44.4292 157.943 44.4071 158.029 44.3559C158.115 44.3047 158.182 44.227 158.22 44.1346C158.314 43.8412 158.353 43.533 158.336 43.2254L158.332 41.9803L157.696 41.982L157.682 40.1091L160.566 40.1011L160.587 46.382L159.656 46.3769L159.258 45.4756C159.054 45.8134 158.761 46.0885 158.411 46.2706C158.062 46.4528 157.668 46.5349 157.275 46.5081C155.562 46.5168 154.702 45.4091 154.695 43.1851L154.702 43.1875ZM185.26 70.0776C179.032 70.0933 172.963 68.1153 167.94 64.4329C162.917 60.7506 159.205 55.5573 157.346 49.6131L158.677 49.609C160.505 55.2099 164.061 60.087 168.836 63.539C173.61 66.991 179.356 68.84 185.248 68.8203C191.139 68.8006 196.873 66.9132 201.624 63.4293C206.375 59.9455 209.899 55.0447 211.689 49.4317L213.019 49.4277C211.202 55.384 207.526 60.6023 202.529 64.319C197.533 68.0356 191.478 70.0553 185.25 70.0827L185.26 70.0776ZM215.82 46.1954L210.9 46.2142L210.865 35.43L215.628 35.4153L215.635 37.5062L213.293 37.5152L213.301 39.6202L215.547 39.6106L215.553 41.6352L213.308 41.6423L213.316 44.0994L215.819 44.0788L215.82 46.1954Z" fill="#F77952"/>
<path d="M21.7464 25.6465C16.9716 25.8395 12.4567 27.8721 9.14664 31.3186C5.83659 34.7652 3.98809 39.3586 3.98809 44.1372C3.98809 48.9158 5.83659 53.5092 9.14664 56.9558C12.4567 60.4024 16.9716 62.4349 21.7464 62.628H98.8214C101.313 62.7287 103.798 62.325 106.13 61.4412C108.461 60.5573 110.589 59.2115 112.388 57.4845C114.186 55.7576 115.616 53.6851 116.594 51.3915C117.571 49.0978 118.075 46.6304 118.075 44.1372C118.075 41.6441 117.571 39.1766 116.594 36.883C115.616 34.5893 114.186 32.5168 112.388 30.7899C110.589 29.0629 108.461 27.7171 106.13 26.8333C103.798 25.9494 101.313 25.5457 98.8214 25.6465H21.7464Z" fill="white"/>
<path d="M98.8212 64.2031H21.7461C16.4244 64.2031 11.3206 62.089 7.55759 58.326C3.79455 54.5629 1.6805 49.4592 1.6805 44.1374C1.6805 38.8157 3.79455 33.7119 7.55759 29.9489C11.3206 26.1858 16.4244 24.0718 21.7461 24.0718H98.8212C104.143 24.0718 109.247 26.1858 113.01 29.9489C116.773 33.7119 118.887 38.8157 118.887 44.1374C118.887 49.4592 116.773 54.5629 113.01 58.326C109.247 62.089 104.143 64.2031 98.8212 64.2031ZM21.7461 25.6467C16.9714 25.8397 12.4565 27.8723 9.14642 31.3188C5.83638 34.7654 3.98788 39.3588 3.98788 44.1374C3.98788 48.9161 5.83638 53.5094 9.14642 56.956C12.4565 60.4026 16.9714 62.4351 21.7461 62.6282H98.8212C101.312 62.7289 103.798 62.3252 106.129 61.4414C108.461 60.5575 110.589 59.2117 112.387 57.4848C114.186 55.7578 115.616 53.6853 116.594 51.3917C117.571 49.098 118.075 46.6306 118.075 44.1374C118.075 41.6443 117.571 39.1768 116.594 36.8832C115.616 34.5896 114.186 32.5171 112.387 30.7901C110.589 29.0631 108.461 27.7173 106.129 26.8335C103.798 25.9496 101.312 25.5459 98.8212 25.6467H21.7461Z" fill="#D0D0D0"/>
<path d="M89.5759 32.9092C88.5039 32.9084 87.4557 33.2257 86.5639 33.8207C85.6722 34.4158 84.977 35.2619 84.5662 36.2522C84.1554 37.2424 84.0476 38.3322 84.2562 39.3837C84.4649 40.4353 84.9808 41.4013 85.7386 42.1596C86.4964 42.918 87.4621 43.4345 88.5134 43.6439C89.5648 43.8533 90.6547 43.7462 91.6453 43.3362C92.6358 42.9261 93.4824 42.2314 94.0781 41.3401C94.6738 40.4488 94.9917 39.4008 94.9917 38.3288C94.9922 37.6172 94.8525 36.9126 94.5806 36.2551C94.3086 35.5975 93.9098 35.0001 93.4068 34.4968C92.9039 33.9935 92.3066 33.5942 91.6493 33.3218C90.992 33.0494 90.2874 32.9092 89.5759 32.9092ZM89.5759 41.1084C89.0262 41.1084 88.4887 40.9454 88.0316 40.64C87.5745 40.3345 87.2182 39.9004 87.0078 39.3925C86.7975 38.8846 86.7424 38.3257 86.8497 37.7865C86.9569 37.2473 87.2217 36.752 87.6104 36.3632C87.9991 35.9745 88.4944 35.7098 89.0336 35.6025C89.5728 35.4953 90.1317 35.5503 90.6397 35.7607C91.1476 35.9711 91.5817 36.3273 91.8871 36.7845C92.1926 37.2416 92.3556 37.779 92.3556 38.3288C92.3506 39.063 92.0557 39.7656 91.535 40.2834C91.0144 40.8012 90.3102 41.0923 89.5759 41.0933" fill="#1D1D1B"/>
<path d="M64.7251 32.9092C63.6533 32.9092 62.6054 33.227 61.7142 33.8225C60.8229 34.4181 60.1283 35.2645 59.7181 36.2548C59.3079 37.2451 59.2006 38.3348 59.4097 39.3861C59.6188 40.4374 60.135 41.403 60.8929 42.161C61.6509 42.9189 62.6165 43.4351 63.6678 43.6442C64.7191 43.8533 65.8088 43.746 66.7991 43.3358C67.7894 42.9256 68.6358 42.231 69.2314 41.3397C69.8269 40.4485 70.1447 39.4006 70.1447 38.3288C70.1452 37.6169 70.0054 36.9119 69.7332 36.2542C69.461 35.5964 69.0618 34.9988 68.5585 34.4954C68.0551 33.9921 67.4575 33.5929 66.7997 33.3207C66.142 33.0485 65.437 32.9087 64.7251 32.9092ZM64.7251 41.1084C64.1754 41.1084 63.638 40.9454 63.1808 40.64C62.7237 40.3345 62.3675 39.9004 62.1571 39.3925C61.9467 38.8846 61.8916 38.3257 61.9989 37.7865C62.1061 37.2473 62.3709 36.752 62.7596 36.3632C63.1484 35.9745 63.6437 35.7098 64.1829 35.6025C64.7221 35.4953 65.281 35.5503 65.7889 35.7607C66.2968 35.9711 66.7309 36.3274 67.0363 36.7845C67.3418 37.2416 67.5048 37.779 67.5048 38.3288C67.4998 39.063 67.2049 39.7656 66.6842 40.2834C66.1636 40.8012 65.4594 41.0923 64.7251 41.0933" fill="#1D1D1B"/>
<path d="M83.8087 41.2597C83.4598 41.3602 83.1018 41.426 82.7399 41.4561C81.8147 41.4561 81.6069 41.1389 81.6069 40.2514V35.2472H83.8465V33.1625H81.6334V30.1978H79.1407L78.5969 33.1625H76.7085C75.2885 33.1625 74.2159 34.0349 73.5285 35.3945L72.675 33.1625H70.8886V43.5522H73.9402V39.0201C73.9402 36.7541 75.2885 35.2812 76.886 35.2434H78.5591V40.4137C78.5591 42.8459 79.8092 43.7524 81.8373 43.7524C82.6306 43.7535 83.4189 43.626 84.1713 43.3747L83.8087 41.2597Z" fill="#1D1D1B"/>
<path d="M98.693 36.4448V43.5526H95.7245V33.1553H97.526L98.1303 34.7415" fill="#1D1D1B"/>
<path d="M98.119 34.7522C99.0217 33.7023 100.257 32.9092 101.703 32.9092C104.177 32.9092 105.197 34.8844 105.197 36.7123V43.5519H102.137V36.7992C102.137 35.9079 101.382 35.4245 100.593 35.4245C99.8034 35.4245 99.184 35.9154 98.7044 36.4404" fill="#1D1D1B"/>
<path d="M47.3897 29.3892H50.7925L55.4681 38.2946V29.3892H58.2893V43.5518H55.2037L50.2109 33.7626V43.5518H47.3897V29.3892Z" fill="#1D1D1B"/>
<path d="M114.219 24.0718V24.5779H113.475V27.0743H112.897V24.5779H112.168V24.0718H114.219Z" fill="#B2B2B2"/>
<path d="M114.634 27.0743V24.0718H115.416L115.937 26.0394L116.466 24.0718H117.259V27.0743H116.779V24.7251H116.768L116.16 27.0743H115.737L115.125 24.7251H115.11V27.0743H114.634Z" fill="#B2B2B2"/>
<path d="M46.5404 56.102L47.2467 55.003C47.9662 55.5345 48.8371 55.8217 49.7317 55.8225C50.7552 55.8225 51.3822 55.358 51.3822 54.5573C51.3822 53.632 50.5891 53.3865 49.2785 52.9333C48.104 52.5179 46.9521 51.9287 46.9521 50.2632C46.9521 48.7072 48.1795 47.8574 49.8337 47.8574C50.7261 47.8195 51.6118 48.0272 52.3943 48.4579L51.8278 49.6287C51.22 49.3095 50.5429 49.1448 49.8564 49.1491C48.9349 49.1491 48.3835 49.4965 48.3835 50.2292C48.3835 51.0865 49.0217 51.3018 50.2265 51.6984C51.4313 52.0949 52.8702 52.6878 52.8702 54.5309C52.8702 56.0869 51.7561 57.1141 49.7582 57.1141C48.6043 57.1425 47.4736 56.7865 46.5442 56.102" fill="#B2B2B2"/>
<path d="M55.5478 47.9971H60.8994V49.2434H57.0698V51.6982H60.095V52.9181H57.0698V55.7544H61.1336V56.997H55.5478V47.9971Z" fill="#B2B2B2"/>
<path d="M63.3129 52.5066C63.3129 49.8629 64.5705 47.8575 67.0896 47.8575C67.5836 47.8291 68.0777 47.912 68.5353 48.1003C68.9929 48.2886 69.4023 48.5773 69.7333 48.9452L68.842 49.9725C68.6302 49.7231 68.3661 49.5235 68.0685 49.3877C67.7708 49.252 67.4469 49.1834 67.1198 49.1869C65.6469 49.1869 64.9671 50.3917 64.9671 52.6199C64.9671 54.7122 65.6847 55.7697 67.1311 55.7697C67.4919 55.7549 67.8453 55.6626 68.1672 55.499C68.4892 55.3354 68.7721 55.1044 68.9968 54.8218L69.873 55.8226C69.5448 56.2414 69.1223 56.5767 68.6399 56.8011C68.1575 57.0256 67.6289 57.1329 67.0971 57.1142C64.5101 57.1142 63.3204 55.1428 63.3204 52.5066" fill="#B2B2B2"/>
<path d="M72.3617 53.5564V47.9971H73.895V53.8019C73.895 55.0369 74.201 55.8488 75.5077 55.8488C76.8144 55.8488 77.1204 55.0369 77.1204 53.8019V47.9971H78.6726V53.5564C78.6726 55.7884 77.8153 57.1178 75.4964 57.1178C73.1775 57.1178 72.3617 55.7884 72.3617 53.5564Z" fill="#B2B2B2"/>
<path d="M88.0614 57.0007H86.3997L84.67 53.1787H83.2499V56.997H81.7392V47.9971H84.6775C86.4941 47.9971 87.9104 48.6504 87.9104 50.6408C87.9308 51.1657 87.7739 51.6822 87.4649 52.107C87.1559 52.5318 86.7128 52.8402 86.2071 52.9823L88.0614 57.0007ZM84.602 52.0079C85.735 52.0079 86.3279 51.6303 86.3279 50.5954C86.3279 49.5606 85.7312 49.2396 84.6926 49.2396H83.2461V52.0079H84.602Z" fill="#B2B2B2"/>
<path d="M90.6675 47.9971H96.0229V49.2434H92.1895V51.6982H95.2109V52.9181H92.1895V55.7544H96.2495V56.997H90.6675V47.9971Z" fill="#B2B2B2"/>
<path d="M98.8212 47.9971H101.087C104.022 47.9971 105.43 49.5871 105.43 52.4649C105.43 55.3428 103.999 56.997 101.166 56.997H98.8401L98.8212 47.9971ZM100.981 55.7544C103.081 55.7544 103.799 54.7876 103.799 52.4649C103.799 50.4293 103.236 49.2396 101.155 49.2396H100.339V55.7544H100.981Z" fill="#B2B2B2"/>
<path d="M21.6557 65.7896C17.3732 65.7903 13.1866 64.5211 9.62549 62.1424C6.06436 59.7637 3.2886 56.3824 1.64924 52.4261C0.00988662 48.4699 -0.419432 44.1163 0.415584 39.916C1.2506 35.7157 3.31244 31.8573 6.34036 28.8289C9.36828 25.8004 13.2263 23.7379 17.4264 22.9022C21.6266 22.0664 25.9802 22.495 29.9368 24.1336C33.8934 25.7723 37.2752 28.5475 39.6545 32.1082C42.0338 35.6689 43.3037 39.8552 43.3037 44.1377C43.2968 49.8773 41.0139 55.38 36.9557 59.4388C32.8975 63.4977 27.3953 65.7816 21.6557 65.7896ZM21.6557 29.3368C18.2297 29.3327 14.9084 30.5168 12.2578 32.6875C9.60725 34.8581 7.79154 37.8808 7.12018 41.2403C6.44882 44.5998 6.96337 48.0882 8.57613 51.1108C10.1889 54.1334 12.8 56.5031 15.9644 57.816C19.1288 59.1288 22.6506 59.3036 25.9295 58.3105C29.2083 57.3174 32.0412 55.2178 33.9453 52.3698C35.8494 49.5217 36.7068 46.1014 36.3714 42.6919C36.036 39.2825 34.5284 36.0948 32.1058 33.6725C30.7357 32.2966 29.1071 31.2053 27.3136 30.4612C25.5202 29.7172 23.5973 29.335 21.6557 29.3368Z" fill="#FDC300"/>
<path d="M46.9256 19.1548H45.2374V20.843H46.9256V19.1548Z" fill="#FDC300"/>
<path d="M46.9256 15.7896H45.2374V17.4815H46.9256V15.7896Z" fill="#FDC300"/>
<path d="M42.0648 20.8311H40.4899V22.4777H42.0648V20.8311Z" fill="#FDC300"/>
<path d="M38.9533 24.0684H37.3633V25.6432H38.9533V24.0684Z" fill="#1D1D1B"/>
<path d="M43.8325 22.4785H42.065V24.0647H43.8325V22.4785Z" fill="#1D1D1B"/>
<path d="M37.3629 22.5576H35.7804V24.0683H37.3629V22.5576Z" fill="#1D1D1B"/>
<path d="M42.0648 24.0684H40.4899V25.6432H42.0648V24.0684Z" fill="#1D1D1B"/>
<path d="M45.2373 17.481H43.568V19.154H45.2373V17.481Z" fill="#1D1D1B"/>
<path d="M43.5679 19.1548H40.4899V20.8316H43.5679V19.1548Z" fill="#1D1D1B"/>
<path d="M40.4866 20.8311H38.9532V24.0677H40.4866V20.8311Z" fill="#1D1D1B"/>
<path d="M38.9531 25.6431V27.2331H37.3631V25.6431H34.7194V26.7761H33.3145V28.1886H34.8932V29.7635H33.3145V28.1999H31.6339V30.6661H30.0476V32.241H28.9977V33.8234H27.8383C26.5391 35.7571 23.2798 41.7885 22.2865 44.2396C18.7402 39.2996 15.9832 37.3395 13.8116 36.6295C12.6408 36.2783 11.2283 37.5548 13.1733 39.5602C17.6449 44.4926 19.0499 48.545 20.3981 51.7892C21.1157 53.5038 24.3373 53.7682 24.9831 52.0272C26.4433 48.07 28.3718 44.3017 30.7274 40.8028V39.0428H31.9889V37.4528H33.3145V35.6136H34.8969V33.8385H33.2956V32.2259H34.8969V33.8385H36.4643V32.241H37.7181V30.3149H39.1344V29.0081H40.494V25.6431H38.9531Z" fill="#1D1D1B"/>
</svg>
