<svg width="119" height="51" viewBox="0 0 119 51" fill="none" xmlns="http://www.w3.org/2000/svg">
<path d="M21.7464 10.6465C16.9716 10.8395 12.4567 12.8721 9.14664 16.3186C5.83659 19.7652 3.98809 24.3586 3.98809 29.1372C3.98809 33.9158 5.83659 38.5092 9.14664 41.9558C12.4567 45.4024 16.9716 47.4349 21.7464 47.628H98.8214C101.313 47.7287 103.798 47.325 106.13 46.4412C108.461 45.5573 110.589 44.2115 112.388 42.4845C114.186 40.7576 115.616 38.6851 116.594 36.3915C117.571 34.0978 118.075 31.6304 118.075 29.1372C118.075 26.6441 117.571 24.1766 116.594 21.883C115.616 19.5893 114.186 17.5168 112.388 15.7899C110.589 14.0629 108.461 12.7171 106.13 11.8333C103.798 10.9494 101.313 10.5457 98.8214 10.6465H21.7464Z" fill="white"/>
<path d="M98.8212 49.2031H21.7461C16.4244 49.2031 11.3206 47.089 7.55759 43.326C3.79455 39.5629 1.6805 34.4592 1.6805 29.1374C1.6805 23.8157 3.79455 18.7119 7.55759 14.9489C11.3206 11.1858 16.4244 9.07178 21.7461 9.07178H98.8212C104.143 9.07178 109.247 11.1858 113.01 14.9489C116.773 18.7119 118.887 23.8157 118.887 29.1374C118.887 34.4592 116.773 39.5629 113.01 43.326C109.247 47.089 104.143 49.2031 98.8212 49.2031ZM21.7461 10.6467C16.9714 10.8397 12.4565 12.8723 9.14642 16.3188C5.83638 19.7654 3.98788 24.3588 3.98788 29.1374C3.98788 33.9161 5.83638 38.5094 9.14642 41.956C12.4565 45.4026 16.9714 47.4351 21.7461 47.6282H98.8212C101.312 47.7289 103.798 47.3252 106.129 46.4414C108.461 45.5575 110.589 44.2117 112.387 42.4848C114.186 40.7578 115.616 38.6853 116.594 36.3917C117.571 34.098 118.075 31.6306 118.075 29.1374C118.075 26.6443 117.571 24.1768 116.594 21.8832C115.616 19.5896 114.186 17.5171 112.387 15.7901C110.589 14.0631 108.461 12.7173 106.129 11.8335C103.798 10.9496 101.312 10.5459 98.8212 10.6467H21.7461Z" fill="#D0D0D0"/>
<path d="M89.5759 17.9092C88.5039 17.9084 87.4557 18.2257 86.5639 18.8207C85.6722 19.4158 84.977 20.2619 84.5662 21.2522C84.1554 22.2424 84.0476 23.3322 84.2562 24.3837C84.4649 25.4353 84.9808 26.4013 85.7386 27.1596C86.4964 27.918 87.4621 28.4345 88.5134 28.6439C89.5648 28.8533 90.6547 28.7462 91.6453 28.3362C92.6358 27.9261 93.4824 27.2314 94.0781 26.3401C94.6738 25.4488 94.9917 24.4008 94.9917 23.3288C94.9922 22.6172 94.8525 21.9126 94.5806 21.2551C94.3086 20.5975 93.9098 20.0001 93.4068 19.4968C92.9039 18.9935 92.3066 18.5942 91.6493 18.3218C90.992 18.0494 90.2874 17.9092 89.5759 17.9092ZM89.5759 26.1084C89.0262 26.1084 88.4887 25.9454 88.0316 25.64C87.5745 25.3345 87.2182 24.9004 87.0078 24.3925C86.7975 23.8846 86.7424 23.3257 86.8497 22.7865C86.9569 22.2473 87.2217 21.752 87.6104 21.3632C87.9991 20.9745 88.4944 20.7098 89.0336 20.6025C89.5728 20.4953 90.1317 20.5503 90.6397 20.7607C91.1476 20.9711 91.5817 21.3273 91.8871 21.7845C92.1926 22.2416 92.3556 22.779 92.3556 23.3288C92.3506 24.063 92.0557 24.7656 91.535 25.2834C91.0144 25.8012 90.3102 26.0923 89.5759 26.0933" fill="#1D1D1B"/>
<path d="M64.7251 17.9092C63.6533 17.9092 62.6054 18.227 61.7142 18.8225C60.8229 19.4181 60.1283 20.2645 59.7181 21.2548C59.3079 22.2451 59.2006 23.3348 59.4097 24.3861C59.6188 25.4374 60.135 26.403 60.8929 27.161C61.6509 27.9189 62.6165 28.4351 63.6678 28.6442C64.7191 28.8533 65.8088 28.746 66.7991 28.3358C67.7894 27.9256 68.6358 27.231 69.2314 26.3397C69.8269 25.4485 70.1447 24.4006 70.1447 23.3288C70.1452 22.6169 70.0054 21.9119 69.7332 21.2542C69.461 20.5964 69.0618 19.9988 68.5585 19.4954C68.0551 18.9921 67.4575 18.5929 66.7997 18.3207C66.142 18.0485 65.437 17.9087 64.7251 17.9092ZM64.7251 26.1084C64.1754 26.1084 63.638 25.9454 63.1808 25.64C62.7237 25.3345 62.3675 24.9004 62.1571 24.3925C61.9467 23.8846 61.8916 23.3257 61.9989 22.7865C62.1061 22.2473 62.3709 21.752 62.7596 21.3632C63.1484 20.9745 63.6437 20.7098 64.1829 20.6025C64.7221 20.4953 65.281 20.5503 65.7889 20.7607C66.2968 20.9711 66.7309 21.3274 67.0363 21.7845C67.3418 22.2416 67.5048 22.779 67.5048 23.3288C67.4998 24.063 67.2049 24.7656 66.6842 25.2834C66.1636 25.8012 65.4594 26.0923 64.7251 26.0933" fill="#1D1D1B"/>
<path d="M83.8087 26.2597C83.4598 26.3602 83.1018 26.426 82.7399 26.4561C81.8147 26.4561 81.6069 26.1389 81.6069 25.2514V20.2472H83.8465V18.1625H81.6334V15.1978H79.1407L78.5969 18.1625H76.7085C75.2885 18.1625 74.2159 19.0349 73.5285 20.3945L72.675 18.1625H70.8886V28.5522H73.9402V24.0201C73.9402 21.7541 75.2885 20.2812 76.886 20.2434H78.5591V25.4137C78.5591 27.8459 79.8092 28.7524 81.8373 28.7524C82.6306 28.7535 83.4189 28.626 84.1713 28.3747L83.8087 26.2597Z" fill="#1D1D1B"/>
<path d="M98.693 21.4448V28.5526H95.7245V18.1553H97.526L98.1303 19.7415" fill="#1D1D1B"/>
<path d="M98.119 19.7522C99.0217 18.7023 100.257 17.9092 101.703 17.9092C104.177 17.9092 105.197 19.8844 105.197 21.7123V28.5519H102.137V21.7992C102.137 20.9079 101.382 20.4245 100.593 20.4245C99.8034 20.4245 99.184 20.9154 98.7044 21.4404" fill="#1D1D1B"/>
<path d="M47.3897 14.3892H50.7925L55.4681 23.2946V14.3892H58.2893V28.5518H55.2037L50.2109 18.7626V28.5518H47.3897V14.3892Z" fill="#1D1D1B"/>
<path d="M114.219 9.07178V9.57786H113.475V12.0743H112.897V9.57786H112.168V9.07178H114.219Z" fill="#B2B2B2"/>
<path d="M114.634 12.0743V9.07178H115.416L115.937 11.0394L116.466 9.07178H117.259V12.0743H116.779V9.72515H116.768L116.16 12.0743H115.737L115.125 9.72515H115.11V12.0743H114.634Z" fill="#B2B2B2"/>
<path d="M46.5404 41.102L47.2467 40.003C47.9662 40.5345 48.8371 40.8217 49.7317 40.8225C50.7552 40.8225 51.3822 40.358 51.3822 39.5573C51.3822 38.632 50.5891 38.3865 49.2785 37.9333C48.104 37.5179 46.9521 36.9287 46.9521 35.2632C46.9521 33.7072 48.1795 32.8574 49.8337 32.8574C50.7261 32.8195 51.6118 33.0272 52.3943 33.4579L51.8278 34.6287C51.22 34.3095 50.5429 34.1448 49.8564 34.1491C48.9349 34.1491 48.3835 34.4965 48.3835 35.2292C48.3835 36.0865 49.0217 36.3018 50.2265 36.6984C51.4313 37.0949 52.8702 37.6878 52.8702 39.5309C52.8702 41.0869 51.7561 42.1141 49.7582 42.1141C48.6043 42.1425 47.4736 41.7865 46.5442 41.102" fill="#B2B2B2"/>
<path d="M55.5478 32.9971H60.8994V34.2434H57.0698V36.6982H60.095V37.9181H57.0698V40.7544H61.1336V41.997H55.5478V32.9971Z" fill="#B2B2B2"/>
<path d="M63.3129 37.5066C63.3129 34.8629 64.5705 32.8575 67.0896 32.8575C67.5836 32.8291 68.0777 32.912 68.5353 33.1003C68.9929 33.2886 69.4023 33.5773 69.7333 33.9452L68.842 34.9725C68.6302 34.7231 68.3661 34.5235 68.0685 34.3877C67.7708 34.252 67.4469 34.1834 67.1198 34.1869C65.6469 34.1869 64.9671 35.3917 64.9671 37.6199C64.9671 39.7122 65.6847 40.7697 67.1311 40.7697C67.4919 40.7549 67.8453 40.6626 68.1672 40.499C68.4892 40.3354 68.7721 40.1044 68.9968 39.8218L69.873 40.8226C69.5448 41.2414 69.1223 41.5767 68.6399 41.8011C68.1575 42.0256 67.6289 42.1329 67.0971 42.1142C64.5101 42.1142 63.3204 40.1428 63.3204 37.5066" fill="#B2B2B2"/>
<path d="M72.3617 38.5564V32.9971H73.895V38.8019C73.895 40.0369 74.201 40.8488 75.5077 40.8488C76.8144 40.8488 77.1204 40.0369 77.1204 38.8019V32.9971H78.6726V38.5564C78.6726 40.7884 77.8153 42.1178 75.4964 42.1178C73.1775 42.1178 72.3617 40.7884 72.3617 38.5564Z" fill="#B2B2B2"/>
<path d="M88.0614 42.0007H86.3997L84.67 38.1787H83.2499V41.997H81.7392V32.9971H84.6775C86.4941 32.9971 87.9104 33.6504 87.9104 35.6408C87.9308 36.1657 87.7739 36.6822 87.4649 37.107C87.1559 37.5318 86.7128 37.8402 86.2071 37.9823L88.0614 42.0007ZM84.602 37.0079C85.735 37.0079 86.3279 36.6303 86.3279 35.5954C86.3279 34.5606 85.7312 34.2396 84.6926 34.2396H83.2461V37.0079H84.602Z" fill="#B2B2B2"/>
<path d="M90.6675 32.9971H96.0229V34.2434H92.1895V36.6982H95.2109V37.9181H92.1895V40.7544H96.2495V41.997H90.6675V32.9971Z" fill="#B2B2B2"/>
<path d="M98.8212 32.9971H101.087C104.022 32.9971 105.43 34.5871 105.43 37.4649C105.43 40.3428 103.999 41.997 101.166 41.997H98.8401L98.8212 32.9971ZM100.981 40.7544C103.081 40.7544 103.799 39.7876 103.799 37.4649C103.799 35.4293 103.236 34.2396 101.155 34.2396H100.339V40.7544H100.981Z" fill="#B2B2B2"/>
<path d="M21.6557 50.7896C17.3732 50.7903 13.1866 49.5211 9.62549 47.1424C6.06436 44.7637 3.2886 41.3824 1.64924 37.4261C0.00988662 33.4699 -0.419432 29.1163 0.415584 24.916C1.2506 20.7157 3.31244 16.8573 6.34036 13.8289C9.36828 10.8004 13.2263 8.73791 17.4264 7.90216C21.6266 7.06641 25.9802 7.49497 29.9368 9.13364C33.8934 10.7723 37.2752 13.5475 39.6545 17.1082C42.0338 20.6689 43.3037 24.8552 43.3037 29.1377C43.2968 34.8773 41.0139 40.38 36.9557 44.4388C32.8975 48.4977 27.3953 50.7816 21.6557 50.7896ZM21.6557 14.3368C18.2297 14.3327 14.9084 15.5168 12.2578 17.6875C9.60725 19.8581 7.79154 22.8808 7.12018 26.2403C6.44882 29.5998 6.96337 33.0882 8.57613 36.1108C10.1889 39.1334 12.8 41.5031 15.9644 42.816C19.1288 44.1288 22.6506 44.3036 25.9295 43.3105C29.2083 42.3174 32.0412 40.2178 33.9453 37.3698C35.8494 34.5217 36.7068 31.1014 36.3714 27.6919C36.036 24.2825 34.5284 21.0948 32.1058 18.6725C30.7357 17.2966 29.1071 16.2053 27.3136 15.4612C25.5202 14.7172 23.5973 14.335 21.6557 14.3368Z" fill="#FDC300"/>
<path d="M46.9256 4.15479H45.2374V5.84297H46.9256V4.15479Z" fill="#FDC300"/>
<path d="M46.9256 0.789551H45.2374V2.48152H46.9256V0.789551Z" fill="#FDC300"/>
<path d="M42.0648 5.83105H40.4899V7.4777H42.0648V5.83105Z" fill="#FDC300"/>
<path d="M38.9533 9.06836H37.3633V10.6432H38.9533V9.06836Z" fill="#1D1D1B"/>
<path d="M43.8325 7.47852H42.065V9.06473H43.8325V7.47852Z" fill="#1D1D1B"/>
<path d="M37.3629 7.55762H35.7804V9.0683H37.3629V7.55762Z" fill="#1D1D1B"/>
<path d="M42.0648 9.06836H40.4899V10.6432H42.0648V9.06836Z" fill="#1D1D1B"/>
<path d="M45.2373 2.48096H43.568V4.15404H45.2373V2.48096Z" fill="#1D1D1B"/>
<path d="M43.5679 4.15479H40.4899V5.83164H43.5679V4.15479Z" fill="#1D1D1B"/>
<path d="M40.4866 5.83105H38.9532V9.06769H40.4866V5.83105Z" fill="#1D1D1B"/>
<path d="M38.9531 10.6431V12.2331H37.3631V10.6431H34.7194V11.7761H33.3145V13.1886H34.8932V14.7635H33.3145V13.1999H31.6339V15.6661H30.0476V17.241H28.9977V18.8234H27.8383C26.5391 20.7571 23.2798 26.7885 22.2865 29.2396C18.7402 24.2996 15.9832 22.3395 13.8116 21.6295C12.6408 21.2783 11.2283 22.5548 13.1733 24.5602C17.6449 29.4926 19.0499 33.545 20.3981 36.7892C21.1157 38.5038 24.3373 38.7682 24.9831 37.0272C26.4433 33.07 28.3718 29.3017 30.7274 25.8028V24.0428H31.9889V22.4528H33.3145V20.6136H34.8969V18.8385H33.2956V17.2259H34.8969V18.8385H36.4643V17.241H37.7181V15.3149H39.1344V14.0081H40.494V10.6431H38.9531Z" fill="#1D1D1B"/>
</svg>
