<svg width="92" height="82" viewBox="0 0 92 82" fill="none" xmlns="http://www.w3.org/2000/svg">
<path d="M28.6351 25.052L29.4274 24.2997L32.0755 26.2219L30.3799 23.4173L31.1618 22.6974L34.6981 26.3582L34.1451 26.8711L31.7348 24.3979L33.6095 27.373L33.141 27.8112L30.2817 25.7247L32.5922 28.3198L32.0344 28.8476L28.6351 25.052Z" fill="#F77952"/>
<path d="M35.3414 25.5233C34.9315 25.3441 34.5964 25.0282 34.3933 24.6295L33.4168 23.0028C33.165 22.6391 33.0487 22.1985 33.0881 21.7579C33.1423 21.4011 33.4008 21.0852 33.865 20.8052C34.3293 20.5253 34.727 20.4524 35.0688 20.5705C35.4734 20.7447 35.8039 21.0556 36.0026 21.4488L36.9832 23.0795C37.2367 23.4423 37.357 23.8815 37.3236 24.3228C37.2694 24.6851 37.0127 25.0042 36.5533 25.2803C36.0883 25.571 35.684 25.6473 35.3414 25.5233ZM36.3808 24.3194C36.3556 24.1549 36.2942 23.9979 36.2011 23.8599L34.9632 21.7969C34.8852 21.6468 34.7735 21.5167 34.637 21.4168C34.5749 21.3841 34.5046 21.3701 34.4347 21.3764C34.3648 21.3828 34.2983 21.4091 34.243 21.4524C34.1788 21.481 34.1243 21.5278 34.0862 21.5869C34.0481 21.646 34.0281 21.7149 34.0286 21.7852C34.048 21.9519 34.107 22.1115 34.2009 22.2506L35.4428 24.3012C35.5228 24.4519 35.6361 24.5825 35.7741 24.6829C35.8363 24.7165 35.907 24.7311 35.9775 24.7249C36.048 24.7188 36.1151 24.692 36.1705 24.6481C36.2337 24.6197 36.2873 24.5735 36.3246 24.5151C36.362 24.4567 36.3815 24.3887 36.3808 24.3194Z" fill="#F77952"/>
<path d="M36.6609 19.4012L37.3384 19.1514L39.3156 21.243L38.4037 18.7483L39.21 18.4573L40.9752 23.2353L40.32 23.4758L38.2915 21.2273L39.2637 23.868L38.4336 24.1734L36.6609 19.4012Z" fill="#F77952"/>
<path d="M40.7741 18.06L42.9503 17.6593L43.0837 18.3654L41.913 18.5832L42.1655 19.911L43.0684 19.7391L43.2034 20.4484L42.3014 20.6178L42.6103 22.1812L43.7835 21.9559L43.9134 22.6471L41.7224 23.0595L40.7741 18.06Z" fill="#F77952"/>
<path d="M45.0597 20.5563L43.9706 17.5175L44.9437 17.4865L45.5481 19.2605L45.9913 17.4548L46.9395 17.4241L46.0601 20.5259L46.1245 22.5416L45.1241 22.572L45.0597 20.5563Z" fill="#F77952"/>
<path d="M50.3581 17.7695L51.6163 18.0669C52.0142 18.1366 52.3815 18.3257 52.6692 18.6092C52.8922 18.8571 52.9449 19.2235 52.8299 19.7093C52.7851 19.9575 52.6628 20.185 52.4805 20.3592C52.3095 20.4999 52.09 20.5677 51.8695 20.5479C51.995 20.5899 52.1102 20.6579 52.2075 20.7475C52.3048 20.8372 52.382 20.9464 52.4342 21.068C52.533 21.3553 52.5398 21.6663 52.4535 21.9575C52.224 22.9276 51.6287 23.2984 50.6675 23.0699L49.1884 22.7235L50.3581 17.7695ZM50.6455 22.3171C50.7386 22.3514 50.8383 22.3639 50.937 22.3537C51.0357 22.3434 51.1307 22.3107 51.2148 22.2581C51.3703 22.1143 51.472 21.9218 51.5032 21.7124C51.5711 21.5049 51.5688 21.2807 51.4964 21.0746C51.4432 20.9903 51.372 20.9187 51.288 20.8651C51.2039 20.8114 51.1091 20.7769 51.0102 20.7641L50.7544 20.7038L50.3857 22.2693L50.6455 22.3171ZM51.1437 20.0668C51.2319 20.0991 51.3262 20.1115 51.4198 20.1031C51.5134 20.0946 51.6039 20.0656 51.6849 20.018C51.8246 19.8882 51.9163 19.715 51.9449 19.5265C51.9732 19.4415 51.9825 19.3514 51.9721 19.2625C51.9617 19.1735 51.9319 19.088 51.8848 19.0118C51.7543 18.8672 51.5781 18.7717 51.3857 18.7412L51.1963 18.6968L50.8879 20.0065L51.1437 20.0668Z" fill="#F77952"/>
<path d="M55.4063 19.2714L56.4559 19.7383L55.2913 24.7875L54.4199 24.3999L54.6991 23.3009L53.9665 22.969L53.3337 23.9184L52.4423 23.5244L55.4063 19.2714ZM54.8623 22.6737L55.4112 20.6764L54.2988 22.4237L54.8623 22.6737Z" fill="#F77952"/>
<path d="M56.0928 24.8615C56.0924 24.4126 56.2424 23.9764 56.5188 23.6227L57.5384 22.1125C57.7644 21.723 58.1127 21.419 58.5292 21.2479C58.8749 21.1371 59.2741 21.2334 59.7269 21.5368C60.1797 21.8402 60.4127 22.1509 60.426 22.4689C60.4425 22.8596 60.319 23.2434 60.0779 23.5512L59.8372 23.9058L59.0195 23.3511L59.2821 22.9623C59.3511 22.8617 59.4134 22.7567 59.4685 22.648C59.5092 22.5667 59.5224 22.4744 59.5064 22.385C59.4792 22.2862 59.4144 22.2021 59.3258 22.1508C59.2717 22.102 59.2042 22.0709 59.132 22.0614C59.0599 22.052 58.9865 22.0647 58.9218 22.0979C58.7741 22.2041 58.6493 22.339 58.5548 22.4944L57.2587 24.411C57.1509 24.5527 57.0772 24.7173 57.0434 24.8921C57.0395 24.9612 57.0557 25.0298 57.0902 25.0898C57.1247 25.1497 57.1758 25.1984 57.2375 25.2297C57.2882 25.276 57.3523 25.3051 57.4205 25.3127C57.4888 25.3203 57.5577 25.3061 57.6173 25.2721C57.7622 25.1648 57.8848 25.0305 57.9785 24.8764L58.2567 24.4651L59.0885 25.0271L58.8528 25.3751C58.6492 25.7222 58.3323 25.9886 57.9553 26.1293C57.6308 26.2313 57.2495 26.1334 56.8181 25.8406C56.3867 25.5477 56.1174 25.2299 56.0928 24.8615Z" fill="#F77952"/>
<path d="M62.066 23.3873L62.8018 24.1111L61.3094 25.6453L63.473 24.7617L64.1904 25.4658L61.8859 26.4196L60.6554 29.1416L59.907 28.4055L60.9411 26.2341L60.6396 26.316L59.2405 27.7399L58.5039 27.0186L62.066 23.3873Z" fill="#F77952"/>
<path d="M32.8986 53.2972L33.6903 54.0609L31.915 56.8085L34.6235 54.9582L35.3885 55.6941L31.9243 59.423L31.3804 58.9068L33.7195 56.357L30.863 58.3936L30.4002 57.9503L32.3258 54.9924L29.8597 57.4408L29.314 56.913L32.8986 53.2972Z" fill="#F77952"/>
<path d="M33.5897 60.1853C33.5635 59.7416 33.6921 59.3025 33.9535 58.9429L34.9514 57.3377C35.1552 56.9457 35.4899 56.6376 35.8974 56.467C36.2367 56.3532 36.6409 56.431 37.0972 56.7236C37.5534 57.0161 37.8053 57.3283 37.8579 57.6865C37.886 58.1266 37.7603 58.5628 37.5023 58.9204L36.5019 60.5249C36.2964 60.9163 35.961 61.2239 35.5534 61.3948C35.2067 61.5144 34.8048 61.4292 34.3504 61.1482C33.8959 60.8672 33.6357 60.5468 33.5897 60.1853ZM35.122 60.5544C35.2615 60.4587 35.3768 60.3318 35.4586 60.1838L36.7362 58.1539C36.8313 58.017 36.8924 57.8593 36.9144 57.6939C36.9177 57.6229 36.8998 57.5526 36.863 57.4917C36.8262 57.4309 36.7722 57.3824 36.7078 57.3523C36.653 57.3084 36.5868 57.2812 36.5169 57.2738C36.4471 57.2665 36.3766 57.2794 36.3139 57.3109C36.1758 57.4052 36.0619 57.5307 35.9814 57.6772L34.7179 59.7062C34.6209 59.8461 34.5572 60.0063 34.5315 60.1745C34.5373 60.2436 34.5592 60.3103 34.5954 60.3693C34.6317 60.4284 34.6813 60.478 34.7403 60.5144C34.7992 60.5508 34.8659 60.5728 34.9349 60.5787C35.004 60.5846 35.0734 60.5742 35.1377 60.5484L35.122 60.5544Z" fill="#F77952"/>
<path d="M38.7579 57.753L39.4342 58.0118L39.5473 60.8853L40.4914 58.4124L41.2949 58.7204L39.4894 63.4781L38.8381 63.2273L38.7786 60.1868L37.7758 62.8168L36.9474 62.5008L38.7579 57.753Z" fill="#F77952"/>
<path d="M41.859 58.849L44.0364 59.2742L43.8981 59.9782L42.7309 59.7486L42.4698 61.0735L43.3705 61.2504L43.2305 61.9594L42.3323 61.7833L42.0216 63.3482L43.1988 63.581L43.0652 64.27L40.8753 63.8407L41.859 58.849Z" fill="#F77952"/>
<path d="M44.967 62.4109L44.0893 59.3053L45.0597 59.3423L45.5411 61.1482L46.1106 59.3776L47.0586 59.4073L45.9673 62.441L45.8941 64.4565L44.8987 64.4115L44.967 62.4109Z" fill="#F77952"/>
<path d="M48.8535 59.2357L50.1154 58.9399C50.5023 58.8238 50.9155 58.829 51.2994 58.9547C51.6064 59.0782 51.8152 59.3958 51.9328 59.8684C52.0035 60.1099 51.9957 60.3675 51.9107 60.6043C51.8668 60.705 51.8034 60.7959 51.7241 60.872C51.6449 60.948 51.5514 61.0076 51.449 61.0474C51.58 61.0288 51.7135 61.0381 51.8407 61.0747C51.9679 61.1114 52.0859 61.1745 52.1869 61.26C52.4035 61.4729 52.5478 61.7484 52.5995 62.0476C52.8375 63.0185 52.4611 63.6157 51.5 63.8404L50.0125 64.1874L48.8535 59.2357ZM50.5838 60.9397C50.6769 60.929 50.7665 60.8981 50.8464 60.8492C50.9263 60.8002 50.9945 60.7345 51.0464 60.6565C51.1098 60.4799 51.1128 60.2873 51.0547 60.1088C51.0425 60.0202 51.011 59.9354 50.9624 59.8603C50.9138 59.7852 50.8493 59.7218 50.7734 59.6744C50.5922 59.6032 50.3918 59.5971 50.2066 59.6572L50.0165 59.7006L50.3244 61.0104L50.5838 60.9397ZM51.1434 63.1781C51.2403 63.1655 51.333 63.1314 51.4149 63.0782C51.4968 63.025 51.5657 62.9541 51.6165 62.8707C51.6908 62.6732 51.6955 62.4564 51.6299 62.2559C51.5976 62.0347 51.4915 61.8309 51.3289 61.6775C51.2443 61.6253 51.1491 61.5926 51.0502 61.5818C50.9514 61.5709 50.8514 61.5822 50.7575 61.6147L50.4864 61.6789L50.855 63.2449L51.1434 63.1781Z" fill="#F77952"/>
<path d="M52.7942 58.1037L53.8447 57.6353L56.8098 61.8912L55.9382 62.2823L55.3094 61.3371L54.5804 61.6529L54.8571 62.7518L53.9632 63.144L52.7942 58.1037ZM54.959 60.7841L53.8413 59.0487L54.4 61.0418L54.959 60.7841Z" fill="#F77952"/>
<path d="M57.8192 60.8487C57.4043 60.6838 57.0559 60.3859 56.8285 60.0017L55.7987 58.4982C55.5237 58.1439 55.3735 57.7086 55.3714 57.2601C55.3916 56.8978 55.6291 56.5615 56.0774 56.2544C56.5256 55.9473 56.8817 55.8582 57.2033 55.9451C57.5694 56.0711 57.8785 56.3237 58.0748 56.6575L58.3163 57.0103L57.4896 57.5699L57.2238 57.1817C57.1552 57.0809 57.0806 56.9843 57.0003 56.8925C56.9388 56.825 56.8563 56.78 56.7662 56.7649C56.6649 56.7539 56.5633 56.7836 56.4838 56.8474C56.4182 56.8795 56.364 56.9311 56.3287 56.995C56.2933 57.0589 56.2785 57.1322 56.2862 57.2049C56.3328 57.3802 56.4124 57.5449 56.5208 57.6903L57.8325 59.601C57.9251 59.7607 58.0539 59.8964 58.2086 59.9971C58.2718 60.0265 58.342 60.0371 58.411 60.0276C58.48 60.018 58.5447 59.9888 58.5974 59.9433C58.6595 59.9133 58.7104 59.8644 58.7428 59.8036C58.7752 59.7428 58.7875 59.6733 58.7778 59.6051C58.7284 59.4314 58.6475 59.2682 58.5391 59.1238L58.2581 58.7142L59.0847 58.1546L59.3212 58.5058C59.5694 58.8225 59.7016 59.2146 59.6958 59.6169C59.669 59.9569 59.4401 60.2749 59.0092 60.5711C58.5682 60.864 58.1708 60.9618 57.8192 60.8487Z" fill="#F77952"/>
<path d="M57.5857 55.2289L58.3128 54.4997L59.8325 56.0204L58.9654 53.8482L59.6786 53.1366L60.6199 55.4288L63.3288 56.6827L62.5869 57.4237L60.4244 56.3704L60.499 56.686L61.9106 58.0977L61.1835 58.8269L57.5857 55.2289Z" fill="#F77952"/>
<path d="M33.1182 37.5842L32.8173 42.7543L33.6706 42.7536L33.336 37.5827L33.1182 37.5842ZM40.1436 37.5324L40.0143 37.5322L40.0223 39.5435L40.6171 39.5422C40.9311 39.5414 41.0899 39.21 41.0871 38.5514C41.085 38.1132 41.0232 37.8347 40.8977 37.7117C40.6769 37.5655 40.4114 37.5025 40.1485 37.5341L40.1436 37.5324ZM47.3849 37.5364L47.0833 42.709L47.9366 42.7083L47.5995 37.5366L47.3849 37.5364ZM80.6258 32.34L74.8794 32.3131C73.0157 26.1244 69.2031 20.7031 64.0093 16.8563C58.8156 13.0095 52.5183 10.9429 46.0551 10.9643C39.5919 10.9856 33.3084 13.0937 28.1401 16.9747C22.9718 20.8557 19.1952 26.3021 17.3724 32.503L11.626 32.476L7.44621 36.6847L7.47524 45.4061L11.6831 49.5884L17.4294 49.6153C19.2931 55.804 23.1057 61.2253 28.2995 65.0721C33.4933 68.9189 39.7906 70.9855 46.2538 70.9642C52.717 70.9428 59.0004 68.8347 64.1687 64.9537C69.337 61.0727 73.1137 55.6263 74.9365 49.4254L80.6821 49.4549L84.8626 45.2438L84.8336 36.5223L80.6258 32.34ZM46.0585 11.8458C52.2854 11.8325 58.3532 13.8122 63.374 17.4954C68.3948 21.1785 72.1052 26.3718 73.9624 32.3153L72.6444 32.3234C70.8188 26.7191 67.2624 21.8383 62.487 18.3834C57.7115 14.9284 51.9632 13.0774 46.069 13.0967C40.1749 13.116 34.4387 15.0045 29.686 18.4905C24.9332 21.9766 21.4088 26.8805 19.6198 32.4967L18.2894 32.5008C20.1074 26.5448 23.7836 21.327 28.7801 17.6105C33.7767 13.894 39.8314 11.8739 46.0585 11.8458ZM70.1584 39.6332L70.1632 41.6628L67.9174 41.6724L67.9251 44.1295L70.4251 44.1081L70.4332 46.2131L65.5133 46.2293L65.4742 35.4518L70.24 35.4355L70.2471 37.5264L67.9053 37.5354L67.9134 39.6403L70.1584 39.6332ZM58.844 32.3671C57.4353 30.2873 55.5371 28.5856 53.3163 27.4117C51.0955 26.2378 48.6202 25.6278 46.1083 25.6352C43.5964 25.6426 41.1248 26.2673 38.911 27.4543C36.6972 28.6413 34.809 30.3542 33.4127 32.4423L20.5451 32.4861C22.3256 27.1188 25.7475 22.4466 30.3273 19.1295C34.9071 15.8124 40.4134 14.0181 46.0683 14C51.7231 13.9819 57.2408 15.741 61.8417 19.0287C66.4426 22.3165 69.8943 26.9667 71.7091 32.3225L58.844 32.3671ZM58.984 37.5524L58.9737 35.4715L64.1852 35.4555L64.1939 37.5414L62.7807 37.5463L62.8095 46.2512L60.427 46.2581L60.3998 37.5483L58.984 37.5524ZM47.593 32.0475L46.2466 31.3227L44.9098 32.0568L45.1814 30.5536L44.071 29.5057L45.5849 29.2992L46.238 27.9188L46.8962 29.2945L48.4102 29.4898L47.3062 30.5436L47.593 32.0475ZM44.9636 49.4102L46.31 50.135L47.6468 49.401L47.3752 50.9041L48.4856 51.952L46.9725 52.156L46.3186 53.5389L45.6603 52.1632L44.1464 51.9679L45.2503 50.9141L44.9636 49.4102ZM48.2999 46.2924L48.1262 44.668L46.9325 44.6748L46.7898 46.2992L44.4752 46.3088L45.658 35.5225L49.3883 35.5088L50.6129 46.2879L48.2999 46.2924ZM51.6691 31.8314L50.7143 31.3179L49.7629 31.8374L49.9571 30.7716L49.1672 30.0277L50.2435 29.8814L50.707 28.9022L51.1771 29.879L52.2522 30.0184L51.4623 30.7632L51.6691 31.8314ZM49.821 49.5968L50.7758 50.1103L51.7272 49.5907L51.533 50.6565L52.3228 51.4004L51.249 51.5393L50.7847 52.5209L50.3146 51.5442L49.2395 51.4047L50.0302 50.6574L49.821 49.5968ZM51.8869 46.2795L51.8519 35.4977L54.2907 35.4869L55.4046 40.6388L55.3925 35.4836L57.6954 35.4759L57.7305 46.2576L55.406 46.2722L54.2068 40.8809L54.2247 46.2747L51.8869 46.2795ZM40.8891 49.6214L41.8439 50.1349L42.7952 49.6154L42.601 50.6811L43.3909 51.425L42.3155 51.5689L41.8511 52.5505L41.3811 51.5738L40.3059 51.4343L41.0967 50.687L40.8891 49.6214ZM43.3358 39.5251C43.3027 39.6978 43.2427 39.8642 43.1579 40.0183C43.0653 40.1661 42.9478 40.2968 42.8108 40.4047C42.6425 40.5373 42.4508 40.6372 42.2456 40.6989C42.4442 40.7282 42.6328 40.8049 42.7955 40.9226C42.935 41.0275 43.0428 41.1688 43.1072 41.331C43.1659 41.476 43.2097 41.6265 43.2378 41.7803C43.2614 41.9334 43.2733 42.0881 43.2734 42.243C43.2789 44.028 43.2744 45.3823 43.2599 46.3058L40.9321 46.3138L40.9092 42.1073C40.913 41.9725 40.8959 41.838 40.8586 41.7085C40.8433 41.6619 40.8184 41.6189 40.7857 41.5823C40.753 41.5458 40.713 41.5163 40.6683 41.4959C40.5844 41.4536 40.4944 41.4246 40.4015 41.4101C40.3158 41.4027 40.1849 41.3991 40.0087 41.3993L40.0265 46.306L37.6193 46.3297L37.5843 35.548L41.24 35.5351C41.5662 35.5258 41.8913 35.5763 42.1993 35.6841C42.4379 35.7658 42.6542 35.9023 42.8306 36.0825C42.9998 36.2745 43.1231 36.5023 43.1914 36.7489C43.2782 37.0148 43.3367 37.2891 43.3657 37.5672C43.3975 37.8966 43.4123 38.2275 43.4101 38.5584C43.4106 38.7622 43.4099 38.927 43.4013 39.0564C43.3911 39.2158 43.3687 39.3742 43.3342 39.5301L43.3358 39.5251ZM42.7356 31.861L41.7808 31.3475L40.8294 31.867L41.0236 30.8012L40.2337 30.0574L41.3091 29.9052L41.7734 28.9236L42.2435 29.9003L43.3186 30.0397L42.5279 30.787L42.7356 31.861ZM36.3336 46.3317L34.034 46.3377L33.8594 44.7158L32.6493 44.7311L32.5121 46.338L30.1976 46.3475L31.3803 35.5613L35.1106 35.5476L36.3336 46.3317ZM23.1286 35.5928L25.4423 35.5858L25.4687 43.3488C25.4699 43.4647 25.4701 43.5583 25.4733 43.6254C25.4782 43.7211 25.4888 43.8165 25.5053 43.9109C25.5193 44.0075 25.5497 44.1011 25.5952 44.1875C25.6386 44.2598 25.6979 44.3212 25.7686 44.3671C25.853 44.4209 25.9518 44.4479 26.0519 44.4444C26.1369 44.4452 26.2211 44.4282 26.2991 44.3946C26.3679 44.3647 26.4256 44.314 26.4641 44.2495C26.5026 44.189 26.5353 44.1248 26.5615 44.058C26.5906 43.9802 26.6076 43.8985 26.6119 43.8155L26.6293 43.5817L26.6319 43.3514L26.6055 35.5884L28.9192 35.5814L28.9457 43.5068C28.9493 44.4821 28.7183 45.2232 28.2525 45.7301C27.7868 46.2371 27.0632 46.4905 26.0818 46.4904C25.0778 46.4976 24.3395 46.2519 23.8694 45.7457C23.3994 45.2395 23.1679 44.5047 23.1626 43.5288L23.1286 35.5928ZM33.4641 49.5638C34.8735 51.6425 36.772 53.3432 38.9927 54.5163C41.2134 55.6894 43.6882 56.299 46.1997 56.2915C48.7112 56.2841 51.1824 55.6599 53.3961 54.4737C55.6098 53.2874 57.4982 51.5756 58.8954 49.4886L71.7597 49.4465C69.9778 54.8122 66.5554 59.4825 61.9758 62.7981C57.3962 66.1136 51.8908 67.9068 46.237 67.9244C40.5833 67.942 35.0668 66.1832 30.4666 62.8962C25.8665 59.6093 22.415 54.9604 20.5997 49.6059L33.4641 49.5638ZM15.7023 43.1875L15.6918 38.5061C15.6804 38.0533 15.7474 37.6019 15.8898 37.1719C15.9917 36.8479 16.1601 36.5488 16.3842 36.2935C16.5853 36.0826 16.8266 35.9141 17.094 35.7981C17.3403 35.6901 17.5996 35.6144 17.8653 35.5729C18.1154 35.5368 18.3677 35.5186 18.6203 35.5186C18.9243 35.5165 19.228 35.5396 19.5282 35.5877C19.7708 35.6274 20.0061 35.7031 20.2264 35.8123C20.4119 35.9036 20.5863 36.016 20.7461 36.1473C20.8988 36.2735 21.0247 36.4291 21.1162 36.6048C21.2106 36.7785 21.2903 36.9597 21.3547 37.1466C21.4229 37.3554 21.4699 37.5706 21.4949 37.7888C21.5274 38.0387 21.5514 38.272 21.5619 38.4873C21.5725 38.7026 21.5802 38.961 21.5899 39.2558L19.3143 39.2641L19.3136 38.4108C19.3155 38.2671 19.2967 38.1239 19.2577 37.9855C19.2325 37.8912 19.179 37.8067 19.1044 37.7436C19.0496 37.7038 18.9892 37.6724 18.9253 37.6502C18.8658 37.6341 18.8044 37.6264 18.7428 37.6273C18.6304 37.6234 18.5183 37.6426 18.4137 37.6838C18.339 37.714 18.2716 37.7599 18.2163 37.8184C18.1608 37.9081 18.1281 38.01 18.1208 38.1152C18.1005 38.2487 18.0876 38.3833 18.082 38.5182C18.0767 38.6458 18.0763 38.8438 18.0775 39.1139L18.09 43.2841C18.0917 43.4415 18.098 43.5756 18.11 43.684C18.1233 43.803 18.1492 43.9202 18.1874 44.0336C18.221 44.1492 18.292 44.2505 18.3892 44.3215C18.4939 44.3906 18.6179 44.4247 18.7432 44.4188C18.8427 44.4292 18.9428 44.4071 19.0287 44.3559C19.1146 44.3047 19.1817 44.227 19.2199 44.1346C19.3138 43.8412 19.3532 43.533 19.3362 43.2254L19.3322 41.9803L18.6959 41.982L18.682 40.1091L21.5657 40.1011L21.5872 46.382L20.656 46.3769L20.2579 45.4756C20.0542 45.8134 19.7613 46.0885 19.4115 46.2706C19.0616 46.4528 18.6683 46.5349 18.2748 46.5081C16.5622 46.5168 15.7022 45.4091 15.6948 43.1851L15.7023 43.1875ZM46.2602 70.0776C40.0323 70.0933 33.9628 68.1153 28.9401 64.4329C23.9173 60.7506 20.205 55.5573 18.3465 49.6131L19.6769 49.609C21.5046 55.2099 25.0613 60.087 29.8356 63.539C34.61 66.991 40.356 68.84 46.2475 68.8203C52.139 68.8006 57.8726 66.9132 62.6237 63.4293C67.3748 59.9455 70.8988 55.0447 72.689 49.4317L74.0194 49.4277C72.2022 55.384 68.5262 60.6023 63.5295 64.319C58.5328 68.0356 52.4777 70.0553 46.2503 70.0827L46.2602 70.0776ZM76.8203 46.1954L71.8995 46.2142L71.8653 35.43L76.6278 35.4153L76.635 37.5062L74.2931 37.5152L74.3012 39.6202L76.547 39.6106L76.5534 41.6352L74.3085 41.6423L74.3162 44.0994L76.8186 44.0788L76.8203 46.1954Z" fill="#F77952"/>
</svg>
