<svg width="99" height="30" viewBox="0 0 99 30" fill="none" xmlns="http://www.w3.org/2000/svg">
<path fill-rule="evenodd" clip-rule="evenodd" d="M39.6355 8.24463C41.84 8.24463 43.8742 9.4405 43.5959 12.4209C43.2586 15.963 41.361 17.9229 38.3671 17.9314H35.751C35.3749 17.9314 35.1927 18.2384 35.0949 18.8675L34.5889 22.084C34.513 22.5698 34.2634 22.8093 33.8957 22.8093H31.4617C31.0738 22.8093 30.9389 22.5614 31.0249 22.0065L33.0338 9.11497C33.1333 8.48077 33.3711 8.24463 33.8046 8.24463H39.6305H39.6355ZM35.6718 15.1466H37.6536C38.8934 15.0994 39.7165 14.2409 39.7991 12.6925C39.8497 11.7361 39.2037 11.0513 38.1765 11.0564L36.311 11.0648L35.6718 15.1466ZM50.2128 21.8226C50.4355 21.6202 50.6615 21.5156 50.6295 21.7653L50.5502 22.3623C50.5097 22.6744 50.6328 22.8397 50.9229 22.8397H53.0853C53.4496 22.8397 53.6267 22.6929 53.7161 22.1296L55.0486 13.7669C55.1161 13.3469 55.0132 13.1411 54.6944 13.1411H52.3162C52.1019 13.1411 51.9974 13.2609 51.9417 13.5881L51.854 14.1026C51.8085 14.3707 51.6853 14.418 51.5706 14.1481C51.1675 13.1934 50.1386 12.765 48.7032 12.7987C45.3686 12.8679 43.1202 15.3996 42.879 18.6449C42.6935 21.1547 44.4915 23.1264 46.863 23.1264C48.5835 23.1264 49.3526 22.6204 50.2196 21.8277L50.2128 21.8226ZM48.4013 20.5356C46.9659 20.5356 45.9657 19.3904 46.1732 17.987C46.3806 16.5837 47.7233 15.4384 49.1586 15.4384C50.594 15.4384 51.5942 16.5837 51.3868 17.987C51.1793 19.3904 49.8384 20.5356 48.4013 20.5356ZM59.2806 13.1141H57.0878C56.6358 13.1141 56.452 13.4515 56.5953 13.8664L59.3177 21.8378L56.6476 25.6312C56.4233 25.9483 56.597 26.2367 56.9124 26.2367H59.3767C59.5203 26.2533 59.6657 26.2283 59.7955 26.1646C59.9253 26.1009 60.034 26.0012 60.1087 25.8774L68.4815 13.8681C68.7396 13.4987 68.6182 13.1108 68.1948 13.1108H65.8621C65.4623 13.1108 65.3021 13.2693 65.0727 13.6016L61.5812 18.6617L60.021 13.5898C59.9299 13.2828 59.7022 13.1141 59.2822 13.1141H59.2806Z" fill="#113984"/>
<path fill-rule="evenodd" clip-rule="evenodd" d="M77.1921 8.2441C79.3967 8.2441 81.4308 9.43997 81.1525 12.4204C80.8152 15.9625 78.9176 17.9224 75.9237 17.9308H73.3094C72.9332 17.9308 72.7511 18.2378 72.6532 18.867L72.1472 22.0835C72.0713 22.5693 71.8217 22.8088 71.454 22.8088H69.0201C68.6321 22.8088 68.4972 22.5609 68.5832 22.0059L70.5954 9.11106C70.695 8.47686 70.9328 8.24072 71.3663 8.24072H77.1921V8.2441ZM73.2284 15.1461H75.2103C76.45 15.0989 77.2731 14.2403 77.3558 12.6919C77.4064 11.7356 76.7604 11.0508 75.7331 11.0558L73.8677 11.0643L73.2284 15.1461ZM87.7695 21.8221C87.9921 21.6197 88.2181 21.5151 88.1861 21.7647L88.1068 22.3618C88.0663 22.6739 88.1895 22.8392 88.4796 22.8392H90.6419C91.0063 22.8392 91.1834 22.6924 91.2728 22.1291L92.6053 13.7664C92.6727 13.3464 92.5698 13.1406 92.251 13.1406H89.8762C89.662 13.1406 89.5574 13.2604 89.5017 13.5876L89.414 14.102C89.3685 14.3702 89.2453 14.4174 89.1306 14.1476C88.7275 13.1929 87.6986 12.7645 86.2632 12.7982C82.9286 12.8674 80.6802 15.3991 80.439 18.6443C80.2535 21.1541 82.0515 23.1259 84.423 23.1259C86.1435 23.1259 86.9126 22.6199 87.7796 21.8271L87.7695 21.8221ZM85.9596 20.5351C84.5243 20.5351 83.524 19.3898 83.7315 17.9865C83.939 16.5832 85.2816 15.4379 86.717 15.4379C88.1524 15.4379 89.1526 16.5832 88.9451 17.9865C88.7376 19.3898 87.395 20.5351 85.9596 20.5351ZM95.9331 22.8526H93.4368C93.3934 22.8546 93.3501 22.8469 93.31 22.8302C93.2698 22.8134 93.2339 22.7881 93.2048 22.7558C93.1756 22.7236 93.1539 22.6853 93.1412 22.6438C93.1286 22.6022 93.1252 22.5583 93.1315 22.5153L95.3242 8.62361C95.3452 8.5288 95.3976 8.44386 95.4729 8.38262C95.5482 8.32137 95.6421 8.28741 95.7392 8.28627H98.2355C98.2789 8.28432 98.3222 8.29199 98.3623 8.30873C98.4024 8.32547 98.4384 8.35085 98.4675 8.38308C98.4967 8.41531 98.5184 8.45358 98.531 8.49515C98.5437 8.53673 98.547 8.5806 98.5408 8.62361L96.348 22.5153C96.3278 22.6107 96.2757 22.6964 96.2003 22.7584C96.1249 22.8203 96.0307 22.8547 95.9331 22.856V22.8526Z" fill="#009EE3"/>
<path fill-rule="evenodd" clip-rule="evenodd" d="M10.8043 7.06152H19.2659C23.809 7.06152 25.5193 9.3615 25.255 12.7405C24.8181 18.3189 21.4457 21.4052 16.9725 21.4052H14.714C14.1002 21.4052 13.6874 21.8115 13.5214 22.9123L12.5626 29.3121C12.4992 29.7271 12.2808 29.9673 11.9532 30.0001H6.6368C6.13662 30.0001 5.9597 29.6179 6.09075 28.79L9.33212 8.27376C9.4588 7.4525 9.90875 7.06152 10.8043 7.06152Z" fill="#009EE3"/>
<path fill-rule="evenodd" clip-rule="evenodd" d="M5.51257 0H13.9829C16.3681 0 19.1988 0.0764473 21.0903 1.74737C22.355 2.8635 23.019 4.63926 22.8661 6.55263C22.3463 13.0201 18.478 16.6437 13.2884 16.6437H9.11215C8.4001 16.6437 7.93049 17.1155 7.72954 18.391L6.56318 25.8173C6.48673 26.2979 6.27923 26.5818 5.90792 26.6168H0.681106C0.102291 26.6168 -0.103027 26.1799 0.0476836 25.2145L3.80452 1.411C3.95523 0.454313 4.48163 0 5.51257 0Z" fill="#113984"/>
<path fill-rule="evenodd" clip-rule="evenodd" d="M7.85193 17.6382L9.33064 8.27448C9.45951 7.45322 9.90945 7.06006 10.805 7.06006H19.2666C20.6667 7.06006 21.8003 7.27848 22.6871 7.68256C21.8374 13.4401 18.1133 16.6378 13.2382 16.6378H9.06853C8.50938 16.64 8.09874 16.9196 7.85193 17.6382Z" fill="#172C70"/>
</svg>
