<svg width="92" height="84" viewBox="0 0 92 84" fill="none" xmlns="http://www.w3.org/2000/svg">
<path d="M80.7531 30.2294C83.5135 31.6881 87.2896 32.2051 89.7532 35.1881C86.8696 33.3232 83.5256 31.924 80.1049 31.1096C83.7679 34.3121 91.9805 32.9211 90.8012 41.8516C92.1542 41.0064 92.4631 44.2335 91.2031 45.8686C88.7496 45.7661 90.6235 47.5653 88.6971 48.3839C90.0319 53.9375 87.7157 47.0278 86.8999 54.3642C88.1377 56.701 85.4177 56.6784 84.1536 57.1482C86.6858 59.0972 81.5668 58.849 80.1654 59.1998C81.7748 60.1087 87.2149 60.7406 81.892 64.0108C82.6229 64.6981 82.52 66.1711 81.2296 67.3343C81.1892 69.0905 80.9267 70.4138 79.2991 70.8261C79.2103 72.8593 76.7952 71.5975 75.7552 71.4662C75.6199 71.8745 75.7088 72.7669 74.893 73.0521C75.2201 73.6819 75.2665 74.3323 74.7758 75.0442C78.8953 78.1236 68.2574 75.4217 66.7652 76.6198C67.3164 78.4478 67.3164 78.4478 66.5753 79.5987C69.5337 83.1602 50.5924 79.2356 57.7751 79.2253C57.4702 78.3739 52.3088 78.6878 56.0385 76.0556C55.5236 75.6412 55.0228 75.4032 54.5179 75.1837C51.1295 76.0331 46.9737 73.4542 43.3551 72.4592C43.8337 73.7312 44.1285 75.8238 42.1698 76.4762C50.1158 85.7699 38.4825 79.9906 35.2616 79.6726C33.6765 83.7716 39.0741 85.8827 27.6589 81.7918C27.3237 80.1136 27.5579 80.6943 26.4614 79.172C26.7825 77.9677 26.2857 76.8291 25.1468 77.303C24.9812 78.177 22.1138 84.2496 22.2168 79.8551C23.495 78.694 23.1739 75.873 20.3024 75.315C20.3489 77.4979 17.6571 75.0647 15.4803 74.9129C17.2371 73.1342 17.7944 76.7367 19.7976 75.1857C16.8474 74.7734 14.3737 72.4428 10.8035 74.0246C9.94935 72.5925 4.34976 69.907 7.93204 67.6872C8.04513 65.1207 12.0878 63.3522 9.60001 59.9466C9.64443 59.7702 9.8504 59.288 10.1715 58.808C10.226 58.0345 8.89122 58.3443 9.49702 57.1093C9.21028 56.4712 5.59972 55.7696 6.49428 54.9777C7.60895 55.0843 9.28297 57.298 10.7086 56.4425C10.7409 56.3071 8.43284 55.7183 11.0681 56.0424C8.75795 53.5621 3.85502 53.3159 3.05335 50.2344C2.45361 49.6046 -2.29989 46.7406 1.39144 46.0553C-1.73044 42.1266 3.08364 41.5152 5.37557 41.864C1.99118 38.3106 3.83887 37.5577 5.25441 32.2195C3.37038 25.839 7.31413 29.2077 10.0039 29.4252C5.84406 27.0597 4.99392 25.3754 11.3104 26.6515C10.8681 25.3262 7.48173 26.8094 8.22081 24.0501C7.33634 23.0263 7.823 21.3276 9.46067 20.1151C9.02046 19.1878 9.23047 17.3045 10.4461 17.2881C10.7369 16.7567 10.7955 16.7403 11.0539 17.1239C11.5971 16.4079 11.896 15.5688 13.0955 15.9361C12.6714 14.8303 12.9481 13.1151 14.301 15.259C14.4545 14.4794 14.7877 14.7236 15.0906 14.7461C15.45 11.4985 16.8716 11.1702 18.6991 11.121C18.7213 8.88478 21.5262 8.42932 21.1748 11.3898C27.4711 13.6752 22.9155 8.31444 28.6544 5.89972C27.6467 3.87481 28.2162 1.56473 30.599 1.63448C31.5945 -5.31628 39.3447 12.1242 45.8631 12.5551C46.4245 8.73706 49.1728 10.5363 50.4227 9.22123C46.6547 8.90734 53.9828 2.04685 56.824 9.58231C56.8644 9.92698 57.2057 10.9876 57.5389 9.85928C57.8256 9.23765 57.9407 8.34726 57.4036 7.75435C53.1428 2.92288 61.836 5.69046 63.8089 5.76637C65.6808 5.31913 61.2322 19.2145 68.0111 5.74175C73.0534 2.41614 64.8387 13.665 72.6818 13.308C72.1588 12.8136 72.9322 11.6688 73.742 13.388C73.742 12.9941 73.6309 12.7253 73.4895 12.4689C73.8187 12.2863 73.956 12.4976 74.0933 13.3408C74.6466 14.4589 83.8123 14.9718 83.4266 17.7804C81.4134 20.4947 86.5546 18.7816 80.854 24.1424C79.8322 24.9138 80.6864 25.5272 80.7228 26.949C81.3952 27.2608 81.9505 27.4783 80.7207 29.3575C80.9247 29.378 81.4437 29.7186 80.7531 30.2294C80.6339 30.094 80.5148 29.9607 80.5249 29.6406C80.4078 29.7924 80.2603 29.7453 80.2018 30.012C80.3573 30.2171 80.5794 30.1186 80.7531 30.2294Z" fill="#F3D588"/>
<path d="M76 42.7213C76.4137 42.7213 76.75 43.0576 76.75 43.4713C76.75 43.8851 76.4137 44.2213 76 44.2213H68.0013C67.9338 44.2938 67.8662 44.3663 67.7962 44.4376L45.4363 67.2738C45.4038 67.3088 45.2162 67.5013 44.9125 67.5076C44.5938 67.5126 44.3937 67.3063 44.3625 67.2726L22.1488 44.4376C22.0788 44.3663 22.0113 44.2938 21.9437 44.2213H16C15.5863 44.2213 15.25 43.8851 15.25 43.4713C15.25 43.0576 15.5863 42.7213 16 42.7213H20.71C16.4375 36.7801 16.9163 28.3376 22.1488 22.9588C22.2788 22.8238 22.4112 22.6901 22.5475 22.5601C28.3325 16.9951 37.535 17.1726 43.1 22.9588L44.9988 24.8563L46.845 22.9588C46.975 22.8238 47.1075 22.6901 47.2438 22.5601C53.0288 16.9951 62.2313 17.1726 67.7962 22.9588C73.0287 28.3376 73.5075 36.7801 69.235 42.7213H76ZM67.33 42.7213C71.9113 37.3438 71.7087 29.1326 66.7212 24.0051C66.6 23.8788 66.4762 23.7563 66.3512 23.6351C61.1587 18.6476 52.9075 18.8126 47.92 24.0051C47.1275 24.8188 46.3363 25.6326 45.545 26.4463C45.505 26.4888 45.3387 26.6588 45.0662 26.6813C44.7313 26.7076 44.5088 26.4863 44.4775 26.4551L44.4762 26.4538L42.0325 24.0126C41.91 23.8838 41.7838 23.7588 41.6562 23.6351C36.4637 18.6476 28.2113 18.8126 23.2238 24.0051C18.2362 29.1313 18.0337 37.3426 22.615 42.7213H37.9963L40.4275 35.5738C40.5238 35.2826 40.74 35.0463 41.0212 34.9226C41.57 34.6826 42.21 34.9326 42.4513 35.4813L46.8387 45.3751L50.4137 38.4688C50.5088 38.2826 50.6562 38.1276 50.8375 38.0238C51.3575 37.7251 52.02 37.9038 52.3187 38.4238L54.8075 42.7213H67.33ZM44.9013 65.6763L65.9087 44.2201H54.5675C54.18 44.2188 53.8212 44.0113 53.6275 43.6763L51.3988 39.8276L47.775 46.8288C47.59 47.1913 47.2175 47.4188 46.81 47.4188H46.7775C46.3575 47.4063 45.9825 47.1538 45.8162 46.7688L41.5075 37.0538L39.3225 43.4788C39.1737 43.9213 38.7587 44.2201 38.2925 44.2213H24.0312L44.9013 65.6763Z" fill="white"/>
</svg>
