<svg width="92" height="84" viewBox="0 0 92 84" fill="none" xmlns="http://www.w3.org/2000/svg">
<path d="M11.2469 30.2294C8.48652 31.6881 4.71038 32.2051 2.2468 35.1881C5.1304 33.3232 8.47441 31.924 11.8951 31.1096C8.23209 34.3121 0.0194778 32.9211 1.19877 41.8516C-0.154182 41.0064 -0.463142 44.2335 0.796921 45.8686C3.2504 45.7661 1.37647 47.5653 3.30291 48.3839C1.96813 53.9375 4.2843 47.0278 5.10011 54.3642C3.86227 56.701 6.5823 56.6784 7.8464 57.1482C5.31416 59.0972 10.4332 58.849 11.8346 59.1998C10.2252 60.1087 4.7851 60.7406 10.108 64.0108C9.37705 64.6981 9.48003 66.1711 10.7704 67.3343C10.8108 69.0905 11.0733 70.4138 12.7009 70.8261C12.7897 72.8593 15.2048 71.5975 16.2448 71.4662C16.3801 71.8745 16.2912 72.7669 17.107 73.0521C16.7799 73.6819 16.7335 74.3323 17.2242 75.0442C13.1047 78.1236 23.7425 75.4217 25.2348 76.6198C24.6836 78.4478 24.6836 78.4478 25.4247 79.5987C22.4663 83.1602 41.4076 79.2356 34.2249 79.2253C34.5298 78.3739 39.6912 78.6878 35.9615 76.0556C36.4764 75.6412 36.9772 75.4032 37.4821 75.1837C40.8705 76.0331 45.0263 73.4542 48.6449 72.4592C48.1663 73.7312 47.8715 75.8238 49.8302 76.4762C41.8842 85.7699 53.5175 79.9905 56.7384 79.6726C58.3235 83.7716 52.9259 85.8827 64.3411 81.7918C64.6763 80.1137 64.4421 80.6942 65.5386 79.172C65.2175 77.9677 65.7143 76.8291 66.8532 77.303C67.0188 78.177 69.8862 84.2496 69.7832 79.8551C68.505 78.694 68.8261 75.873 71.6976 75.315C71.6511 77.4979 74.3429 75.0647 76.5197 74.9129C74.7629 73.1342 74.2056 76.7367 72.2024 75.1857C75.1526 74.7734 77.6263 72.4428 81.1965 74.0246C82.0506 72.5925 87.6502 69.907 84.068 67.6872C83.9549 65.1207 79.9122 63.3522 82.4 59.9466C82.3556 59.7702 82.1496 59.288 81.8285 58.808C81.774 58.0345 83.1088 58.3443 82.503 57.1093C82.7897 56.4712 86.4003 55.7696 85.5057 54.9777C84.391 55.0843 82.717 57.298 81.2914 56.4425C81.2591 56.3071 83.5672 55.7183 80.9319 56.0424C83.2421 53.5621 88.145 53.3159 88.9467 50.2344C89.5464 49.6046 94.2999 46.7406 90.6086 46.0553C93.7304 42.1266 88.9164 41.5152 86.6244 41.864C90.0088 38.3106 88.1611 37.5577 86.7456 32.2195C88.6296 25.839 84.6859 29.2077 81.9961 29.4252C86.1559 27.0597 87.0061 25.3754 80.6896 26.6515C81.1319 25.3262 84.5183 26.8094 83.7792 24.0501C84.6637 23.0263 84.177 21.3276 82.5393 20.1151C82.9795 19.1878 82.7695 17.3045 81.5539 17.2881C81.2631 16.7567 81.2045 16.7403 80.9461 17.1239C80.4029 16.4079 80.104 15.5688 78.9045 15.9361C79.3286 14.8303 79.0519 13.1151 77.699 15.259C77.5455 14.4794 77.2123 14.7236 76.9094 14.7461C76.55 11.4985 75.1284 11.1702 73.3009 11.121C73.2787 8.88478 70.4738 8.42932 70.8252 11.3898C64.5289 13.6752 69.0845 8.31444 63.3456 5.89972C64.3533 3.87481 63.7838 1.56473 61.401 1.63448C60.4055 -5.31628 52.6553 12.1242 46.1369 12.5551C45.5755 8.73706 42.8272 10.5363 41.5773 9.22123C45.3453 8.90734 38.0172 2.04685 35.176 9.58231C35.1356 9.92698 34.7943 10.9876 34.4611 9.85928C34.1744 9.23765 34.0593 8.34726 34.5964 7.75435C38.8572 2.92288 30.164 5.69046 28.1911 5.76637C26.3192 5.31912 30.7678 19.2145 23.9889 5.74175C18.9466 2.41614 27.1613 13.665 19.3182 13.308C19.8412 12.8136 19.0678 11.6688 18.258 13.388C18.258 12.9941 18.3691 12.7253 18.5105 12.4689C18.1813 12.2863 18.044 12.4976 17.9067 13.3408C17.3534 14.4589 8.18767 14.9718 8.57336 17.7804C10.5866 20.4947 5.44542 18.7816 11.146 24.1424C12.1678 24.9138 11.3136 25.5272 11.2772 26.949C10.6048 27.2608 10.0495 27.4783 11.2793 29.3575C11.0753 29.378 10.5563 29.7186 11.2469 30.2294C11.3661 30.094 11.4852 29.9607 11.4751 29.6406C11.5922 29.7924 11.7397 29.7453 11.7982 30.012C11.6427 30.2171 11.4206 30.1186 11.2469 30.2294Z" fill="#D085CD"/>
<path d="M22.4924 50.4818C23.8829 55.4834 26.8256 59.9143 30.8963 63.136C35.1965 66.5267 40.513 68.3708 45.9892 68.3711C51.4654 68.3714 56.7821 66.5279 61.0827 63.1376C65.1528 59.9174 68.0956 55.4883 69.4873 50.4884C70.8958 50.0838 72.1343 49.232 73.0159 48.0614C73.8976 46.8909 74.3744 45.4653 74.3744 43.9999C74.3744 42.5345 73.8976 41.1089 73.0159 39.9384C72.1343 38.7678 70.8958 37.916 69.4873 37.5114C68.0956 32.5116 65.1527 28.0826 61.0827 24.8624C56.7821 21.4721 51.4654 19.6286 45.9892 19.6289C40.513 19.6292 35.1965 21.4733 30.8963 24.864C26.8256 28.0856 23.883 32.5165 22.4924 37.518C21.0888 37.9259 19.8556 38.7783 18.978 39.9472C18.1004 41.1161 17.626 42.5382 17.626 43.9999C17.626 45.4615 18.1004 46.8837 18.978 48.0526C19.8556 49.2215 21.0888 50.0739 22.4924 50.4818ZM23.3787 39.1011C23.5407 39.0685 23.6901 38.9907 23.8097 38.8767C23.9293 38.7627 24.0142 38.6171 24.0545 38.4569C25.2851 33.6247 28.0702 29.3311 31.9809 26.2374C35.9722 23.0906 40.9067 21.3793 45.9893 21.379C51.0719 21.3788 56.0066 23.0897 59.9982 26.236C63.9089 29.3288 66.6945 33.6214 67.9262 38.4528C67.9667 38.6134 68.0519 38.7593 68.1721 38.8734C68.2922 38.9875 68.4423 39.0651 68.6048 39.0973C69.7383 39.3239 70.7584 39.9362 71.4913 40.8301C72.2242 41.7241 72.6247 42.8443 72.6247 44.0003C72.6247 45.1562 72.2242 46.2765 71.4913 47.1704C70.7584 48.0643 69.7383 48.6767 68.6048 48.9033C68.4423 48.9354 68.2922 49.0131 68.1721 49.1272C68.0519 49.2413 67.9667 49.3871 67.9262 49.5478C66.6945 54.3792 63.9089 58.6717 59.9982 61.7645C56.0066 64.9109 51.0719 66.6218 45.9893 66.6215C40.9067 66.6213 35.9722 64.9099 31.9809 61.7631C28.0702 58.6693 25.2851 54.3756 24.0545 49.5433C24.0142 49.383 23.9293 49.2375 23.8097 49.1235C23.6901 49.0094 23.5407 48.9316 23.3787 48.899C22.2487 48.6695 21.2328 48.0565 20.5031 47.1637C19.7734 46.2709 19.3748 45.1533 19.3748 44.0003C19.3748 42.8472 19.7734 41.7296 20.5031 40.8368C21.2328 39.9441 22.2487 39.331 23.3787 39.1015V39.1011Z" fill="white"/>
<path d="M56.1212 47.5767C55.8891 47.5767 55.6665 47.6688 55.5024 47.8329C55.3383 47.997 55.2462 48.2196 55.2462 48.4517C55.2462 50.904 54.272 53.2558 52.538 54.9898C50.8039 56.7239 48.4521 57.698 45.9998 57.698C43.5475 57.698 41.1956 56.7239 39.4616 54.9898C37.7276 53.2558 36.7534 50.904 36.7534 48.4517C36.7534 48.2196 36.6612 47.997 36.4971 47.8329C36.333 47.6688 36.1105 47.5767 35.8784 47.5767C35.6464 47.5767 35.4238 47.6688 35.2597 47.8329C35.0956 47.997 35.0034 48.2196 35.0034 48.4517C35.0034 51.3681 36.162 54.1651 38.2242 56.2273C40.2864 58.2895 43.0834 59.448 45.9998 59.448C48.9162 59.448 51.7132 58.2895 53.7754 56.2273C55.8376 54.1651 56.9962 51.3681 56.9962 48.4517C56.9962 48.2196 56.904 47.997 56.7399 47.8329C56.5758 47.6688 56.3532 47.5767 56.1212 47.5767Z" fill="white"/>
<path d="M36.9156 31.8019C37.0305 31.8021 37.1444 31.7795 37.2505 31.7355C37.3567 31.6915 37.4532 31.627 37.5343 31.5456L42.03 27.0499C42.1941 26.8858 42.2863 26.6633 42.2863 26.4312C42.2863 26.1991 42.1941 25.9765 42.03 25.8124C41.8659 25.6483 41.6433 25.5562 41.4112 25.5562C41.1791 25.5562 40.9566 25.6483 40.7925 25.8124L36.2968 30.3081C36.1745 30.4304 36.0911 30.5864 36.0573 30.7561C36.0236 30.9258 36.0409 31.1018 36.1071 31.2617C36.1734 31.4216 36.2855 31.5582 36.4294 31.6544C36.5733 31.7505 36.7425 31.8018 36.9156 31.8018V31.8019Z" fill="white"/>
<path d="M43.4001 31.8019C43.515 31.8021 43.6289 31.7795 43.735 31.7355C43.8412 31.6915 43.9377 31.627 44.0188 31.5456L48.5143 27.0499C48.5956 26.9687 48.6601 26.8722 48.704 26.7661C48.748 26.6599 48.7706 26.5461 48.7706 26.4312C48.7706 26.3163 48.748 26.2025 48.704 26.0963C48.6601 25.9902 48.5956 25.8937 48.5143 25.8124C48.4331 25.7312 48.3366 25.6667 48.2305 25.6228C48.1243 25.5788 48.0105 25.5562 47.8956 25.5562C47.7807 25.5562 47.6669 25.5788 47.5607 25.6228C47.4546 25.6667 47.3581 25.7312 47.2768 25.8124L42.7812 30.3081C42.6588 30.4304 42.5755 30.5864 42.5417 30.7561C42.508 30.9258 42.5253 31.1018 42.5915 31.2617C42.6577 31.4216 42.7699 31.5582 42.9138 31.6544C43.0577 31.7505 43.2269 31.8018 43.4 31.8018L43.4001 31.8019Z" fill="white"/>
<path d="M49.8843 31.8019C49.9993 31.8021 50.1131 31.7795 50.2193 31.7355C50.3255 31.6915 50.4219 31.627 50.5031 31.5456L54.9987 27.0499C55.08 26.9687 55.1444 26.8722 55.1884 26.7661C55.2324 26.6599 55.255 26.5461 55.255 26.4312C55.255 26.3163 55.2324 26.2025 55.1884 26.0963C55.1444 25.9902 55.08 25.8937 54.9987 25.8124C54.9175 25.7312 54.821 25.6667 54.7148 25.6228C54.6087 25.5788 54.4949 25.5562 54.38 25.5562C54.265 25.5562 54.1513 25.5788 54.0451 25.6228C53.9389 25.6667 53.8425 25.7312 53.7612 25.8124L49.2656 30.3081C49.1432 30.4304 49.0599 30.5864 49.0261 30.7561C48.9923 30.9258 49.0097 31.1018 49.0759 31.2617C49.1421 31.4216 49.2543 31.5582 49.3982 31.6544C49.5421 31.7505 49.7113 31.8018 49.8843 31.8018V31.8019Z" fill="white"/>
<path d="M31.9287 43.7894C32.1608 43.7894 32.3833 43.6972 32.5474 43.5331C32.7115 43.369 32.8037 43.1464 32.8037 42.9144C32.8037 42.0988 33.1277 41.3167 33.7044 40.74C34.281 40.1633 35.0632 39.8394 35.8787 39.8394C36.6943 39.8394 37.4764 40.1633 38.0531 40.74C38.6297 41.3167 38.9537 42.0988 38.9537 42.9144C38.9537 43.1464 39.0459 43.369 39.21 43.5331C39.3741 43.6972 39.5966 43.7894 39.8287 43.7894C40.0608 43.7894 40.2833 43.6972 40.4474 43.5331C40.6115 43.369 40.7037 43.1464 40.7037 42.9144C40.7037 41.6347 40.1954 40.4074 39.2905 39.5026C38.3856 38.5977 37.1584 38.0894 35.8787 38.0894C34.599 38.0894 33.3718 38.5977 32.4669 39.5026C31.5621 40.4074 31.0537 41.6347 31.0537 42.9144C31.0537 43.1464 31.1459 43.369 31.31 43.5331C31.4741 43.6972 31.6966 43.7894 31.9287 43.7894Z" fill="white"/>
<path d="M51.2964 42.9144C51.2964 43.1464 51.3886 43.369 51.5527 43.5331C51.7168 43.6972 51.9393 43.7894 52.1714 43.7894C52.4035 43.7894 52.626 43.6972 52.7901 43.5331C52.9542 43.369 53.0464 43.1464 53.0464 42.9144C53.0464 42.0988 53.3704 41.3167 53.947 40.74C54.5237 40.1633 55.3058 39.8394 56.1214 39.8394C56.9369 39.8394 57.7191 40.1633 58.2957 40.74C58.8724 41.3167 59.1964 42.0988 59.1964 42.9144C59.1964 43.1464 59.2886 43.369 59.4527 43.5331C59.6168 43.6972 59.8393 43.7894 60.0714 43.7894C60.3035 43.7894 60.526 43.6972 60.6901 43.5331C60.8542 43.369 60.9464 43.1464 60.9464 42.9144C60.9464 41.6347 60.438 40.4074 59.5332 39.5026C58.6283 38.5977 57.4011 38.0894 56.1214 38.0894C54.8417 38.0894 53.6145 38.5977 52.7096 39.5026C51.8047 40.4074 51.2964 41.6347 51.2964 42.9144Z" fill="white"/>
</svg>
