<svg width="92" height="84" viewBox="0 0 92 84" fill="none" xmlns="http://www.w3.org/2000/svg">
<path d="M80.7531 30.2294C83.5135 31.6881 87.2896 32.2051 89.7532 35.1881C86.8696 33.3232 83.5256 31.924 80.1049 31.1096C83.7679 34.3121 91.9805 32.9211 90.8012 41.8516C92.1542 41.0064 92.4631 44.2335 91.2031 45.8686C88.7496 45.7661 90.6235 47.5653 88.6971 48.3839C90.0319 53.9375 87.7157 47.0278 86.8999 54.3642C88.1377 56.701 85.4177 56.6784 84.1536 57.1482C86.6858 59.0972 81.5668 58.849 80.1654 59.1998C81.7748 60.1087 87.2149 60.7406 81.892 64.0108C82.6229 64.6981 82.52 66.1711 81.2296 67.3343C81.1892 69.0905 80.9267 70.4138 79.2991 70.8261C79.2103 72.8593 76.7952 71.5975 75.7552 71.4662C75.6199 71.8745 75.7088 72.7669 74.893 73.0521C75.2201 73.6819 75.2665 74.3323 74.7758 75.0442C78.8953 78.1236 68.2574 75.4217 66.7652 76.6198C67.3164 78.4478 67.3164 78.4478 66.5753 79.5987C69.5337 83.1602 50.5924 79.2356 57.7751 79.2253C57.4702 78.3739 52.3088 78.6878 56.0385 76.0556C55.5236 75.6412 55.0228 75.4032 54.5179 75.1837C51.1295 76.0331 46.9737 73.4542 43.3551 72.4592C43.8337 73.7312 44.1285 75.8238 42.1698 76.4762C50.1158 85.7699 38.4825 79.9906 35.2616 79.6726C33.6765 83.7716 39.0741 85.8827 27.6589 81.7918C27.3237 80.1136 27.5579 80.6943 26.4614 79.172C26.7825 77.9677 26.2857 76.8291 25.1468 77.303C24.9812 78.177 22.1138 84.2496 22.2168 79.8551C23.495 78.694 23.1739 75.873 20.3024 75.315C20.3489 77.4979 17.6571 75.0647 15.4803 74.9129C17.2371 73.1342 17.7944 76.7367 19.7976 75.1857C16.8474 74.7734 14.3737 72.4428 10.8035 74.0246C9.94935 72.5925 4.34976 69.907 7.93204 67.6872C8.04513 65.1207 12.0878 63.3522 9.60001 59.9466C9.64443 59.7702 9.8504 59.288 10.1715 58.808C10.226 58.0345 8.89122 58.3443 9.49702 57.1093C9.21028 56.4712 5.59972 55.7696 6.49428 54.9777C7.60895 55.0843 9.28297 57.298 10.7086 56.4425C10.7409 56.3071 8.43284 55.7183 11.0681 56.0424C8.75795 53.5621 3.85502 53.3159 3.05335 50.2344C2.45361 49.6046 -2.29989 46.7406 1.39144 46.0553C-1.73044 42.1266 3.08364 41.5152 5.37557 41.864C1.99118 38.3106 3.83887 37.5577 5.25441 32.2195C3.37038 25.839 7.31413 29.2077 10.0039 29.4252C5.84406 27.0597 4.99392 25.3754 11.3104 26.6515C10.8681 25.3262 7.48173 26.8094 8.22081 24.0501C7.33634 23.0263 7.823 21.3276 9.46067 20.1151C9.02046 19.1878 9.23047 17.3045 10.4461 17.2881C10.7369 16.7567 10.7955 16.7403 11.0539 17.1239C11.5971 16.4079 11.896 15.5688 13.0955 15.9361C12.6714 14.8303 12.9481 13.1151 14.301 15.259C14.4545 14.4794 14.7877 14.7236 15.0906 14.7461C15.45 11.4985 16.8716 11.1702 18.6991 11.121C18.7213 8.88478 21.5262 8.42932 21.1748 11.3898C27.4711 13.6752 22.9155 8.31444 28.6544 5.89972C27.6467 3.87481 28.2162 1.56473 30.599 1.63448C31.5945 -5.31628 39.3447 12.1242 45.8631 12.5551C46.4245 8.73706 49.1728 10.5363 50.4227 9.22123C46.6547 8.90734 53.9828 2.04685 56.824 9.58231C56.8644 9.92698 57.2057 10.9876 57.5389 9.85928C57.8256 9.23765 57.9407 8.34726 57.4036 7.75435C53.1428 2.92288 61.836 5.69046 63.8089 5.76637C65.6808 5.31913 61.2322 19.2145 68.0111 5.74175C73.0534 2.41614 64.8387 13.665 72.6818 13.308C72.1588 12.8136 72.9322 11.6688 73.742 13.388C73.742 12.9941 73.6309 12.7253 73.4895 12.4689C73.8187 12.2863 73.956 12.4976 74.0933 13.3408C74.6466 14.4589 83.8123 14.9718 83.4266 17.7804C81.4134 20.4947 86.5546 18.7816 80.854 24.1424C79.8322 24.9138 80.6864 25.5272 80.7228 26.949C81.3952 27.2608 81.9505 27.4783 80.7207 29.3575C80.9247 29.378 81.4437 29.7186 80.7531 30.2294C80.6339 30.094 80.5148 29.9607 80.5249 29.6406C80.4078 29.7924 80.2603 29.7453 80.2018 30.012C80.3573 30.2171 80.5794 30.1186 80.7531 30.2294Z" fill="#83B5E6"/>
<path d="M58.172 44.231C62.9195 40.6088 66.7675 35.9403 69.4169 30.5887C72.0663 25.2371 73.4456 19.3465 73.4477 13.375C73.4477 13.1761 73.3686 12.9853 73.228 12.8447C73.0873 12.704 72.8966 12.625 72.6977 12.625C64.0647 12.6232 55.6788 15.5069 48.8727 20.8178C46.2452 22.8641 43.8888 25.2364 41.8602 27.8775C41.1467 28.3152 40.3069 28.5006 39.4755 28.4039C38.6441 28.3072 37.8692 27.934 37.2753 27.3443C36.2967 26.3657 34.9698 25.8157 33.5859 25.815C32.2021 25.8143 30.8746 26.363 29.895 27.3405L22.4664 34.6604C22.3957 34.7301 22.3395 34.8133 22.3012 34.9049C22.2629 34.9966 22.2432 35.0949 22.2432 35.1943C22.2432 35.2936 22.2629 35.3919 22.3012 35.4836C22.3395 35.5752 22.3957 35.6584 22.4664 35.7281L26.7644 39.9731C27.8492 41.0387 29.2365 41.7435 30.7367 41.9914C32.237 42.2393 33.7772 42.0182 35.1472 41.3582C35.1447 41.3675 35.1419 41.3765 35.1394 41.3856C35.105 41.513 35.1048 41.6471 35.1388 41.7746C35.1729 41.902 35.2399 42.0182 35.3332 42.1115L37.4963 44.275L32.204 45.3966C32.0719 45.4246 31.9498 45.4877 31.8506 45.5793C31.7514 45.6709 31.6788 45.7876 31.6404 45.917C31.602 46.0465 31.5992 46.1839 31.6324 46.3148C31.6656 46.4457 31.7336 46.5651 31.829 46.6606L34.4915 49.3231C33.8906 48.9636 33.2367 48.7012 32.554 48.5455C32.3368 48.4964 32.119 48.458 31.9087 48.4318C31.6454 48.3983 31.3804 48.3805 31.115 48.3786C30.2372 48.3711 29.3668 48.5392 28.5549 48.873C27.743 49.2068 27.0061 49.6996 26.3874 50.3224C25.7485 50.9507 25.2414 51.7001 24.8956 52.5267C24.5498 53.3534 24.3722 54.2407 24.3734 55.1367C24.3733 55.3324 24.4497 55.5204 24.5863 55.6605C24.7229 55.8006 24.9088 55.8818 25.1044 55.8867L25.67 55.9011C24.5754 57.4164 24.1156 59.2992 24.3887 61.1485C24.4226 61.3186 24.5146 61.4715 24.6489 61.5813C24.7832 61.691 24.9515 61.7506 25.1249 61.75H27.1739C27.3728 61.75 27.5636 61.671 27.7042 61.5303C27.8449 61.3897 27.9239 61.1989 27.9239 61C27.9239 60.8011 27.8449 60.6103 27.7042 60.4697C27.5636 60.329 27.3728 60.25 27.1739 60.25H25.8077C25.7864 59.25 26.0059 57.3553 27.822 55.7526C27.935 55.653 28.0153 55.5217 28.0525 55.3758C28.0896 55.2299 28.082 55.0762 28.0304 54.9347C27.9789 54.7932 27.886 54.6705 27.7637 54.5827C27.6414 54.4948 27.4954 54.4459 27.3449 54.4422L25.9249 54.4065C26.0854 53.2604 26.6196 52.1992 27.4445 51.3875C27.919 50.91 28.483 50.531 29.1043 50.272C29.7256 50.0131 30.3919 49.8794 31.065 49.8786H31.1042C31.2235 49.8794 31.3433 49.8857 31.4629 49.8949C31.0049 50.1648 30.6152 50.5368 30.3243 50.9817C30.0333 51.4267 29.8488 51.9328 29.7852 52.4606L29.355 55.9356C29.342 56.0411 29.3515 56.1481 29.3829 56.2496C29.4144 56.3511 29.467 56.4448 29.5374 56.5244C29.6077 56.604 29.6942 56.6678 29.7911 56.7115C29.888 56.7551 29.993 56.7777 30.0993 56.7777C30.1301 56.7777 30.1608 56.7759 30.1914 56.7721L33.6664 56.3419C34.1946 56.2768 34.7008 56.0912 35.1458 55.7993C35.5908 55.5074 35.9628 55.1172 36.2329 54.6586C36.2437 54.7938 36.251 54.93 36.2513 55.0672C36.2531 55.7489 36.1197 56.4241 35.8588 57.0538C35.598 57.6836 35.2149 58.2554 34.7317 58.7361C34.6605 58.8054 34.6037 58.8881 34.5648 58.9795C34.5258 59.0709 34.5054 59.1692 34.5047 59.2685C34.504 59.3678 34.5231 59.4663 34.5608 59.5583C34.5985 59.6502 34.6541 59.7337 34.7243 59.8039C34.7946 59.8742 34.8781 59.9298 34.97 59.9675C35.0619 60.0052 35.1604 60.0243 35.2598 60.0236C35.3591 60.0229 35.4573 60.0025 35.5487 59.9636C35.6401 59.9247 35.7229 59.8679 35.7922 59.7967C36.5128 59.0768 37.0592 58.2016 37.3897 57.2381C37.7201 56.2745 37.8259 55.2482 37.6989 54.2375C37.6739 54.0284 37.6374 53.8158 37.5907 53.6053C37.4359 52.9118 37.1712 52.2476 36.8065 51.6379L39.4124 54.2435C39.5064 54.3374 39.6236 54.4047 39.752 54.4385C39.8805 54.4722 40.0157 54.4713 40.1437 54.4357C40.2716 54.4001 40.3879 54.3311 40.4805 54.2359C40.5731 54.1406 40.6387 54.0224 40.6707 53.8935L41.9484 48.7271L43.8937 50.6725C43.9865 50.7653 44.1021 50.8321 44.2288 50.8662C44.3555 50.9004 44.489 50.9008 44.6159 50.8672C44.6608 50.8547 44.7052 50.8423 44.75 50.8298C44.0643 52.2057 43.825 53.7614 44.0656 55.2798C44.3061 56.7983 45.0145 58.2038 46.0919 59.3005L50.3365 63.625C50.4747 63.7751 50.6664 63.8649 50.8702 63.875C51.074 63.865 51.2657 63.7752 51.4039 63.625L58.7202 56.1875C59.6979 55.2062 60.2469 53.8774 60.2469 52.4921C60.2469 51.1069 59.6979 49.778 58.7202 48.7967C58.134 48.2051 57.7618 47.4349 57.6626 46.6079C57.5633 45.781 57.7426 44.9446 58.172 44.231ZM71.94 14.1326C71.8944 16.4137 71.6394 18.6857 71.1783 20.9201C68.6424 19.5147 66.5487 17.4299 65.1327 14.9C67.3733 14.4352 69.6521 14.1783 71.94 14.1326ZM27.818 38.9059L24.0608 35.1951L30.9512 28.405C31.649 27.7072 32.5955 27.3152 33.5824 27.3152C34.5693 27.3152 35.5158 27.7072 36.2137 28.405C36.7584 28.9467 37.4157 29.3619 38.1388 29.6212C38.862 29.8806 39.6333 29.9777 40.3982 29.9058C38.4735 32.7612 36.9367 35.8597 35.8282 39.1199C34.7134 40.1038 33.2673 40.6287 31.781 40.589C30.2947 40.5493 28.8786 39.9479 27.818 38.9059ZM35.143 53.428C35.0373 53.8028 34.8232 54.138 34.5276 54.3916C34.232 54.6451 33.8681 54.8056 33.4815 54.853L30.9618 55.1655L31.2743 52.6464C31.3249 52.2522 31.4921 51.8822 31.7544 51.5837C32.0168 51.2853 32.3624 51.0721 32.7468 50.9714C33.0839 50.8853 33.4378 50.8896 33.7728 50.9837C34.1078 51.0779 34.4121 51.2586 34.6551 51.5077C34.898 51.7568 35.0711 52.0655 35.1569 52.4027C35.2426 52.74 35.2381 53.0938 35.1437 53.4287L35.143 53.428ZM39.5334 52.2434L33.8673 46.5774L38.7614 45.5399L40.7094 47.4875L39.5334 52.2434ZM44.647 49.3045L36.7024 41.3599C36.8357 40.8882 36.9788 40.4195 37.1315 39.9539C37.136 39.9494 37.1407 39.9454 37.1452 39.9414L37.138 39.9342C38.944 34.466 41.9795 29.4846 46.0113 25.3727C50.043 21.2607 54.9637 18.1277 60.3953 16.2144C61.4557 15.8425 62.5288 15.5205 63.6147 15.2484C65.2334 18.3224 67.7508 20.8299 70.8312 22.4366C67.6229 35.2389 57.7584 45.6731 44.647 49.3045ZM57.6559 55.117L50.8695 62.0037L47.1588 58.2466C46.1014 57.1705 45.4983 55.729 45.4743 54.2205C45.4503 52.7121 46.0072 51.2521 47.0298 50.1429C50.257 49.0606 53.3267 47.5556 56.1588 45.6671C56.0871 46.4318 56.1843 47.203 56.4437 47.9259C56.703 48.6489 57.1182 49.306 57.6597 49.8507C58.3569 50.55 58.7481 51.4973 58.7474 52.4848C58.7467 53.4722 58.3541 54.419 57.6559 55.1172V55.117Z" fill="white"/>
<path d="M32.2764 60.1097C31.8787 60.2039 31.4713 60.251 31.0626 60.25H29.8811C29.6822 60.25 29.4914 60.329 29.3508 60.4697C29.2101 60.6103 29.1311 60.8011 29.1311 61C29.1311 61.1989 29.2101 61.3897 29.3508 61.5303C29.4914 61.671 29.6822 61.75 29.8811 61.75H31.0626C31.5887 61.751 32.1132 61.69 32.6251 61.5685C32.8185 61.5222 32.9857 61.4009 33.0897 61.2313C33.1937 61.0618 33.2261 60.8579 33.1798 60.6644C33.1335 60.471 33.0122 60.3039 32.8426 60.1998C32.6731 60.0958 32.4692 60.0634 32.2757 60.1097H32.2764Z" fill="white"/>
<path d="M62.4574 44.6142C62.632 44.6144 62.8011 44.5534 62.9354 44.4418C63.4699 43.9993 63.9999 43.5358 64.5104 43.0643C64.5839 42.9979 64.6435 42.9175 64.6858 42.8278C64.7281 42.7381 64.7521 42.641 64.7566 42.542C64.7611 42.4429 64.7459 42.344 64.7119 42.2509C64.6779 42.1578 64.6258 42.0723 64.5586 41.9995C64.4914 41.9266 64.4104 41.8678 64.3203 41.8265C64.2302 41.7851 64.1328 41.762 64.0338 41.7585C63.9347 41.755 63.8359 41.7712 63.7432 41.8061C63.6504 41.8411 63.5655 41.894 63.4933 41.962C63.0019 42.4153 62.492 42.861 61.9782 43.287C61.8593 43.3854 61.7737 43.5182 61.733 43.6671C61.6924 43.816 61.6987 43.9738 61.751 44.119C61.8034 44.2642 61.8993 44.3897 62.0256 44.4784C62.1519 44.5671 62.3026 44.6147 62.4569 44.6146L62.4574 44.6142Z" fill="white"/>
<path d="M74.8442 24.8602C74.75 24.8317 74.651 24.8221 74.553 24.8318C74.455 24.8415 74.3598 24.8705 74.273 24.917C74.1862 24.9635 74.1094 25.0267 74.047 25.1029C73.9845 25.1791 73.9378 25.2668 73.9092 25.3611C73.2778 27.448 72.4637 29.4753 71.4765 31.4194C71.117 32.1272 70.7291 32.8335 70.3239 33.5184C69.8258 34.3597 69.2876 35.1924 68.7239 35.9934C67.8296 37.263 66.8575 38.4759 65.8131 39.6252C65.6794 39.7724 65.6095 39.9668 65.619 40.1655C65.6285 40.3642 65.7166 40.5509 65.8638 40.6847C66.011 40.8185 66.2053 40.8883 66.404 40.8788C66.6027 40.8694 66.7895 40.7813 66.9233 40.6341C68.0092 39.4386 69.0201 38.1769 69.95 36.8564C70.5363 36.0236 71.0961 35.1576 71.6143 34.2822C72.0359 33.5697 72.4393 32.8351 72.8135 32.0986C73.8406 30.0758 74.6876 27.9665 75.3446 25.7951C75.4022 25.6048 75.3818 25.3994 75.288 25.2241C75.1941 25.0488 75.0345 24.9179 74.8442 24.8602Z" fill="white"/>
<path d="M15.624 43.3137C15.7225 43.3138 15.82 43.2945 15.911 43.2568C16.002 43.2191 16.0847 43.1638 16.1543 43.0941L16.7286 42.5197C16.8661 42.3784 16.9425 42.1887 16.9412 41.9915C16.9398 41.7944 16.8609 41.6057 16.7215 41.4663C16.5821 41.3269 16.3935 41.2479 16.1963 41.2466C15.9992 41.2453 15.8094 41.3216 15.6681 41.4591L15.0931 42.0335C14.9883 42.1383 14.9169 42.272 14.8879 42.4174C14.859 42.5629 14.8739 42.7137 14.9306 42.8507C14.9874 42.9877 15.0835 43.1048 15.2068 43.1873C15.3301 43.2697 15.4751 43.3137 15.6234 43.3137H15.624Z" fill="white"/>
<path d="M18.3578 40.8906L20.9242 38.3243C20.9938 38.2547 21.0491 38.172 21.0868 38.081C21.1245 37.99 21.1439 37.8925 21.1439 37.794C21.1439 37.6955 21.1245 37.598 21.0868 37.507C21.0491 37.416 20.9939 37.3333 20.9242 37.2637C20.8546 37.194 20.7719 37.1388 20.6809 37.1011C20.5899 37.0634 20.4924 37.044 20.3939 37.0439C20.2954 37.0439 20.1979 37.0633 20.1069 37.101C20.0159 37.1387 19.9332 37.1939 19.8636 37.2636L17.2973 39.8298C17.2267 39.8993 17.1706 39.982 17.1321 40.0732C17.0937 40.1644 17.0737 40.2624 17.0732 40.3614C17.0728 40.4604 17.092 40.5585 17.1297 40.6501C17.1674 40.7416 17.2229 40.8248 17.2928 40.8948C17.3628 40.9648 17.446 41.0203 17.5376 41.058C17.6291 41.0957 17.7272 41.1149 17.8262 41.1145C17.9252 41.1141 18.0232 41.0941 18.1144 41.0557C18.2056 41.0173 18.2884 40.9612 18.3578 40.8906Z" fill="white"/>
<path d="M16.2234 45.8977C16.3641 46.0383 16.5548 46.1173 16.7538 46.1173C16.9527 46.1173 17.1434 46.0383 17.2841 45.8977L20.3007 42.8809C20.3703 42.8113 20.4256 42.7286 20.4633 42.6376C20.5009 42.5466 20.5203 42.4491 20.5203 42.3506C20.5203 42.2521 20.5009 42.1545 20.4632 42.0635C20.4255 41.9726 20.3703 41.8899 20.3006 41.8202C20.231 41.7506 20.1483 41.6953 20.0573 41.6577C19.9663 41.62 19.8688 41.6006 19.7703 41.6006C19.6718 41.6006 19.5742 41.62 19.4833 41.6577C19.3923 41.6954 19.3096 41.7506 19.2399 41.8203L16.2233 44.8369C16.1537 44.9066 16.0984 44.9893 16.0607 45.0803C16.023 45.1713 16.0037 45.2688 16.0037 45.3673C16.0037 45.4658 16.0231 45.5634 16.0608 45.6544C16.0985 45.7454 16.1538 45.828 16.2234 45.8977Z" fill="white"/>
<path d="M21.2452 41.6251C21.3437 41.6252 21.4412 41.6058 21.5322 41.5682C21.6232 41.5305 21.7059 41.4752 21.7755 41.4054L22.8907 40.2903C22.9613 40.2209 23.0174 40.1382 23.0559 40.0469C23.0943 39.9557 23.1143 39.8578 23.1148 39.7588C23.1152 39.6598 23.096 39.5616 23.0583 39.4701C23.0206 39.3785 22.9652 39.2954 22.8952 39.2253C22.8252 39.1553 22.742 39.0999 22.6505 39.0622C22.5589 39.0244 22.4608 39.0052 22.3618 39.0056C22.2628 39.006 22.1649 39.026 22.0736 39.0644C21.9824 39.1029 21.8996 39.159 21.8302 39.2296L20.715 40.3448C20.6101 40.4497 20.5387 40.5833 20.5098 40.7288C20.4808 40.8743 20.4957 41.025 20.5524 41.1621C20.6092 41.2991 20.7053 41.4162 20.8286 41.4986C20.9519 41.581 21.0969 41.625 21.2452 41.6251Z" fill="white"/>
<path d="M18.1751 46.8185L14.8426 50.1507C14.7038 50.2918 14.6264 50.4819 14.6272 50.6798C14.628 50.8776 14.707 51.0672 14.8469 51.2071C14.9868 51.347 15.1763 51.4259 15.3741 51.4267C15.572 51.4275 15.7622 51.3501 15.9032 51.2114L19.2354 47.8791C19.306 47.8097 19.3621 47.727 19.4006 47.6357C19.439 47.5445 19.459 47.4465 19.4594 47.3475C19.4598 47.2485 19.4406 47.1504 19.4029 47.0589C19.3652 46.9673 19.3098 46.8842 19.2398 46.8142C19.1698 46.7441 19.0866 46.6887 18.995 46.651C18.9035 46.6133 18.8054 46.5941 18.7064 46.5945C18.6074 46.5949 18.5094 46.6149 18.4182 46.6533C18.327 46.6918 18.2443 46.7479 18.1748 46.8185H18.1751Z" fill="white"/>
<path d="M24.8569 41.1964C24.7163 41.0558 24.5255 40.9768 24.3267 40.9768C24.1278 40.9768 23.937 41.0558 23.7964 41.1964L19.8925 45.0998C19.8219 45.1692 19.7658 45.2519 19.7273 45.3432C19.6889 45.4344 19.6689 45.5323 19.6685 45.6313C19.668 45.7303 19.6872 45.8284 19.7249 45.92C19.7626 46.0115 19.8181 46.0947 19.8881 46.1647C19.9581 46.2348 20.0412 46.2902 20.1328 46.3279C20.2243 46.3656 20.3224 46.3849 20.4214 46.3845C20.5204 46.3841 20.6184 46.3641 20.7096 46.3257C20.8009 46.2872 20.8836 46.2311 20.953 46.1605L24.8569 42.2565C24.9974 42.1159 25.0763 41.9252 25.0763 41.7265C25.0763 41.5277 24.9974 41.337 24.8569 41.1964Z" fill="white"/>
<path d="M39.6125 65.4033L39.0375 65.9776C38.8969 66.1182 38.8179 66.309 38.8179 66.5079C38.8179 66.7068 38.8969 66.8976 39.0376 67.0382C39.1782 67.1789 39.369 67.2579 39.5679 67.2579C39.7669 67.2579 39.9576 67.1788 40.0983 67.0382L40.6725 66.4632C40.8113 66.3221 40.8886 66.132 40.8878 65.9341C40.887 65.7363 40.808 65.5468 40.6681 65.4069C40.5282 65.267 40.3386 65.188 40.1408 65.1873C39.9429 65.1865 39.7528 65.2639 39.6118 65.4027L39.6125 65.4033Z" fill="white"/>
<path d="M43.8076 61.2076L41.2414 63.7739C41.1702 63.8431 41.1134 63.9259 41.0745 64.0173C41.0355 64.1087 41.0151 64.2069 41.0144 64.3062C41.0137 64.4056 41.0328 64.5041 41.0705 64.596C41.1082 64.6879 41.1638 64.7714 41.234 64.8417C41.3043 64.9119 41.3878 64.9675 41.4797 65.0052C41.5716 65.0429 41.6701 65.062 41.7694 65.0613C41.8688 65.0607 41.967 65.0403 42.0584 65.0013C42.1498 64.9624 42.2326 64.9057 42.3018 64.8345L44.8681 62.2682C45.0056 62.127 45.082 61.9372 45.0806 61.7401C45.0793 61.5429 45.0004 61.3542 44.861 61.2148C44.7216 61.0754 44.5329 60.9965 44.3358 60.9951C44.1386 60.9938 43.9489 61.0701 43.8076 61.2076Z" fill="white"/>
<path d="M40.1673 69.8414C40.3079 69.982 40.4987 70.061 40.6976 70.061C40.8965 70.061 41.0873 69.982 41.2279 69.8414L44.2447 66.8249C44.3159 66.7556 44.3726 66.6728 44.4115 66.5814C44.4505 66.4901 44.4709 66.3918 44.4716 66.2925C44.4723 66.1931 44.4532 66.0947 44.4155 66.0027C44.3778 65.9108 44.3222 65.8273 44.252 65.7571C44.1817 65.6868 44.0982 65.6312 44.0063 65.5935C43.9144 65.5558 43.8159 65.5367 43.7166 65.5374C43.6172 65.538 43.519 65.5584 43.4276 65.5974C43.3362 65.6363 43.2535 65.693 43.1842 65.7642L40.1674 68.7809C40.0268 68.9215 39.9478 69.1122 39.9478 69.3111C39.9477 69.51 40.0267 69.7007 40.1673 69.8414Z" fill="white"/>
<path d="M44.6589 65.35C44.7286 65.4196 44.8113 65.4749 44.9023 65.5126C44.9933 65.5503 45.0908 65.5697 45.1893 65.5697C45.2878 65.5697 45.3853 65.5503 45.4763 65.5126C45.5673 65.4749 45.65 65.4196 45.7197 65.35L46.8348 64.2347C46.9754 64.094 47.0544 63.9033 47.0544 63.7043C47.0544 63.5054 46.9754 63.3146 46.8347 63.174C46.694 63.0333 46.5032 62.9543 46.3043 62.9543C46.1053 62.9544 45.9146 63.0334 45.7739 63.1741L44.6589 64.2892C44.5893 64.3589 44.534 64.4416 44.4963 64.5326C44.4586 64.6236 44.4392 64.7211 44.4392 64.8196C44.4392 64.9181 44.4586 65.0156 44.4963 65.1066C44.534 65.1976 44.5893 65.2803 44.6589 65.35Z" fill="white"/>
<path d="M42.1188 70.7626L38.7866 74.0947C38.716 74.1641 38.6598 74.2468 38.6214 74.3381C38.5829 74.4293 38.5629 74.5273 38.5625 74.6263C38.5621 74.7253 38.5813 74.8234 38.619 74.9149C38.6567 75.0065 38.7121 75.0897 38.7821 75.1597C38.8521 75.2297 38.9353 75.2851 39.0268 75.3229C39.1184 75.3606 39.2165 75.3798 39.3155 75.3794C39.4145 75.379 39.5124 75.359 39.6037 75.3206C39.6949 75.2821 39.7776 75.226 39.8471 75.1555L43.1794 71.8232C43.25 71.7538 43.3061 71.6711 43.3446 71.5798C43.383 71.4886 43.403 71.3906 43.4034 71.2916C43.4038 71.1926 43.3846 71.0945 43.3469 71.003C43.3092 70.9114 43.2538 70.8282 43.1838 70.7582C43.1138 70.6882 43.0306 70.6328 42.939 70.5951C42.8475 70.5574 42.7494 70.5382 42.6504 70.5386C42.5514 70.539 42.4534 70.559 42.3622 70.5974C42.271 70.6359 42.1883 70.692 42.1188 70.7626Z" fill="white"/>
<path d="M47.7406 65.1407L43.8366 69.0447C43.766 69.1141 43.7099 69.1968 43.6714 69.2881C43.633 69.3793 43.613 69.4773 43.6126 69.5763C43.6122 69.6753 43.6314 69.7734 43.6691 69.8649C43.7068 69.9565 43.7622 70.0396 43.8322 70.1097C43.9022 70.1797 43.9854 70.2351 44.0769 70.2728C44.1685 70.3105 44.2666 70.3297 44.3656 70.3293C44.4646 70.3289 44.5626 70.3089 44.6538 70.2705C44.745 70.232 44.8277 70.1759 44.8972 70.1053L48.8011 66.2014C48.8716 66.132 48.9278 66.0493 48.9662 65.9581C49.0047 65.8668 49.0247 65.7689 49.0251 65.6699C49.0255 65.5709 49.0063 65.4728 48.9687 65.3812C48.931 65.2897 48.8755 65.2065 48.8055 65.1365C48.7355 65.0665 48.6524 65.011 48.5608 64.9733C48.4693 64.9356 48.3712 64.9164 48.2722 64.9168C48.1732 64.9171 48.0752 64.9371 47.984 64.9756C47.8927 65.014 47.81 65.0701 47.7406 65.1407Z" fill="white"/>
<path d="M68.9786 56.0389C68.3635 55.8312 67.8049 55.4838 67.3465 55.024C66.8882 54.5643 66.5425 54.0046 66.3367 53.3889C66.287 53.2395 66.1915 53.1095 66.0637 53.0174C65.936 52.9253 65.7825 52.8757 65.6251 52.8757C65.4676 52.8757 65.3141 52.9253 65.1864 53.0174C65.0587 53.1095 64.9632 53.2395 64.9134 53.3889C64.7076 54.0046 64.362 54.5643 63.9036 55.024C63.4452 55.4838 62.8866 55.8312 62.2716 56.0389C62.1224 56.0888 61.9927 56.1843 61.9008 56.312C61.809 56.4396 61.7595 56.5929 61.7595 56.7501C61.7595 56.9074 61.809 57.0607 61.9008 57.1883C61.9927 57.316 62.1224 57.4115 62.2716 57.4614C62.8866 57.6691 63.4452 58.0165 63.9036 58.4763C64.362 58.936 64.7076 59.4957 64.9134 60.1114C64.9632 60.2608 65.0587 60.3908 65.1864 60.4829C65.3141 60.575 65.4676 60.6246 65.6251 60.6246C65.7825 60.6246 65.936 60.575 66.0637 60.4829C66.1915 60.3908 66.287 60.2608 66.3367 60.1114C66.5425 59.4957 66.8882 58.936 67.3465 58.4763C67.8049 58.0165 68.3635 57.6691 68.9786 57.4614C69.1277 57.4115 69.2574 57.316 69.3493 57.1883C69.4412 57.0607 69.4906 56.9074 69.4906 56.7501C69.4906 56.5929 69.4412 56.4396 69.3493 56.312C69.2574 56.1843 69.1277 56.0888 68.9786 56.0389ZM65.6251 58.2115C65.2312 57.6403 64.737 57.1451 64.1666 56.7501C64.737 56.3552 65.2312 55.86 65.6251 55.2888C66.0189 55.86 66.5131 56.3552 67.0836 56.7501C66.5131 57.1451 66.0189 57.6403 65.6251 58.2115Z" fill="white"/>
<path d="M15.7716 27.3364C16.3866 27.5441 16.9452 27.8915 17.4036 28.3513C17.8619 28.811 18.2076 29.3707 18.4134 29.9864C18.4632 30.1358 18.5587 30.2658 18.6864 30.3579C18.8141 30.45 18.9676 30.4996 19.1251 30.4996C19.2825 30.4996 19.436 30.45 19.5637 30.3579C19.6915 30.2658 19.787 30.1358 19.8367 29.9864C20.0425 29.3707 20.3882 28.811 20.8465 28.3513C21.3049 27.8915 21.8635 27.5441 22.4786 27.3364C22.6277 27.2865 22.7574 27.191 22.8493 27.0634C22.9412 26.9357 22.9906 26.7824 22.9906 26.6252C22.9906 26.4679 22.9412 26.3146 22.8493 26.187C22.7574 26.0593 22.6277 25.9638 22.4786 25.9139C21.8635 25.7062 21.3049 25.3588 20.8465 24.899C20.3882 24.4393 20.0425 23.8796 19.8367 23.2639C19.787 23.1145 19.6915 22.9845 19.5637 22.8924C19.436 22.8003 19.2825 22.7507 19.1251 22.7507C18.9676 22.7507 18.8141 22.8003 18.6864 22.8924C18.5587 22.9845 18.4632 23.1145 18.4134 23.2639C18.2076 23.8796 17.8619 24.4393 17.4036 24.899C16.9452 25.3588 16.3866 25.7062 15.7716 25.9139C15.6224 25.9638 15.4927 26.0593 15.4008 26.187C15.309 26.3146 15.2595 26.4679 15.2595 26.6252C15.2595 26.7824 15.309 26.9357 15.4008 27.0634C15.4927 27.191 15.6224 27.2865 15.7716 27.3364ZM19.1251 25.1638C19.5189 25.735 20.0131 26.2302 20.5836 26.6252C20.0131 27.0201 19.5189 27.5153 19.1251 28.0865C18.7312 27.5153 18.237 27.0201 17.6666 26.6252C18.237 26.2302 18.7312 25.735 19.1251 25.1638Z" fill="white"/>
<path d="M28.8797 20.125C29.6381 20.125 30.2528 19.5094 30.2528 18.75C30.2528 17.9906 29.6381 17.375 28.8797 17.375C28.1214 17.375 27.5066 17.9906 27.5066 18.75C27.5066 19.5094 28.1214 20.125 28.8797 20.125Z" fill="white"/>
<path d="M63.2547 69C64.0131 69 64.6278 68.3844 64.6278 67.625C64.6278 66.8656 64.0131 66.25 63.2547 66.25C62.4964 66.25 61.8816 66.8656 61.8816 67.625C61.8816 68.3844 62.4964 69 63.2547 69Z" fill="white"/>
<path d="M55.0929 25.4961C54.1916 25.4966 53.3043 25.7193 52.5096 26.1445C51.7148 26.5698 51.0372 27.1844 50.5366 27.934C50.0361 28.6835 49.7281 29.545 49.6399 30.442C49.5516 31.339 49.6859 32.2439 50.0309 33.0767C50.3758 33.9094 50.9207 34.6442 51.6174 35.2161C52.314 35.788 53.141 36.1794 54.0249 36.3554C54.9089 36.5315 55.8227 36.487 56.6853 36.2257C57.548 35.9644 58.3329 35.4944 58.9706 34.8575C59.7375 34.0905 60.2598 33.1134 60.4714 32.0496C60.683 30.9859 60.5744 29.8833 60.1593 28.8812C59.7442 27.8792 59.0413 27.0228 58.1395 26.4202C57.2377 25.8177 56.1774 25.4961 55.0928 25.4961H55.0929ZM57.9099 33.7968C57.3528 34.354 56.6429 34.7335 55.8701 34.8872C55.0973 35.0409 54.2963 34.9621 53.5683 34.6605C52.8404 34.359 52.2181 33.8484 51.7804 33.1932C51.3426 32.5381 51.109 31.7678 51.109 30.9799C51.109 30.192 51.3426 29.4217 51.7804 28.7666C52.2181 28.1114 52.8404 27.6008 53.5683 27.2993C54.2963 26.9977 55.0973 26.9189 55.8701 27.0726C56.6429 27.2263 57.3528 27.6058 57.9099 28.163C58.6559 28.9106 59.0749 29.9237 59.0749 30.9799C59.0749 32.0361 58.6559 33.0492 57.9099 33.7968Z" fill="white"/>
</svg>
