<svg width="92" height="84" viewBox="0 0 92 84" fill="none" xmlns="http://www.w3.org/2000/svg">
<path d="M11.2469 53.7706C8.48652 52.3119 4.71038 51.7949 2.24681 48.8119C5.1304 50.6768 8.47441 52.076 11.8952 52.8904C8.23209 49.6879 0.0194807 51.0789 1.19877 42.1483C-0.154179 42.9936 -0.463139 39.7665 0.796925 38.1314C3.25041 38.2339 1.37648 36.4347 3.30291 35.6161C1.96814 30.0625 4.28431 36.9722 5.10012 29.6357C3.86227 27.299 6.5823 27.3216 7.8464 26.8517C5.31417 24.9027 10.4332 25.151 11.8346 24.8002C10.2252 23.8913 4.7851 23.2594 10.1081 19.9892C9.37706 19.3019 9.48004 17.8289 10.7704 16.6656C10.8108 14.9095 11.0733 13.5862 12.7009 13.1739C12.7897 11.1407 15.2048 12.4025 16.2448 12.5338C16.3801 12.1255 16.2912 11.2331 17.107 10.9479C16.7799 10.3181 16.7335 9.6677 17.2242 8.9558C13.1047 5.87638 23.7426 8.5783 25.2348 7.38018C24.6836 5.55222 24.6836 5.55223 25.4247 4.40129C22.4663 0.839746 41.4076 4.76442 34.2249 4.77468C34.5298 5.62609 39.6912 5.31219 35.9615 7.94437C36.4764 8.35879 36.9772 8.59677 37.4821 8.81629C40.8705 7.96694 45.0263 10.5458 48.6449 11.5408C48.1663 10.2688 47.8715 8.1762 49.8303 7.5238C41.8842 -1.76987 53.5175 4.00945 56.7384 4.32744C58.3235 0.228383 52.9259 -1.88271 64.3411 2.20815C64.6764 3.88634 64.4421 3.30575 65.5386 4.82802C65.2175 6.0323 65.7143 7.17093 66.8532 6.69701C67.0188 5.82303 69.8862 -0.249636 69.7832 4.14485C68.505 5.30604 68.8261 8.12697 71.6976 8.685C71.6511 6.50211 74.3429 8.93529 76.5197 9.08711C74.7629 10.8658 74.2056 7.26326 72.2024 8.81425C75.1526 9.22662 77.6263 11.5572 81.1965 9.97545C82.0507 11.4075 87.6503 14.093 84.068 16.3128C83.9549 18.8793 79.9122 20.6478 82.4 24.0534C82.3556 24.2298 82.1496 24.712 81.8285 25.192C81.774 25.9655 83.1088 25.6557 82.503 26.8907C82.7897 27.5288 86.4003 28.2304 85.5057 29.0223C84.3911 28.9157 82.717 26.702 81.2914 27.5575C81.2591 27.6929 83.5672 28.2817 80.9319 27.9576C83.2421 30.4379 88.145 30.6841 88.9467 33.7656C89.5464 34.3954 94.2999 37.2594 90.6086 37.9447C93.7304 41.8734 88.9164 42.4848 86.6244 42.136C90.0088 45.6894 88.1611 46.4423 86.7456 51.7805C88.6296 58.161 84.6859 54.7923 81.9961 54.5748C86.1559 56.9403 87.0061 58.6246 80.6896 57.3485C81.1319 58.6738 84.5183 57.1906 83.7792 59.9499C84.6637 60.9737 84.177 62.6724 82.5393 63.8849C82.9795 64.8122 82.7695 66.6955 81.5539 66.7119C81.2631 67.2433 81.2046 67.2597 80.9461 66.8761C80.4029 67.5921 80.104 68.4312 78.9045 68.0639C79.3286 69.1697 79.0519 70.8849 77.699 68.741C77.5455 69.5206 77.2123 69.2764 76.9094 69.2539C76.55 72.5015 75.1284 72.8298 73.3009 72.879C73.2787 75.1152 70.4738 75.5707 70.8252 72.6102C64.5289 70.3248 69.0845 75.6856 63.3456 78.1003C64.3533 80.1252 63.7838 82.4353 61.401 82.3655C60.4055 89.3163 52.6553 71.8758 46.1369 71.4449C45.5755 75.2629 42.8272 73.4637 41.5773 74.7788C45.3453 75.0927 38.0172 81.9531 35.176 74.4177C35.1356 74.073 34.7943 73.0123 34.4611 74.1407C34.1744 74.7623 34.0593 75.6527 34.5964 76.2456C38.8572 81.0771 30.164 78.3095 28.1911 78.2336C26.3192 78.6809 30.7678 64.7855 23.9889 78.2582C18.9466 81.5839 27.1613 70.335 19.3182 70.692C19.8412 71.1864 19.0678 72.3312 18.2581 70.612C18.2581 71.0059 18.3691 71.2747 18.5105 71.5311C18.1813 71.7137 18.044 71.5024 17.9067 70.6592C17.3534 69.5411 8.18767 69.0282 8.57336 66.2196C10.5866 63.5053 5.44542 65.2184 11.146 59.8576C12.1678 59.0862 11.3136 58.4728 11.2772 57.051C10.6048 56.7392 10.0495 56.5217 11.2793 54.6425C11.0753 54.622 10.5563 54.2814 11.2469 53.7706C11.3661 53.906 11.4852 54.0393 11.4751 54.3594C11.5922 54.2075 11.7397 54.2547 11.7982 53.988C11.6427 53.7829 11.4206 53.8813 11.2469 53.7706Z" fill="#F77952"/>
<path d="M18.821 53.325L26.5137 58.0542C26.9611 58.7072 27.4488 59.3316 27.9741 59.9237C28.3861 60.3852 28.8912 60.7542 29.4561 61.0064C30.021 61.2587 30.633 61.3884 31.2516 61.3871H40.7605V61.4047C40.7607 62.127 40.8619 62.8458 41.0613 63.5401H31.2516C31.1525 63.5388 31.0542 63.5572 30.9622 63.5943C30.8703 63.6313 30.7866 63.6862 30.7161 63.7558C30.6456 63.8255 30.5896 63.9084 30.5514 63.9999C30.5131 64.0913 30.4935 64.1894 30.4935 64.2885C30.4935 64.3876 30.5131 64.4857 30.5514 64.5772C30.5896 64.6686 30.6456 64.7516 30.7161 64.8212C30.7866 64.8908 30.8703 64.9458 30.9622 64.9828C31.0542 65.0198 31.1525 65.0382 31.2516 65.037H41.6641C42.3662 66.3656 43.4385 67.4621 44.7511 68.1937C46.0636 68.9254 47.5602 69.2607 49.0595 69.1591C50.5587 69.0576 51.9964 68.5234 53.1983 67.6215C54.4002 66.7195 55.3148 65.4884 55.8313 64.0772H58.9539C60.0417 64.077 61.0869 63.6541 61.8688 62.8977C62.6507 62.1414 63.108 61.1108 63.1443 60.0235C63.1806 58.9363 62.7929 57.8775 62.0632 57.0707C61.3335 56.2639 60.3188 55.7723 59.2334 55.6996C59.2561 55.6535 59.2805 55.6081 59.3028 55.5621H62.2903C63.9617 55.5602 65.5642 54.8954 66.7462 53.7135C67.9281 52.5316 68.5929 50.9291 68.5948 49.2576V46.8808C68.5959 45.9135 68.9806 44.9862 69.6646 44.3022C70.3486 43.6182 71.276 43.2334 72.2433 43.2323C72.3905 43.2323 72.5345 43.1889 72.6572 43.1074C72.7799 43.026 72.8758 42.9102 72.933 42.7745L74.1955 39.777C74.2435 39.6632 74.2625 39.5393 74.251 39.4164C74.2394 39.2935 74.1977 39.1753 74.1294 39.0724C74.0611 38.9696 73.9684 38.8852 73.8596 38.8268C73.7508 38.7685 73.6292 38.7379 73.5058 38.738H67.625C66.5672 38.7392 65.553 39.1599 64.8049 39.9079C64.0569 40.6559 63.6361 41.6701 63.6349 42.728C63.6342 43.389 63.3713 44.0227 62.9039 44.4901C62.4365 44.9576 61.8028 45.2205 61.1418 45.2212H61.0679C60.5908 40.9224 58.6535 36.9174 55.5793 33.875C55.436 33.7322 55.2901 33.5928 55.143 33.4552C55.0863 33.3776 55.0152 33.3117 54.9336 33.261C51.8092 30.4052 47.8151 28.6833 43.5936 28.3725C44.3249 28.0495 44.923 27.4851 45.2876 26.7737C45.6522 26.0623 45.7613 25.2471 45.5964 24.4649C45.4316 23.6827 45.0028 22.9809 44.3821 22.4771C43.7614 21.9734 42.9864 21.6983 42.187 21.698C41.3876 21.6977 40.6123 21.9721 39.9912 22.4754C39.3701 22.9786 38.9408 23.6801 38.7753 24.4622C38.6099 25.2443 38.7182 26.0595 39.0823 26.7712C39.4463 27.4829 40.044 28.0478 40.775 28.3713C37.2377 28.6378 33.8452 29.887 30.9798 31.9782C28.1144 34.0693 25.8901 36.9192 24.5575 40.2067C22.8786 39.7366 21.0864 39.889 19.5111 40.636C17.9358 41.3829 16.6835 42.674 15.985 44.2714C15.2864 45.8688 15.1888 47.6648 15.7099 49.3285C16.2311 50.9923 17.336 52.4116 18.821 53.325ZM54.8085 61.4047C54.8085 63.069 54.1474 64.6652 52.9705 65.8421C51.7936 67.0189 50.1975 67.6801 48.5331 67.6801C46.8688 67.6801 45.2726 67.0189 44.0958 65.8421C42.9189 64.6652 42.2577 63.069 42.2577 61.4047V57.25H54.8081L54.8085 61.4047ZM54.8085 55.7531H42.2574V55.1293H54.8081L54.8085 55.7531ZM61.6516 59.8832C61.6509 60.5983 61.3665 61.2839 60.8608 61.7895C60.3552 62.2952 59.6696 62.5796 58.9545 62.5803H56.217C56.2763 62.1913 56.3061 61.7983 56.306 61.4047V57.1865H58.955C59.6699 57.1875 60.3553 57.472 60.8608 57.9776C61.3662 58.4832 61.6505 59.1686 61.6513 59.8836L61.6516 59.8832ZM61.1811 46.9845C61.1796 46.8951 61.1761 46.8061 61.1734 46.717C62.2258 46.7077 63.2319 46.2834 63.9733 45.5364C64.7146 44.7894 65.1311 43.78 65.1324 42.7276C65.1332 42.0668 65.3961 41.4332 65.8634 40.9659C66.3307 40.4986 66.9642 40.2357 67.625 40.2348H72.3789L71.7361 41.7598C70.4662 41.8874 69.2888 42.4817 68.4321 43.4277C67.5753 44.3737 67.1001 45.604 67.0986 46.8803V49.2572C67.0973 50.5319 66.5904 51.754 65.6891 52.6553C64.7878 53.5566 63.5657 54.0635 62.291 54.0648H59.9459C60.8033 51.8046 61.2224 49.4018 61.1808 46.9848L61.1811 46.9845ZM40.1968 25.1842C40.1967 24.7908 40.3134 24.4062 40.5319 24.0791C40.7504 23.752 41.0611 23.4971 41.4245 23.3465C41.788 23.196 42.1879 23.1566 42.5738 23.2333C42.9596 23.31 43.314 23.4995 43.5922 23.7776C43.8704 24.0558 44.0598 24.4102 44.1365 24.7961C44.2133 25.1819 44.1739 25.5819 44.0233 25.9453C43.8728 26.3087 43.6178 26.6194 43.2907 26.8379C42.9636 27.0565 42.579 27.1731 42.1856 27.1731C41.6583 27.1725 41.1528 26.9627 40.78 26.5899C40.4071 26.217 40.1974 25.7115 40.1968 25.1842ZM42.4277 29.8175C46.0256 29.8626 49.5203 31.0264 52.427 33.1472H31.9076C34.9597 30.9244 38.6525 29.7555 42.4277 29.8175ZM29.8947 34.8578C29.968 34.7855 30.0425 34.7148 30.1167 34.6441H54.224C54.3245 34.7398 54.4241 34.8366 54.5228 34.9347C57.2087 37.5985 58.9567 41.0628 59.5036 44.8059C60.0505 48.5491 59.3668 52.3686 57.5553 55.6896H56.3053V54.3812C56.3052 54.1827 56.2263 53.9924 56.086 53.852C55.9456 53.7117 55.7552 53.6328 55.5568 53.6328H41.509C41.3105 53.6328 41.1201 53.7117 40.9798 53.852C40.8394 53.9924 40.7605 54.1827 40.7605 54.3812V59.8906H31.2516C30.8445 59.892 30.4417 59.8071 30.0697 59.6416C29.6977 59.476 29.365 59.2336 29.0935 58.9302C28.6164 58.3924 28.1729 57.8257 27.7655 57.2333C27.7269 57.1402 27.6697 57.0559 27.5975 56.9856C25.3557 53.6028 24.3591 49.5462 24.7782 45.5098C25.1972 41.4733 27.0059 37.7079 29.8947 34.8578ZM17.2796 45.0521C17.7972 43.7538 18.7707 42.689 20.0175 42.0575C21.2643 41.4259 22.6987 41.2711 24.0516 41.622C22.6404 46.1517 22.9668 51.0447 24.9671 55.347L19.605 52.05C18.4545 51.345 17.5902 50.2561 17.1647 48.9756C16.7392 47.6951 16.7799 46.3055 17.2796 45.0521Z" fill="white"/>
<path d="M66.2016 31.6366H68.4465C68.9451 31.636 69.4231 31.4377 69.7757 31.0851C70.1283 30.7325 70.3266 30.2544 70.3271 29.7558V27.1599C70.3283 27.0773 70.313 26.9952 70.2822 26.9185C70.2514 26.8418 70.2056 26.772 70.1476 26.7132C70.0895 26.6543 70.0204 26.6076 69.9441 26.5757C69.8679 26.5438 69.7861 26.5273 69.7034 26.5273C69.6207 26.5273 69.5389 26.5438 69.4627 26.5757C69.3864 26.6076 69.3173 26.6543 69.2592 26.7132C69.2012 26.772 69.1555 26.8418 69.1246 26.9185C69.0938 26.9952 69.0785 27.0773 69.0797 27.1599V29.7558C69.0796 29.9237 69.0128 30.0847 68.8941 30.2034C68.7753 30.3222 68.6144 30.389 68.4465 30.3892H66.2016C65.5615 30.3892 64.9476 30.6435 64.495 31.0961C64.0424 31.5487 63.7881 32.1626 63.7881 32.8027C63.7881 33.4428 64.0424 34.0567 64.495 34.5093C64.9476 34.9619 65.5615 35.2162 66.2016 35.2162H66.9162C67.0843 35.2162 67.2455 35.2829 67.3644 35.4017C67.4833 35.5206 67.5501 35.6817 67.5502 35.8498V35.9592C67.55 36.1271 67.4832 36.2881 67.3645 36.4068C67.2457 36.5255 67.0847 36.5923 66.9168 36.5924H65.6592C65.4953 36.5947 65.3389 36.6615 65.2239 36.7782C65.1088 36.8949 65.0443 37.0522 65.0443 37.2161C65.0443 37.38 65.1088 37.5373 65.2239 37.654C65.3389 37.7708 65.4953 37.8375 65.6592 37.8398H66.9162C67.4148 37.8393 67.8929 37.641 68.2455 37.2884C68.5981 36.9358 68.7964 36.4578 68.797 35.9592V35.8498C68.7964 35.3512 68.5981 34.8731 68.2455 34.5206C67.8929 34.168 67.4148 33.9697 66.9162 33.9692H66.2016C65.8923 33.9692 65.5957 33.8463 65.377 33.6276C65.1583 33.4089 65.0355 33.1123 65.0355 32.8031C65.0355 32.4938 65.1583 32.1972 65.377 31.9785C65.5957 31.7598 65.8923 31.6369 66.2016 31.6369V31.6366Z" fill="white"/>
<path d="M73.1427 25.2655C72.9969 25.2652 72.8571 25.2072 72.754 25.1041C72.651 25.001 72.5929 24.8613 72.5927 24.7155V21.845C72.5938 21.7623 72.5786 21.6803 72.5477 21.6036C72.5169 21.5269 72.4712 21.4571 72.4131 21.3982C72.3551 21.3394 72.286 21.2926 72.2097 21.2607C72.1335 21.2288 72.0516 21.2124 71.969 21.2124C71.8863 21.2124 71.8045 21.2288 71.7282 21.2607C71.652 21.2926 71.5828 21.3394 71.5248 21.3982C71.4668 21.4571 71.421 21.5269 71.3902 21.6036C71.3594 21.6803 71.3441 21.7623 71.3453 21.845V24.7151C71.346 25.1916 71.5356 25.6484 71.8725 25.9853C72.2094 26.3222 72.6662 26.5118 73.1427 26.5125H74.4164C74.6713 26.5125 74.9158 26.6138 75.0961 26.794C75.2764 26.9743 75.3777 27.2188 75.3777 27.4737C75.3777 27.7287 75.2764 27.9732 75.0961 28.1534C74.9158 28.3337 74.6713 28.435 74.4164 28.435H73.5799C73.1033 28.4355 72.6463 28.6251 72.3093 28.9621C71.9722 29.2992 71.7826 29.7561 71.782 30.2327V31.3655C71.782 31.5309 71.8477 31.6896 71.9647 31.8065C72.0817 31.9235 72.2404 31.9892 72.4058 31.9892C72.5712 31.9892 72.7299 31.9235 72.8468 31.8065C72.9638 31.6896 73.0295 31.5309 73.0295 31.3655V30.2327C73.0298 30.0869 73.0878 29.9472 73.1909 29.8441C73.294 29.741 73.4337 29.683 73.5795 29.6827H74.416C75.0018 29.6827 75.5636 29.45 75.9778 29.0358C76.392 28.6216 76.6247 28.0599 76.6247 27.4741C76.6247 26.8883 76.392 26.3266 75.9778 25.9124C75.5636 25.4982 75.0018 25.2655 74.416 25.2655H73.1427Z" fill="white"/>
<path d="M66.4336 24.7936V27.1601C66.4359 27.324 66.5026 27.4804 66.6194 27.5955C66.7361 27.7105 66.8934 27.7751 67.0573 27.7751C67.2212 27.7751 67.3785 27.7105 67.4952 27.5955C67.6119 27.4804 67.6786 27.324 67.681 27.1601V24.7936C67.6786 24.6297 67.6119 24.4734 67.4952 24.3583C67.3785 24.2432 67.2212 24.1787 67.0573 24.1787C66.8934 24.1787 66.7361 24.2432 66.6194 24.3583C66.5026 24.4734 66.4359 24.6297 66.4336 24.7936Z" fill="white"/>
<path d="M70.327 19.4465C70.3282 19.3639 70.3129 19.2818 70.2821 19.2051C70.2513 19.1285 70.2055 19.0586 70.1475 18.9998C70.0895 18.9409 70.0203 18.8942 69.9441 18.8623C69.8678 18.8304 69.786 18.814 69.7033 18.814C69.6207 18.814 69.5389 18.8304 69.4626 18.8623C69.3864 18.8942 69.3172 18.9409 69.2592 18.9998C69.2011 19.0586 69.1554 19.1285 69.1246 19.2051C69.0938 19.2818 69.0785 19.3639 69.0797 19.4465V21.634C69.082 21.7979 69.1487 21.9543 69.2654 22.0694C69.3821 22.1845 69.5394 22.249 69.7033 22.249C69.8672 22.249 70.0246 22.1845 70.1413 22.0694C70.258 21.9543 70.3247 21.7979 70.327 21.634V19.4465Z" fill="white"/>
<path d="M39.0533 48.4813L39.1033 48.4966C39.2604 48.5436 39.4032 48.629 39.519 48.7451C39.6349 48.8611 39.72 49.0041 39.7668 49.1612L39.7825 49.2126C39.9407 49.7264 40.2594 50.1759 40.6919 50.4953C41.1244 50.8147 41.6478 50.9871 42.1854 50.9872C42.7231 50.9873 43.2466 50.815 43.6791 50.4958C44.1117 50.1765 44.4306 49.7271 44.589 49.2133L44.6051 49.1599C44.652 49.0033 44.7371 48.8607 44.8528 48.7451C44.9684 48.6295 45.1109 48.5444 45.2676 48.4974L45.3176 48.4824C45.8312 48.324 46.2804 48.0052 46.5996 47.5728C46.9187 47.1403 47.0909 46.617 47.0909 46.0796C47.0909 45.5421 46.9187 45.0188 46.5996 44.5864C46.2804 44.1539 45.8312 43.8351 45.3176 43.6767L45.2676 43.6614C45.1111 43.6147 44.9687 43.5298 44.8531 43.4145C44.7375 43.2992 44.6523 43.157 44.6051 43.0007L44.5893 42.9486C44.4308 42.4351 44.112 41.9859 43.6796 41.6668C43.2471 41.3477 42.7239 41.1755 42.1865 41.1755C41.6491 41.1755 41.1258 41.3477 40.6934 41.6668C40.2609 41.9859 39.9421 42.4351 39.7836 42.9486L39.7683 42.9986C39.7212 43.1553 39.636 43.2978 39.5202 43.4134C39.4044 43.5291 39.2617 43.6142 39.105 43.6611L39.055 43.6761C38.5416 43.8345 38.0924 44.1532 37.7733 44.5855C37.4542 45.0177 37.2819 45.5409 37.2817 46.0781C37.2816 46.6154 37.4535 47.1387 37.7723 47.5712C38.0911 48.0036 38.54 48.3227 39.0533 48.4814V48.4813ZM39.494 45.1071L39.5365 45.0946C39.9304 44.9765 40.2887 44.7624 40.5794 44.4715C40.8701 44.1806 41.0839 43.822 41.2017 43.4281L41.2142 43.3872C41.2787 43.1799 41.4078 42.9987 41.5827 42.87C41.7575 42.7414 41.9689 42.672 42.186 42.672C42.403 42.672 42.6144 42.7414 42.7893 42.87C42.9641 42.9987 43.0932 43.1799 43.1577 43.3872L43.1702 43.4297C43.2888 43.8244 43.5038 44.1834 43.7957 44.4744C44.0876 44.7654 44.4473 44.9792 44.8423 45.0966L44.8777 45.1073C45.085 45.1719 45.2662 45.3011 45.3948 45.476C45.5235 45.6509 45.5928 45.8623 45.5927 46.0794C45.5926 46.2966 45.5231 46.508 45.3943 46.6827C45.2655 46.8575 45.0842 46.9865 44.8768 47.0509L44.836 47.0634C44.442 47.1816 44.0835 47.3958 43.7928 47.6868C43.5021 47.9778 43.2883 48.3366 43.1706 48.7307L43.1573 48.7747C43.0929 48.9822 42.9638 49.1636 42.7888 49.2924C42.6138 49.4212 42.4023 49.4906 42.185 49.4905C41.9677 49.4905 41.7562 49.4209 41.5814 49.2919C41.4065 49.163 41.2775 48.9815 41.2132 48.7739L41.1997 48.7296C41.082 48.3357 40.8682 47.9772 40.5776 47.6864C40.287 47.3955 39.9287 47.1815 39.5348 47.0634H39.533L39.4931 47.0509C39.2858 46.9864 39.1046 46.8573 38.9759 46.6825C38.8473 46.5077 38.7779 46.2963 38.7779 46.0792C38.7779 45.8621 38.8473 45.6507 38.9759 45.4759C39.1046 45.3011 39.2858 45.172 39.4931 45.1074L39.494 45.1071Z" fill="white"/>
<path d="M42.1856 47.3045C42.4277 47.3045 42.6644 47.2327 42.8658 47.0982C43.0671 46.9637 43.224 46.7725 43.3167 46.5488C43.4094 46.3251 43.4336 46.0789 43.3864 45.8414C43.3392 45.6039 43.2226 45.3858 43.0514 45.2145C42.8801 45.0433 42.662 44.9267 42.4245 44.8795C42.187 44.8322 41.9408 44.8565 41.7171 44.9492C41.4934 45.0418 41.3022 45.1988 41.1677 45.4001C41.0332 45.6015 40.9614 45.8382 40.9614 46.0803C40.9617 46.4049 41.0907 46.7161 41.3202 46.9457C41.5497 47.1752 41.861 47.3042 42.1856 47.3045ZM42.1856 45.8076C42.2395 45.8076 42.2922 45.8235 42.3371 45.8535C42.382 45.8834 42.417 45.926 42.4376 45.9759C42.4583 46.0257 42.4637 46.0806 42.4532 46.1335C42.4427 46.1864 42.4167 46.235 42.3786 46.2732C42.3404 46.3113 42.2918 46.3373 42.2389 46.3478C42.186 46.3584 42.1312 46.353 42.0813 46.3323C42.0315 46.3117 41.9889 46.2767 41.9589 46.2319C41.9289 46.187 41.9129 46.1343 41.9129 46.0803C41.913 46.008 41.9418 45.9387 41.9929 45.8876C42.044 45.8365 42.1133 45.8077 42.1856 45.8076Z" fill="white"/>
</svg>
