<svg width="92" height="84" viewBox="0 0 92 84" fill="none" xmlns="http://www.w3.org/2000/svg">
<path d="M80.7531 53.7706C83.5135 52.3119 87.2896 51.7949 89.7532 48.8119C86.8696 50.6768 83.5256 52.076 80.1048 52.8904C83.7679 49.6879 91.9805 51.0789 90.8012 42.1483C92.1542 42.9936 92.4631 39.7665 91.2031 38.1314C88.7496 38.2339 90.6235 36.4347 88.6971 35.6161C90.0319 30.0625 87.7157 36.9722 86.8999 29.6357C88.1377 27.299 85.4177 27.3216 84.1536 26.8517C86.6858 24.9027 81.5668 25.151 80.1654 24.8002C81.7748 23.8913 87.2149 23.2594 81.8919 19.9892C82.6229 19.3019 82.52 17.8289 81.2296 16.6656C81.1892 14.9095 80.9267 13.5862 79.2991 13.1739C79.2103 11.1407 76.7952 12.4025 75.7552 12.5338C75.6199 12.1255 75.7088 11.2331 74.893 10.9479C75.2201 10.3181 75.2665 9.6677 74.7758 8.9558C78.8953 5.87638 68.2574 8.57831 66.7652 7.38018C67.3164 5.55222 67.3164 5.55222 66.5753 4.40129C69.5337 0.839746 50.5924 4.76442 57.7751 4.77468C57.4702 5.62609 52.3088 5.31219 56.0385 7.94437C55.5236 8.35879 55.0228 8.59677 54.5179 8.81629C51.1295 7.96694 46.9737 10.5458 43.3551 11.5408C43.8337 10.2688 44.1285 8.1762 42.1697 7.5238C50.1158 -1.76986 38.4825 4.00944 35.2616 4.32744C33.6764 0.228375 39.0741 -1.8827 27.6589 2.20815C27.3236 3.88635 27.5579 3.30575 26.4614 4.82802C26.7825 6.0323 26.2857 7.17093 25.1468 6.69701C24.9812 5.82304 22.1138 -0.249643 22.2168 4.14485C23.495 5.30604 23.1739 8.12697 20.3024 8.685C20.3489 6.50212 17.6571 8.93529 15.4803 9.08711C17.2371 10.8658 17.7944 7.26325 19.7976 8.81425C16.8474 9.22661 14.3737 11.5572 10.8035 9.97545C9.94935 11.4075 4.34975 14.093 7.93204 16.3128C8.04512 18.8793 12.0878 20.6478 9.6 24.0534C9.64443 24.2298 9.8504 24.712 10.1715 25.192C10.226 25.9655 8.89122 25.6557 9.49702 26.8907C9.21027 27.5288 5.59971 28.2304 6.49428 29.0223C7.60895 28.9157 9.28297 26.702 10.7086 27.5575C10.7409 27.6929 8.43283 28.2817 11.0681 27.9576C8.75794 30.4379 3.85502 30.6841 3.05334 33.7656C2.4536 34.3954 -2.2999 37.2594 1.39144 37.9447C-1.73045 41.8734 3.08363 42.4848 5.37557 42.136C1.99118 45.6894 3.83886 46.4423 5.25441 51.7805C3.37038 58.161 7.31413 54.7923 10.0039 54.5748C5.84406 56.9403 4.99392 58.6246 11.3104 57.3485C10.8681 58.6738 7.48173 57.1906 8.2208 59.9499C7.33634 60.9737 7.823 62.6724 9.46067 63.8849C9.02046 64.8122 9.23047 66.6955 10.4461 66.7119C10.7369 67.2433 10.7954 67.2597 11.0539 66.8761C11.5971 67.5921 11.896 68.4312 13.0955 68.0639C12.6714 69.1697 12.9481 70.8849 14.301 68.741C14.4545 69.5206 14.7877 69.2764 15.0906 69.2539C15.45 72.5015 16.8716 72.8298 18.6991 72.879C18.7213 75.1152 21.5262 75.5707 21.1748 72.6102C27.4711 70.3248 22.9155 75.6856 28.6544 78.1003C27.6467 80.1252 28.2162 82.4353 30.599 82.3655C31.5945 89.3163 39.3447 71.8758 45.8631 71.4449C46.4245 75.2629 49.1728 73.4637 50.4227 74.7788C46.6547 75.0927 53.9828 81.9531 56.824 74.4177C56.8644 74.073 57.2057 73.0123 57.5389 74.1407C57.8256 74.7623 57.9407 75.6527 57.4036 76.2456C53.1428 81.0771 61.836 78.3095 63.8089 78.2336C65.6808 78.6809 61.2322 64.7855 68.0111 78.2582C73.0534 81.5839 64.8387 70.335 72.6818 70.692C72.1588 71.1864 72.9322 72.3312 73.7419 70.612C73.7419 71.0059 73.6309 71.2747 73.4895 71.5311C73.8187 71.7137 73.956 71.5024 74.0933 70.6592C74.6466 69.5411 83.8123 69.0282 83.4266 66.2196C81.4134 63.5053 86.5546 65.2184 80.854 59.8576C79.8322 59.0862 80.6864 58.4728 80.7228 57.051C81.3952 56.7392 81.9505 56.5217 80.7207 54.6425C80.9247 54.622 81.4437 54.2814 80.7531 53.7706C80.6339 53.906 80.5148 54.0393 80.5249 54.3594C80.4078 54.2075 80.2603 54.2547 80.2018 53.988C80.3573 53.7829 80.5794 53.8813 80.7531 53.7706Z" fill="#189825"/>
<path d="M57.1256 28.8268C56.9046 29.696 57.0458 30.618 57.5168 31.3811C57.4441 31.7123 57.2765 32.0151 57.0341 32.2523C56.7263 32.5536 56.7202 33.0479 57.0214 33.3557C57.3227 33.6641 57.817 33.6697 58.1254 33.3684C58.3702 33.1276 58.576 32.8502 58.7355 32.5454C58.7827 32.5719 58.8295 32.5993 58.8787 32.6237C59.1297 32.7491 59.4289 32.7304 59.6621 32.5739C59.8948 32.4179 60.0263 32.1482 60.0055 31.8683C59.9852 31.5883 59.8155 31.3414 59.562 31.221C58.8188 30.8553 58.4327 30.0186 58.6374 29.2159C58.7446 28.7983 58.4932 28.3731 58.0756 28.2659C57.6585 28.1587 57.2333 28.4102 57.1256 28.8278V28.8268Z" fill="white"/>
<path d="M56.0863 23.9539C56.415 23.8869 56.7543 23.8955 57.079 23.9788C57.4966 24.086 57.9218 23.8345 58.029 23.4169C58.1361 22.9999 57.8847 22.5747 57.4671 22.4675C55.8597 22.056 54.1716 22.7387 53.3024 24.1525C52.5282 24.3573 51.7036 24.1307 51.1428 23.5587C50.9482 23.357 50.6607 23.2747 50.3889 23.3438C50.1171 23.4124 49.9032 23.6217 49.8286 23.8919C49.7539 24.1617 49.8296 24.4513 50.0272 24.6499C50.7404 25.3779 51.7169 25.7878 52.7359 25.7884H52.7537C52.6831 26.5448 52.8411 27.3048 53.2074 27.9703C53.4167 28.3452 53.8891 28.4808 54.2651 28.2736C54.6415 28.0663 54.7792 27.5943 54.5739 27.2174C54.232 26.5951 54.2061 25.8473 54.5048 25.2031C54.8036 24.5595 55.3903 24.0957 56.0863 23.9544V23.9539Z" fill="white"/>
<path d="M20.6875 41.0176C20.6916 44.1439 22.6317 46.9405 25.5583 48.0394V49.9185C25.5589 51.9902 26.6607 53.9054 28.4515 54.9474C30.2422 55.9893 32.4516 56.001 34.253 54.9778C34.5294 55.2786 34.8189 55.5682 35.1212 55.8471C36.9577 57.5514 37.9986 59.9462 37.991 62.4518V69.3404C37.993 70.9432 39.2915 72.2417 40.8943 72.2437H44.201V74.2199C44.201 74.6507 44.5505 75.0002 44.9813 75.0002C45.4121 75.0002 45.7616 74.6507 45.7616 74.2199V72.2443H49.0677C50.6705 72.2427 51.9695 70.9437 51.971 69.3409V62.4421C51.9898 59.9086 53.0562 57.4956 54.9175 55.7764C55.1903 55.5224 55.454 55.2542 55.7085 54.9784C57.5099 56.0015 59.7193 55.9898 61.51 54.9479C63.3008 53.9059 64.4027 51.9907 64.4032 49.919V48.0394C66.9026 47.1056 68.7167 44.9141 69.1668 42.2846C69.6169 39.6551 68.6349 36.9845 66.5881 35.273C67.9745 34.0085 68.6329 32.1319 68.3403 30.2787C68.0482 28.4249 66.8447 26.842 65.1362 26.0652C65.8581 23.4657 65.1281 20.6782 63.2246 18.766C61.3211 16.8539 58.5371 16.1106 55.9341 16.8203C56.2465 14.9686 55.4901 13.0986 53.9782 11.9851C52.4664 10.871 50.4561 10.7028 48.7802 11.5502C47.1043 12.3971 46.0481 14.1152 46.0481 15.9933V30.5682C45.7392 30.5459 45.4288 30.5322 45.1169 30.5291C45.0712 30.5291 45.026 30.5291 44.9797 30.5291C44.6221 30.5291 44.267 30.5423 43.9134 30.5677V15.9933C43.919 14.1116 42.8634 12.3879 41.1849 11.5375C39.5064 10.6871 37.4916 10.8557 35.9777 11.9729C34.4638 13.0905 33.7094 14.9656 34.0275 16.8203C31.4239 16.1086 28.6389 16.8508 26.7349 18.764C24.8309 20.6767 24.1019 23.4652 24.8258 26.0657C23.1178 26.842 21.9138 28.4249 21.6217 30.2787C21.3296 32.1319 21.988 34.0085 23.3744 35.273C21.6715 36.6954 20.6875 38.7991 20.6875 41.0176ZM49.0677 70.6836H40.8948C40.1536 70.6831 39.5531 70.0821 39.5521 69.3409V69.2084H45.3938C45.8246 69.2084 46.1741 68.8593 46.1741 68.428C46.1741 67.9972 45.8246 67.6477 45.3938 67.6477H39.5521V66.173H41.2118C41.6431 66.173 41.9921 65.8235 41.9921 65.3927C41.9921 64.9613 41.6431 64.6123 41.2118 64.6123H39.5521V63.2331H50.4104V64.6123H45.0813C44.65 64.6123 44.301 64.9613 44.301 65.3927C44.301 65.8235 44.65 66.173 45.0813 66.173H50.4104V67.6477H48.9285C48.4977 67.6477 48.1482 67.9972 48.1482 68.428C48.1482 68.8593 48.4977 69.2084 48.9285 69.2084H50.4104V69.3409C50.4099 70.0821 49.8089 70.6831 49.0677 70.6836ZM45.028 42.8038C44.6998 42.8048 44.3849 42.6742 44.1532 42.4416C43.7366 42.024 43.6721 41.3707 44.0003 40.8799C44.328 40.3897 44.9569 40.1992 45.5015 40.4252C46.0466 40.6513 46.356 41.2305 46.2406 41.8091C46.1258 42.3872 45.6178 42.8043 45.028 42.8043V42.8038ZM47.6092 15.9933C47.6092 14.5642 48.4988 13.2861 49.8384 12.7887C51.1785 12.2919 52.6863 12.681 53.6185 13.7641C54.5502 14.8477 54.7103 16.3962 54.0188 17.6474C53.8288 17.7632 53.6429 17.8867 53.4626 18.0203C53.1156 18.2763 53.0424 18.765 53.2985 19.1115C53.5545 19.4585 54.0427 19.5316 54.3897 19.2756C56.6524 17.6088 59.7747 17.7561 61.8702 19.6297C63.9653 21.5032 64.4606 24.5889 63.0564 27.0238C62.9157 27.2651 62.9147 27.5638 63.0539 27.8062C63.1931 28.0485 63.4512 28.1978 63.7306 28.1978C64.0105 28.1973 64.2686 28.048 64.4072 27.8057C64.4616 27.7117 64.5129 27.6167 64.5627 27.5212C65.6148 28.0221 66.3976 28.9558 66.707 30.079C67.0169 31.2027 66.8228 32.4052 66.1761 33.3745C65.9226 33.7576 65.6051 34.0939 65.2373 34.3692C64.1695 33.8099 62.9818 33.5183 61.7762 33.5193C61.3454 33.5193 60.9959 33.8688 60.9959 34.2996C60.9959 34.7304 61.3454 35.0799 61.7762 35.0799C63.9043 35.0698 65.8749 36.1996 66.9417 38.0406C68.0086 39.8817 68.0086 42.153 66.9417 43.9941C65.8749 45.8356 63.9043 46.9649 61.7762 46.9553C61.3454 46.9553 60.9959 47.3043 60.9959 47.7356C60.9959 48.1664 61.3454 48.5159 61.7762 48.5159C62.1334 48.5154 62.49 48.4895 62.8431 48.4387V49.9185C62.8441 51.3862 62.0892 52.7502 60.845 53.529C59.6014 54.3073 58.0444 54.3901 56.725 53.7474C59.6939 49.697 60.3726 44.405 58.5209 39.7369C56.6692 35.0687 52.5471 31.6803 47.6092 30.7664V15.9933ZM44.9803 32.0892H45.1032C50.1351 32.1365 54.6899 35.0799 56.8002 39.6485C58.9105 44.2171 58.1988 49.5929 54.9719 53.4548C54.6239 53.8704 54.2505 54.2646 53.8537 54.6339C51.875 56.4699 50.6578 58.9815 50.4434 61.6725H48.3992V55.0977C48.3997 54.3946 48.9702 53.8241 49.6738 53.8236C51.2385 53.8216 52.507 52.5536 52.5085 50.9884V50.7034C53.7191 50.3514 54.5441 49.2332 54.5238 47.9728C54.5035 46.7129 53.6429 45.6217 52.4216 45.3088C51.2009 44.9959 49.9212 45.5384 49.2974 46.6332C48.673 47.7285 48.8584 49.1052 49.75 49.9963C50.0828 50.33 50.4953 50.5734 50.9479 50.7034V50.9884C50.9469 51.692 50.3769 52.262 49.6733 52.263C48.1086 52.2645 46.8401 53.533 46.8386 55.0977V61.6725H45.8078V44.2531C47.0184 43.9016 47.8444 42.7835 47.8246 41.5231C47.8048 40.2622 46.9442 39.171 45.723 38.8575C44.5022 38.5441 43.222 39.0856 42.5977 40.1809C41.9728 41.2762 42.1577 42.6534 43.0493 43.545C43.382 43.8787 43.7945 44.1226 44.2472 44.2531V61.6725H43.2169V55.0977C43.2154 53.533 41.9469 52.2645 40.3817 52.263C39.6781 52.262 39.1081 51.692 39.1076 50.9884V50.7034C39.5602 50.5734 39.9722 50.33 40.3055 49.9963C41.1991 49.1047 41.3855 47.7249 40.7607 46.6281C40.1363 45.5308 38.8546 44.9872 37.6313 45.3007C36.4085 45.6141 35.5464 46.7074 35.5266 47.9698C35.5068 49.2322 36.3338 50.3519 37.5465 50.7034V50.9884C37.5485 52.5536 38.8165 53.8216 40.3817 53.8236C41.0853 53.8241 41.6553 54.3946 41.6563 55.0977V61.6725H39.5201C39.3316 59.0074 38.1363 56.5146 36.1769 54.6989C32.2225 51.0697 30.9006 45.3855 32.8478 40.3841C34.7956 35.3827 39.6131 32.0887 44.9803 32.0892ZM50.8539 47.1427C51.337 46.6596 52.1204 46.6596 52.6035 47.1432C53.0866 47.6264 53.0866 48.4097 52.6035 48.8928C52.1204 49.376 51.337 49.376 50.8539 48.8928C50.3713 48.4092 50.3713 47.6264 50.8539 47.1427ZM37.4525 48.8928C36.9694 48.4097 36.9694 47.6264 37.4525 47.1432C37.9356 46.6601 38.719 46.6601 39.2021 47.1432C39.6852 47.6264 39.6852 48.4097 39.2021 48.8928C38.9709 49.127 38.656 49.2586 38.3273 49.2586C37.9986 49.2586 37.6836 49.127 37.4525 48.8928ZM23.7864 33.3745C22.5595 31.5238 23.0625 29.029 24.9106 27.7975C25.0671 27.6944 25.2307 27.6019 25.3998 27.5212C25.4496 27.6167 25.5009 27.7117 25.5553 27.8057C25.7717 28.1765 26.2477 28.3025 26.6201 28.0876C26.992 27.8722 27.12 27.3967 26.9061 27.0238C25.5004 24.5889 25.9952 21.5022 28.0913 19.6281C30.1874 17.7541 33.3101 17.6067 35.5733 19.2751C35.9198 19.5311 36.4085 19.458 36.6646 19.111C36.9206 18.7645 36.8469 18.2758 36.5005 18.0198C36.3196 17.8862 36.1337 17.7627 35.9437 17.6469C35.2523 16.3956 35.4123 14.8467 36.3445 13.7636C37.2767 12.68 38.7845 12.2914 40.1246 12.7887C41.4643 13.2856 42.3538 14.5642 42.3533 15.9933V30.7643C35.4306 32.0359 30.4033 38.0696 30.4018 45.1081C30.4058 48.2162 31.4 51.2419 33.2405 53.7464C31.9212 54.3896 30.3631 54.3078 29.1185 53.5295C27.8739 52.7512 27.1185 51.3867 27.119 49.9185V48.4387C27.4725 48.4895 27.8287 48.5154 28.1853 48.5159C28.6166 48.5159 28.9656 48.1664 28.9656 47.7356C28.9656 47.3043 28.6166 46.9553 28.1853 46.9553C26.0577 46.9649 24.0871 45.8356 23.0203 43.9941C21.9535 42.153 21.9535 39.8817 23.0203 38.0406C24.0871 36.1996 26.0577 35.0698 28.1853 35.0799C28.6166 35.0799 28.9656 34.7304 28.9656 34.2996C28.9656 33.8688 28.6166 33.5193 28.1853 33.5193C26.9803 33.5183 25.7925 33.8099 24.7242 34.3692C24.3569 34.0939 24.0399 33.7576 23.7864 33.3745Z" fill="white"/>
<path d="M30.7425 32.702C30.8609 32.702 30.9777 32.675 31.0839 32.6232C31.1327 32.5988 31.1794 32.5709 31.2266 32.545C31.3862 32.8493 31.5919 33.1272 31.8373 33.368C32.1451 33.6692 32.6394 33.6636 32.9407 33.3553C33.2419 33.0469 33.2363 32.5531 32.928 32.2519C32.6857 32.0141 32.518 31.7113 32.4454 31.3801C32.9163 30.6171 33.0575 29.6955 32.8365 28.8263C32.7293 28.4087 32.3041 28.1573 31.8866 28.2645C31.469 28.3716 31.2175 28.7969 31.3247 29.2144C31.5294 30.0171 31.1438 30.8538 30.4001 31.2196C30.0735 31.3786 29.8997 31.7423 29.9815 32.0964C30.0633 32.451 30.3788 32.702 30.7425 32.7015V32.702Z" fill="white"/>
<path d="M34.5552 23.9788C34.8804 23.895 35.2197 23.8868 35.5484 23.9539C36.2439 24.0946 36.8311 24.5584 37.1298 25.2026C37.4286 25.8468 37.4032 26.5941 37.0613 27.2164C36.853 27.5938 36.9901 28.0683 37.3676 28.2766C37.745 28.4849 38.2195 28.3472 38.4278 27.9703C38.7941 27.3043 38.9521 26.5443 38.8815 25.7878H38.8987C39.9183 25.7873 40.8947 25.3774 41.608 24.6494C41.8056 24.4507 41.8813 24.1612 41.8061 23.8909C41.7314 23.6212 41.5176 23.4119 41.2458 23.3433C40.9745 23.2742 40.6865 23.3565 40.4924 23.5582C39.9315 24.1302 39.107 24.3568 38.3328 24.152C37.4636 22.7382 35.7755 22.0549 34.1681 22.4664C33.7505 22.5736 33.4991 22.9993 33.6063 23.4164C33.7134 23.834 34.1387 24.0855 34.5562 23.9783L34.5552 23.9788Z" fill="white"/>
</svg>
