<svg width="92" height="84" viewBox="0 0 92 84" fill="none" xmlns="http://www.w3.org/2000/svg">
<path d="M11.2469 53.7706C8.48652 52.3119 4.71038 51.7949 2.24681 48.8119C5.1304 50.6768 8.47441 52.076 11.8952 52.8904C8.2321 49.6879 0.0194884 51.0789 1.19877 42.1483C-0.154171 42.9936 -0.463139 39.7665 0.796925 38.1314C3.25041 38.2339 1.37648 36.4347 3.30291 35.6161C1.96814 30.0625 4.28431 36.9722 5.10012 29.6357C3.86227 27.299 6.5823 27.3216 7.8464 26.8517C5.31416 24.9027 10.4332 25.151 11.8346 24.8002C10.2252 23.8913 4.7851 23.2594 10.1081 19.9892C9.37706 19.3019 9.48004 17.8289 10.7704 16.6656C10.8108 14.9095 11.0733 13.5862 12.7009 13.1739C12.7897 11.1407 15.2048 12.4025 16.2448 12.5338C16.3801 12.1255 16.2912 11.2331 17.107 10.9479C16.7799 10.3181 16.7335 9.6677 17.2242 8.9558C13.1047 5.87638 23.7426 8.57831 25.2348 7.38018C24.6836 5.55222 24.6836 5.55222 25.4247 4.40129C22.4663 0.839746 41.4076 4.76442 34.2249 4.77468C34.5298 5.62609 39.6912 5.31219 35.9615 7.94437C36.4764 8.35879 36.9772 8.59677 37.4821 8.81629C40.8705 7.96694 45.0263 10.5458 48.6449 11.5408C48.1663 10.2688 47.8715 8.1762 49.8303 7.5238C41.8842 -1.76986 53.5175 4.00944 56.7384 4.32744C58.3236 0.228375 52.9259 -1.8827 64.3411 2.20815C64.6764 3.88635 64.4421 3.30575 65.5386 4.82802C65.2175 6.0323 65.7143 7.17093 66.8532 6.69701C67.0188 5.82304 69.8862 -0.249643 69.7832 4.14485C68.505 5.30604 68.8261 8.12697 71.6976 8.685C71.6511 6.50212 74.3429 8.93529 76.5197 9.08711C74.7629 10.8658 74.2056 7.26325 72.2024 8.81425C75.1526 9.22661 77.6263 11.5572 81.1965 9.97545C82.0507 11.4075 87.6503 14.093 84.068 16.3128C83.9549 18.8793 79.9122 20.6478 82.4 24.0534C82.3556 24.2298 82.1496 24.712 81.8285 25.192C81.774 25.9655 83.1088 25.6557 82.503 26.8907C82.7897 27.5288 86.4003 28.2304 85.5057 29.0223C84.3911 28.9157 82.717 26.702 81.2914 27.5575C81.2591 27.6929 83.5672 28.2817 80.9319 27.9576C83.2421 30.4379 88.145 30.6841 88.9467 33.7656C89.5464 34.3954 94.2999 37.2594 90.6086 37.9447C93.7304 41.8734 88.9164 42.4848 86.6244 42.136C90.0088 45.6894 88.1611 46.4423 86.7456 51.7805C88.6296 58.161 84.6859 54.7923 81.9961 54.5748C86.1559 56.9403 87.0061 58.6246 80.6896 57.3485C81.1319 58.6738 84.5183 57.1906 83.7792 59.9499C84.6637 60.9737 84.177 62.6724 82.5393 63.8849C82.9795 64.8122 82.7695 66.6955 81.5539 66.7119C81.2631 67.2433 81.2046 67.2597 80.9461 66.8761C80.4029 67.5921 80.104 68.4312 78.9045 68.0639C79.3286 69.1697 79.0519 70.8849 77.699 68.741C77.5455 69.5206 77.2123 69.2764 76.9094 69.2539C76.55 72.5015 75.1284 72.8298 73.3009 72.879C73.2787 75.1152 70.4738 75.5707 70.8252 72.6102C64.5289 70.3248 69.0845 75.6856 63.3456 78.1003C64.3533 80.1252 63.7838 82.4353 61.401 82.3655C60.4055 89.3163 52.6553 71.8758 46.1369 71.4449C45.5755 75.2629 42.8272 73.4637 41.5773 74.7788C45.3453 75.0927 38.0172 81.9531 35.176 74.4177C35.1356 74.073 34.7943 73.0123 34.4611 74.1407C34.1744 74.7623 34.0593 75.6527 34.5964 76.2456C38.8572 81.0771 30.164 78.3095 28.1911 78.2336C26.3192 78.6809 30.7678 64.7855 23.9889 78.2582C18.9466 81.5839 27.1613 70.335 19.3182 70.692C19.8412 71.1864 19.0678 72.3312 18.2581 70.612C18.2581 71.0059 18.3691 71.2747 18.5105 71.5311C18.1813 71.7137 18.044 71.5024 17.9067 70.6592C17.3534 69.5411 8.18766 69.0282 8.57336 66.2196C10.5866 63.5053 5.44541 65.2184 11.146 59.8576C12.1678 59.0862 11.3136 58.4728 11.2772 57.051C10.6048 56.7392 10.0495 56.5217 11.2793 54.6425C11.0753 54.622 10.5563 54.2814 11.2469 53.7706C11.3661 53.906 11.4852 54.0393 11.4751 54.3594C11.5922 54.2075 11.7397 54.2547 11.7982 53.988C11.6427 53.7829 11.4206 53.8813 11.2469 53.7706Z" fill="#943893"/>
<path d="M15 26.6482C15.1989 26.6482 15.3897 26.5692 15.5303 26.4286C15.671 26.2879 15.75 26.0972 15.75 25.8982V15.5C15.7505 15.036 15.935 14.5912 16.2631 14.2631C16.5912 13.935 17.036 13.7505 17.5 13.75H28.7654C28.9643 13.75 29.1551 13.671 29.2957 13.5303C29.4364 13.3897 29.5154 13.1989 29.5154 13C29.5154 12.8011 29.4364 12.6103 29.2957 12.4697C29.1551 12.329 28.9643 12.25 28.7654 12.25H17.5C16.6384 12.251 15.8123 12.5937 15.203 13.203C14.5937 13.8123 14.251 14.6384 14.25 15.5V25.8982C14.25 26.0972 14.329 26.2879 14.4697 26.4286C14.6103 26.5692 14.8011 26.6482 15 26.6482Z" fill="white"/>
<path d="M75 58.7532C74.8011 58.7532 74.6103 58.8322 74.4697 58.9728C74.329 59.1135 74.25 59.3043 74.25 59.5032V70.5C74.2495 70.964 74.065 71.4089 73.7369 71.7369C73.4088 72.065 72.964 72.2496 72.5 72.25H62.0552C61.8563 72.25 61.6656 72.3291 61.5249 72.4697C61.3843 72.6104 61.3052 72.8011 61.3052 73C61.3052 73.199 61.3843 73.3897 61.5249 73.5304C61.6656 73.671 61.8563 73.75 62.0552 73.75H72.5C73.3616 73.7491 74.1877 73.4064 74.797 72.7971C75.4063 72.1878 75.749 71.3617 75.75 70.5V59.5032C75.75 59.3043 75.671 59.1135 75.5303 58.9728C75.3897 58.8322 75.1989 58.7532 75 58.7532Z" fill="white"/>
<path d="M72.5 12.25H62.2653C62.0663 12.25 61.8756 12.329 61.7349 12.4697C61.5943 12.6103 61.5153 12.8011 61.5153 13C61.5153 13.1989 61.5943 13.3897 61.7349 13.5303C61.8756 13.671 62.0663 13.75 62.2653 13.75H72.5C72.964 13.7505 73.4088 13.935 73.7369 14.2631C74.065 14.5912 74.2495 15.036 74.25 15.5V25.3731C74.25 25.572 74.329 25.7628 74.4697 25.9035C74.6103 26.0441 74.8011 26.1231 75 26.1231C75.1989 26.1231 75.3897 26.0441 75.5303 25.9035C75.671 25.7628 75.75 25.572 75.75 25.3731V15.5C75.749 14.6384 75.4063 13.8123 74.797 13.203C74.1877 12.5937 73.3617 12.251 72.5 12.25Z" fill="white"/>
<path d="M27.1901 72.25H17.5C17.036 72.2495 16.5912 72.065 16.2631 71.7369C15.935 71.4088 15.7505 70.964 15.75 70.5V60.8684C15.75 60.6695 15.671 60.4787 15.5303 60.3381C15.3897 60.1974 15.1989 60.1184 15 60.1184C14.8011 60.1184 14.6103 60.1974 14.4697 60.3381C14.329 60.4787 14.25 60.6695 14.25 60.8684V70.5C14.251 71.3617 14.5937 72.1878 15.203 72.7971C15.8122 73.4064 16.6383 73.7491 17.5 73.75H27.1901C27.389 73.75 27.5798 73.671 27.7205 73.5304C27.8611 73.3897 27.9401 73.1989 27.9401 73C27.9401 72.8011 27.8611 72.6104 27.7205 72.4697C27.5798 72.3291 27.389 72.25 27.1901 72.25Z" fill="white"/>
<path d="M54.6182 43.7501H63.414C63.6129 43.7501 63.8037 43.671 63.9443 43.5304C64.085 43.3897 64.164 43.199 64.164 43.0001C64.164 42.8012 64.085 42.6104 63.9443 42.4697C63.8037 42.3291 63.6129 42.2501 63.414 42.2501H54.6182C54.4367 39.9586 53.444 37.8069 51.8186 36.1814C50.1932 34.556 48.0415 33.5634 45.75 33.3818V24.5859C45.75 24.387 45.671 24.1963 45.5303 24.0556C45.3897 23.915 45.1989 23.8359 45 23.8359C44.8011 23.8359 44.6103 23.915 44.4697 24.0556C44.329 24.1963 44.25 24.387 44.25 24.5859V33.3818C41.9585 33.5634 39.8068 34.556 38.1814 36.1814C36.556 37.8069 35.5633 39.9586 35.3817 42.2501H26.586C26.3871 42.2501 26.1963 42.3291 26.0557 42.4697C25.915 42.6104 25.836 42.8012 25.836 43.0001C25.836 43.199 25.915 43.3897 26.0557 43.5304C26.1963 43.671 26.3871 43.7501 26.586 43.7501H35.3817C35.5633 46.0416 36.5559 48.1933 38.1814 49.8187C39.8068 51.4441 41.9585 52.4368 44.25 52.6183V61.4141C44.25 61.613 44.329 61.8037 44.4697 61.9444C44.6103 62.085 44.8011 62.1641 45 62.1641C45.1989 62.1641 45.3897 62.085 45.5303 61.9444C45.671 61.8037 45.75 61.613 45.75 61.4141V52.6183C48.0415 52.4368 50.1932 51.4441 51.8186 49.8187C53.4441 48.1933 54.4367 46.0416 54.6182 43.7501ZM45.75 51.1144V49.0051C45.75 48.8062 45.671 48.6154 45.5303 48.4747C45.3897 48.3341 45.1989 48.2551 45 48.2551C44.8011 48.2551 44.6103 48.3341 44.4697 48.4747C44.329 48.6154 44.25 48.8062 44.25 49.0051V51.1144C42.3569 50.9368 40.5852 50.1039 39.2407 48.7594C37.8962 47.4149 37.0632 45.6432 36.8856 43.7501H39.5294C39.7283 43.7501 39.9191 43.671 40.0597 43.5304C40.2004 43.3897 40.2794 43.199 40.2794 43.0001C40.2794 42.8012 40.2004 42.6104 40.0597 42.4697C39.9191 42.3291 39.7283 42.2501 39.5294 42.2501H36.8856C37.0633 40.357 37.8962 38.5853 39.2407 37.2408C40.5852 35.8963 42.3569 35.0634 44.25 34.8858V36.9858C44.25 37.1847 44.329 37.3755 44.4697 37.5161C44.6103 37.6568 44.8011 37.7358 45 37.7358C45.1989 37.7358 45.3897 37.6568 45.5303 37.5161C45.671 37.3755 45.75 37.1847 45.75 36.9858V34.8858C47.6431 35.0634 49.4148 35.8963 50.7593 37.2408C52.1038 38.5853 52.9367 40.357 53.1144 42.2501H50.8041C50.6052 42.2501 50.4144 42.3291 50.2738 42.4697C50.1331 42.6104 50.0541 42.8012 50.0541 43.0001C50.0541 43.199 50.1331 43.3897 50.2738 43.5304C50.4144 43.671 50.6052 43.7501 50.8041 43.7501H53.1144C52.9368 45.6432 52.1038 47.4149 50.7593 48.7594C49.4148 50.1039 47.6431 50.9368 45.75 51.1144Z" fill="white"/>
</svg>
