<svg width="16" height="16" viewBox="0 0 16 16" fill="none" xmlns="http://www.w3.org/2000/svg">
<path d="M2.50024 2.51465C4.02108 0.993815 5.85441 0.233398 8.00024 0.233398C10.1461 0.233398 11.969 0.993815 13.469 2.51465C14.9898 4.01465 15.7502 5.83757 15.7502 7.9834C15.7502 10.1292 14.9898 11.9626 13.469 13.4834C11.969 14.9834 10.1461 15.7334 8.00024 15.7334C5.85441 15.7334 4.02108 14.9834 2.50024 13.4834C1.00024 11.9626 0.250244 10.1292 0.250244 7.9834C0.250244 5.83757 1.00024 4.01465 2.50024 2.51465ZM12.5002 8.8584V7.1084C12.5002 6.8584 12.3752 6.7334 12.1252 6.7334H9.25024V3.8584C9.25024 3.6084 9.12524 3.4834 8.87524 3.4834H7.12524C6.87524 3.4834 6.75024 3.6084 6.75024 3.8584V6.7334H3.87524C3.62524 6.7334 3.50024 6.8584 3.50024 7.1084V8.8584C3.50024 9.1084 3.62524 9.2334 3.87524 9.2334H6.75024V12.1084C6.75024 12.3584 6.87524 12.4834 7.12524 12.4834H8.87524C9.12524 12.4834 9.25024 12.3584 9.25024 12.1084V9.2334H12.1252C12.3752 9.2334 12.5002 9.1084 12.5002 8.8584Z" fill="#2E3357"/>
</svg>
