<svg width="16" height="16" viewBox="0 0 16 16" fill="none" xmlns="http://www.w3.org/2000/svg">
<path d="M0 1.75C0 1.54167 0.0729167 1.36458 0.21875 1.21875C0.364583 1.07292 0.541667 1 0.75 1H3.25C3.45833 1 3.63542 1.07292 3.78125 1.21875C3.92708 1.36458 4 1.54167 4 1.75V9.25C4 9.45833 3.92708 9.63542 3.78125 9.78125C3.63542 9.92708 3.45833 10 3.25 10H0.75C0.541667 10 0.364583 9.92708 0.21875 9.78125C0.0729167 9.63542 0 9.45833 0 9.25V1.75ZM1.46875 7.46875C1.32292 7.61458 1.25 7.79167 1.25 8C1.25 8.20833 1.32292 8.38542 1.46875 8.53125C1.61458 8.67708 1.79167 8.75 2 8.75C2.20833 8.75 2.38542 8.67708 2.53125 8.53125C2.67708 8.38542 2.75 8.20833 2.75 8C2.75 7.79167 2.67708 7.61458 2.53125 7.46875C2.38542 7.32292 2.20833 7.25 2 7.25C1.79167 7.25 1.61458 7.32292 1.46875 7.46875ZM9.75 16C9.33333 16 8.97917 15.3958 8.6875 14.1875C8.45833 13.2708 8.19792 12.6562 7.90625 12.3438C7.61458 12.0729 7.32292 11.7292 7.03125 11.3125C6.73958 10.8958 6.42708 10.4688 6.09375 10.0312C5.78125 9.57292 5.45833 9.16667 5.125 8.8125C5.04167 8.75 5 8.66667 5 8.5625V1.875C5 1.77083 5.03125 1.6875 5.09375 1.625C5.17708 1.54167 5.27083 1.5 5.375 1.5C5.72917 1.5 6.27083 1.33333 7 1C8.5 0.333333 9.75 0 10.75 0H10.8438C11.2812 0 11.625 0.0104167 11.875 0.03125C12.1458 0.03125 12.4688 0.0625 12.8438 0.125C13.2188 0.166667 13.5312 0.260417 13.7812 0.40625C14.0312 0.53125 14.2396 0.708333 14.4062 0.9375C14.6562 1.3125 14.7188 1.77083 14.5938 2.3125C14.8438 2.60417 15.0208 2.96875 15.125 3.40625C15.2292 3.82292 15.2188 4.23958 15.0938 4.65625C15.3646 5.01042 15.5208 5.42708 15.5625 5.90625C15.6042 6.38542 15.5417 6.80208 15.375 7.15625H15.4062C15.8021 7.55208 16 8.0625 16 8.6875C16 9.16667 15.8125 9.59375 15.4375 9.96875C15.0833 10.3229 14.6458 10.5 14.125 10.5H10.9688C10.9896 10.6458 11.1667 11.0521 11.5 11.7188C11.8333 12.3646 12 12.9479 12 13.4688C12 13.9896 11.9167 14.4375 11.75 14.8125C11.6042 15.1875 11.3958 15.4479 11.125 15.5938C10.875 15.7604 10.6354 15.8646 10.4062 15.9062C10.1979 15.9688 9.97917 16 9.75 16Z" fill="#943893"/>
</svg>
