<svg width="16" height="16" viewBox="0 0 16 16" fill="none" xmlns="http://www.w3.org/2000/svg">
<path d="M3.25 7C3.45833 7 3.63542 7.07292 3.78125 7.21875C3.92708 7.36458 4 7.54167 4 7.75V15.25C4 15.4583 3.92708 15.6354 3.78125 15.7812C3.63542 15.9271 3.45833 16 3.25 16H0.75C0.541667 16 0.364583 15.9271 0.21875 15.7812C0.0729167 15.6354 0 15.4583 0 15.25V7.75C0 7.54167 0.0729167 7.36458 0.21875 7.21875C0.364583 7.07292 0.541667 7 0.75 7H3.25ZM1.46875 14.5312C1.61458 14.6771 1.79167 14.75 2 14.75C2.20833 14.75 2.38542 14.6771 2.53125 14.5312C2.67708 14.3854 2.75 14.2083 2.75 14C2.75 13.7917 2.67708 13.6146 2.53125 13.4688C2.38542 13.3229 2.20833 13.25 2 13.25C1.79167 13.25 1.61458 13.3229 1.46875 13.4688C1.32292 13.6146 1.25 13.7917 1.25 14C1.25 14.2083 1.32292 14.3854 1.46875 14.5312ZM12 2.53125C12 3.05208 11.8333 3.64583 11.5 4.3125C11.1667 4.95833 10.9896 5.35417 10.9688 5.5H14.125C14.6458 5.5 15.0833 5.6875 15.4375 6.0625C15.8125 6.41667 16 6.83333 16 7.3125C16 7.9375 15.8021 8.44792 15.4062 8.84375H15.375C15.5417 9.19792 15.6042 9.61458 15.5625 10.0938C15.5208 10.5729 15.3646 10.9896 15.0938 11.3438C15.2188 11.7604 15.2292 12.1875 15.125 12.625C15.0208 13.0417 14.8438 13.3958 14.5938 13.6875C14.7188 14.2292 14.6562 14.6875 14.4062 15.0625C14.1979 15.3542 13.875 15.5729 13.4375 15.7188C13 15.8646 12.6042 15.9479 12.25 15.9688C11.9167 15.9896 11.4479 16 10.8438 16H10.75C9.75 16 8.5 15.6667 7 15C6.27083 14.6667 5.72917 14.5 5.375 14.5C5.27083 14.5 5.17708 14.4583 5.09375 14.375C5.03125 14.3125 5 14.2292 5 14.125V7.4375C5 7.33333 5.04167 7.25 5.125 7.1875C5.54167 6.75 6.02083 6.13542 6.5625 5.34375C7.125 4.53125 7.57292 3.96875 7.90625 3.65625C8.19792 3.34375 8.45833 2.72917 8.6875 1.8125C8.97917 0.604167 9.33333 0 9.75 0C9.97917 0 10.1979 0.03125 10.4062 0.09375C10.6354 0.135417 10.875 0.239583 11.125 0.40625C11.3958 0.552083 11.6042 0.8125 11.75 1.1875C11.9167 1.5625 12 2.01042 12 2.53125Z" fill="#943893"/>
</svg>
