<svg width="14" height="16" viewBox="0 0 14 16" fill="none" xmlns="http://www.w3.org/2000/svg">
<path d="M11 10C11.8333 10 12.5417 10.2917 13.125 10.875C13.7083 11.4583 14 12.1667 14 13C14 13.8333 13.7083 14.5417 13.125 15.125C12.5417 15.7083 11.8333 16 11 16C10.1667 16 9.45833 15.7083 8.875 15.125C8.29167 14.5417 8 13.8333 8 13C8 12.7708 8.02083 12.5521 8.0625 12.3438L4.875 10.3438C4.33333 10.7812 3.70833 11 3 11C2.16667 11 1.45833 10.7083 0.875 10.125C0.291667 9.54167 0 8.83333 0 8C0 7.16667 0.291667 6.45833 0.875 5.875C1.45833 5.29167 2.16667 5 3 5C3.70833 5 4.33333 5.21875 4.875 5.65625L8.0625 3.65625C8.02083 3.44792 8 3.22917 8 3C8 2.16667 8.29167 1.45833 8.875 0.875C9.45833 0.291667 10.1667 0 11 0C11.8333 0 12.5417 0.291667 13.125 0.875C13.7083 1.45833 14 2.16667 14 3C14 3.83333 13.7083 4.54167 13.125 5.125C12.5417 5.70833 11.8333 6 11 6C10.2917 6 9.66667 5.78125 9.125 5.34375L5.9375 7.34375C5.97917 7.55208 6 7.77083 6 8C6 8.22917 5.97917 8.44792 5.9375 8.65625L9.125 10.6562C9.66667 10.2188 10.2917 10 11 10Z" fill="#943893"/>
</svg>
