<svg width="32" height="32" viewBox="0 0 32 32" fill="none" xmlns="http://www.w3.org/2000/svg">
<path fill-rule="evenodd" clip-rule="evenodd" d="M15.2579 25.9711L9.4871 29.1415C8.7076 29.5698 7.74347 29.2566 7.33367 28.442C7.17048 28.1177 7.11417 27.7461 7.17345 27.3849L8.27558 20.6698C8.3643 20.1292 8.19281 19.5776 7.81699 19.1948L3.14828 14.4391C2.51765 13.7967 2.50474 12.7417 3.11946 12.0827C3.36424 11.8203 3.68497 11.6495 4.03201 11.5968L10.484 10.6171C11.0034 10.5382 11.4524 10.1973 11.6846 9.70554L14.57 3.59588C14.9598 2.77061 15.9159 2.43178 16.7057 2.83907C17.0201 3.00126 17.2747 3.26725 17.4299 3.59588L20.3153 9.70554C20.5476 10.1973 20.9965 10.5382 21.5159 10.6171L27.9679 11.5968C28.8394 11.7292 29.4433 12.5747 29.3166 13.4855C29.2662 13.8481 29.1028 14.1833 28.8517 14.4391L24.1829 19.1948C23.8071 19.5776 23.6356 20.1292 23.7243 20.6698L24.8265 27.3849C24.9754 28.292 24.3924 29.1534 23.5244 29.309C23.1788 29.3709 22.8232 29.3121 22.5128 29.1415L16.742 25.9711C16.2774 25.7159 15.7225 25.7159 15.2579 25.9711Z" fill="#D085CD"/>
</svg>
