<svg width="27" height="26" viewBox="0 0 27 26" fill="none" xmlns="http://www.w3.org/2000/svg">
<path d="M12.1407 1.82129C12.4219 1.25879 12.875 0.977539 13.5 0.977539C14.125 0.977539 14.5782 1.25879 14.8594 1.82129L17.9063 8.00879L24.75 9.04004C25.375 9.10254 25.7813 9.43066 25.9688 10.0244C26.1563 10.6182 26.0313 11.1338 25.5938 11.5713L20.625 16.3994L21.7969 23.2432C21.8907 23.8369 21.6875 24.3057 21.1875 24.6494C20.6875 25.0244 20.1719 25.0713 19.6407 24.79L13.5 21.6025L7.35941 24.79C6.82816 25.1025 6.31253 25.0713 5.81253 24.6963C5.31253 24.3213 5.10941 23.8369 5.20316 23.2432L6.37503 16.3994L1.40628 11.5713C0.968781 11.1338 0.843781 10.6182 1.03128 10.0244C1.21878 9.43066 1.62503 9.10254 2.25003 9.04004L9.09378 8.00879L12.1407 1.82129Z" fill="white"/>
</svg>
