<svg width="25" height="22" viewBox="0 0 25 22" fill="none" xmlns="http://www.w3.org/2000/svg">
<path d="M3.5625 3.33691C5.90625 1.43066 8.73438 0.477539 12.0469 0.477539C15.3594 0.477539 18.1875 1.43066 20.5312 3.33691C22.875 5.24316 24.0469 7.54004 24.0469 10.2275C24.0469 12.915 22.875 15.2119 20.5312 17.1182C18.1875 19.0244 15.3594 19.9775 12.0469 19.9775C10.2969 19.9775 8.625 19.6807 7.03125 19.0869C5 20.6807 2.79688 21.4775 0.421875 21.4775C0.359375 21.4775 0.296875 21.4463 0.234375 21.3838C0.171875 21.3525 0.125 21.3057 0.09375 21.2432C0.03125 21.0869 0.046875 20.9463 0.140625 20.8213C0.265625 20.7275 0.453125 20.5088 0.703125 20.165C0.984375 19.8525 1.34375 19.3213 1.78125 18.5713C2.21875 17.79 2.53125 17.0557 2.71875 16.3682C0.9375 14.5869 0.046875 12.54 0.046875 10.2275C0.046875 7.54004 1.21875 5.24316 3.5625 3.33691ZM4.96875 11.3057C5.28125 11.5869 5.64062 11.7275 6.04688 11.7275C6.45312 11.7275 6.79688 11.5869 7.07812 11.3057C7.39062 10.9932 7.54688 10.6338 7.54688 10.2275C7.54688 9.82129 7.39062 9.47754 7.07812 9.19629C6.79688 8.88379 6.45312 8.72754 6.04688 8.72754C5.64062 8.72754 5.28125 8.88379 4.96875 9.19629C4.6875 9.47754 4.54688 9.82129 4.54688 10.2275C4.54688 10.6338 4.6875 10.9932 4.96875 11.3057ZM10.9688 11.3057C11.2812 11.5869 11.6406 11.7275 12.0469 11.7275C12.4531 11.7275 12.7969 11.5869 13.0781 11.3057C13.3906 10.9932 13.5469 10.6338 13.5469 10.2275C13.5469 9.82129 13.3906 9.47754 13.0781 9.19629C12.7969 8.88379 12.4531 8.72754 12.0469 8.72754C11.6406 8.72754 11.2812 8.88379 10.9688 9.19629C10.6875 9.47754 10.5469 9.82129 10.5469 10.2275C10.5469 10.6338 10.6875 10.9932 10.9688 11.3057ZM16.9688 11.3057C17.2812 11.5869 17.6406 11.7275 18.0469 11.7275C18.4531 11.7275 18.7969 11.5869 19.0781 11.3057C19.3906 10.9932 19.5469 10.6338 19.5469 10.2275C19.5469 9.82129 19.3906 9.47754 19.0781 9.19629C18.7969 8.88379 18.4531 8.72754 18.0469 8.72754C17.6406 8.72754 17.2812 8.88379 16.9688 9.19629C16.6875 9.47754 16.5469 9.82129 16.5469 10.2275C16.5469 10.6338 16.6875 10.9932 16.9688 11.3057Z" fill="white"/>
</svg>
