<svg width="30" height="25" viewBox="0 0 30 25" fill="none" xmlns="http://www.w3.org/2000/svg">
<path d="M29.25 17.4775C29.4688 17.4775 29.6406 17.5557 29.7656 17.7119C29.9219 17.8369 30 18.0088 30 18.2275V19.7275C30 19.9463 29.9219 20.1338 29.7656 20.29C29.6406 20.415 29.4688 20.4775 29.25 20.4775H27C27 21.7275 26.5625 22.79 25.6875 23.665C24.8125 24.54 23.75 24.9775 22.5 24.9775C21.25 24.9775 20.1875 24.54 19.3125 23.665C18.4375 22.79 18 21.7275 18 20.4775H12C12 21.7275 11.5625 22.79 10.6875 23.665C9.8125 24.54 8.75 24.9775 7.5 24.9775C6.25 24.9775 5.1875 24.54 4.3125 23.665C3.4375 22.79 3 21.7275 3 20.4775H2.25C1.625 20.4775 1.09375 20.2588 0.65625 19.8213C0.21875 19.3838 0 18.8525 0 18.2275V3.22754C0 2.60254 0.21875 2.07129 0.65625 1.63379C1.09375 1.19629 1.625 0.977539 2.25 0.977539H17.25C17.875 0.977539 18.4062 1.19629 18.8438 1.63379C19.2812 2.07129 19.5 2.60254 19.5 3.22754V5.47754H21.5625C22.1875 5.47754 22.7188 5.69629 23.1562 6.13379L27.8438 10.8213C28.2812 11.2588 28.5 11.79 28.5 12.415V17.4775H29.25ZM5.90625 22.0713C6.34375 22.5088 6.875 22.7275 7.5 22.7275C8.125 22.7275 8.65625 22.5088 9.09375 22.0713C9.53125 21.6338 9.75 21.1025 9.75 20.4775C9.75 19.8525 9.53125 19.3213 9.09375 18.8838C8.65625 18.4463 8.125 18.2275 7.5 18.2275C6.875 18.2275 6.34375 18.4463 5.90625 18.8838C5.46875 19.3213 5.25 19.8525 5.25 20.4775C5.25 21.1025 5.46875 21.6338 5.90625 22.0713ZM20.9062 22.0713C21.3438 22.5088 21.875 22.7275 22.5 22.7275C23.125 22.7275 23.6562 22.5088 24.0938 22.0713C24.5312 21.6338 24.75 21.1025 24.75 20.4775C24.75 19.8525 24.5312 19.3213 24.0938 18.8838C23.6562 18.4463 23.125 18.2275 22.5 18.2275C21.875 18.2275 21.3438 18.4463 20.9062 18.8838C20.4688 19.3213 20.25 19.8525 20.25 20.4775C20.25 21.1025 20.4688 21.6338 20.9062 22.0713ZM26.25 12.9775V12.415L21.5625 7.72754H19.5V12.9775H26.25Z" fill="white"/>
</svg>
