<svg width="92" height="85" viewBox="0 0 92 85" fill="none" xmlns="http://www.w3.org/2000/svg">
<path d="M11.247 31.207C8.48655 32.6657 4.71041 33.1827 2.24684 36.1657C5.13044 34.3008 8.47444 32.9016 11.8952 32.0871C8.23212 35.2896 0.0195112 33.8987 1.1988 42.8292C-0.154148 41.9839 -0.463108 45.2111 0.796955 46.8462C3.25044 46.7436 1.37651 48.5429 3.30294 49.3614C1.96817 54.9151 4.28434 48.0053 5.10015 55.3418C3.8623 57.6785 6.58233 57.656 7.84643 58.1258C5.3142 60.0748 10.4332 59.8266 11.8346 60.1774C10.2252 61.0862 4.78513 61.7181 10.1081 64.9883C9.37709 65.6756 9.48007 67.1486 10.7704 68.3119C10.8108 70.068 11.0733 71.3913 12.7009 71.8037C12.7898 73.8368 15.2049 72.5751 16.2448 72.4438C16.3801 72.852 16.2913 73.7445 17.1071 74.0296C16.7799 74.6595 16.7335 75.3098 17.2242 76.0217C13.1048 79.1012 23.7426 76.3992 25.2349 77.5974C24.6836 79.4253 24.6836 79.4253 25.4247 80.5762C22.4664 84.1378 41.4077 80.2131 34.2249 80.2029C34.5298 79.3514 39.6912 79.6653 35.9615 77.0332C36.4765 76.6187 36.9773 76.3808 37.4821 76.1612C40.8705 77.0106 45.0263 74.4318 48.6449 73.4367C48.1664 74.7087 47.8715 76.8013 49.8303 77.4537C41.8842 86.7474 53.5176 80.9681 56.7384 80.6501C58.3236 84.7492 52.9259 86.8602 64.3412 82.7694C64.6764 81.0912 64.4421 81.6718 65.5386 80.1495C65.2176 78.9452 65.7143 77.8066 66.8532 78.2805C67.0188 79.1545 69.8863 85.2272 69.7833 80.8327C68.505 79.6715 68.8261 76.8506 71.6976 76.2925C71.6511 78.4754 74.3429 76.0422 76.5197 75.8904C74.7629 74.1117 74.2056 77.7143 72.2024 76.1633C75.1527 75.7509 77.6263 73.4203 81.1965 75.0021C82.0507 73.5701 87.6503 70.8846 84.068 68.6648C83.9549 66.0982 79.9122 64.3298 82.4 60.9241C82.3556 60.7477 82.1496 60.2656 81.8286 59.7855C81.774 59.0121 83.1088 59.3219 82.503 58.0868C82.7898 57.4488 86.4003 56.7471 85.5058 55.9552C84.3911 56.0619 82.7171 58.2755 81.2914 57.42C81.2591 57.2846 83.5672 56.6958 80.932 57.02C83.2421 54.5396 88.145 54.2934 88.9467 51.2119C89.5464 50.5821 94.2999 47.7181 90.6086 47.0329C93.7305 43.1041 88.9164 42.4927 86.6245 42.8415C90.0089 39.2882 88.1612 38.5352 86.7456 33.197C88.6297 26.8166 84.6859 30.1853 81.9962 30.4028C86.156 28.0373 87.0061 26.3529 80.6897 27.629C81.1319 26.3037 84.5183 27.787 83.7792 25.0276C84.6637 24.0039 84.177 22.3052 82.5394 21.0927C82.9796 20.1654 82.7696 18.282 81.5539 18.2656C81.2631 17.7342 81.2046 17.7178 80.9461 18.1015C80.4029 17.3855 80.104 16.5464 78.9046 16.9136C79.3286 15.8078 79.052 14.0927 77.699 16.2366C77.5456 15.457 77.2124 15.7011 76.9095 15.7237C76.55 12.476 75.1284 12.1478 73.3009 12.0985C73.2787 9.86232 70.4739 9.40686 70.8252 12.3673C64.529 14.6528 69.0846 9.29198 63.3456 6.87726C64.3533 4.85235 63.7838 2.54227 61.401 2.61203C60.4055 -4.33873 52.6553 13.1018 46.1369 13.5326C45.5756 9.7146 42.8272 11.5138 41.5773 10.1988C45.3453 9.88488 38.0172 3.0244 35.176 10.5599C35.1356 10.9045 34.7944 11.9652 34.4612 10.8368C34.1744 10.2152 34.0593 9.3248 34.5965 8.7319C38.8573 3.90042 30.164 6.66801 28.1912 6.74391C26.3192 6.29667 30.7678 20.192 23.9889 6.7193C18.9467 3.39368 27.1613 14.6425 19.3182 14.2855C19.8412 13.7911 19.0678 12.6463 18.2581 14.3655C18.2581 13.9716 18.3691 13.7029 18.5105 13.4464C18.1814 13.2638 18.044 13.4752 17.9067 14.3184C17.3534 15.4365 8.1877 15.9494 8.57339 18.758C10.5867 21.4722 5.44545 19.7592 11.146 25.1199C12.1678 25.8913 11.3136 26.5048 11.2773 27.9265C10.6048 28.2383 10.0495 28.4558 11.2793 30.3351C11.0753 30.3556 10.5564 30.6961 11.247 31.207C11.3661 31.0716 11.4853 30.9382 11.4752 30.6182C11.5923 30.77 11.7397 30.7228 11.7983 30.9895C11.6428 31.1947 11.4206 31.0962 11.247 31.207Z" fill="#2E3357"/>
<path d="M45.1407 31.8213C45.4219 31.2588 45.875 30.9775 46.5 30.9775C47.125 30.9775 47.5782 31.2588 47.8594 31.8213L50.9063 38.0088L57.75 39.04C58.375 39.1025 58.7813 39.4307 58.9688 40.0244C59.1563 40.6182 59.0313 41.1338 58.5938 41.5713L53.625 46.3994L54.7969 53.2432C54.8907 53.8369 54.6875 54.3057 54.1875 54.6494C53.6875 55.0244 53.1719 55.0713 52.6407 54.79L46.5 51.6025L40.3594 54.79C39.8282 55.1025 39.3125 55.0713 38.8125 54.6963C38.3125 54.3213 38.1094 53.8369 38.2032 53.2432L39.375 46.3994L34.4063 41.5713C33.9688 41.1338 33.8438 40.6182 34.0313 40.0244C34.2188 39.4307 34.625 39.1025 35.25 39.04L42.0938 38.0088L45.1407 31.8213Z" fill="white"/>
</svg>
