<svg width="92" height="85" viewBox="0 0 92 85" fill="none" xmlns="http://www.w3.org/2000/svg">
<path d="M80.7531 54.7481C83.5135 53.2894 87.2896 52.7724 89.7532 49.7894C86.8696 51.6543 83.5256 53.0535 80.1048 53.868C83.7679 50.6655 91.9805 52.0564 90.8012 43.1259C92.1542 43.9711 92.4631 40.744 91.2031 39.1089C88.7496 39.2115 90.6235 37.4122 88.6971 36.5936C90.0319 31.04 87.7157 37.9497 86.8999 30.6133C88.1377 28.2765 85.4177 28.2991 84.1536 27.8293C86.6858 25.8803 81.5668 26.1285 80.1654 25.7777C81.7748 24.8689 87.2149 24.237 81.8919 20.9668C82.6229 20.2795 82.52 18.8064 81.2296 17.6432C81.1892 15.887 80.9267 14.5638 79.2991 14.1514C79.2103 12.1183 76.7952 13.38 75.7552 13.5113C75.6199 13.103 75.7088 12.2106 74.893 11.9254C75.2201 11.2956 75.2665 10.6452 74.7758 9.93334C78.8953 6.85392 68.2574 9.55584 66.7652 8.35772C67.3164 6.52976 67.3164 6.52977 66.5753 5.37883C69.5337 1.81729 50.5924 5.74196 57.7751 5.75222C57.4702 6.60363 52.3088 6.28973 56.0385 8.92191C55.5236 9.33633 55.0228 9.57431 54.5179 9.79383C51.1295 8.94448 46.9737 11.5233 43.3551 12.5183C43.8337 11.2464 44.1285 9.15374 42.1697 8.50134C50.1158 -0.792332 38.4825 4.98699 35.2616 5.30498C33.6765 1.20592 39.0741 -0.90517 27.6589 3.18569C27.3236 4.86388 27.5579 4.28329 26.4614 5.80556C26.7825 7.00984 26.2857 8.14847 25.1468 7.67455C24.9812 6.80057 22.1138 0.727903 22.2168 5.12239C23.495 6.28358 23.1739 9.10451 20.3024 9.66253C20.3489 7.47965 17.6571 9.91283 15.4803 10.0647C17.2371 11.8434 17.7944 8.2408 19.7976 9.79179C16.8474 10.2042 14.3737 12.5348 10.8035 10.953C9.94935 12.385 4.34975 15.0705 7.93204 17.2903C8.04512 19.8568 12.0878 21.6253 9.6 25.0309C9.64443 25.2074 9.8504 25.6895 10.1715 26.1696C10.226 26.943 8.89122 26.6332 9.49702 27.8683C9.21027 28.5063 5.59971 29.208 6.49428 29.9999C7.60895 29.8932 9.28297 27.6795 10.7086 28.535C10.7409 28.6704 8.43283 29.2592 11.0681 28.9351C8.75795 31.4155 3.85501 31.6617 3.05334 34.7431C2.4536 35.373 -2.2999 38.237 1.39144 38.9222C-1.73045 42.851 3.08363 43.4624 5.37557 43.1136C1.99118 46.6669 3.83886 47.4199 5.25441 52.7581C3.37038 59.1385 7.31413 55.7698 10.0039 55.5523C5.84406 57.9178 4.99392 59.6021 11.3104 58.3261C10.8681 59.6514 7.48173 58.1681 8.2208 60.9275C7.33634 61.9512 7.823 63.6499 9.46067 64.8624C9.02046 65.7897 9.23047 67.6731 10.4461 67.6895C10.7369 68.2208 10.7954 68.2373 11.0539 67.8536C11.5971 68.5696 11.896 69.4087 13.0955 69.0415C12.6714 70.1473 12.9481 71.8624 14.301 69.7185C14.4545 70.4981 14.7877 70.254 15.0906 70.2314C15.45 73.479 16.8716 73.8073 18.6991 73.8565C18.7213 76.0928 21.5262 76.5482 21.1748 73.5878C27.4711 71.3023 22.9155 76.6631 28.6544 79.0778C27.6467 81.1027 28.2162 83.4128 30.599 83.3431C31.5945 90.2938 39.3447 72.8533 45.8631 72.4225C46.4245 76.2405 49.1728 74.4412 50.4227 75.7563C46.6547 76.0702 53.9828 82.9307 56.824 75.3952C56.8644 75.0506 57.2057 73.9899 57.5389 75.1183C57.8256 75.7399 57.9407 76.6303 57.4036 77.2232C53.1428 82.0547 61.836 79.2871 63.8089 79.2112C65.6808 79.6584 61.2322 65.763 68.0111 79.2358C73.0534 82.5614 64.8387 71.3126 72.6818 71.6695C72.1588 72.164 72.9322 73.3088 73.7419 71.5895C73.7419 71.9834 73.6309 72.2522 73.4895 72.5086C73.8187 72.6912 73.956 72.4799 74.0933 71.6367C74.6466 70.5186 83.8123 70.0057 83.4266 67.1971C81.4134 64.4829 86.5546 66.1959 80.854 60.8351C79.8322 60.0637 80.6864 59.4503 80.7228 58.0286C81.3952 57.7167 81.9505 57.4993 80.7207 55.62C80.9247 55.5995 81.4437 55.2589 80.7531 54.7481C80.6339 54.8835 80.5148 55.0169 80.5249 55.3369C80.4078 55.1851 80.2603 55.2323 80.2018 54.9656C80.3573 54.7604 80.5794 54.8589 80.7531 54.7481Z" fill="#2E3357"/>
<path d="M60.25 44.4775C60.4688 44.4775 60.6406 44.5557 60.7656 44.7119C60.9219 44.8369 61 45.0088 61 45.2275V46.7275C61 46.9463 60.9219 47.1338 60.7656 47.29C60.6406 47.415 60.4688 47.4775 60.25 47.4775H58C58 48.7275 57.5625 49.79 56.6875 50.665C55.8125 51.54 54.75 51.9775 53.5 51.9775C52.25 51.9775 51.1875 51.54 50.3125 50.665C49.4375 49.79 49 48.7275 49 47.4775H43C43 48.7275 42.5625 49.79 41.6875 50.665C40.8125 51.54 39.75 51.9775 38.5 51.9775C37.25 51.9775 36.1875 51.54 35.3125 50.665C34.4375 49.79 34 48.7275 34 47.4775H33.25C32.625 47.4775 32.0938 47.2588 31.6562 46.8213C31.2188 46.3838 31 45.8525 31 45.2275V30.2275C31 29.6025 31.2188 29.0713 31.6562 28.6338C32.0938 28.1963 32.625 27.9775 33.25 27.9775H48.25C48.875 27.9775 49.4062 28.1963 49.8438 28.6338C50.2812 29.0713 50.5 29.6025 50.5 30.2275V32.4775H52.5625C53.1875 32.4775 53.7188 32.6963 54.1562 33.1338L58.8438 37.8213C59.2812 38.2588 59.5 38.79 59.5 39.415V44.4775H60.25ZM36.9062 49.0713C37.3438 49.5088 37.875 49.7275 38.5 49.7275C39.125 49.7275 39.6562 49.5088 40.0938 49.0713C40.5312 48.6338 40.75 48.1025 40.75 47.4775C40.75 46.8525 40.5312 46.3213 40.0938 45.8838C39.6562 45.4463 39.125 45.2275 38.5 45.2275C37.875 45.2275 37.3438 45.4463 36.9062 45.8838C36.4688 46.3213 36.25 46.8525 36.25 47.4775C36.25 48.1025 36.4688 48.6338 36.9062 49.0713ZM51.9062 49.0713C52.3438 49.5088 52.875 49.7275 53.5 49.7275C54.125 49.7275 54.6562 49.5088 55.0938 49.0713C55.5312 48.6338 55.75 48.1025 55.75 47.4775C55.75 46.8525 55.5312 46.3213 55.0938 45.8838C54.6562 45.4463 54.125 45.2275 53.5 45.2275C52.875 45.2275 52.3438 45.4463 51.9062 45.8838C51.4688 46.3213 51.25 46.8525 51.25 47.4775C51.25 48.1025 51.4688 48.6338 51.9062 49.0713ZM57.25 39.9775V39.415L52.5625 34.7275H50.5V39.9775H57.25Z" fill="white"/>
</svg>
