<svg width="27" height="22" viewBox="0 0 27 22" fill="none" xmlns="http://www.w3.org/2000/svg">
<path d="M0 19.2275V10.9775H27V19.2275C27 19.8525 26.7812 20.3838 26.3438 20.8213C25.9062 21.2588 25.375 21.4775 24.75 21.4775H2.25C1.625 21.4775 1.09375 21.2588 0.65625 20.8213C0.21875 20.3838 0 19.8525 0 19.2275ZM9 16.04V17.915C9 18.29 9.1875 18.4775 9.5625 18.4775H15.9375C16.3125 18.4775 16.5 18.29 16.5 17.915V16.04C16.5 15.665 16.3125 15.4775 15.9375 15.4775H9.5625C9.1875 15.4775 9 15.665 9 16.04ZM3 16.04V17.915C3 18.29 3.1875 18.4775 3.5625 18.4775H6.9375C7.3125 18.4775 7.5 18.29 7.5 17.915V16.04C7.5 15.665 7.3125 15.4775 6.9375 15.4775H3.5625C3.1875 15.4775 3 15.665 3 16.04ZM27 2.72754V4.97754H0V2.72754C0 2.10254 0.21875 1.57129 0.65625 1.13379C1.09375 0.696289 1.625 0.477539 2.25 0.477539H24.75C25.375 0.477539 25.9062 0.696289 26.3438 1.13379C26.7812 1.57129 27 2.10254 27 2.72754Z" fill="white"/>
</svg>
