<svg width="92" height="85" viewBox="0 0 92 85" fill="none" xmlns="http://www.w3.org/2000/svg">
<path d="M11.2469 54.7481C8.48652 53.2894 4.71038 52.7724 2.24681 49.7894C5.1304 51.6543 8.47441 53.0535 11.8952 53.868C8.23209 50.6655 0.0194807 52.0564 1.19877 43.1259C-0.154179 43.9711 -0.463139 40.744 0.796925 39.1089C3.25041 39.2115 1.37648 37.4122 3.30291 36.5936C1.96814 31.04 4.28431 37.9497 5.10012 30.6133C3.86227 28.2765 6.5823 28.2991 7.8464 27.8293C5.31417 25.8803 10.4332 26.1285 11.8346 25.7777C10.2252 24.8689 4.7851 24.237 10.1081 20.9668C9.37706 20.2795 9.48004 18.8064 10.7704 17.6432C10.8108 15.887 11.0733 14.5638 12.7009 14.1514C12.7897 12.1183 15.2048 13.38 16.2448 13.5113C16.3801 13.103 16.2912 12.2106 17.107 11.9254C16.7799 11.2956 16.7335 10.6452 17.2242 9.93334C13.1047 6.85392 23.7426 9.55584 25.2348 8.35772C24.6836 6.52976 24.6836 6.52977 25.4247 5.37883C22.4663 1.81729 41.4076 5.74196 34.2249 5.75222C34.5298 6.60363 39.6912 6.28973 35.9615 8.92191C36.4764 9.33633 36.9772 9.57431 37.4821 9.79383C40.8705 8.94448 45.0263 11.5233 48.6449 12.5183C48.1663 11.2464 47.8715 9.15374 49.8303 8.50134C41.8842 -0.792332 53.5175 4.98699 56.7384 5.30498C58.3235 1.20592 52.9259 -0.90517 64.3411 3.18569C64.6764 4.86388 64.4421 4.28329 65.5386 5.80556C65.2175 7.00984 65.7143 8.14847 66.8532 7.67455C67.0188 6.80057 69.8862 0.727903 69.7832 5.12239C68.505 6.28358 68.8261 9.10451 71.6976 9.66253C71.6511 7.47965 74.3429 9.91283 76.5197 10.0647C74.7629 11.8434 74.2056 8.2408 72.2024 9.79179C75.1526 10.2042 77.6263 12.5348 81.1965 10.953C82.0507 12.385 87.6503 15.0705 84.068 17.2903C83.9549 19.8568 79.9122 21.6253 82.4 25.0309C82.3556 25.2074 82.1496 25.6895 81.8285 26.1696C81.774 26.943 83.1088 26.6332 82.503 27.8683C82.7897 28.5063 86.4003 29.208 85.5057 29.9999C84.3911 29.8932 82.717 27.6795 81.2914 28.535C81.2591 28.6704 83.5672 29.2592 80.9319 28.9351C83.2421 31.4155 88.145 31.6617 88.9467 34.7431C89.5464 35.373 94.2999 38.237 90.6086 38.9222C93.7304 42.851 88.9164 43.4624 86.6244 43.1136C90.0088 46.6669 88.1611 47.4199 86.7456 52.7581C88.6296 59.1385 84.6859 55.7698 81.9961 55.5523C86.1559 57.9178 87.0061 59.6021 80.6896 58.3261C81.1319 59.6514 84.5183 58.1681 83.7792 60.9275C84.6637 61.9512 84.177 63.6499 82.5393 64.8624C82.9795 65.7897 82.7695 67.6731 81.5539 67.6895C81.2631 68.2208 81.2046 68.2373 80.9461 67.8536C80.4029 68.5696 80.104 69.4087 78.9045 69.0415C79.3286 70.1473 79.0519 71.8624 77.699 69.7185C77.5455 70.4981 77.2123 70.254 76.9094 70.2314C76.55 73.479 75.1284 73.8073 73.3009 73.8565C73.2787 76.0928 70.4738 76.5482 70.8252 73.5878C64.5289 71.3023 69.0845 76.6631 63.3456 79.0778C64.3533 81.1027 63.7838 83.4128 61.401 83.3431C60.4055 90.2938 52.6553 72.8533 46.1369 72.4225C45.5755 76.2405 42.8272 74.4412 41.5773 75.7563C45.3453 76.0702 38.0172 82.9307 35.176 75.3952C35.1356 75.0506 34.7943 73.9899 34.4611 75.1183C34.1744 75.7399 34.0593 76.6303 34.5964 77.2232C38.8572 82.0547 30.164 79.2871 28.1911 79.2112C26.3192 79.6584 30.7678 65.763 23.9889 79.2358C18.9466 82.5614 27.1613 71.3126 19.3182 71.6695C19.8412 72.164 19.0678 73.3088 18.2581 71.5895C18.2581 71.9834 18.3691 72.2522 18.5105 72.5086C18.1813 72.6912 18.044 72.4799 17.9067 71.6367C17.3534 70.5186 8.18767 70.0057 8.57336 67.1971C10.5866 64.4829 5.44542 66.1959 11.146 60.8351C12.1678 60.0637 11.3136 59.4503 11.2772 58.0286C10.6048 57.7167 10.0495 57.4993 11.2793 55.62C11.0753 55.5995 10.5563 55.2589 11.2469 54.7481C11.3661 54.8835 11.4852 55.0169 11.4751 55.3369C11.5922 55.1851 11.7397 55.2323 11.7982 54.9656C11.6427 54.7604 11.4206 54.8589 11.2469 54.7481Z" fill="#2E3357"/>
<path d="M37.5625 32.3369C39.9062 30.4307 42.7344 29.4775 46.0469 29.4775C49.3594 29.4775 52.1875 30.4307 54.5312 32.3369C56.875 34.2432 58.0469 36.54 58.0469 39.2275C58.0469 41.915 56.875 44.2119 54.5312 46.1182C52.1875 48.0244 49.3594 48.9775 46.0469 48.9775C44.2969 48.9775 42.625 48.6807 41.0312 48.0869C39 49.6807 36.7969 50.4775 34.4219 50.4775C34.3594 50.4775 34.2969 50.4463 34.2344 50.3838C34.1719 50.3525 34.125 50.3057 34.0938 50.2432C34.0312 50.0869 34.0469 49.9463 34.1406 49.8213C34.2656 49.7275 34.4531 49.5088 34.7031 49.165C34.9844 48.8525 35.3438 48.3213 35.7812 47.5713C36.2188 46.79 36.5312 46.0557 36.7188 45.3682C34.9375 43.5869 34.0469 41.54 34.0469 39.2275C34.0469 36.54 35.2188 34.2432 37.5625 32.3369ZM38.9688 40.3057C39.2812 40.5869 39.6406 40.7275 40.0469 40.7275C40.4531 40.7275 40.7969 40.5869 41.0781 40.3057C41.3906 39.9932 41.5469 39.6338 41.5469 39.2275C41.5469 38.8213 41.3906 38.4775 41.0781 38.1963C40.7969 37.8838 40.4531 37.7275 40.0469 37.7275C39.6406 37.7275 39.2812 37.8838 38.9688 38.1963C38.6875 38.4775 38.5469 38.8213 38.5469 39.2275C38.5469 39.6338 38.6875 39.9932 38.9688 40.3057ZM44.9688 40.3057C45.2812 40.5869 45.6406 40.7275 46.0469 40.7275C46.4531 40.7275 46.7969 40.5869 47.0781 40.3057C47.3906 39.9932 47.5469 39.6338 47.5469 39.2275C47.5469 38.8213 47.3906 38.4775 47.0781 38.1963C46.7969 37.8838 46.4531 37.7275 46.0469 37.7275C45.6406 37.7275 45.2812 37.8838 44.9688 38.1963C44.6875 38.4775 44.5469 38.8213 44.5469 39.2275C44.5469 39.6338 44.6875 39.9932 44.9688 40.3057ZM50.9688 40.3057C51.2812 40.5869 51.6406 40.7275 52.0469 40.7275C52.4531 40.7275 52.7969 40.5869 53.0781 40.3057C53.3906 39.9932 53.5469 39.6338 53.5469 39.2275C53.5469 38.8213 53.3906 38.4775 53.0781 38.1963C52.7969 37.8838 52.4531 37.7275 52.0469 37.7275C51.6406 37.7275 51.2812 37.8838 50.9688 38.1963C50.6875 38.4775 50.5469 38.8213 50.5469 39.2275C50.5469 39.6338 50.6875 39.9932 50.9688 40.3057Z" fill="white"/>
</svg>
