<svg width="92" height="85" viewBox="0 0 92 85" fill="none" xmlns="http://www.w3.org/2000/svg">
<path d="M80.7531 31.207C83.5135 32.6657 87.2896 33.1827 89.7532 36.1657C86.8696 34.3008 83.5256 32.9016 80.1049 32.0871C83.7679 35.2896 91.9805 33.8987 90.8012 42.8292C92.1542 41.9839 92.4631 45.2111 91.2031 46.8462C88.7496 46.7436 90.6235 48.5429 88.6971 49.3614C90.0319 54.9151 87.7157 48.0053 86.8999 55.3418C88.1377 57.6785 85.4177 57.656 84.1536 58.1258C86.6858 60.0748 81.5668 59.8266 80.1654 60.1774C81.7748 61.0862 87.2149 61.7181 81.892 64.9883C82.6229 65.6756 82.52 67.1486 81.2296 68.3119C81.1892 70.068 80.9267 71.3913 79.2991 71.8037C79.2103 73.8368 76.7952 72.5751 75.7552 72.4438C75.6199 72.852 75.7088 73.7445 74.893 74.0296C75.2201 74.6595 75.2665 75.3098 74.7758 76.0217C78.8953 79.1012 68.2575 76.3992 66.7652 77.5974C67.3164 79.4253 67.3164 79.4253 66.5753 80.5762C69.5337 84.1378 50.5924 80.2131 57.7751 80.2029C57.4702 79.3514 52.3088 79.6653 56.0385 77.0332C55.5236 76.6187 55.0228 76.3808 54.5179 76.1612C51.1295 77.0106 46.9737 74.4318 43.3551 73.4367C43.8337 74.7087 44.1285 76.8013 42.1698 77.4537C50.1158 86.7474 38.4825 80.9681 35.2616 80.6501C33.6765 84.7492 39.0741 86.8602 27.6589 82.7694C27.3237 81.0912 27.5579 81.6718 26.4614 80.1495C26.7825 78.9452 26.2857 77.8066 25.1468 78.2805C24.9812 79.1545 22.1138 85.2272 22.2168 80.8327C23.495 79.6715 23.1739 76.8506 20.3024 76.2925C20.3489 78.4754 17.6571 76.0422 15.4803 75.8904C17.2371 74.1117 17.7944 77.7143 19.7976 76.1633C16.8474 75.7509 14.3737 73.4203 10.8035 75.0021C9.94935 73.5701 4.34976 70.8846 7.93204 68.6648C8.04513 66.0982 12.0878 64.3298 9.60001 60.9241C9.64444 60.7477 9.85041 60.2656 10.1715 59.7855C10.226 59.0121 8.89123 59.3219 9.49703 58.0868C9.21028 57.4488 5.59972 56.7471 6.49428 55.9552C7.60895 56.0619 9.28298 58.2755 10.7086 57.42C10.7409 57.2846 8.43284 56.6958 11.0681 57.02C8.75795 54.5396 3.85502 54.2934 3.05335 51.2119C2.45361 50.5821 -2.29989 47.7181 1.39144 47.0329C-1.73044 43.1041 3.08364 42.4927 5.37558 42.8415C1.99118 39.2882 3.83887 38.5352 5.25442 33.197C3.37039 26.8166 7.31413 30.1853 10.0039 30.4028C5.84406 28.0373 4.99393 26.3529 11.3104 27.629C10.8682 26.3037 7.48174 27.787 8.22081 25.0276C7.33635 24.0039 7.823 22.3052 9.46068 21.0927C9.02047 20.1654 9.23048 18.282 10.4461 18.2656C10.7369 17.7342 10.7955 17.7178 11.0539 18.1015C11.5971 17.3855 11.896 16.5464 13.0955 16.9136C12.6714 15.8078 12.9481 14.0927 14.301 16.2366C14.4545 15.457 14.7877 15.7011 15.0906 15.7237C15.45 12.476 16.8716 12.1478 18.6991 12.0985C18.7213 9.86232 21.5262 9.40686 21.1748 12.3673C27.4711 14.6528 22.9155 9.29198 28.6544 6.87726C27.6468 4.85235 28.2162 2.54227 30.599 2.61203C31.5945 -4.33873 39.3447 13.1018 45.8631 13.5326C46.4245 9.7146 49.1728 11.5138 50.4228 10.1988C46.6547 9.88488 53.9828 3.0244 56.824 10.5599C56.8644 10.9045 57.2057 11.9652 57.5389 10.8368C57.8256 10.2152 57.9407 9.3248 57.4036 8.7319C53.1428 3.90042 61.836 6.66801 63.8089 6.74391C65.6808 6.29667 61.2322 20.192 68.0111 6.7193C73.0534 3.39368 64.8387 14.6425 72.6818 14.2855C72.1588 13.7911 72.9322 12.6463 73.742 14.3655C73.742 13.9716 73.6309 13.7029 73.4895 13.4464C73.8187 13.2638 73.956 13.4752 74.0933 14.3184C74.6466 15.4365 83.8123 15.9494 83.4266 18.758C81.4134 21.4722 86.5546 19.7592 80.854 25.1199C79.8322 25.8913 80.6864 26.5048 80.7228 27.9265C81.3952 28.2383 81.9505 28.4558 80.7208 30.3351C80.9247 30.3556 81.4437 30.6961 80.7531 31.207C80.6339 31.0716 80.5148 30.9382 80.5249 30.6182C80.4078 30.77 80.2603 30.7228 80.2018 30.9895C80.3573 31.1947 80.5794 31.0962 80.7531 31.207Z" fill="#2E3357"/>
<path d="M34 51.2275V42.9775H61V51.2275C61 51.8525 60.7812 52.3838 60.3438 52.8213C59.9062 53.2588 59.375 53.4775 58.75 53.4775H36.25C35.625 53.4775 35.0938 53.2588 34.6562 52.8213C34.2188 52.3838 34 51.8525 34 51.2275ZM43 48.04V49.915C43 50.29 43.1875 50.4775 43.5625 50.4775H49.9375C50.3125 50.4775 50.5 50.29 50.5 49.915V48.04C50.5 47.665 50.3125 47.4775 49.9375 47.4775H43.5625C43.1875 47.4775 43 47.665 43 48.04ZM37 48.04V49.915C37 50.29 37.1875 50.4775 37.5625 50.4775H40.9375C41.3125 50.4775 41.5 50.29 41.5 49.915V48.04C41.5 47.665 41.3125 47.4775 40.9375 47.4775H37.5625C37.1875 47.4775 37 47.665 37 48.04ZM61 34.7275V36.9775H34V34.7275C34 34.1025 34.2188 33.5713 34.6562 33.1338C35.0938 32.6963 35.625 32.4775 36.25 32.4775H58.75C59.375 32.4775 59.9062 32.6963 60.3438 33.1338C60.7812 33.5713 61 34.1025 61 34.7275Z" fill="white"/>
</svg>
